<?xml version="1.0" encoding="utf-8" standalone="no"?>
<!DOCTYPE svg PUBLIC "-//W3C//DTD SVG 1.1//EN"
  "http://www.w3.org/Graphics/SVG/1.1/DTD/svg11.dtd">
<svg xmlns:xlink="http://www.w3.org/1999/xlink" width="232.340625pt" height="214.875469pt" viewBox="0 0 232.340625 214.875469" xmlns="http://www.w3.org/2000/svg" version="1.1">
 <metadata>
  <rdf:RDF xmlns:dc="http://purl.org/dc/elements/1.1/" xmlns:cc="http://creativecommons.org/ns#" xmlns:rdf="http://www.w3.org/1999/02/22-rdf-syntax-ns#">
   <cc:Work>
    <dc:type rdf:resource="http://purl.org/dc/dcmitype/StillImage"/>
    <dc:date>2025-04-08T09:11:13.649822</dc:date>
    <dc:format>image/svg+xml</dc:format>
    <dc:creator>
     <cc:Agent>
      <dc:title>Matplotlib v3.6.3, https://matplotlib.org/</dc:title>
     </cc:Agent>
    </dc:creator>
   </cc:Work>
  </rdf:RDF>
 </metadata>
 <defs>
  <style type="text/css">*{stroke-linejoin: round; stroke-linecap: butt}</style>
 </defs>
 <g id="figure_1">
  <g id="patch_1">
   <path d="M 0 214.875469 
L 232.340625 214.875469 
L 232.340625 0 
L 0 0 
z
" style="fill: #ffffff"/>
  </g>
  <g id="axes_1">
   <g id="patch_2">
    <path d="M 51.378125 177.319219 
L 218.778125 177.319219 
L 218.778125 10.999219 
L 51.378125 10.999219 
z
" style="fill: #ffffff"/>
   </g>
   <g id="matplotlib.axis_1">
    <g id="xtick_1">
     <g id="line2d_1">
      <defs>
       <path id="m136eb953b1" d="M 0 0 
L 0 3.5 
" style="stroke: #000000; stroke-width: 0.8"/>
      </defs>
      <g>
       <use xlink:href="#m136eb953b1" x="51.378125" y="177.319219" style="stroke: #000000; stroke-width: 0.8"/>
      </g>
     </g>
     <g id="text_1">
      <!-- 0 -->
      <g transform="translate(48.196875 191.917656) scale(0.1 -0.1)">
       <defs>
        <path id="DejaVuSans-30" d="M 2034 4250 
Q 1547 4250 1301 3770 
Q 1056 3291 1056 2328 
Q 1056 1369 1301 889 
Q 1547 409 2034 409 
Q 2525 409 2770 889 
Q 3016 1369 3016 2328 
Q 3016 3291 2770 3770 
Q 2525 4250 2034 4250 
z
M 2034 4750 
Q 2819 4750 3233 4129 
Q 3647 3509 3647 2328 
Q 3647 1150 3233 529 
Q 2819 -91 2034 -91 
Q 1250 -91 836 529 
Q 422 1150 422 2328 
Q 422 3509 836 4129 
Q 1250 4750 2034 4750 
z
" transform="scale(0.015625)"/>
       </defs>
       <use xlink:href="#DejaVuSans-30"/>
      </g>
     </g>
    </g>
    <g id="xtick_2">
     <g id="line2d_2">
      <g>
       <use xlink:href="#m136eb953b1" x="107.178125" y="177.319219" style="stroke: #000000; stroke-width: 0.8"/>
      </g>
     </g>
     <g id="text_2">
      <!-- 10 -->
      <g transform="translate(100.815625 191.917656) scale(0.1 -0.1)">
       <defs>
        <path id="DejaVuSans-31" d="M 794 531 
L 1825 531 
L 1825 4091 
L 703 3866 
L 703 4441 
L 1819 4666 
L 2450 4666 
L 2450 531 
L 3481 531 
L 3481 0 
L 794 0 
L 794 531 
z
" transform="scale(0.015625)"/>
       </defs>
       <use xlink:href="#DejaVuSans-31"/>
       <use xlink:href="#DejaVuSans-30" x="63.623047"/>
      </g>
     </g>
    </g>
    <g id="xtick_3">
     <g id="line2d_3">
      <g>
       <use xlink:href="#m136eb953b1" x="162.978125" y="177.319219" style="stroke: #000000; stroke-width: 0.8"/>
      </g>
     </g>
     <g id="text_3">
      <!-- 20 -->
      <g transform="translate(156.615625 191.917656) scale(0.1 -0.1)">
       <defs>
        <path id="DejaVuSans-32" d="M 1228 531 
L 3431 531 
L 3431 0 
L 469 0 
L 469 531 
Q 828 903 1448 1529 
Q 2069 2156 2228 2338 
Q 2531 2678 2651 2914 
Q 2772 3150 2772 3378 
Q 2772 3750 2511 3984 
Q 2250 4219 1831 4219 
Q 1534 4219 1204 4116 
Q 875 4013 500 3803 
L 500 4441 
Q 881 4594 1212 4672 
Q 1544 4750 1819 4750 
Q 2544 4750 2975 4387 
Q 3406 4025 3406 3419 
Q 3406 3131 3298 2873 
Q 3191 2616 2906 2266 
Q 2828 2175 2409 1742 
Q 1991 1309 1228 531 
z
" transform="scale(0.015625)"/>
       </defs>
       <use xlink:href="#DejaVuSans-32"/>
       <use xlink:href="#DejaVuSans-30" x="63.623047"/>
      </g>
     </g>
    </g>
    <g id="xtick_4">
     <g id="line2d_4">
      <g>
       <use xlink:href="#m136eb953b1" x="218.778125" y="177.319219" style="stroke: #000000; stroke-width: 0.8"/>
      </g>
     </g>
     <g id="text_4">
      <!-- 30 -->
      <g transform="translate(212.415625 191.917656) scale(0.1 -0.1)">
       <defs>
        <path id="DejaVuSans-33" d="M 2597 2516 
Q 3050 2419 3304 2112 
Q 3559 1806 3559 1356 
Q 3559 666 3084 287 
Q 2609 -91 1734 -91 
Q 1441 -91 1130 -33 
Q 819 25 488 141 
L 488 750 
Q 750 597 1062 519 
Q 1375 441 1716 441 
Q 2309 441 2620 675 
Q 2931 909 2931 1356 
Q 2931 1769 2642 2001 
Q 2353 2234 1838 2234 
L 1294 2234 
L 1294 2753 
L 1863 2753 
Q 2328 2753 2575 2939 
Q 2822 3125 2822 3475 
Q 2822 3834 2567 4026 
Q 2313 4219 1838 4219 
Q 1578 4219 1281 4162 
Q 984 4106 628 3988 
L 628 4550 
Q 988 4650 1302 4700 
Q 1616 4750 1894 4750 
Q 2613 4750 3031 4423 
Q 3450 4097 3450 3541 
Q 3450 3153 3228 2886 
Q 3006 2619 2597 2516 
z
" transform="scale(0.015625)"/>
       </defs>
       <use xlink:href="#DejaVuSans-33"/>
       <use xlink:href="#DejaVuSans-30" x="63.623047"/>
      </g>
     </g>
    </g>
    <g id="text_5">
     <!-- Exceedence Probability -->
     <g transform="translate(76.88125 205.595781) scale(0.1 -0.1)">
      <defs>
       <path id="DejaVuSans-45" d="M 628 4666 
L 3578 4666 
L 3578 4134 
L 1259 4134 
L 1259 2753 
L 3481 2753 
L 3481 2222 
L 1259 2222 
L 1259 531 
L 3634 531 
L 3634 0 
L 628 0 
L 628 4666 
z
" transform="scale(0.015625)"/>
       <path id="DejaVuSans-78" d="M 3513 3500 
L 2247 1797 
L 3578 0 
L 2900 0 
L 1881 1375 
L 863 0 
L 184 0 
L 1544 1831 
L 300 3500 
L 978 3500 
L 1906 2253 
L 2834 3500 
L 3513 3500 
z
" transform="scale(0.015625)"/>
       <path id="DejaVuSans-63" d="M 3122 3366 
L 3122 2828 
Q 2878 2963 2633 3030 
Q 2388 3097 2138 3097 
Q 1578 3097 1268 2742 
Q 959 2388 959 1747 
Q 959 1106 1268 751 
Q 1578 397 2138 397 
Q 2388 397 2633 464 
Q 2878 531 3122 666 
L 3122 134 
Q 2881 22 2623 -34 
Q 2366 -91 2075 -91 
Q 1284 -91 818 406 
Q 353 903 353 1747 
Q 353 2603 823 3093 
Q 1294 3584 2113 3584 
Q 2378 3584 2631 3529 
Q 2884 3475 3122 3366 
z
" transform="scale(0.015625)"/>
       <path id="DejaVuSans-65" d="M 3597 1894 
L 3597 1613 
L 953 1613 
Q 991 1019 1311 708 
Q 1631 397 2203 397 
Q 2534 397 2845 478 
Q 3156 559 3463 722 
L 3463 178 
Q 3153 47 2828 -22 
Q 2503 -91 2169 -91 
Q 1331 -91 842 396 
Q 353 884 353 1716 
Q 353 2575 817 3079 
Q 1281 3584 2069 3584 
Q 2775 3584 3186 3129 
Q 3597 2675 3597 1894 
z
M 3022 2063 
Q 3016 2534 2758 2815 
Q 2500 3097 2075 3097 
Q 1594 3097 1305 2825 
Q 1016 2553 972 2059 
L 3022 2063 
z
" transform="scale(0.015625)"/>
       <path id="DejaVuSans-64" d="M 2906 2969 
L 2906 4863 
L 3481 4863 
L 3481 0 
L 2906 0 
L 2906 525 
Q 2725 213 2448 61 
Q 2172 -91 1784 -91 
Q 1150 -91 751 415 
Q 353 922 353 1747 
Q 353 2572 751 3078 
Q 1150 3584 1784 3584 
Q 2172 3584 2448 3432 
Q 2725 3281 2906 2969 
z
M 947 1747 
Q 947 1113 1208 752 
Q 1469 391 1925 391 
Q 2381 391 2643 752 
Q 2906 1113 2906 1747 
Q 2906 2381 2643 2742 
Q 2381 3103 1925 3103 
Q 1469 3103 1208 2742 
Q 947 2381 947 1747 
z
" transform="scale(0.015625)"/>
       <path id="DejaVuSans-6e" d="M 3513 2113 
L 3513 0 
L 2938 0 
L 2938 2094 
Q 2938 2591 2744 2837 
Q 2550 3084 2163 3084 
Q 1697 3084 1428 2787 
Q 1159 2491 1159 1978 
L 1159 0 
L 581 0 
L 581 3500 
L 1159 3500 
L 1159 2956 
Q 1366 3272 1645 3428 
Q 1925 3584 2291 3584 
Q 2894 3584 3203 3211 
Q 3513 2838 3513 2113 
z
" transform="scale(0.015625)"/>
       <path id="DejaVuSans-20" transform="scale(0.015625)"/>
       <path id="DejaVuSans-50" d="M 1259 4147 
L 1259 2394 
L 2053 2394 
Q 2494 2394 2734 2622 
Q 2975 2850 2975 3272 
Q 2975 3691 2734 3919 
Q 2494 4147 2053 4147 
L 1259 4147 
z
M 628 4666 
L 2053 4666 
Q 2838 4666 3239 4311 
Q 3641 3956 3641 3272 
Q 3641 2581 3239 2228 
Q 2838 1875 2053 1875 
L 1259 1875 
L 1259 0 
L 628 0 
L 628 4666 
z
" transform="scale(0.015625)"/>
       <path id="DejaVuSans-72" d="M 2631 2963 
Q 2534 3019 2420 3045 
Q 2306 3072 2169 3072 
Q 1681 3072 1420 2755 
Q 1159 2438 1159 1844 
L 1159 0 
L 581 0 
L 581 3500 
L 1159 3500 
L 1159 2956 
Q 1341 3275 1631 3429 
Q 1922 3584 2338 3584 
Q 2397 3584 2469 3576 
Q 2541 3569 2628 3553 
L 2631 2963 
z
" transform="scale(0.015625)"/>
       <path id="DejaVuSans-6f" d="M 1959 3097 
Q 1497 3097 1228 2736 
Q 959 2375 959 1747 
Q 959 1119 1226 758 
Q 1494 397 1959 397 
Q 2419 397 2687 759 
Q 2956 1122 2956 1747 
Q 2956 2369 2687 2733 
Q 2419 3097 1959 3097 
z
M 1959 3584 
Q 2709 3584 3137 3096 
Q 3566 2609 3566 1747 
Q 3566 888 3137 398 
Q 2709 -91 1959 -91 
Q 1206 -91 779 398 
Q 353 888 353 1747 
Q 353 2609 779 3096 
Q 1206 3584 1959 3584 
z
" transform="scale(0.015625)"/>
       <path id="DejaVuSans-62" d="M 3116 1747 
Q 3116 2381 2855 2742 
Q 2594 3103 2138 3103 
Q 1681 3103 1420 2742 
Q 1159 2381 1159 1747 
Q 1159 1113 1420 752 
Q 1681 391 2138 391 
Q 2594 391 2855 752 
Q 3116 1113 3116 1747 
z
M 1159 2969 
Q 1341 3281 1617 3432 
Q 1894 3584 2278 3584 
Q 2916 3584 3314 3078 
Q 3713 2572 3713 1747 
Q 3713 922 3314 415 
Q 2916 -91 2278 -91 
Q 1894 -91 1617 61 
Q 1341 213 1159 525 
L 1159 0 
L 581 0 
L 581 4863 
L 1159 4863 
L 1159 2969 
z
" transform="scale(0.015625)"/>
       <path id="DejaVuSans-61" d="M 2194 1759 
Q 1497 1759 1228 1600 
Q 959 1441 959 1056 
Q 959 750 1161 570 
Q 1363 391 1709 391 
Q 2188 391 2477 730 
Q 2766 1069 2766 1631 
L 2766 1759 
L 2194 1759 
z
M 3341 1997 
L 3341 0 
L 2766 0 
L 2766 531 
Q 2569 213 2275 61 
Q 1981 -91 1556 -91 
Q 1019 -91 701 211 
Q 384 513 384 1019 
Q 384 1609 779 1909 
Q 1175 2209 1959 2209 
L 2766 2209 
L 2766 2266 
Q 2766 2663 2505 2880 
Q 2244 3097 1772 3097 
Q 1472 3097 1187 3025 
Q 903 2953 641 2809 
L 641 3341 
Q 956 3463 1253 3523 
Q 1550 3584 1831 3584 
Q 2591 3584 2966 3190 
Q 3341 2797 3341 1997 
z
" transform="scale(0.015625)"/>
       <path id="DejaVuSans-69" d="M 603 3500 
L 1178 3500 
L 1178 0 
L 603 0 
L 603 3500 
z
M 603 4863 
L 1178 4863 
L 1178 4134 
L 603 4134 
L 603 4863 
z
" transform="scale(0.015625)"/>
       <path id="DejaVuSans-6c" d="M 603 4863 
L 1178 4863 
L 1178 0 
L 603 0 
L 603 4863 
z
" transform="scale(0.015625)"/>
       <path id="DejaVuSans-74" d="M 1172 4494 
L 1172 3500 
L 2356 3500 
L 2356 3053 
L 1172 3053 
L 1172 1153 
Q 1172 725 1289 603 
Q 1406 481 1766 481 
L 2356 481 
L 2356 0 
L 1766 0 
Q 1100 0 847 248 
Q 594 497 594 1153 
L 594 3053 
L 172 3053 
L 172 3500 
L 594 3500 
L 594 4494 
L 1172 4494 
z
" transform="scale(0.015625)"/>
       <path id="DejaVuSans-79" d="M 2059 -325 
Q 1816 -950 1584 -1140 
Q 1353 -1331 966 -1331 
L 506 -1331 
L 506 -850 
L 844 -850 
Q 1081 -850 1212 -737 
Q 1344 -625 1503 -206 
L 1606 56 
L 191 3500 
L 800 3500 
L 1894 763 
L 2988 3500 
L 3597 3500 
L 2059 -325 
z
" transform="scale(0.015625)"/>
      </defs>
      <use xlink:href="#DejaVuSans-45"/>
      <use xlink:href="#DejaVuSans-78" x="63.183594"/>
      <use xlink:href="#DejaVuSans-63" x="120.613281"/>
      <use xlink:href="#DejaVuSans-65" x="175.59375"/>
      <use xlink:href="#DejaVuSans-65" x="237.117188"/>
      <use xlink:href="#DejaVuSans-64" x="298.640625"/>
      <use xlink:href="#DejaVuSans-65" x="362.117188"/>
      <use xlink:href="#DejaVuSans-6e" x="423.640625"/>
      <use xlink:href="#DejaVuSans-63" x="487.019531"/>
      <use xlink:href="#DejaVuSans-65" x="542"/>
      <use xlink:href="#DejaVuSans-20" x="603.523438"/>
      <use xlink:href="#DejaVuSans-50" x="635.310547"/>
      <use xlink:href="#DejaVuSans-72" x="693.863281"/>
      <use xlink:href="#DejaVuSans-6f" x="732.726562"/>
      <use xlink:href="#DejaVuSans-62" x="793.908203"/>
      <use xlink:href="#DejaVuSans-61" x="857.384766"/>
      <use xlink:href="#DejaVuSans-62" x="918.664062"/>
      <use xlink:href="#DejaVuSans-69" x="982.140625"/>
      <use xlink:href="#DejaVuSans-6c" x="1009.923828"/>
      <use xlink:href="#DejaVuSans-69" x="1037.707031"/>
      <use xlink:href="#DejaVuSans-74" x="1065.490234"/>
      <use xlink:href="#DejaVuSans-79" x="1104.699219"/>
     </g>
    </g>
   </g>
   <g id="matplotlib.axis_2">
    <g id="ytick_1">
     <g id="line2d_5">
      <defs>
       <path id="m8080908aab" d="M 0 0 
L -3.5 0 
" style="stroke: #000000; stroke-width: 0.8"/>
      </defs>
      <g>
       <use xlink:href="#m8080908aab" x="51.378125" y="177.319219" style="stroke: #000000; stroke-width: 0.8"/>
      </g>
     </g>
     <g id="text_6">
      <!-- $\mathdefault{10^{-7}}$ -->
      <g transform="translate(20.878125 181.118438) scale(0.1 -0.1)">
       <defs>
        <path id="DejaVuSans-2212" d="M 678 2272 
L 4684 2272 
L 4684 1741 
L 678 1741 
L 678 2272 
z
" transform="scale(0.015625)"/>
        <path id="DejaVuSans-37" d="M 525 4666 
L 3525 4666 
L 3525 4397 
L 1831 0 
L 1172 0 
L 2766 4134 
L 525 4134 
L 525 4666 
z
" transform="scale(0.015625)"/>
       </defs>
       <use xlink:href="#DejaVuSans-31" transform="translate(0 0.684375)"/>
       <use xlink:href="#DejaVuSans-30" transform="translate(63.623047 0.684375)"/>
       <use xlink:href="#DejaVuSans-2212" transform="translate(128.203125 38.965625) scale(0.7)"/>
       <use xlink:href="#DejaVuSans-37" transform="translate(186.855469 38.965625) scale(0.7)"/>
      </g>
     </g>
    </g>
    <g id="ytick_2">
     <g id="line2d_6">
      <g>
       <use xlink:href="#m8080908aab" x="51.378125" y="144.055219" style="stroke: #000000; stroke-width: 0.8"/>
      </g>
     </g>
     <g id="text_7">
      <!-- $\mathdefault{10^{-6}}$ -->
      <g transform="translate(20.878125 147.854438) scale(0.1 -0.1)">
       <defs>
        <path id="DejaVuSans-36" d="M 2113 2584 
Q 1688 2584 1439 2293 
Q 1191 2003 1191 1497 
Q 1191 994 1439 701 
Q 1688 409 2113 409 
Q 2538 409 2786 701 
Q 3034 994 3034 1497 
Q 3034 2003 2786 2293 
Q 2538 2584 2113 2584 
z
M 3366 4563 
L 3366 3988 
Q 3128 4100 2886 4159 
Q 2644 4219 2406 4219 
Q 1781 4219 1451 3797 
Q 1122 3375 1075 2522 
Q 1259 2794 1537 2939 
Q 1816 3084 2150 3084 
Q 2853 3084 3261 2657 
Q 3669 2231 3669 1497 
Q 3669 778 3244 343 
Q 2819 -91 2113 -91 
Q 1303 -91 875 529 
Q 447 1150 447 2328 
Q 447 3434 972 4092 
Q 1497 4750 2381 4750 
Q 2619 4750 2861 4703 
Q 3103 4656 3366 4563 
z
" transform="scale(0.015625)"/>
       </defs>
       <use xlink:href="#DejaVuSans-31" transform="translate(0 0.765625)"/>
       <use xlink:href="#DejaVuSans-30" transform="translate(63.623047 0.765625)"/>
       <use xlink:href="#DejaVuSans-2212" transform="translate(128.203125 39.046875) scale(0.7)"/>
       <use xlink:href="#DejaVuSans-36" transform="translate(186.855469 39.046875) scale(0.7)"/>
      </g>
     </g>
    </g>
    <g id="ytick_3">
     <g id="line2d_7">
      <g>
       <use xlink:href="#m8080908aab" x="51.378125" y="110.791219" style="stroke: #000000; stroke-width: 0.8"/>
      </g>
     </g>
     <g id="text_8">
      <!-- $\mathdefault{10^{-5}}$ -->
      <g transform="translate(20.878125 114.590438) scale(0.1 -0.1)">
       <defs>
        <path id="DejaVuSans-35" d="M 691 4666 
L 3169 4666 
L 3169 4134 
L 1269 4134 
L 1269 2991 
Q 1406 3038 1543 3061 
Q 1681 3084 1819 3084 
Q 2600 3084 3056 2656 
Q 3513 2228 3513 1497 
Q 3513 744 3044 326 
Q 2575 -91 1722 -91 
Q 1428 -91 1123 -41 
Q 819 9 494 109 
L 494 744 
Q 775 591 1075 516 
Q 1375 441 1709 441 
Q 2250 441 2565 725 
Q 2881 1009 2881 1497 
Q 2881 1984 2565 2268 
Q 2250 2553 1709 2553 
Q 1456 2553 1204 2497 
Q 953 2441 691 2322 
L 691 4666 
z
" transform="scale(0.015625)"/>
       </defs>
       <use xlink:href="#DejaVuSans-31" transform="translate(0 0.684375)"/>
       <use xlink:href="#DejaVuSans-30" transform="translate(63.623047 0.684375)"/>
       <use xlink:href="#DejaVuSans-2212" transform="translate(128.203125 38.965625) scale(0.7)"/>
       <use xlink:href="#DejaVuSans-35" transform="translate(186.855469 38.965625) scale(0.7)"/>
      </g>
     </g>
    </g>
    <g id="ytick_4">
     <g id="line2d_8">
      <g>
       <use xlink:href="#m8080908aab" x="51.378125" y="77.527219" style="stroke: #000000; stroke-width: 0.8"/>
      </g>
     </g>
     <g id="text_9">
      <!-- $\mathdefault{10^{-4}}$ -->
      <g transform="translate(20.878125 81.326438) scale(0.1 -0.1)">
       <defs>
        <path id="DejaVuSans-34" d="M 2419 4116 
L 825 1625 
L 2419 1625 
L 2419 4116 
z
M 2253 4666 
L 3047 4666 
L 3047 1625 
L 3713 1625 
L 3713 1100 
L 3047 1100 
L 3047 0 
L 2419 0 
L 2419 1100 
L 313 1100 
L 313 1709 
L 2253 4666 
z
" transform="scale(0.015625)"/>
       </defs>
       <use xlink:href="#DejaVuSans-31" transform="translate(0 0.684375)"/>
       <use xlink:href="#DejaVuSans-30" transform="translate(63.623047 0.684375)"/>
       <use xlink:href="#DejaVuSans-2212" transform="translate(128.203125 38.965625) scale(0.7)"/>
       <use xlink:href="#DejaVuSans-34" transform="translate(186.855469 38.965625) scale(0.7)"/>
      </g>
     </g>
    </g>
    <g id="ytick_5">
     <g id="line2d_9">
      <g>
       <use xlink:href="#m8080908aab" x="51.378125" y="44.263219" style="stroke: #000000; stroke-width: 0.8"/>
      </g>
     </g>
     <g id="text_10">
      <!-- $\mathdefault{10^{-3}}$ -->
      <g transform="translate(20.878125 48.062438) scale(0.1 -0.1)">
       <use xlink:href="#DejaVuSans-31" transform="translate(0 0.765625)"/>
       <use xlink:href="#DejaVuSans-30" transform="translate(63.623047 0.765625)"/>
       <use xlink:href="#DejaVuSans-2212" transform="translate(128.203125 39.046875) scale(0.7)"/>
       <use xlink:href="#DejaVuSans-33" transform="translate(186.855469 39.046875) scale(0.7)"/>
      </g>
     </g>
    </g>
    <g id="ytick_6">
     <g id="line2d_10">
      <g>
       <use xlink:href="#m8080908aab" x="51.378125" y="10.999219" style="stroke: #000000; stroke-width: 0.8"/>
      </g>
     </g>
     <g id="text_11">
      <!-- $\mathdefault{10^{-2}}$ -->
      <g transform="translate(20.878125 14.798438) scale(0.1 -0.1)">
       <use xlink:href="#DejaVuSans-31" transform="translate(0 0.765625)"/>
       <use xlink:href="#DejaVuSans-30" transform="translate(63.623047 0.765625)"/>
       <use xlink:href="#DejaVuSans-2212" transform="translate(128.203125 39.046875) scale(0.7)"/>
       <use xlink:href="#DejaVuSans-32" transform="translate(186.855469 39.046875) scale(0.7)"/>
      </g>
     </g>
    </g>
    <g id="ytick_7">
     <g id="line2d_11">
      <defs>
       <path id="m8ff337b30d" d="M 0 0 
L -2 0 
" style="stroke: #000000; stroke-width: 0.6"/>
      </defs>
      <g>
       <use xlink:href="#m8ff337b30d" x="51.378125" y="167.305757" style="stroke: #000000; stroke-width: 0.6"/>
      </g>
     </g>
    </g>
    <g id="ytick_8">
     <g id="line2d_12">
      <g>
       <use xlink:href="#m8ff337b30d" x="51.378125" y="161.448257" style="stroke: #000000; stroke-width: 0.6"/>
      </g>
     </g>
    </g>
    <g id="ytick_9">
     <g id="line2d_13">
      <g>
       <use xlink:href="#m8ff337b30d" x="51.378125" y="157.292295" style="stroke: #000000; stroke-width: 0.6"/>
      </g>
     </g>
    </g>
    <g id="ytick_10">
     <g id="line2d_14">
      <g>
       <use xlink:href="#m8ff337b30d" x="51.378125" y="154.068681" style="stroke: #000000; stroke-width: 0.6"/>
      </g>
     </g>
    </g>
    <g id="ytick_11">
     <g id="line2d_15">
      <g>
       <use xlink:href="#m8ff337b30d" x="51.378125" y="151.434796" style="stroke: #000000; stroke-width: 0.6"/>
      </g>
     </g>
    </g>
    <g id="ytick_12">
     <g id="line2d_16">
      <g>
       <use xlink:href="#m8ff337b30d" x="51.378125" y="149.207878" style="stroke: #000000; stroke-width: 0.6"/>
      </g>
     </g>
    </g>
    <g id="ytick_13">
     <g id="line2d_17">
      <g>
       <use xlink:href="#m8ff337b30d" x="51.378125" y="147.278833" style="stroke: #000000; stroke-width: 0.6"/>
      </g>
     </g>
    </g>
    <g id="ytick_14">
     <g id="line2d_18">
      <g>
       <use xlink:href="#m8ff337b30d" x="51.378125" y="145.577296" style="stroke: #000000; stroke-width: 0.6"/>
      </g>
     </g>
    </g>
    <g id="ytick_15">
     <g id="line2d_19">
      <g>
       <use xlink:href="#m8ff337b30d" x="51.378125" y="134.041757" style="stroke: #000000; stroke-width: 0.6"/>
      </g>
     </g>
    </g>
    <g id="ytick_16">
     <g id="line2d_20">
      <g>
       <use xlink:href="#m8ff337b30d" x="51.378125" y="128.184257" style="stroke: #000000; stroke-width: 0.6"/>
      </g>
     </g>
    </g>
    <g id="ytick_17">
     <g id="line2d_21">
      <g>
       <use xlink:href="#m8ff337b30d" x="51.378125" y="124.028295" style="stroke: #000000; stroke-width: 0.6"/>
      </g>
     </g>
    </g>
    <g id="ytick_18">
     <g id="line2d_22">
      <g>
       <use xlink:href="#m8ff337b30d" x="51.378125" y="120.804681" style="stroke: #000000; stroke-width: 0.6"/>
      </g>
     </g>
    </g>
    <g id="ytick_19">
     <g id="line2d_23">
      <g>
       <use xlink:href="#m8ff337b30d" x="51.378125" y="118.170796" style="stroke: #000000; stroke-width: 0.6"/>
      </g>
     </g>
    </g>
    <g id="ytick_20">
     <g id="line2d_24">
      <g>
       <use xlink:href="#m8ff337b30d" x="51.378125" y="115.943878" style="stroke: #000000; stroke-width: 0.6"/>
      </g>
     </g>
    </g>
    <g id="ytick_21">
     <g id="line2d_25">
      <g>
       <use xlink:href="#m8ff337b30d" x="51.378125" y="114.014833" style="stroke: #000000; stroke-width: 0.6"/>
      </g>
     </g>
    </g>
    <g id="ytick_22">
     <g id="line2d_26">
      <g>
       <use xlink:href="#m8ff337b30d" x="51.378125" y="112.313296" style="stroke: #000000; stroke-width: 0.6"/>
      </g>
     </g>
    </g>
    <g id="ytick_23">
     <g id="line2d_27">
      <g>
       <use xlink:href="#m8ff337b30d" x="51.378125" y="100.777757" style="stroke: #000000; stroke-width: 0.6"/>
      </g>
     </g>
    </g>
    <g id="ytick_24">
     <g id="line2d_28">
      <g>
       <use xlink:href="#m8ff337b30d" x="51.378125" y="94.920257" style="stroke: #000000; stroke-width: 0.6"/>
      </g>
     </g>
    </g>
    <g id="ytick_25">
     <g id="line2d_29">
      <g>
       <use xlink:href="#m8ff337b30d" x="51.378125" y="90.764295" style="stroke: #000000; stroke-width: 0.6"/>
      </g>
     </g>
    </g>
    <g id="ytick_26">
     <g id="line2d_30">
      <g>
       <use xlink:href="#m8ff337b30d" x="51.378125" y="87.540681" style="stroke: #000000; stroke-width: 0.6"/>
      </g>
     </g>
    </g>
    <g id="ytick_27">
     <g id="line2d_31">
      <g>
       <use xlink:href="#m8ff337b30d" x="51.378125" y="84.906796" style="stroke: #000000; stroke-width: 0.6"/>
      </g>
     </g>
    </g>
    <g id="ytick_28">
     <g id="line2d_32">
      <g>
       <use xlink:href="#m8ff337b30d" x="51.378125" y="82.679878" style="stroke: #000000; stroke-width: 0.6"/>
      </g>
     </g>
    </g>
    <g id="ytick_29">
     <g id="line2d_33">
      <g>
       <use xlink:href="#m8ff337b30d" x="51.378125" y="80.750833" style="stroke: #000000; stroke-width: 0.6"/>
      </g>
     </g>
    </g>
    <g id="ytick_30">
     <g id="line2d_34">
      <g>
       <use xlink:href="#m8ff337b30d" x="51.378125" y="79.049296" style="stroke: #000000; stroke-width: 0.6"/>
      </g>
     </g>
    </g>
    <g id="ytick_31">
     <g id="line2d_35">
      <g>
       <use xlink:href="#m8ff337b30d" x="51.378125" y="67.513757" style="stroke: #000000; stroke-width: 0.6"/>
      </g>
     </g>
    </g>
    <g id="ytick_32">
     <g id="line2d_36">
      <g>
       <use xlink:href="#m8ff337b30d" x="51.378125" y="61.656257" style="stroke: #000000; stroke-width: 0.6"/>
      </g>
     </g>
    </g>
    <g id="ytick_33">
     <g id="line2d_37">
      <g>
       <use xlink:href="#m8ff337b30d" x="51.378125" y="57.500295" style="stroke: #000000; stroke-width: 0.6"/>
      </g>
     </g>
    </g>
    <g id="ytick_34">
     <g id="line2d_38">
      <g>
       <use xlink:href="#m8ff337b30d" x="51.378125" y="54.276681" style="stroke: #000000; stroke-width: 0.6"/>
      </g>
     </g>
    </g>
    <g id="ytick_35">
     <g id="line2d_39">
      <g>
       <use xlink:href="#m8ff337b30d" x="51.378125" y="51.642796" style="stroke: #000000; stroke-width: 0.6"/>
      </g>
     </g>
    </g>
    <g id="ytick_36">
     <g id="line2d_40">
      <g>
       <use xlink:href="#m8ff337b30d" x="51.378125" y="49.415878" style="stroke: #000000; stroke-width: 0.6"/>
      </g>
     </g>
    </g>
    <g id="ytick_37">
     <g id="line2d_41">
      <g>
       <use xlink:href="#m8ff337b30d" x="51.378125" y="47.486833" style="stroke: #000000; stroke-width: 0.6"/>
      </g>
     </g>
    </g>
    <g id="ytick_38">
     <g id="line2d_42">
      <g>
       <use xlink:href="#m8ff337b30d" x="51.378125" y="45.785296" style="stroke: #000000; stroke-width: 0.6"/>
      </g>
     </g>
    </g>
    <g id="ytick_39">
     <g id="line2d_43">
      <g>
       <use xlink:href="#m8ff337b30d" x="51.378125" y="34.249757" style="stroke: #000000; stroke-width: 0.6"/>
      </g>
     </g>
    </g>
    <g id="ytick_40">
     <g id="line2d_44">
      <g>
       <use xlink:href="#m8ff337b30d" x="51.378125" y="28.392257" style="stroke: #000000; stroke-width: 0.6"/>
      </g>
     </g>
    </g>
    <g id="ytick_41">
     <g id="line2d_45">
      <g>
       <use xlink:href="#m8ff337b30d" x="51.378125" y="24.236295" style="stroke: #000000; stroke-width: 0.6"/>
      </g>
     </g>
    </g>
    <g id="ytick_42">
     <g id="line2d_46">
      <g>
       <use xlink:href="#m8ff337b30d" x="51.378125" y="21.012681" style="stroke: #000000; stroke-width: 0.6"/>
      </g>
     </g>
    </g>
    <g id="ytick_43">
     <g id="line2d_47">
      <g>
       <use xlink:href="#m8ff337b30d" x="51.378125" y="18.378796" style="stroke: #000000; stroke-width: 0.6"/>
      </g>
     </g>
    </g>
    <g id="ytick_44">
     <g id="line2d_48">
      <g>
       <use xlink:href="#m8ff337b30d" x="51.378125" y="16.151878" style="stroke: #000000; stroke-width: 0.6"/>
      </g>
     </g>
    </g>
    <g id="ytick_45">
     <g id="line2d_49">
      <g>
       <use xlink:href="#m8ff337b30d" x="51.378125" y="14.222833" style="stroke: #000000; stroke-width: 0.6"/>
      </g>
     </g>
    </g>
    <g id="ytick_46">
     <g id="line2d_50">
      <g>
       <use xlink:href="#m8ff337b30d" x="51.378125" y="12.521296" style="stroke: #000000; stroke-width: 0.6"/>
      </g>
     </g>
    </g>
    <g id="text_12">
     <!-- Flow [mm/s] -->
     <g transform="translate(14.798437 125.092813) rotate(-90) scale(0.1 -0.1)">
      <defs>
       <path id="DejaVuSans-46" d="M 628 4666 
L 3309 4666 
L 3309 4134 
L 1259 4134 
L 1259 2759 
L 3109 2759 
L 3109 2228 
L 1259 2228 
L 1259 0 
L 628 0 
L 628 4666 
z
" transform="scale(0.015625)"/>
       <path id="DejaVuSans-77" d="M 269 3500 
L 844 3500 
L 1563 769 
L 2278 3500 
L 2956 3500 
L 3675 769 
L 4391 3500 
L 4966 3500 
L 4050 0 
L 3372 0 
L 2619 2869 
L 1863 0 
L 1184 0 
L 269 3500 
z
" transform="scale(0.015625)"/>
       <path id="DejaVuSans-5b" d="M 550 4863 
L 1875 4863 
L 1875 4416 
L 1125 4416 
L 1125 -397 
L 1875 -397 
L 1875 -844 
L 550 -844 
L 550 4863 
z
" transform="scale(0.015625)"/>
       <path id="DejaVuSans-6d" d="M 3328 2828 
Q 3544 3216 3844 3400 
Q 4144 3584 4550 3584 
Q 5097 3584 5394 3201 
Q 5691 2819 5691 2113 
L 5691 0 
L 5113 0 
L 5113 2094 
Q 5113 2597 4934 2840 
Q 4756 3084 4391 3084 
Q 3944 3084 3684 2787 
Q 3425 2491 3425 1978 
L 3425 0 
L 2847 0 
L 2847 2094 
Q 2847 2600 2669 2842 
Q 2491 3084 2119 3084 
Q 1678 3084 1418 2786 
Q 1159 2488 1159 1978 
L 1159 0 
L 581 0 
L 581 3500 
L 1159 3500 
L 1159 2956 
Q 1356 3278 1631 3431 
Q 1906 3584 2284 3584 
Q 2666 3584 2933 3390 
Q 3200 3197 3328 2828 
z
" transform="scale(0.015625)"/>
       <path id="DejaVuSans-2f" d="M 1625 4666 
L 2156 4666 
L 531 -594 
L 0 -594 
L 1625 4666 
z
" transform="scale(0.015625)"/>
       <path id="DejaVuSans-73" d="M 2834 3397 
L 2834 2853 
Q 2591 2978 2328 3040 
Q 2066 3103 1784 3103 
Q 1356 3103 1142 2972 
Q 928 2841 928 2578 
Q 928 2378 1081 2264 
Q 1234 2150 1697 2047 
L 1894 2003 
Q 2506 1872 2764 1633 
Q 3022 1394 3022 966 
Q 3022 478 2636 193 
Q 2250 -91 1575 -91 
Q 1294 -91 989 -36 
Q 684 19 347 128 
L 347 722 
Q 666 556 975 473 
Q 1284 391 1588 391 
Q 1994 391 2212 530 
Q 2431 669 2431 922 
Q 2431 1156 2273 1281 
Q 2116 1406 1581 1522 
L 1381 1569 
Q 847 1681 609 1914 
Q 372 2147 372 2553 
Q 372 3047 722 3315 
Q 1072 3584 1716 3584 
Q 2034 3584 2315 3537 
Q 2597 3491 2834 3397 
z
" transform="scale(0.015625)"/>
       <path id="DejaVuSans-5d" d="M 1947 4863 
L 1947 -844 
L 622 -844 
L 622 -397 
L 1369 -397 
L 1369 4416 
L 622 4416 
L 622 4863 
L 1947 4863 
z
" transform="scale(0.015625)"/>
      </defs>
      <use xlink:href="#DejaVuSans-46"/>
      <use xlink:href="#DejaVuSans-6c" x="57.519531"/>
      <use xlink:href="#DejaVuSans-6f" x="85.302734"/>
      <use xlink:href="#DejaVuSans-77" x="146.484375"/>
      <use xlink:href="#DejaVuSans-20" x="228.271484"/>
      <use xlink:href="#DejaVuSans-5b" x="260.058594"/>
      <use xlink:href="#DejaVuSans-6d" x="299.072266"/>
      <use xlink:href="#DejaVuSans-6d" x="396.484375"/>
      <use xlink:href="#DejaVuSans-2f" x="493.896484"/>
      <use xlink:href="#DejaVuSans-73" x="527.587891"/>
      <use xlink:href="#DejaVuSans-5d" x="579.6875"/>
     </g>
    </g>
   </g>
   <g id="line2d_51">
    <path d="M 51.632687 72.741134 
L 52.650935 80.04241 
L 52.905497 80.149271 
L 53.160059 80.976005 
L 53.923745 81.243183 
L 54.43287 81.594058 
L 54.687432 81.613791 
L 54.941994 81.772857 
L 55.196556 82.658634 
L 55.451118 82.872726 
L 56.214804 83.089793 
L 56.97849 84.587645 
L 57.742176 85.309464 
L 57.996738 85.463587 
L 58.2513 85.463587 
L 58.760424 85.645158 
L 59.52411 85.829337 
L 59.778672 85.962132 
L 60.033234 86.258957 
L 60.796921 86.589848 
L 61.051483 87.071842 
L 62.324293 87.451669 
L 63.087979 88.025247 
L 64.360789 88.148884 
L 64.615351 88.368183 
L 65.379037 88.655017 
L 65.888161 88.784188 
L 67.160972 88.849209 
L 68.17922 89.145855 
L 68.433782 89.585221 
L 70.470278 90.073793 
L 70.72484 90.360348 
L 70.979402 90.360348 
L 71.997651 91.065453 
L 72.252213 91.372586 
L 73.015899 91.450401 
L 73.525023 91.88649 
L 74.034147 91.96713 
L 74.797833 92.171184 
L 75.052395 92.253434 
L 75.306957 92.503031 
L 75.561519 92.503031 
L 75.816081 92.757497 
L 77.088891 93.235078 
L 77.343453 93.502894 
L 77.852578 93.593111 
L 78.361702 93.867193 
L 79.125388 94.1942 
L 79.634512 94.772208 
L 79.889074 95.120047 
L 80.65276 95.323212 
L 80.907322 95.580524 
L 81.161884 95.580524 
L 81.671008 95.789725 
L 83.19838 96.381773 
L 83.962067 96.491961 
L 84.471191 96.547372 
L 84.725753 96.885016 
L 85.234877 97.05652 
L 85.744001 97.114144 
L 85.998563 97.171998 
L 87.016811 98.069519 
L 87.780497 98.193421 
L 88.035059 98.193421 
L 88.289621 98.318395 
L 88.798745 98.38129 
L 90.58068 98.830123 
L 90.835242 99.092577 
L 91.089804 99.092577 
L 91.344366 99.292595 
L 92.108052 99.360646 
L 92.362614 99.701912 
L 93.1263 99.840708 
L 93.380862 100.122365 
L 94.39911 100.193646 
L 94.653672 100.410439 
L 95.162797 100.483159 
L 95.417359 100.629707 
L 95.926483 100.629707 
L 96.181045 100.852355 
L 97.708417 101.231233 
L 97.962979 101.231233 
L 98.472103 101.464301 
L 99.235789 101.779829 
L 99.490351 101.940216 
L 100.254037 102.021082 
L 101.78141 102.601134 
L 102.290534 102.856625 
L 102.799658 103.029498 
L 103.308782 103.470954 
L 103.817906 103.560887 
L 104.581592 103.560887 
L 104.836154 103.743477 
L 105.090716 103.743477 
L 105.59984 104.020194 
L 106.108964 104.113624 
L 106.363526 104.493505 
L 107.127213 104.687258 
L 108.654585 104.785118 
L 109.418271 104.983967 
L 110.181957 105.083865 
L 111.709329 105.803187 
L 112.473016 106.015462 
L 113.236702 106.12278 
L 114.000388 106.33984 
L 114.764074 106.450843 
L 115.52776 107.012587 
L 116.80057 107.47826 
L 117.055132 107.47826 
L 117.309694 107.716849 
L 117.818818 107.716849 
L 118.327943 107.837638 
L 118.582505 107.837638 
L 119.091629 108.207582 
L 119.346191 108.207582 
L 119.600753 108.332562 
L 119.855315 108.585814 
L 120.109877 108.585814 
L 120.619001 108.843585 
L 120.873563 108.843585 
L 121.128125 108.974216 
L 121.637249 108.974216 
L 122.146373 109.239076 
L 122.400935 109.239076 
L 122.910059 109.508883 
L 123.164621 109.508883 
L 123.673745 109.783825 
L 123.928307 109.783825 
L 124.18287 109.924858 
L 124.691994 109.924858 
L 124.946556 110.065691 
L 125.45568 110.065691 
L 125.710242 110.207911 
L 126.473928 110.940802 
L 127.492176 110.940802 
L 127.746738 111.091949 
L 128.0013 111.091949 
L 128.510424 111.399074 
L 129.27411 111.399074 
L 129.528672 111.555119 
L 129.783234 111.555119 
L 130.037797 111.712869 
L 130.292359 112.363544 
L 130.546921 112.363544 
L 130.801483 112.870087 
L 131.056045 112.870087 
L 131.310607 113.04296 
L 131.565169 113.04296 
L 132.074293 113.395038 
L 132.328855 113.395038 
L 132.583417 113.574349 
L 133.092541 113.574349 
L 133.347103 113.755912 
L 133.601665 113.755912 
L 133.856227 113.939787 
L 134.365351 113.939787 
L 135.129037 114.898218 
L 135.383599 114.898218 
L 135.892724 115.299219 
L 136.147286 115.299219 
L 136.65641 115.711669 
L 137.165534 115.711669 
L 137.420096 115.922396 
L 138.438344 115.922396 
L 138.692906 116.136242 
L 139.20203 116.136242 
L 139.711154 116.573672 
L 139.965716 116.573672 
L 140.220278 116.797456 
L 140.729402 116.797456 
L 140.983964 117.024762 
L 141.238526 117.024762 
L 141.747651 117.493051 
L 142.002213 117.493051 
L 142.256775 117.731662 
L 143.020461 117.731662 
L 143.275023 118.221044 
L 143.529585 118.221044 
L 143.784147 118.472095 
L 145.056957 118.472095 
L 145.311519 118.727587 
L 145.820643 118.727587 
L 146.075205 118.987678 
L 146.584329 118.987678 
L 146.838891 119.252538 
L 147.348016 119.252538 
L 147.602578 119.522345 
L 148.111702 119.522345 
L 148.366264 119.797287 
L 148.875388 119.797287 
L 149.12995 120.077563 
L 151.166446 120.077563 
L 151.421008 120.363385 
L 152.184694 120.363385 
L 152.439256 120.654976 
L 153.202943 120.654976 
L 153.457505 120.955953 
L 154.730315 120.955953 
L 154.984877 121.259882 
L 155.494001 121.259882 
L 155.748563 121.570344 
L 156.512249 121.570344 
L 156.766811 121.887624 
L 157.530497 121.887624 
L 157.785059 122.21203 
L 159.566994 122.21203 
L 159.821556 122.543888 
L 161.094366 122.543888 
L 161.348928 122.883549 
L 161.60349 122.883549 
L 161.858052 123.231388 
L 162.112614 123.231388 
L 162.367176 123.58781 
L 162.8763 123.58781 
L 163.130862 123.953249 
L 164.658234 123.953249 
L 164.912797 124.328172 
L 165.167359 124.328172 
L 165.421921 124.713086 
L 166.185607 124.713086 
L 166.440169 125.108536 
L 167.712979 125.108536 
L 167.967541 125.515117 
L 168.731227 125.515117 
L 168.985789 125.938243 
L 170.004037 125.938243 
L 170.258599 126.369221 
L 172.040534 126.369221 
L 172.295096 126.813452 
L 173.822468 126.813452 
L 174.07703 127.271779 
L 175.095278 127.271779 
L 175.34984 127.745124 
L 176.113526 127.745124 
L 176.368089 128.234506 
L 178.913709 128.234506 
L 179.168271 128.741048 
L 180.441081 128.741048 
L 180.695643 129.266 
L 181.713891 129.266 
L 181.968453 129.810749 
L 182.986702 129.810749 
L 183.241264 130.376847 
L 185.786884 130.376847 
L 186.041446 130.966036 
L 188.332505 130.966036 
L 188.587067 131.58028 
L 189.605315 131.58028 
L 189.859877 132.221806 
L 190.878125 132.221806 
L 191.132687 132.893149 
L 192.914621 132.893149 
L 193.169183 133.605327 
L 195.20568 133.605327 
L 195.460242 134.345902 
L 197.242176 134.345902 
L 197.496738 135.126503 
L 199.787797 135.126503 
L 200.042359 135.951705 
L 202.587979 135.951705 
L 202.842541 136.826914 
L 204.115351 136.826914 
L 204.369913 137.758586 
L 206.660972 137.758586 
L 206.915534 138.75451 
L 209.970278 138.75451 
L 210.22484 139.82421 
L 212.770461 139.82421 
L 213.025023 140.979497 
L 215.570643 140.979497 
L 215.825205 142.235268 
L 218.87995 142.235268 
L 218.87995 142.235268 
" clip-path="url(#p3ba236d2dd)" style="fill: none; stroke: #000000; stroke-width: 1.5; stroke-linecap: square"/>
   </g>
   <g id="line2d_52">
    <path d="M 51.63292 52.816197 
L 51.887714 54.003318 
L 52.142509 55.872142 
L 52.652098 57.519421 
L 52.906892 57.920527 
L 53.161687 59.072572 
L 53.416481 59.351702 
L 53.92607 60.414338 
L 54.180865 60.627837 
L 54.435659 61.122668 
L 55.200043 61.622337 
L 55.454837 61.674778 
L 55.709632 61.903227 
L 55.964426 61.977292 
L 56.219221 62.249758 
L 56.72881 62.407672 
L 56.983604 62.730387 
L 57.238399 62.781933 
L 57.493193 63.855382 
L 57.747988 63.880687 
L 58.257577 64.074911 
L 58.512372 64.090995 
L 58.767166 64.351728 
L 59.021961 64.394231 
L 59.53155 64.723943 
L 59.786344 64.826997 
L 60.041139 65.113098 
L 60.295933 65.128131 
L 60.550728 65.527464 
L 61.315111 65.777974 
L 61.569906 65.845005 
L 61.8247 66.454099 
L 62.079495 66.693948 
L 62.334289 67.213555 
L 62.843878 67.410211 
L 63.353467 67.431992 
L 64.62744 68.357891 
L 65.137029 69.183578 
L 65.391824 69.285527 
L 66.156207 70.212168 
L 66.411002 70.355365 
L 66.665796 70.771937 
L 66.920591 70.830363 
L 67.684974 71.699757 
L 67.939769 71.729694 
L 68.194563 72.181458 
L 68.704152 72.359733 
L 69.72333 73.016751 
L 70.487714 73.275377 
L 70.742509 73.607206 
L 70.997303 73.66893 
L 71.506892 74.223658 
L 73.035659 74.824205 
L 73.290454 75.116293 
L 73.545248 75.190736 
L 73.800043 75.444133 
L 74.054837 75.927473 
L 74.564426 76.116776 
L 75.838399 77.675335 
L 76.093193 77.690296 
L 76.347988 78.501592 
L 76.602783 78.559702 
L 77.112372 79.190638 
L 77.876755 79.2922 
L 78.386344 80.24417 
L 78.641139 80.260336 
L 78.895933 81.000536 
L 79.660317 81.114349 
L 80.679495 81.193359 
L 80.934289 81.514854 
L 81.698673 81.619084 
L 82.972646 83.269291 
L 83.22744 83.369031 
L 83.482235 83.633133 
L 85.265796 84.353891 
L 85.520591 84.892428 
L 85.775385 85.077999 
L 86.03018 85.549932 
L 86.539769 85.767334 
L 87.049358 86.79688 
L 87.304152 86.873482 
L 87.813741 87.7096 
L 89.342509 88.539626 
L 89.597303 88.563293 
L 89.852098 88.785026 
L 90.361687 88.92095 
L 90.616481 89.10742 
L 91.380865 89.178885 
L 91.635659 89.593197 
L 92.145248 89.656118 
L 92.400043 89.893421 
L 92.654837 89.948933 
L 92.909632 90.559171 
L 93.164426 90.678182 
L 93.92881 91.784503 
L 94.183604 92.129841 
L 94.438399 92.163966 
L 94.947988 92.513434 
L 95.457577 92.533346 
L 95.967166 92.704793 
L 96.476755 92.826549 
L 96.986344 93.058344 
L 97.750728 93.215237 
L 100.043878 93.668286 
L 104.120591 93.813458 
L 107.942509 94.20732 
L 108.197303 94.346871 
L 109.72607 94.45529 
L 110.490454 94.545134 
L 111.000043 94.631001 
L 111.254837 94.760312 
L 111.509632 95.38876 
L 112.019221 95.398017 
L 112.783604 96.161369 
L 113.293193 96.30412 
L 113.802783 96.702866 
L 117.369906 98.168689 
L 117.6247 98.628046 
L 118.134289 98.744263 
L 118.389084 98.780253 
L 118.898673 99.561022 
L 120.937029 100.52067 
L 121.446618 100.58932 
L 122.211002 101.080106 
L 122.975385 101.143478 
L 123.484974 101.564497 
L 123.739769 101.588389 
L 124.249358 101.848523 
L 125.013741 102.003432 
L 125.52333 102.489905 
L 125.778125 102.963601 
L 126.03292 103.164331 
L 126.287714 103.19628 
L 126.797303 103.46513 
L 127.052098 103.507262 
L 127.306892 103.674609 
L 127.816481 103.797981 
L 128.32607 104.122111 
L 128.580865 104.334959 
L 129.090454 104.967526 
L 129.600043 105.242249 
L 130.364426 105.299511 
L 130.874015 105.752699 
L 131.383604 106.121365 
L 131.893193 106.140228 
L 132.147988 106.546773 
L 132.657577 106.589929 
L 133.167166 106.860067 
L 134.186344 107.525681 
L 134.441139 108.016291 
L 134.695933 108.032308 
L 135.205522 108.339366 
L 135.460317 108.343446 
L 135.969906 108.869041 
L 136.2247 109.161761 
L 136.479495 109.163248 
L 136.989084 109.350818 
L 138.008262 109.586615 
L 138.772646 109.690272 
L 139.02744 110.185536 
L 140.046618 110.329094 
L 140.301413 110.739712 
L 140.811002 110.912004 
L 141.065796 111.127508 
L 141.575385 111.325039 
L 142.084974 111.436425 
L 142.339769 111.760517 
L 143.104152 111.878714 
L 143.358947 112.199997 
L 143.613741 112.20307 
L 144.12333 112.399599 
L 145.397303 112.721746 
L 145.652098 112.961204 
L 146.416481 113.143755 
L 146.671276 113.194157 
L 147.180865 113.517603 
L 147.690454 113.610247 
L 148.200043 113.726803 
L 148.964426 114.248142 
L 149.219221 114.278452 
L 149.474015 114.554802 
L 151.512372 114.993767 
L 152.786344 115.573411 
L 153.295933 115.738011 
L 153.805522 115.846779 
L 154.8247 116.045511 
L 155.079495 116.110838 
L 155.334289 116.330574 
L 155.843878 116.384323 
L 156.353467 116.566435 
L 156.863057 116.789436 
L 157.372646 117.066523 
L 159.156207 117.270049 
L 160.43018 117.729469 
L 160.939769 117.879476 
L 161.704152 118.011869 
L 162.213741 118.143959 
L 162.978125 118.21872 
L 164.761687 118.526244 
L 165.52607 118.697102 
L 166.545248 118.889813 
L 166.800043 119.025691 
L 168.838399 119.13092 
L 169.347988 119.212195 
L 170.876755 119.32981 
L 188.967166 120.261178 
L 194.572646 120.387853 
L 196.865796 120.461025 
L 219.03292 120.817469 
L 219.03292 120.817469 
" clip-path="url(#p3ba236d2dd)" style="fill: none; stroke: #8da0cb; stroke-width: 1.5; stroke-linecap: square"/>
   </g>
   <g id="line2d_53">
    <path d="M 51.63292 60.574581 
L 51.887714 62.104082 
L 52.142509 64.913466 
L 52.397303 66.206618 
L 52.652098 66.877886 
L 53.161687 68.809326 
L 53.416481 72.729836 
L 53.671276 74.218523 
L 54.180865 74.704383 
L 54.690454 75.964753 
L 55.200043 76.400038 
L 55.709632 76.513447 
L 55.964426 76.611546 
L 56.219221 77.545272 
L 56.474015 77.574587 
L 56.72881 78.387799 
L 56.983604 78.404951 
L 57.747988 78.733621 
L 58.002783 78.752103 
L 58.257577 78.943011 
L 58.512372 79.49623 
L 59.021961 79.573249 
L 59.276755 79.849876 
L 59.53155 79.898095 
L 59.786344 80.495322 
L 60.550728 80.933041 
L 60.805522 80.979931 
L 61.060317 81.286594 
L 61.315111 81.292261 
L 62.334289 82.27531 
L 62.589084 82.286435 
L 63.098673 82.585848 
L 63.353467 82.640089 
L 63.608262 82.962532 
L 63.863057 83.473141 
L 64.372646 83.639226 
L 64.62744 83.6844 
L 64.882235 84.096752 
L 65.646618 84.250002 
L 65.901413 84.42385 
L 66.156207 84.885387 
L 66.665796 85.096179 
L 66.920591 85.671079 
L 67.175385 85.682504 
L 67.43018 85.976798 
L 68.704152 86.158647 
L 69.213741 86.589484 
L 69.72333 87.624338 
L 70.742509 87.759315 
L 70.997303 87.823453 
L 71.252098 88.093272 
L 71.761687 88.210525 
L 72.271276 88.272173 
L 72.52607 88.478913 
L 72.780865 88.480083 
L 73.035659 88.701074 
L 74.309632 88.804581 
L 74.819221 89.039951 
L 75.32881 89.790891 
L 75.838399 89.991466 
L 76.093193 90.325673 
L 76.857577 90.518871 
L 77.112372 90.629315 
L 77.621961 91.011462 
L 78.13155 91.147006 
L 78.386344 91.380421 
L 78.641139 91.430934 
L 78.895933 91.743355 
L 79.915111 91.79769 
L 80.679495 92.05969 
L 81.189084 92.146234 
L 81.953467 92.2669 
L 82.463057 92.346958 
L 82.717851 92.582319 
L 83.22744 92.72953 
L 83.737029 92.985579 
L 83.991824 93.008641 
L 84.756207 93.420812 
L 86.539769 93.942023 
L 87.049358 94.162469 
L 87.304152 94.688731 
L 88.068536 94.77621 
L 88.32333 95.036512 
L 88.578125 95.0394 
L 88.83292 95.316984 
L 89.597303 95.437081 
L 90.871276 95.627045 
L 91.380865 95.777492 
L 91.635659 96.100106 
L 92.909632 96.230411 
L 93.674015 96.406256 
L 94.693193 96.520973 
L 94.947988 96.640557 
L 95.202783 96.887692 
L 95.712372 97.052653 
L 96.476755 97.217525 
L 96.986344 97.591736 
L 97.241139 97.603332 
L 97.495933 97.856575 
L 98.769906 98.024276 
L 99.789084 98.444441 
L 100.043878 98.450487 
L 100.553467 98.898441 
L 102.082235 99.116128 
L 102.591824 99.296764 
L 103.611002 99.375597 
L 104.120591 99.515703 
L 105.649358 99.739937 
L 106.158947 99.898137 
L 106.668536 100.032868 
L 107.687714 100.126869 
L 108.197303 100.20737 
L 109.980865 100.324046 
L 110.490454 100.439391 
L 110.745248 100.945292 
L 111.254837 101.074558 
L 114.057577 101.954743 
L 114.312372 102.26484 
L 115.841139 102.59519 
L 117.6247 103.178 
L 119.153467 103.519056 
L 119.408262 103.85744 
L 120.682235 104.174541 
L 120.937029 104.209563 
L 121.191824 104.449427 
L 121.701413 104.535932 
L 121.956207 104.640079 
L 122.465796 105.214673 
L 122.720591 105.297032 
L 123.23018 105.704625 
L 124.249358 105.942629 
L 125.268536 106.74522 
L 126.542509 107.760878 
L 127.816481 107.999763 
L 128.32607 108.314551 
L 129.600043 108.537574 
L 129.854837 108.551202 
L 132.147988 109.655774 
L 132.912372 109.728636 
L 133.167166 109.94615 
L 134.186344 110.093823 
L 134.950728 110.230831 
L 135.460317 110.517008 
L 136.734289 110.854896 
L 138.263057 111.436776 
L 139.791824 111.776843 
L 140.301413 112.045575 
L 140.811002 112.211771 
L 142.084974 112.421351 
L 143.613741 112.713818 
L 144.887714 112.820849 
L 145.142509 113.035595 
L 145.906892 113.075147 
L 146.161687 113.332573 
L 151.512372 114.416333 
L 152.021961 114.705981 
L 152.786344 114.837325 
L 153.041139 115.089908 
L 153.550728 115.195031 
L 154.315111 115.316999 
L 155.079495 115.499717 
L 157.372646 115.883687 
L 157.882235 115.963678 
L 158.391824 116.083408 
L 158.901413 116.146929 
L 159.411002 116.255064 
L 161.704152 116.574057 
L 162.213741 116.647259 
L 162.72333 116.72171 
L 163.742509 116.828601 
L 163.997303 117.015776 
L 165.016481 117.216805 
L 165.780865 117.355235 
L 166.800043 117.401514 
L 167.564426 117.66198 
L 173.4247 118.379461 
L 174.698673 118.436061 
L 176.22744 118.676673 
L 176.737029 118.769272 
L 177.501413 118.890266 
L 179.539769 119.03139 
L 179.794563 119.186473 
L 183.616481 119.405357 
L 183.871276 119.558773 
L 188.202783 119.877743 
L 188.712372 119.966111 
L 191.769906 120.158689 
L 192.534289 120.265527 
L 193.043878 120.319674 
L 193.553467 120.452485 
L 195.591824 120.715118 
L 196.356207 120.90566 
L 198.904152 121.205464 
L 199.158947 121.342746 
L 200.687714 121.469151 
L 202.72607 121.638228 
L 204.764426 121.842331 
L 207.312372 121.972346 
L 208.076755 122.10852 
L 210.369906 122.460185 
L 215.465796 123.263806 
L 215.975385 123.45498 
L 216.994563 123.541268 
L 217.758947 123.624859 
L 219.03292 123.714813 
L 219.03292 123.714813 
" clip-path="url(#p3ba236d2dd)" style="fill: none; stroke: #e78ac3; stroke-width: 1.5; stroke-linecap: square"/>
   </g>
   <g id="line2d_54">
    <path d="M 51.633269 63.364858 
L 51.888413 65.166916 
L 53.164133 69.663349 
L 53.419277 70.102544 
L 53.674421 71.186035 
L 54.184709 72.414249 
L 55.205285 73.333667 
L 55.46043 73.84614 
L 55.970718 73.911217 
L 56.225862 75.067931 
L 56.73615 75.327971 
L 56.991294 75.86928 
L 57.246438 76.006996 
L 57.501582 76.009801 
L 58.01187 76.783632 
L 58.522158 77.960542 
L 58.777302 78.123028 
L 59.032446 78.129388 
L 59.28759 78.784354 
L 59.542734 78.800111 
L 59.797878 79.125707 
L 60.053022 79.140699 
L 60.308166 79.317326 
L 60.56331 79.68173 
L 61.328742 80.0645 
L 61.583886 80.385563 
L 61.83903 80.404566 
L 62.094174 80.935986 
L 62.859606 81.219698 
L 63.114751 81.422839 
L 63.880183 81.551332 
L 64.390471 82.015949 
L 64.645615 82.072044 
L 65.155903 82.410621 
L 65.666191 82.498408 
L 66.176479 82.936907 
L 66.431623 82.96218 
L 66.941911 83.320221 
L 67.452199 83.458735 
L 69.493351 83.878832 
L 69.748495 84.124076 
L 71.27936 84.48487 
L 71.789648 85.144559 
L 74.341088 85.625606 
L 74.596232 85.949598 
L 78.933681 86.810244 
L 79.443969 87.129419 
L 79.954257 87.396241 
L 80.464545 87.595666 
L 81.229977 88.023302 
L 81.740265 88.045794 
L 81.995409 88.227704 
L 83.526273 88.345689 
L 84.036561 88.501411 
L 84.546849 88.646718 
L 85.312281 88.919377 
L 86.077713 89.019745 
L 86.843146 89.098611 
L 87.608578 89.323784 
L 88.118866 89.36397 
L 88.629154 89.651015 
L 89.394586 89.727792 
L 89.904874 89.972649 
L 90.160018 90.231305 
L 90.92545 90.34319 
L 91.180594 90.384274 
L 91.690882 90.796013 
L 92.711458 90.904209 
L 93.47689 91.066893 
L 93.732034 91.239499 
L 94.752611 91.353038 
L 95.007755 91.528751 
L 95.773187 91.606793 
L 96.028331 91.722337 
L 96.283475 92.027206 
L 96.538619 92.057263 
L 96.793763 92.217332 
L 97.048907 92.617169 
L 97.304051 92.772601 
L 98.579771 92.884942 
L 99.855491 92.956859 
L 100.365779 93.359152 
L 101.131211 93.536618 
L 101.641499 93.844554 
L 102.151788 93.899043 
L 102.662076 94.106132 
L 103.427508 94.432369 
L 103.937796 94.529075 
L 104.958372 94.818267 
L 105.723804 94.904594 
L 105.978948 95.024635 
L 106.234092 95.411296 
L 107.509812 95.932166 
L 108.0201 95.971079 
L 108.275244 96.234802 
L 109.040676 96.434236 
L 109.806109 96.508546 
L 110.061253 97.134733 
L 110.571541 97.218206 
L 110.826685 97.231446 
L 112.102405 98.058328 
L 112.357549 98.093732 
L 112.612693 98.312107 
L 113.633269 98.437257 
L 114.653845 99.075874 
L 115.164133 99.184381 
L 116.950141 99.935223 
L 117.205285 100.151854 
L 117.715574 100.265462 
L 117.970718 100.506291 
L 119.246438 100.814531 
L 120.01187 101.151259 
L 121.28759 101.340663 
L 121.542734 101.45106 
L 121.797878 101.817413 
L 122.818454 102.070236 
L 124.094174 102.191987 
L 124.349318 102.377665 
L 124.604462 102.385469 
L 125.114751 102.671008 
L 127.155903 103.015025 
L 128.686767 103.143415 
L 128.941911 103.163655 
L 129.197055 103.594408 
L 129.707343 103.648822 
L 130.217631 103.87114 
L 131.238207 103.944787 
L 131.748495 104.464734 
L 132.258783 104.636578 
L 133.789648 104.904662 
L 134.044792 105.099093 
L 134.55508 105.271663 
L 134.810224 105.559191 
L 135.065368 105.580156 
L 135.575656 105.995542 
L 137.10652 106.497502 
L 138.637384 107.182658 
L 138.892528 107.238059 
L 139.402816 107.606751 
L 139.913104 107.810653 
L 140.168248 107.92848 
L 140.423392 108.17976 
L 141.443969 108.394248 
L 141.954257 108.497853 
L 142.209401 108.587019 
L 142.719689 109.024039 
L 142.974833 109.024732 
L 144.250553 109.519189 
L 146.291705 109.759426 
L 146.546849 109.762142 
L 147.567425 110.404122 
L 148.077713 110.530277 
L 149.09829 110.896617 
L 149.353434 110.938738 
L 149.608578 111.138932 
L 152.670306 111.627898 
L 152.92545 111.816657 
L 153.690882 111.940692 
L 154.711458 112.589293 
L 154.966602 112.591125 
L 155.221746 112.983972 
L 155.987178 113.097207 
L 156.752611 113.171382 
L 157.262899 113.330391 
L 157.518043 113.677304 
L 158.028331 113.873486 
L 158.283475 114.662546 
L 158.538619 114.701806 
L 158.793763 114.918822 
L 159.559195 115.02629 
L 161.090059 115.224392 
L 162.365779 115.802145 
L 162.620923 116.084004 
L 163.131211 116.230208 
L 164.406932 116.703708 
L 164.91722 116.955138 
L 168.234092 117.56252 
L 168.489236 118.294513 
L 170.0201 118.900066 
L 170.275244 119.616481 
L 171.550965 119.848053 
L 172.061253 120.110237 
L 172.571541 120.479003 
L 173.081829 120.680335 
L 173.336973 121.160413 
L 174.102405 121.251173 
L 174.357549 121.603166 
L 175.888413 122.215402 
L 176.143557 122.514953 
L 176.398701 122.548441 
L 176.653845 122.935427 
L 177.164133 123.044038 
L 177.674421 123.201475 
L 180.225862 123.364596 
L 180.73615 123.554781 
L 180.991294 123.933359 
L 181.246438 124.020611 
L 181.501582 124.28934 
L 181.756726 124.307926 
L 182.522158 124.745304 
L 183.032446 125.077843 
L 183.28759 125.48539 
L 183.542734 125.560785 
L 184.053022 125.880372 
L 184.308166 125.922804 
L 185.073598 126.544072 
L 185.328742 126.769574 
L 186.094174 126.874583 
L 186.349318 127.060068 
L 186.859606 127.106996 
L 187.880183 127.293131 
L 188.390471 127.398311 
L 188.900759 127.528368 
L 189.411047 127.645498 
L 189.921335 127.69933 
L 190.431623 127.92291 
L 190.686767 128.056717 
L 191.452199 129.041102 
L 191.707343 129.837742 
L 192.217631 130.063619 
L 192.472775 130.099622 
L 193.493351 130.864263 
L 194.003639 132.215653 
L 194.258783 132.329572 
L 194.513927 132.795576 
L 196.044792 133.138143 
L 197.065368 133.258043 
L 198.341088 133.719187 
L 198.851376 133.787796 
L 199.361664 134.322444 
L 199.616808 134.57311 
L 200.127096 134.750455 
L 200.38224 134.974035 
L 200.637384 134.996581 
L 200.892528 135.144647 
L 201.402816 136.026512 
L 201.65796 136.256795 
L 201.913104 136.296062 
L 202.168248 136.67531 
L 202.423392 137.287414 
L 202.933681 137.553628 
L 203.188825 140.089752 
L 203.699113 142.377682 
L 203.954257 142.5691 
L 204.209401 142.959854 
L 211.353434 143.35965 
L 213.64973 143.487807 
L 214.160018 143.573412 
L 217.47689 143.764929 
L 219.007755 143.98736 
L 219.007755 143.98736 
" clip-path="url(#p3ba236d2dd)" style="fill: none; stroke: #fc8d62; stroke-width: 1.5; stroke-linecap: square"/>
   </g>
   <g id="patch_3">
    <path d="M 51.378125 177.319219 
L 51.378125 10.999219 
" style="fill: none; stroke: #000000; stroke-width: 0.8; stroke-linejoin: miter; stroke-linecap: square"/>
   </g>
   <g id="patch_4">
    <path d="M 218.778125 177.319219 
L 218.778125 10.999219 
" style="fill: none; stroke: #000000; stroke-width: 0.8; stroke-linejoin: miter; stroke-linecap: square"/>
   </g>
   <g id="patch_5">
    <path d="M 51.378125 177.319219 
L 218.778125 177.319219 
" style="fill: none; stroke: #000000; stroke-width: 0.8; stroke-linejoin: miter; stroke-linecap: square"/>
   </g>
   <g id="patch_6">
    <path d="M 51.378125 10.999219 
L 218.778125 10.999219 
" style="fill: none; stroke: #000000; stroke-width: 0.8; stroke-linejoin: miter; stroke-linecap: square"/>
   </g>
   <g id="legend_1">
    <g id="patch_7">
     <path d="M 102.73125 77.711719 
L 211.778125 77.711719 
Q 213.778125 77.711719 213.778125 75.711719 
L 213.778125 17.999219 
Q 213.778125 15.999219 211.778125 15.999219 
L 102.73125 15.999219 
Q 100.73125 15.999219 100.73125 17.999219 
L 100.73125 75.711719 
Q 100.73125 77.711719 102.73125 77.711719 
z
" style="fill: #ffffff; opacity: 0.8; stroke: #cccccc; stroke-linejoin: miter"/>
    </g>
    <g id="line2d_55">
     <path d="M 104.73125 24.097656 
L 114.73125 24.097656 
L 124.73125 24.097656 
" style="fill: none; stroke: #000000; stroke-width: 1.5; stroke-linecap: square"/>
    </g>
    <g id="text_13">
     <!-- MEF Observed -->
     <g transform="translate(132.73125 27.597656) scale(0.1 -0.1)">
      <defs>
       <path id="DejaVuSans-4d" d="M 628 4666 
L 1569 4666 
L 2759 1491 
L 3956 4666 
L 4897 4666 
L 4897 0 
L 4281 0 
L 4281 4097 
L 3078 897 
L 2444 897 
L 1241 4097 
L 1241 0 
L 628 0 
L 628 4666 
z
" transform="scale(0.015625)"/>
       <path id="DejaVuSans-4f" d="M 2522 4238 
Q 1834 4238 1429 3725 
Q 1025 3213 1025 2328 
Q 1025 1447 1429 934 
Q 1834 422 2522 422 
Q 3209 422 3611 934 
Q 4013 1447 4013 2328 
Q 4013 3213 3611 3725 
Q 3209 4238 2522 4238 
z
M 2522 4750 
Q 3503 4750 4090 4092 
Q 4678 3434 4678 2328 
Q 4678 1225 4090 567 
Q 3503 -91 2522 -91 
Q 1538 -91 948 565 
Q 359 1222 359 2328 
Q 359 3434 948 4092 
Q 1538 4750 2522 4750 
z
" transform="scale(0.015625)"/>
       <path id="DejaVuSans-76" d="M 191 3500 
L 800 3500 
L 1894 563 
L 2988 3500 
L 3597 3500 
L 2284 0 
L 1503 0 
L 191 3500 
z
" transform="scale(0.015625)"/>
      </defs>
      <use xlink:href="#DejaVuSans-4d"/>
      <use xlink:href="#DejaVuSans-45" x="86.279297"/>
      <use xlink:href="#DejaVuSans-46" x="149.462891"/>
      <use xlink:href="#DejaVuSans-20" x="206.982422"/>
      <use xlink:href="#DejaVuSans-4f" x="238.769531"/>
      <use xlink:href="#DejaVuSans-62" x="317.480469"/>
      <use xlink:href="#DejaVuSans-73" x="380.957031"/>
      <use xlink:href="#DejaVuSans-65" x="433.056641"/>
      <use xlink:href="#DejaVuSans-72" x="494.580078"/>
      <use xlink:href="#DejaVuSans-76" x="535.693359"/>
      <use xlink:href="#DejaVuSans-65" x="594.873047"/>
      <use xlink:href="#DejaVuSans-64" x="656.396484"/>
     </g>
    </g>
    <g id="line2d_56">
     <path d="M 104.73125 38.775781 
L 114.73125 38.775781 
L 124.73125 38.775781 
" style="fill: none; stroke: #8da0cb; stroke-width: 1.5; stroke-linecap: square"/>
    </g>
    <g id="text_14">
     <!-- SPRUCE-Hollow -->
     <g transform="translate(132.73125 42.275781) scale(0.1 -0.1)">
      <defs>
       <path id="DejaVuSans-53" d="M 3425 4513 
L 3425 3897 
Q 3066 4069 2747 4153 
Q 2428 4238 2131 4238 
Q 1616 4238 1336 4038 
Q 1056 3838 1056 3469 
Q 1056 3159 1242 3001 
Q 1428 2844 1947 2747 
L 2328 2669 
Q 3034 2534 3370 2195 
Q 3706 1856 3706 1288 
Q 3706 609 3251 259 
Q 2797 -91 1919 -91 
Q 1588 -91 1214 -16 
Q 841 59 441 206 
L 441 856 
Q 825 641 1194 531 
Q 1563 422 1919 422 
Q 2459 422 2753 634 
Q 3047 847 3047 1241 
Q 3047 1584 2836 1778 
Q 2625 1972 2144 2069 
L 1759 2144 
Q 1053 2284 737 2584 
Q 422 2884 422 3419 
Q 422 4038 858 4394 
Q 1294 4750 2059 4750 
Q 2388 4750 2728 4690 
Q 3069 4631 3425 4513 
z
" transform="scale(0.015625)"/>
       <path id="DejaVuSans-52" d="M 2841 2188 
Q 3044 2119 3236 1894 
Q 3428 1669 3622 1275 
L 4263 0 
L 3584 0 
L 2988 1197 
Q 2756 1666 2539 1819 
Q 2322 1972 1947 1972 
L 1259 1972 
L 1259 0 
L 628 0 
L 628 4666 
L 2053 4666 
Q 2853 4666 3247 4331 
Q 3641 3997 3641 3322 
Q 3641 2881 3436 2590 
Q 3231 2300 2841 2188 
z
M 1259 4147 
L 1259 2491 
L 2053 2491 
Q 2509 2491 2742 2702 
Q 2975 2913 2975 3322 
Q 2975 3731 2742 3939 
Q 2509 4147 2053 4147 
L 1259 4147 
z
" transform="scale(0.015625)"/>
       <path id="DejaVuSans-55" d="M 556 4666 
L 1191 4666 
L 1191 1831 
Q 1191 1081 1462 751 
Q 1734 422 2344 422 
Q 2950 422 3222 751 
Q 3494 1081 3494 1831 
L 3494 4666 
L 4128 4666 
L 4128 1753 
Q 4128 841 3676 375 
Q 3225 -91 2344 -91 
Q 1459 -91 1007 375 
Q 556 841 556 1753 
L 556 4666 
z
" transform="scale(0.015625)"/>
       <path id="DejaVuSans-43" d="M 4122 4306 
L 4122 3641 
Q 3803 3938 3442 4084 
Q 3081 4231 2675 4231 
Q 1875 4231 1450 3742 
Q 1025 3253 1025 2328 
Q 1025 1406 1450 917 
Q 1875 428 2675 428 
Q 3081 428 3442 575 
Q 3803 722 4122 1019 
L 4122 359 
Q 3791 134 3420 21 
Q 3050 -91 2638 -91 
Q 1578 -91 968 557 
Q 359 1206 359 2328 
Q 359 3453 968 4101 
Q 1578 4750 2638 4750 
Q 3056 4750 3426 4639 
Q 3797 4528 4122 4306 
z
" transform="scale(0.015625)"/>
       <path id="DejaVuSans-2d" d="M 313 2009 
L 1997 2009 
L 1997 1497 
L 313 1497 
L 313 2009 
z
" transform="scale(0.015625)"/>
       <path id="DejaVuSans-48" d="M 628 4666 
L 1259 4666 
L 1259 2753 
L 3553 2753 
L 3553 4666 
L 4184 4666 
L 4184 0 
L 3553 0 
L 3553 2222 
L 1259 2222 
L 1259 0 
L 628 0 
L 628 4666 
z
" transform="scale(0.015625)"/>
      </defs>
      <use xlink:href="#DejaVuSans-53"/>
      <use xlink:href="#DejaVuSans-50" x="63.476562"/>
      <use xlink:href="#DejaVuSans-52" x="123.779297"/>
      <use xlink:href="#DejaVuSans-55" x="193.261719"/>
      <use xlink:href="#DejaVuSans-43" x="266.455078"/>
      <use xlink:href="#DejaVuSans-45" x="336.279297"/>
      <use xlink:href="#DejaVuSans-2d" x="399.462891"/>
      <use xlink:href="#DejaVuSans-48" x="435.546875"/>
      <use xlink:href="#DejaVuSans-6f" x="510.742188"/>
      <use xlink:href="#DejaVuSans-6c" x="571.923828"/>
      <use xlink:href="#DejaVuSans-6c" x="599.707031"/>
      <use xlink:href="#DejaVuSans-6f" x="627.490234"/>
      <use xlink:href="#DejaVuSans-77" x="688.671875"/>
     </g>
    </g>
    <g id="line2d_57">
     <path d="M 104.73125 53.453906 
L 114.73125 53.453906 
L 124.73125 53.453906 
" style="fill: none; stroke: #e78ac3; stroke-width: 1.5; stroke-linecap: square"/>
    </g>
    <g id="text_15">
     <!-- HILLSLOPE -->
     <g transform="translate(132.73125 56.953906) scale(0.1 -0.1)">
      <defs>
       <path id="DejaVuSans-49" d="M 628 4666 
L 1259 4666 
L 1259 0 
L 628 0 
L 628 4666 
z
" transform="scale(0.015625)"/>
       <path id="DejaVuSans-4c" d="M 628 4666 
L 1259 4666 
L 1259 531 
L 3531 531 
L 3531 0 
L 628 0 
L 628 4666 
z
" transform="scale(0.015625)"/>
      </defs>
      <use xlink:href="#DejaVuSans-48"/>
      <use xlink:href="#DejaVuSans-49" x="75.195312"/>
      <use xlink:href="#DejaVuSans-4c" x="104.6875"/>
      <use xlink:href="#DejaVuSans-4c" x="160.400391"/>
      <use xlink:href="#DejaVuSans-53" x="216.113281"/>
      <use xlink:href="#DejaVuSans-4c" x="279.589844"/>
      <use xlink:href="#DejaVuSans-4f" x="331.677734"/>
      <use xlink:href="#DejaVuSans-50" x="410.388672"/>
      <use xlink:href="#DejaVuSans-45" x="470.691406"/>
     </g>
    </g>
    <g id="line2d_58">
     <path d="M 104.73125 68.132031 
L 114.73125 68.132031 
L 124.73125 68.132031 
" style="fill: none; stroke: #fc8d62; stroke-width: 1.5; stroke-linecap: square"/>
    </g>
    <g id="text_16">
     <!-- CLM 5.0 -->
     <g transform="translate(132.73125 71.632031) scale(0.1 -0.1)">
      <defs>
       <path id="DejaVuSans-2e" d="M 684 794 
L 1344 794 
L 1344 0 
L 684 0 
L 684 794 
z
" transform="scale(0.015625)"/>
      </defs>
      <use xlink:href="#DejaVuSans-43"/>
      <use xlink:href="#DejaVuSans-4c" x="69.824219"/>
      <use xlink:href="#DejaVuSans-4d" x="125.537109"/>
      <use xlink:href="#DejaVuSans-20" x="211.816406"/>
      <use xlink:href="#DejaVuSans-35" x="243.603516"/>
      <use xlink:href="#DejaVuSans-2e" x="307.226562"/>
      <use xlink:href="#DejaVuSans-30" x="339.013672"/>
     </g>
    </g>
   </g>
  </g>
 </g>
 <defs>
  <clipPath id="p3ba236d2dd">
   <rect x="51.378125" y="10.999219" width="167.4" height="166.32"/>
  </clipPath>
 </defs>
</svg>
