<?xml version="1.0" encoding="utf-8" standalone="no"?>
<!DOCTYPE svg PUBLIC "-//W3C//DTD SVG 1.1//EN"
  "http://www.w3.org/Graphics/SVG/1.1/DTD/svg11.dtd">
<svg xmlns:xlink="http://www.w3.org/1999/xlink" width="243.83125pt" height="211.07625pt" viewBox="0 0 243.83125 211.07625" xmlns="http://www.w3.org/2000/svg" version="1.1">
 <metadata>
  <rdf:RDF xmlns:dc="http://purl.org/dc/elements/1.1/" xmlns:cc="http://creativecommons.org/ns#" xmlns:rdf="http://www.w3.org/1999/02/22-rdf-syntax-ns#">
   <cc:Work>
    <dc:type rdf:resource="http://purl.org/dc/dcmitype/StillImage"/>
    <dc:date>2024-04-12T15:04:57.847865</dc:date>
    <dc:format>image/svg+xml</dc:format>
    <dc:creator>
     <cc:Agent>
      <dc:title>Matplotlib v3.8.0, https://matplotlib.org/</dc:title>
     </cc:Agent>
    </dc:creator>
   </cc:Work>
  </rdf:RDF>
 </metadata>
 <defs>
  <style type="text/css">*{stroke-linejoin: round; stroke-linecap: butt}</style>
 </defs>
 <g id="figure_1">
  <g id="patch_1">
   <path d="M 0 211.07625 
L 243.83125 211.07625 
L 243.83125 0 
L 0 0 
z
" style="fill: #ffffff"/>
  </g>
  <g id="axes_1">
   <g id="patch_2">
    <path d="M 62.86875 173.52 
L 230.26875 173.52 
L 230.26875 7.2 
L 62.86875 7.2 
z
" style="fill: #ffffff"/>
   </g>
   <g id="matplotlib.axis_1">
    <g id="xtick_1">
     <g id="line2d_1">
      <defs>
       <path id="me353f77976" d="M 0 0 
L 0 3.5 
" style="stroke: #000000; stroke-width: 0.8"/>
      </defs>
      <g>
       <use xlink:href="#me353f77976" x="62.86875" y="173.52" style="stroke: #000000; stroke-width: 0.8"/>
      </g>
     </g>
     <g id="text_1">
      <!-- 0 -->
      <g transform="translate(59.6875 188.118438) scale(0.1 -0.1)">
       <defs>
        <path id="DejaVuSans-30" d="M 2034 4250 
Q 1547 4250 1301 3770 
Q 1056 3291 1056 2328 
Q 1056 1369 1301 889 
Q 1547 409 2034 409 
Q 2525 409 2770 889 
Q 3016 1369 3016 2328 
Q 3016 3291 2770 3770 
Q 2525 4250 2034 4250 
z
M 2034 4750 
Q 2819 4750 3233 4129 
Q 3647 3509 3647 2328 
Q 3647 1150 3233 529 
Q 2819 -91 2034 -91 
Q 1250 -91 836 529 
Q 422 1150 422 2328 
Q 422 3509 836 4129 
Q 1250 4750 2034 4750 
z
" transform="scale(0.015625)"/>
       </defs>
       <use xlink:href="#DejaVuSans-30"/>
      </g>
     </g>
    </g>
    <g id="xtick_2">
     <g id="line2d_2">
      <g>
       <use xlink:href="#me353f77976" x="104.71875" y="173.52" style="stroke: #000000; stroke-width: 0.8"/>
      </g>
     </g>
     <g id="text_2">
      <!-- 10 -->
      <g transform="translate(98.35625 188.118438) scale(0.1 -0.1)">
       <defs>
        <path id="DejaVuSans-31" d="M 794 531 
L 1825 531 
L 1825 4091 
L 703 3866 
L 703 4441 
L 1819 4666 
L 2450 4666 
L 2450 531 
L 3481 531 
L 3481 0 
L 794 0 
L 794 531 
z
" transform="scale(0.015625)"/>
       </defs>
       <use xlink:href="#DejaVuSans-31"/>
       <use xlink:href="#DejaVuSans-30" x="63.623047"/>
      </g>
     </g>
    </g>
    <g id="xtick_3">
     <g id="line2d_3">
      <g>
       <use xlink:href="#me353f77976" x="146.56875" y="173.52" style="stroke: #000000; stroke-width: 0.8"/>
      </g>
     </g>
     <g id="text_3">
      <!-- 20 -->
      <g transform="translate(140.20625 188.118438) scale(0.1 -0.1)">
       <defs>
        <path id="DejaVuSans-32" d="M 1228 531 
L 3431 531 
L 3431 0 
L 469 0 
L 469 531 
Q 828 903 1448 1529 
Q 2069 2156 2228 2338 
Q 2531 2678 2651 2914 
Q 2772 3150 2772 3378 
Q 2772 3750 2511 3984 
Q 2250 4219 1831 4219 
Q 1534 4219 1204 4116 
Q 875 4013 500 3803 
L 500 4441 
Q 881 4594 1212 4672 
Q 1544 4750 1819 4750 
Q 2544 4750 2975 4387 
Q 3406 4025 3406 3419 
Q 3406 3131 3298 2873 
Q 3191 2616 2906 2266 
Q 2828 2175 2409 1742 
Q 1991 1309 1228 531 
z
" transform="scale(0.015625)"/>
       </defs>
       <use xlink:href="#DejaVuSans-32"/>
       <use xlink:href="#DejaVuSans-30" x="63.623047"/>
      </g>
     </g>
    </g>
    <g id="xtick_4">
     <g id="line2d_4">
      <g>
       <use xlink:href="#me353f77976" x="188.41875" y="173.52" style="stroke: #000000; stroke-width: 0.8"/>
      </g>
     </g>
     <g id="text_4">
      <!-- 30 -->
      <g transform="translate(182.05625 188.118438) scale(0.1 -0.1)">
       <defs>
        <path id="DejaVuSans-33" d="M 2597 2516 
Q 3050 2419 3304 2112 
Q 3559 1806 3559 1356 
Q 3559 666 3084 287 
Q 2609 -91 1734 -91 
Q 1441 -91 1130 -33 
Q 819 25 488 141 
L 488 750 
Q 750 597 1062 519 
Q 1375 441 1716 441 
Q 2309 441 2620 675 
Q 2931 909 2931 1356 
Q 2931 1769 2642 2001 
Q 2353 2234 1838 2234 
L 1294 2234 
L 1294 2753 
L 1863 2753 
Q 2328 2753 2575 2939 
Q 2822 3125 2822 3475 
Q 2822 3834 2567 4026 
Q 2313 4219 1838 4219 
Q 1578 4219 1281 4162 
Q 984 4106 628 3988 
L 628 4550 
Q 988 4650 1302 4700 
Q 1616 4750 1894 4750 
Q 2613 4750 3031 4423 
Q 3450 4097 3450 3541 
Q 3450 3153 3228 2886 
Q 3006 2619 2597 2516 
z
" transform="scale(0.015625)"/>
       </defs>
       <use xlink:href="#DejaVuSans-33"/>
       <use xlink:href="#DejaVuSans-30" x="63.623047"/>
      </g>
     </g>
    </g>
    <g id="xtick_5">
     <g id="line2d_5">
      <g>
       <use xlink:href="#me353f77976" x="230.26875" y="173.52" style="stroke: #000000; stroke-width: 0.8"/>
      </g>
     </g>
     <g id="text_5">
      <!-- 40 -->
      <g transform="translate(223.90625 188.118438) scale(0.1 -0.1)">
       <defs>
        <path id="DejaVuSans-34" d="M 2419 4116 
L 825 1625 
L 2419 1625 
L 2419 4116 
z
M 2253 4666 
L 3047 4666 
L 3047 1625 
L 3713 1625 
L 3713 1100 
L 3047 1100 
L 3047 0 
L 2419 0 
L 2419 1100 
L 313 1100 
L 313 1709 
L 2253 4666 
z
" transform="scale(0.015625)"/>
       </defs>
       <use xlink:href="#DejaVuSans-34"/>
       <use xlink:href="#DejaVuSans-30" x="63.623047"/>
      </g>
     </g>
    </g>
    <g id="text_6">
     <!-- Exceedence Probability -->
     <g transform="translate(88.371875 201.796563) scale(0.1 -0.1)">
      <defs>
       <path id="DejaVuSans-45" d="M 628 4666 
L 3578 4666 
L 3578 4134 
L 1259 4134 
L 1259 2753 
L 3481 2753 
L 3481 2222 
L 1259 2222 
L 1259 531 
L 3634 531 
L 3634 0 
L 628 0 
L 628 4666 
z
" transform="scale(0.015625)"/>
       <path id="DejaVuSans-78" d="M 3513 3500 
L 2247 1797 
L 3578 0 
L 2900 0 
L 1881 1375 
L 863 0 
L 184 0 
L 1544 1831 
L 300 3500 
L 978 3500 
L 1906 2253 
L 2834 3500 
L 3513 3500 
z
" transform="scale(0.015625)"/>
       <path id="DejaVuSans-63" d="M 3122 3366 
L 3122 2828 
Q 2878 2963 2633 3030 
Q 2388 3097 2138 3097 
Q 1578 3097 1268 2742 
Q 959 2388 959 1747 
Q 959 1106 1268 751 
Q 1578 397 2138 397 
Q 2388 397 2633 464 
Q 2878 531 3122 666 
L 3122 134 
Q 2881 22 2623 -34 
Q 2366 -91 2075 -91 
Q 1284 -91 818 406 
Q 353 903 353 1747 
Q 353 2603 823 3093 
Q 1294 3584 2113 3584 
Q 2378 3584 2631 3529 
Q 2884 3475 3122 3366 
z
" transform="scale(0.015625)"/>
       <path id="DejaVuSans-65" d="M 3597 1894 
L 3597 1613 
L 953 1613 
Q 991 1019 1311 708 
Q 1631 397 2203 397 
Q 2534 397 2845 478 
Q 3156 559 3463 722 
L 3463 178 
Q 3153 47 2828 -22 
Q 2503 -91 2169 -91 
Q 1331 -91 842 396 
Q 353 884 353 1716 
Q 353 2575 817 3079 
Q 1281 3584 2069 3584 
Q 2775 3584 3186 3129 
Q 3597 2675 3597 1894 
z
M 3022 2063 
Q 3016 2534 2758 2815 
Q 2500 3097 2075 3097 
Q 1594 3097 1305 2825 
Q 1016 2553 972 2059 
L 3022 2063 
z
" transform="scale(0.015625)"/>
       <path id="DejaVuSans-64" d="M 2906 2969 
L 2906 4863 
L 3481 4863 
L 3481 0 
L 2906 0 
L 2906 525 
Q 2725 213 2448 61 
Q 2172 -91 1784 -91 
Q 1150 -91 751 415 
Q 353 922 353 1747 
Q 353 2572 751 3078 
Q 1150 3584 1784 3584 
Q 2172 3584 2448 3432 
Q 2725 3281 2906 2969 
z
M 947 1747 
Q 947 1113 1208 752 
Q 1469 391 1925 391 
Q 2381 391 2643 752 
Q 2906 1113 2906 1747 
Q 2906 2381 2643 2742 
Q 2381 3103 1925 3103 
Q 1469 3103 1208 2742 
Q 947 2381 947 1747 
z
" transform="scale(0.015625)"/>
       <path id="DejaVuSans-6e" d="M 3513 2113 
L 3513 0 
L 2938 0 
L 2938 2094 
Q 2938 2591 2744 2837 
Q 2550 3084 2163 3084 
Q 1697 3084 1428 2787 
Q 1159 2491 1159 1978 
L 1159 0 
L 581 0 
L 581 3500 
L 1159 3500 
L 1159 2956 
Q 1366 3272 1645 3428 
Q 1925 3584 2291 3584 
Q 2894 3584 3203 3211 
Q 3513 2838 3513 2113 
z
" transform="scale(0.015625)"/>
       <path id="DejaVuSans-20" transform="scale(0.015625)"/>
       <path id="DejaVuSans-50" d="M 1259 4147 
L 1259 2394 
L 2053 2394 
Q 2494 2394 2734 2622 
Q 2975 2850 2975 3272 
Q 2975 3691 2734 3919 
Q 2494 4147 2053 4147 
L 1259 4147 
z
M 628 4666 
L 2053 4666 
Q 2838 4666 3239 4311 
Q 3641 3956 3641 3272 
Q 3641 2581 3239 2228 
Q 2838 1875 2053 1875 
L 1259 1875 
L 1259 0 
L 628 0 
L 628 4666 
z
" transform="scale(0.015625)"/>
       <path id="DejaVuSans-72" d="M 2631 2963 
Q 2534 3019 2420 3045 
Q 2306 3072 2169 3072 
Q 1681 3072 1420 2755 
Q 1159 2438 1159 1844 
L 1159 0 
L 581 0 
L 581 3500 
L 1159 3500 
L 1159 2956 
Q 1341 3275 1631 3429 
Q 1922 3584 2338 3584 
Q 2397 3584 2469 3576 
Q 2541 3569 2628 3553 
L 2631 2963 
z
" transform="scale(0.015625)"/>
       <path id="DejaVuSans-6f" d="M 1959 3097 
Q 1497 3097 1228 2736 
Q 959 2375 959 1747 
Q 959 1119 1226 758 
Q 1494 397 1959 397 
Q 2419 397 2687 759 
Q 2956 1122 2956 1747 
Q 2956 2369 2687 2733 
Q 2419 3097 1959 3097 
z
M 1959 3584 
Q 2709 3584 3137 3096 
Q 3566 2609 3566 1747 
Q 3566 888 3137 398 
Q 2709 -91 1959 -91 
Q 1206 -91 779 398 
Q 353 888 353 1747 
Q 353 2609 779 3096 
Q 1206 3584 1959 3584 
z
" transform="scale(0.015625)"/>
       <path id="DejaVuSans-62" d="M 3116 1747 
Q 3116 2381 2855 2742 
Q 2594 3103 2138 3103 
Q 1681 3103 1420 2742 
Q 1159 2381 1159 1747 
Q 1159 1113 1420 752 
Q 1681 391 2138 391 
Q 2594 391 2855 752 
Q 3116 1113 3116 1747 
z
M 1159 2969 
Q 1341 3281 1617 3432 
Q 1894 3584 2278 3584 
Q 2916 3584 3314 3078 
Q 3713 2572 3713 1747 
Q 3713 922 3314 415 
Q 2916 -91 2278 -91 
Q 1894 -91 1617 61 
Q 1341 213 1159 525 
L 1159 0 
L 581 0 
L 581 4863 
L 1159 4863 
L 1159 2969 
z
" transform="scale(0.015625)"/>
       <path id="DejaVuSans-61" d="M 2194 1759 
Q 1497 1759 1228 1600 
Q 959 1441 959 1056 
Q 959 750 1161 570 
Q 1363 391 1709 391 
Q 2188 391 2477 730 
Q 2766 1069 2766 1631 
L 2766 1759 
L 2194 1759 
z
M 3341 1997 
L 3341 0 
L 2766 0 
L 2766 531 
Q 2569 213 2275 61 
Q 1981 -91 1556 -91 
Q 1019 -91 701 211 
Q 384 513 384 1019 
Q 384 1609 779 1909 
Q 1175 2209 1959 2209 
L 2766 2209 
L 2766 2266 
Q 2766 2663 2505 2880 
Q 2244 3097 1772 3097 
Q 1472 3097 1187 3025 
Q 903 2953 641 2809 
L 641 3341 
Q 956 3463 1253 3523 
Q 1550 3584 1831 3584 
Q 2591 3584 2966 3190 
Q 3341 2797 3341 1997 
z
" transform="scale(0.015625)"/>
       <path id="DejaVuSans-69" d="M 603 3500 
L 1178 3500 
L 1178 0 
L 603 0 
L 603 3500 
z
M 603 4863 
L 1178 4863 
L 1178 4134 
L 603 4134 
L 603 4863 
z
" transform="scale(0.015625)"/>
       <path id="DejaVuSans-6c" d="M 603 4863 
L 1178 4863 
L 1178 0 
L 603 0 
L 603 4863 
z
" transform="scale(0.015625)"/>
       <path id="DejaVuSans-74" d="M 1172 4494 
L 1172 3500 
L 2356 3500 
L 2356 3053 
L 1172 3053 
L 1172 1153 
Q 1172 725 1289 603 
Q 1406 481 1766 481 
L 2356 481 
L 2356 0 
L 1766 0 
Q 1100 0 847 248 
Q 594 497 594 1153 
L 594 3053 
L 172 3053 
L 172 3500 
L 594 3500 
L 594 4494 
L 1172 4494 
z
" transform="scale(0.015625)"/>
       <path id="DejaVuSans-79" d="M 2059 -325 
Q 1816 -950 1584 -1140 
Q 1353 -1331 966 -1331 
L 506 -1331 
L 506 -850 
L 844 -850 
Q 1081 -850 1212 -737 
Q 1344 -625 1503 -206 
L 1606 56 
L 191 3500 
L 800 3500 
L 1894 763 
L 2988 3500 
L 3597 3500 
L 2059 -325 
z
" transform="scale(0.015625)"/>
      </defs>
      <use xlink:href="#DejaVuSans-45"/>
      <use xlink:href="#DejaVuSans-78" x="63.183594"/>
      <use xlink:href="#DejaVuSans-63" x="120.613281"/>
      <use xlink:href="#DejaVuSans-65" x="175.59375"/>
      <use xlink:href="#DejaVuSans-65" x="237.117188"/>
      <use xlink:href="#DejaVuSans-64" x="298.640625"/>
      <use xlink:href="#DejaVuSans-65" x="362.117188"/>
      <use xlink:href="#DejaVuSans-6e" x="423.640625"/>
      <use xlink:href="#DejaVuSans-63" x="487.019531"/>
      <use xlink:href="#DejaVuSans-65" x="542"/>
      <use xlink:href="#DejaVuSans-20" x="603.523438"/>
      <use xlink:href="#DejaVuSans-50" x="635.310547"/>
      <use xlink:href="#DejaVuSans-72" x="693.863281"/>
      <use xlink:href="#DejaVuSans-6f" x="732.726562"/>
      <use xlink:href="#DejaVuSans-62" x="793.908203"/>
      <use xlink:href="#DejaVuSans-61" x="857.384766"/>
      <use xlink:href="#DejaVuSans-62" x="918.664062"/>
      <use xlink:href="#DejaVuSans-69" x="982.140625"/>
      <use xlink:href="#DejaVuSans-6c" x="1009.923828"/>
      <use xlink:href="#DejaVuSans-69" x="1037.707031"/>
      <use xlink:href="#DejaVuSans-74" x="1065.490234"/>
      <use xlink:href="#DejaVuSans-79" x="1104.699219"/>
     </g>
    </g>
   </g>
   <g id="matplotlib.axis_2">
    <g id="ytick_1">
     <g id="line2d_6">
      <defs>
       <path id="maca1c536b5" d="M 0 0 
L -3.5 0 
" style="stroke: #000000; stroke-width: 0.8"/>
      </defs>
      <g>
       <use xlink:href="#maca1c536b5" x="62.86875" y="165.96" style="stroke: #000000; stroke-width: 0.8"/>
      </g>
     </g>
     <g id="text_7">
      <!-- 0.0000 -->
      <g transform="translate(20.878125 169.759219) scale(0.1 -0.1)">
       <defs>
        <path id="DejaVuSans-2e" d="M 684 794 
L 1344 794 
L 1344 0 
L 684 0 
L 684 794 
z
" transform="scale(0.015625)"/>
       </defs>
       <use xlink:href="#DejaVuSans-30"/>
       <use xlink:href="#DejaVuSans-2e" x="63.623047"/>
       <use xlink:href="#DejaVuSans-30" x="95.410156"/>
       <use xlink:href="#DejaVuSans-30" x="159.033203"/>
       <use xlink:href="#DejaVuSans-30" x="222.65625"/>
       <use xlink:href="#DejaVuSans-30" x="286.279297"/>
      </g>
     </g>
    </g>
    <g id="ytick_2">
     <g id="line2d_7">
      <g>
       <use xlink:href="#maca1c536b5" x="62.86875" y="138.627714" style="stroke: #000000; stroke-width: 0.8"/>
      </g>
     </g>
     <g id="text_8">
      <!-- 0.0001 -->
      <g transform="translate(20.878125 142.426933) scale(0.1 -0.1)">
       <use xlink:href="#DejaVuSans-30"/>
       <use xlink:href="#DejaVuSans-2e" x="63.623047"/>
       <use xlink:href="#DejaVuSans-30" x="95.410156"/>
       <use xlink:href="#DejaVuSans-30" x="159.033203"/>
       <use xlink:href="#DejaVuSans-30" x="222.65625"/>
       <use xlink:href="#DejaVuSans-31" x="286.279297"/>
      </g>
     </g>
    </g>
    <g id="ytick_3">
     <g id="line2d_8">
      <g>
       <use xlink:href="#maca1c536b5" x="62.86875" y="111.295428" style="stroke: #000000; stroke-width: 0.8"/>
      </g>
     </g>
     <g id="text_9">
      <!-- 0.0002 -->
      <g transform="translate(20.878125 115.094647) scale(0.1 -0.1)">
       <use xlink:href="#DejaVuSans-30"/>
       <use xlink:href="#DejaVuSans-2e" x="63.623047"/>
       <use xlink:href="#DejaVuSans-30" x="95.410156"/>
       <use xlink:href="#DejaVuSans-30" x="159.033203"/>
       <use xlink:href="#DejaVuSans-30" x="222.65625"/>
       <use xlink:href="#DejaVuSans-32" x="286.279297"/>
      </g>
     </g>
    </g>
    <g id="ytick_4">
     <g id="line2d_9">
      <g>
       <use xlink:href="#maca1c536b5" x="62.86875" y="83.963142" style="stroke: #000000; stroke-width: 0.8"/>
      </g>
     </g>
     <g id="text_10">
      <!-- 0.0003 -->
      <g transform="translate(20.878125 87.762361) scale(0.1 -0.1)">
       <use xlink:href="#DejaVuSans-30"/>
       <use xlink:href="#DejaVuSans-2e" x="63.623047"/>
       <use xlink:href="#DejaVuSans-30" x="95.410156"/>
       <use xlink:href="#DejaVuSans-30" x="159.033203"/>
       <use xlink:href="#DejaVuSans-30" x="222.65625"/>
       <use xlink:href="#DejaVuSans-33" x="286.279297"/>
      </g>
     </g>
    </g>
    <g id="ytick_5">
     <g id="line2d_10">
      <g>
       <use xlink:href="#maca1c536b5" x="62.86875" y="56.630856" style="stroke: #000000; stroke-width: 0.8"/>
      </g>
     </g>
     <g id="text_11">
      <!-- 0.0004 -->
      <g transform="translate(20.878125 60.430075) scale(0.1 -0.1)">
       <use xlink:href="#DejaVuSans-30"/>
       <use xlink:href="#DejaVuSans-2e" x="63.623047"/>
       <use xlink:href="#DejaVuSans-30" x="95.410156"/>
       <use xlink:href="#DejaVuSans-30" x="159.033203"/>
       <use xlink:href="#DejaVuSans-30" x="222.65625"/>
       <use xlink:href="#DejaVuSans-34" x="286.279297"/>
      </g>
     </g>
    </g>
    <g id="ytick_6">
     <g id="line2d_11">
      <g>
       <use xlink:href="#maca1c536b5" x="62.86875" y="29.298571" style="stroke: #000000; stroke-width: 0.8"/>
      </g>
     </g>
     <g id="text_12">
      <!-- 0.0005 -->
      <g transform="translate(20.878125 33.097789) scale(0.1 -0.1)">
       <defs>
        <path id="DejaVuSans-35" d="M 691 4666 
L 3169 4666 
L 3169 4134 
L 1269 4134 
L 1269 2991 
Q 1406 3038 1543 3061 
Q 1681 3084 1819 3084 
Q 2600 3084 3056 2656 
Q 3513 2228 3513 1497 
Q 3513 744 3044 326 
Q 2575 -91 1722 -91 
Q 1428 -91 1123 -41 
Q 819 9 494 109 
L 494 744 
Q 775 591 1075 516 
Q 1375 441 1709 441 
Q 2250 441 2565 725 
Q 2881 1009 2881 1497 
Q 2881 1984 2565 2268 
Q 2250 2553 1709 2553 
Q 1456 2553 1204 2497 
Q 953 2441 691 2322 
L 691 4666 
z
" transform="scale(0.015625)"/>
       </defs>
       <use xlink:href="#DejaVuSans-30"/>
       <use xlink:href="#DejaVuSans-2e" x="63.623047"/>
       <use xlink:href="#DejaVuSans-30" x="95.410156"/>
       <use xlink:href="#DejaVuSans-30" x="159.033203"/>
       <use xlink:href="#DejaVuSans-30" x="222.65625"/>
       <use xlink:href="#DejaVuSans-35" x="286.279297"/>
      </g>
     </g>
    </g>
    <g id="text_13">
     <!-- Flow [mm/s] -->
     <g transform="translate(14.798437 121.293594) rotate(-90) scale(0.1 -0.1)">
      <defs>
       <path id="DejaVuSans-46" d="M 628 4666 
L 3309 4666 
L 3309 4134 
L 1259 4134 
L 1259 2759 
L 3109 2759 
L 3109 2228 
L 1259 2228 
L 1259 0 
L 628 0 
L 628 4666 
z
" transform="scale(0.015625)"/>
       <path id="DejaVuSans-77" d="M 269 3500 
L 844 3500 
L 1563 769 
L 2278 3500 
L 2956 3500 
L 3675 769 
L 4391 3500 
L 4966 3500 
L 4050 0 
L 3372 0 
L 2619 2869 
L 1863 0 
L 1184 0 
L 269 3500 
z
" transform="scale(0.015625)"/>
       <path id="DejaVuSans-5b" d="M 550 4863 
L 1875 4863 
L 1875 4416 
L 1125 4416 
L 1125 -397 
L 1875 -397 
L 1875 -844 
L 550 -844 
L 550 4863 
z
" transform="scale(0.015625)"/>
       <path id="DejaVuSans-6d" d="M 3328 2828 
Q 3544 3216 3844 3400 
Q 4144 3584 4550 3584 
Q 5097 3584 5394 3201 
Q 5691 2819 5691 2113 
L 5691 0 
L 5113 0 
L 5113 2094 
Q 5113 2597 4934 2840 
Q 4756 3084 4391 3084 
Q 3944 3084 3684 2787 
Q 3425 2491 3425 1978 
L 3425 0 
L 2847 0 
L 2847 2094 
Q 2847 2600 2669 2842 
Q 2491 3084 2119 3084 
Q 1678 3084 1418 2786 
Q 1159 2488 1159 1978 
L 1159 0 
L 581 0 
L 581 3500 
L 1159 3500 
L 1159 2956 
Q 1356 3278 1631 3431 
Q 1906 3584 2284 3584 
Q 2666 3584 2933 3390 
Q 3200 3197 3328 2828 
z
" transform="scale(0.015625)"/>
       <path id="DejaVuSans-2f" d="M 1625 4666 
L 2156 4666 
L 531 -594 
L 0 -594 
L 1625 4666 
z
" transform="scale(0.015625)"/>
       <path id="DejaVuSans-73" d="M 2834 3397 
L 2834 2853 
Q 2591 2978 2328 3040 
Q 2066 3103 1784 3103 
Q 1356 3103 1142 2972 
Q 928 2841 928 2578 
Q 928 2378 1081 2264 
Q 1234 2150 1697 2047 
L 1894 2003 
Q 2506 1872 2764 1633 
Q 3022 1394 3022 966 
Q 3022 478 2636 193 
Q 2250 -91 1575 -91 
Q 1294 -91 989 -36 
Q 684 19 347 128 
L 347 722 
Q 666 556 975 473 
Q 1284 391 1588 391 
Q 1994 391 2212 530 
Q 2431 669 2431 922 
Q 2431 1156 2273 1281 
Q 2116 1406 1581 1522 
L 1381 1569 
Q 847 1681 609 1914 
Q 372 2147 372 2553 
Q 372 3047 722 3315 
Q 1072 3584 1716 3584 
Q 2034 3584 2315 3537 
Q 2597 3491 2834 3397 
z
" transform="scale(0.015625)"/>
       <path id="DejaVuSans-5d" d="M 1947 4863 
L 1947 -844 
L 622 -844 
L 622 -397 
L 1369 -397 
L 1369 4416 
L 622 4416 
L 622 4863 
L 1947 4863 
z
" transform="scale(0.015625)"/>
      </defs>
      <use xlink:href="#DejaVuSans-46"/>
      <use xlink:href="#DejaVuSans-6c" x="57.519531"/>
      <use xlink:href="#DejaVuSans-6f" x="85.302734"/>
      <use xlink:href="#DejaVuSans-77" x="146.484375"/>
      <use xlink:href="#DejaVuSans-20" x="228.271484"/>
      <use xlink:href="#DejaVuSans-5b" x="260.058594"/>
      <use xlink:href="#DejaVuSans-6d" x="299.072266"/>
      <use xlink:href="#DejaVuSans-6d" x="396.484375"/>
      <use xlink:href="#DejaVuSans-2f" x="493.896484"/>
      <use xlink:href="#DejaVuSans-73" x="527.587891"/>
      <use xlink:href="#DejaVuSans-5d" x="579.6875"/>
     </g>
    </g>
   </g>
   <g id="line2d_12">
    <path d="M 63.059672 127.8922 
L 63.632436 140.76906 
L 63.823358 142.995186 
L 64.014279 143.164431 
L 64.205201 144.432345 
L 64.777965 144.826828 
L 65.159808 145.333931 
L 65.35073 145.362086 
L 65.541651 145.58764 
L 65.732573 146.799245 
L 65.923495 147.081109 
L 66.114416 147.137419 
L 66.305338 147.334502 
L 66.496259 147.362657 
L 67.069024 149.1943 
L 67.641788 150.011421 
L 67.83271 150.180666 
L 68.023631 150.180666 
L 68.405474 150.37775 
L 68.596396 150.405905 
L 69.932847 151.364116 
L 70.123768 151.843064 
L 71.078376 152.209393 
L 71.651141 152.74465 
L 72.605748 152.857269 
L 72.987591 153.110979 
L 73.178513 153.110979 
L 73.560356 153.392843 
L 75.469571 153.731016 
L 75.660493 154.097345 
L 77.951551 154.886312 
L 78.524316 155.477879 
L 79.09708 155.534188 
L 79.669845 155.844207 
L 81.006296 156.266845 
L 81.388139 156.4924 
L 83.106432 157.140276 
L 83.679197 157.337676 
L 84.251962 157.872933 
L 84.824726 157.985869 
L 85.015648 158.126643 
L 85.397491 158.211107 
L 86.54302 158.464817 
L 86.924863 158.549281 
L 87.688549 158.633745 
L 88.070392 158.8593 
L 89.215922 159.112693 
L 89.597765 159.366402 
L 93.416195 159.930131 
L 93.798038 160.099059 
L 94.179881 160.127214 
L 94.561724 160.239833 
L 101.625821 161.366974 
L 102.198586 161.451438 
L 103.153193 161.508064 
L 104.489644 161.789612 
L 106.589781 161.874393 
L 109.453604 162.21225 
L 110.408212 162.268876 
L 111.553741 162.522269 
L 113.272035 162.606733 
L 114.226642 162.775979 
L 115.563093 162.860443 
L 117.66323 163.057843 
L 118.617838 163.114152 
L 119.381524 163.254926 
L 121.290739 163.339391 
L 124.918248 163.762029 
L 125.300091 163.818655 
L 126.063777 163.931274 
L 127.400228 164.043893 
L 129.309443 164.128357 
L 131.027737 164.269448 
L 133.127874 164.353912 
L 134.082482 164.410221 
L 135.991697 164.494686 
L 136.755383 164.522841 
L 140.382892 164.607621 
L 141.3375 164.663931 
L 145.155931 164.748395 
L 146.30146 164.83286 
L 148.974361 164.917324 
L 149.738047 164.945479 
L 153.365557 165.030259 
L 154.129243 165.058414 
L 158.520438 165.142879 
L 159.284124 165.171033 
L 163.675319 165.255498 
L 164.439005 165.283652 
L 169.021122 165.368117 
L 169.784808 165.396588 
L 176.276141 165.481052 
L 177.039827 165.509207 
L 183.913002 165.593671 
L 184.676688 165.621826 
L 195.559215 165.706291 
L 196.322901 165.734445 
L 212.933075 165.819226 
L 213.696761 165.847381 
L 230.306934 165.875536 
L 230.306934 165.875536 
" clip-path="url(#p66ef87c0a4)" style="fill: none; stroke: #000000; stroke-width: 1.5; stroke-linecap: square"/>
   </g>
   <g id="line2d_13">
    <path d="M 63.059846 14.76 
L 63.824229 56.7755 
L 64.015325 59.76533 
L 64.206421 67.905091 
L 64.397517 69.781504 
L 64.779709 76.602202 
L 64.970805 77.913088 
L 65.161901 80.877892 
L 65.735188 83.770387 
L 65.926284 84.068197 
L 66.11738 85.353015 
L 66.308476 85.765222 
L 66.499572 87.263561 
L 66.881764 88.119109 
L 67.07286 89.83871 
L 67.263955 90.109831 
L 67.455051 95.541632 
L 67.646147 95.664874 
L 67.837243 96.43273 
L 68.219435 96.680806 
L 68.410531 97.919964 
L 68.601627 98.119851 
L 68.983818 99.650642 
L 69.174914 100.12198 
L 69.36601 101.413035 
L 69.557106 101.480169 
L 69.748202 103.238139 
L 70.130394 104.176858 
L 70.32149 104.3164 
L 70.512586 104.601765 
L 70.703682 107.134996 
L 70.894777 108.103589 
L 71.085873 110.147588 
L 71.468065 110.902207 
L 71.850257 110.985155 
L 72.423545 112.778241 
L 72.805736 114.398073 
L 73.187928 117.262473 
L 73.379024 117.604924 
L 73.952312 120.609208 
L 74.143408 121.056519 
L 74.334503 122.332853 
L 74.525599 122.508939 
L 75.098887 125.046729 
L 75.289983 125.131427 
L 75.481079 126.388451 
L 75.672175 126.540414 
L 76.245462 127.654778 
L 76.436558 128.418251 
L 77.200942 129.274276 
L 77.392038 130.107333 
L 77.583134 130.260191 
L 77.965325 131.605048 
L 79.111901 133.003933 
L 79.302997 133.663572 
L 79.494092 133.829569 
L 79.685188 134.388241 
L 79.876284 135.427079 
L 80.06738 135.540088 
L 80.258476 135.824567 
L 81.02286 138.501686 
L 81.213955 138.906517 
L 81.405051 138.934519 
L 81.596147 140.410416 
L 81.787243 140.512983 
L 82.169435 141.600444 
L 82.742723 141.771099 
L 83.124914 143.313686 
L 83.31601 143.339014 
L 83.507106 144.46887 
L 83.889298 144.617109 
L 84.844777 144.753817 
L 85.035873 145.220535 
L 85.609161 145.369631 
L 86.373545 147.335741 
L 86.946832 148.049128 
L 88.284503 148.920811 
L 88.475599 149.544311 
L 88.666695 149.75383 
L 88.857791 150.274697 
L 89.239983 150.508977 
L 89.622175 151.571799 
L 89.813271 151.647891 
L 90.195462 152.452723 
L 91.342038 153.206919 
L 91.533134 153.227795 
L 91.915325 153.471779 
L 92.870805 153.758945 
L 93.061901 154.103892 
L 93.826284 154.39228 
L 94.01738 154.870741 
L 94.208476 154.961721 
L 94.781764 155.77254 
L 94.97286 156.013182 
L 95.355051 156.158769 
L 95.737243 156.277605 
L 96.501627 156.421216 
L 98.412586 156.955292 
L 104.336558 157.231891 
L 104.909846 157.321936 
L 106.056421 157.440091 
L 107.585188 157.594479 
L 107.776284 157.669026 
L 107.96738 158.021968 
L 108.349572 158.027053 
L 109.113955 158.463647 
L 109.687243 158.712178 
L 112.362586 159.411511 
L 112.744777 159.66225 
L 113.126969 159.682944 
L 113.509161 160.01319 
L 115.993408 160.606762 
L 116.757791 160.710036 
L 117.522175 160.884066 
L 118.286558 161.001694 
L 119.050942 161.3362 
L 121.91738 161.959772 
L 122.299572 162.035398 
L 123.637243 162.298479 
L 124.401627 162.416983 
L 127.459161 162.978229 
L 128.41464 163.010332 
L 128.796832 163.114227 
L 129.943408 163.249529 
L 131.089983 163.404144 
L 132.809846 163.522708 
L 134.529709 163.674135 
L 137.205051 163.880729 
L 139.498202 164.033459 
L 141.791353 164.138876 
L 144.084503 164.237279 
L 160.709846 164.519644 
L 198.546832 164.618778 
L 230.459846 164.764773 
L 230.459846 164.764773 
" clip-path="url(#p66ef87c0a4)" style="fill: none; stroke: #8da0cb; stroke-width: 1.5; stroke-linecap: square"/>
   </g>
   <g id="line2d_14">
    <path d="M 63.059846 155.948838 
L 63.250942 157.42484 
L 63.633134 158.131527 
L 63.824229 158.542913 
L 64.397517 158.656192 
L 66.11738 158.904466 
L 67.646147 159.104501 
L 68.028339 159.197702 
L 69.36601 159.30125 
L 80.640668 160.257658 
L 81.213955 160.311261 
L 83.889298 160.388284 
L 84.653682 160.459326 
L 91.533134 160.740903 
L 92.297517 160.824129 
L 110.069435 161.857606 
L 116.757791 162.090218 
L 122.87286 162.310666 
L 133.383134 162.519326 
L 217.083134 163.443686 
L 230.459846 163.538691 
L 230.459846 163.538691 
" clip-path="url(#p66ef87c0a4)" style="fill: none; stroke: #e78ac3; stroke-width: 1.5; stroke-linecap: square"/>
   </g>
   <g id="line2d_15">
    <path d="M 63.060108 121.726049 
L 63.634182 132.916118 
L 63.82554 132.954647 
L 64.208256 139.547629 
L 64.78233 139.594037 
L 64.973688 140.833861 
L 65.165046 141.089694 
L 66.69591 146.167192 
L 67.461343 146.184105 
L 67.844059 147.169525 
L 68.226775 147.496294 
L 68.418133 147.66541 
L 68.609491 148.236522 
L 68.800849 148.400909 
L 68.992207 148.847238 
L 69.183565 148.868473 
L 69.566281 149.202212 
L 69.757639 150.412116 
L 70.331713 150.576169 
L 70.523071 150.983019 
L 70.905787 151.108983 
L 71.288503 151.497204 
L 71.479861 151.608086 
L 71.671219 152.099134 
L 71.862577 152.226549 
L 72.053935 152.665753 
L 72.628009 152.715696 
L 78.36875 152.945668 
L 79.899614 153.485276 
L 81.047762 153.64822 
L 81.23912 153.714838 
L 81.430478 154.159546 
L 82.578627 154.441616 
L 82.961343 154.680111 
L 83.152701 154.700825 
L 83.726775 155.005846 
L 83.918133 155.017364 
L 84.109491 155.256941 
L 88.510725 155.986866 
L 89.658873 156.198085 
L 90.232948 156.313489 
L 92.337886 156.507546 
L 93.677392 156.787421 
L 95.590972 157.038928 
L 95.973688 157.115873 
L 97.121836 157.237074 
L 99.800849 157.661986 
L 101.523071 157.772545 
L 102.671219 157.917776 
L 105.158873 158.130738 
L 105.924306 158.171494 
L 107.263812 158.268159 
L 108.603318 158.338715 
L 110.32554 158.461366 
L 111.28233 158.495853 
L 113.19591 158.60671 
L 116.448997 158.740163 
L 118.745293 158.847489 
L 120.658873 158.9392 
L 124.294676 159.082608 
L 125.82554 159.107992 
L 151.467515 159.372944 
L 230.307022 159.377141 
L 230.307022 159.377141 
" clip-path="url(#p66ef87c0a4)" style="fill: none; stroke: #fc8d62; stroke-width: 1.5; stroke-linecap: square"/>
   </g>
   <g id="patch_3">
    <path d="M 62.86875 173.52 
L 62.86875 7.2 
" style="fill: none; stroke: #000000; stroke-width: 0.8; stroke-linejoin: miter; stroke-linecap: square"/>
   </g>
   <g id="patch_4">
    <path d="M 230.26875 173.52 
L 230.26875 7.2 
" style="fill: none; stroke: #000000; stroke-width: 0.8; stroke-linejoin: miter; stroke-linecap: square"/>
   </g>
   <g id="patch_5">
    <path d="M 62.86875 173.52 
L 230.26875 173.52 
" style="fill: none; stroke: #000000; stroke-width: 0.8; stroke-linejoin: miter; stroke-linecap: square"/>
   </g>
   <g id="patch_6">
    <path d="M 62.86875 7.2 
L 230.26875 7.2 
" style="fill: none; stroke: #000000; stroke-width: 0.8; stroke-linejoin: miter; stroke-linecap: square"/>
   </g>
   <g id="legend_1">
    <g id="patch_7">
     <path d="M 114.221875 73.9125 
L 223.26875 73.9125 
Q 225.26875 73.9125 225.26875 71.9125 
L 225.26875 14.2 
Q 225.26875 12.2 223.26875 12.2 
L 114.221875 12.2 
Q 112.221875 12.2 112.221875 14.2 
L 112.221875 71.9125 
Q 112.221875 73.9125 114.221875 73.9125 
z
" style="fill: #ffffff; opacity: 0.8; stroke: #cccccc; stroke-linejoin: miter"/>
    </g>
    <g id="line2d_16">
     <path d="M 116.221875 20.298438 
L 126.221875 20.298438 
L 136.221875 20.298438 
" style="fill: none; stroke: #000000; stroke-width: 1.5; stroke-linecap: square"/>
    </g>
    <g id="text_14">
     <!-- MEF Observed -->
     <g transform="translate(144.221875 23.798438) scale(0.1 -0.1)">
      <defs>
       <path id="DejaVuSans-4d" d="M 628 4666 
L 1569 4666 
L 2759 1491 
L 3956 4666 
L 4897 4666 
L 4897 0 
L 4281 0 
L 4281 4097 
L 3078 897 
L 2444 897 
L 1241 4097 
L 1241 0 
L 628 0 
L 628 4666 
z
" transform="scale(0.015625)"/>
       <path id="DejaVuSans-4f" d="M 2522 4238 
Q 1834 4238 1429 3725 
Q 1025 3213 1025 2328 
Q 1025 1447 1429 934 
Q 1834 422 2522 422 
Q 3209 422 3611 934 
Q 4013 1447 4013 2328 
Q 4013 3213 3611 3725 
Q 3209 4238 2522 4238 
z
M 2522 4750 
Q 3503 4750 4090 4092 
Q 4678 3434 4678 2328 
Q 4678 1225 4090 567 
Q 3503 -91 2522 -91 
Q 1538 -91 948 565 
Q 359 1222 359 2328 
Q 359 3434 948 4092 
Q 1538 4750 2522 4750 
z
" transform="scale(0.015625)"/>
       <path id="DejaVuSans-76" d="M 191 3500 
L 800 3500 
L 1894 563 
L 2988 3500 
L 3597 3500 
L 2284 0 
L 1503 0 
L 191 3500 
z
" transform="scale(0.015625)"/>
      </defs>
      <use xlink:href="#DejaVuSans-4d"/>
      <use xlink:href="#DejaVuSans-45" x="86.279297"/>
      <use xlink:href="#DejaVuSans-46" x="149.462891"/>
      <use xlink:href="#DejaVuSans-20" x="206.982422"/>
      <use xlink:href="#DejaVuSans-4f" x="238.769531"/>
      <use xlink:href="#DejaVuSans-62" x="317.480469"/>
      <use xlink:href="#DejaVuSans-73" x="380.957031"/>
      <use xlink:href="#DejaVuSans-65" x="433.056641"/>
      <use xlink:href="#DejaVuSans-72" x="494.580078"/>
      <use xlink:href="#DejaVuSans-76" x="535.693359"/>
      <use xlink:href="#DejaVuSans-65" x="594.873047"/>
      <use xlink:href="#DejaVuSans-64" x="656.396484"/>
     </g>
    </g>
    <g id="line2d_17">
     <path d="M 116.221875 34.976562 
L 126.221875 34.976562 
L 136.221875 34.976562 
" style="fill: none; stroke: #8da0cb; stroke-width: 1.5; stroke-linecap: square"/>
    </g>
    <g id="text_15">
     <!-- SPRUCE-Hollow -->
     <g transform="translate(144.221875 38.476562) scale(0.1 -0.1)">
      <defs>
       <path id="DejaVuSans-53" d="M 3425 4513 
L 3425 3897 
Q 3066 4069 2747 4153 
Q 2428 4238 2131 4238 
Q 1616 4238 1336 4038 
Q 1056 3838 1056 3469 
Q 1056 3159 1242 3001 
Q 1428 2844 1947 2747 
L 2328 2669 
Q 3034 2534 3370 2195 
Q 3706 1856 3706 1288 
Q 3706 609 3251 259 
Q 2797 -91 1919 -91 
Q 1588 -91 1214 -16 
Q 841 59 441 206 
L 441 856 
Q 825 641 1194 531 
Q 1563 422 1919 422 
Q 2459 422 2753 634 
Q 3047 847 3047 1241 
Q 3047 1584 2836 1778 
Q 2625 1972 2144 2069 
L 1759 2144 
Q 1053 2284 737 2584 
Q 422 2884 422 3419 
Q 422 4038 858 4394 
Q 1294 4750 2059 4750 
Q 2388 4750 2728 4690 
Q 3069 4631 3425 4513 
z
" transform="scale(0.015625)"/>
       <path id="DejaVuSans-52" d="M 2841 2188 
Q 3044 2119 3236 1894 
Q 3428 1669 3622 1275 
L 4263 0 
L 3584 0 
L 2988 1197 
Q 2756 1666 2539 1819 
Q 2322 1972 1947 1972 
L 1259 1972 
L 1259 0 
L 628 0 
L 628 4666 
L 2053 4666 
Q 2853 4666 3247 4331 
Q 3641 3997 3641 3322 
Q 3641 2881 3436 2590 
Q 3231 2300 2841 2188 
z
M 1259 4147 
L 1259 2491 
L 2053 2491 
Q 2509 2491 2742 2702 
Q 2975 2913 2975 3322 
Q 2975 3731 2742 3939 
Q 2509 4147 2053 4147 
L 1259 4147 
z
" transform="scale(0.015625)"/>
       <path id="DejaVuSans-55" d="M 556 4666 
L 1191 4666 
L 1191 1831 
Q 1191 1081 1462 751 
Q 1734 422 2344 422 
Q 2950 422 3222 751 
Q 3494 1081 3494 1831 
L 3494 4666 
L 4128 4666 
L 4128 1753 
Q 4128 841 3676 375 
Q 3225 -91 2344 -91 
Q 1459 -91 1007 375 
Q 556 841 556 1753 
L 556 4666 
z
" transform="scale(0.015625)"/>
       <path id="DejaVuSans-43" d="M 4122 4306 
L 4122 3641 
Q 3803 3938 3442 4084 
Q 3081 4231 2675 4231 
Q 1875 4231 1450 3742 
Q 1025 3253 1025 2328 
Q 1025 1406 1450 917 
Q 1875 428 2675 428 
Q 3081 428 3442 575 
Q 3803 722 4122 1019 
L 4122 359 
Q 3791 134 3420 21 
Q 3050 -91 2638 -91 
Q 1578 -91 968 557 
Q 359 1206 359 2328 
Q 359 3453 968 4101 
Q 1578 4750 2638 4750 
Q 3056 4750 3426 4639 
Q 3797 4528 4122 4306 
z
" transform="scale(0.015625)"/>
       <path id="DejaVuSans-2d" d="M 313 2009 
L 1997 2009 
L 1997 1497 
L 313 1497 
L 313 2009 
z
" transform="scale(0.015625)"/>
       <path id="DejaVuSans-48" d="M 628 4666 
L 1259 4666 
L 1259 2753 
L 3553 2753 
L 3553 4666 
L 4184 4666 
L 4184 0 
L 3553 0 
L 3553 2222 
L 1259 2222 
L 1259 0 
L 628 0 
L 628 4666 
z
" transform="scale(0.015625)"/>
      </defs>
      <use xlink:href="#DejaVuSans-53"/>
      <use xlink:href="#DejaVuSans-50" x="63.476562"/>
      <use xlink:href="#DejaVuSans-52" x="123.779297"/>
      <use xlink:href="#DejaVuSans-55" x="193.261719"/>
      <use xlink:href="#DejaVuSans-43" x="266.455078"/>
      <use xlink:href="#DejaVuSans-45" x="336.279297"/>
      <use xlink:href="#DejaVuSans-2d" x="399.462891"/>
      <use xlink:href="#DejaVuSans-48" x="435.546875"/>
      <use xlink:href="#DejaVuSans-6f" x="510.742188"/>
      <use xlink:href="#DejaVuSans-6c" x="571.923828"/>
      <use xlink:href="#DejaVuSans-6c" x="599.707031"/>
      <use xlink:href="#DejaVuSans-6f" x="627.490234"/>
      <use xlink:href="#DejaVuSans-77" x="688.671875"/>
     </g>
    </g>
    <g id="line2d_18">
     <path d="M 116.221875 49.654687 
L 126.221875 49.654687 
L 136.221875 49.654687 
" style="fill: none; stroke: #e78ac3; stroke-width: 1.5; stroke-linecap: square"/>
    </g>
    <g id="text_16">
     <!-- HILLSLOPE -->
     <g transform="translate(144.221875 53.154687) scale(0.1 -0.1)">
      <defs>
       <path id="DejaVuSans-49" d="M 628 4666 
L 1259 4666 
L 1259 0 
L 628 0 
L 628 4666 
z
" transform="scale(0.015625)"/>
       <path id="DejaVuSans-4c" d="M 628 4666 
L 1259 4666 
L 1259 531 
L 3531 531 
L 3531 0 
L 628 0 
L 628 4666 
z
" transform="scale(0.015625)"/>
      </defs>
      <use xlink:href="#DejaVuSans-48"/>
      <use xlink:href="#DejaVuSans-49" x="75.195312"/>
      <use xlink:href="#DejaVuSans-4c" x="104.6875"/>
      <use xlink:href="#DejaVuSans-4c" x="160.400391"/>
      <use xlink:href="#DejaVuSans-53" x="216.113281"/>
      <use xlink:href="#DejaVuSans-4c" x="279.589844"/>
      <use xlink:href="#DejaVuSans-4f" x="331.677734"/>
      <use xlink:href="#DejaVuSans-50" x="410.388672"/>
      <use xlink:href="#DejaVuSans-45" x="470.691406"/>
     </g>
    </g>
    <g id="line2d_19">
     <path d="M 116.221875 64.332813 
L 126.221875 64.332813 
L 136.221875 64.332813 
" style="fill: none; stroke: #fc8d62; stroke-width: 1.5; stroke-linecap: square"/>
    </g>
    <g id="text_17">
     <!-- CLM 5.0 -->
     <g transform="translate(144.221875 67.832813) scale(0.1 -0.1)">
      <use xlink:href="#DejaVuSans-43"/>
      <use xlink:href="#DejaVuSans-4c" x="69.824219"/>
      <use xlink:href="#DejaVuSans-4d" x="125.537109"/>
      <use xlink:href="#DejaVuSans-20" x="211.816406"/>
      <use xlink:href="#DejaVuSans-35" x="243.603516"/>
      <use xlink:href="#DejaVuSans-2e" x="307.226562"/>
      <use xlink:href="#DejaVuSans-30" x="339.013672"/>
     </g>
    </g>
   </g>
  </g>
 </g>
 <defs>
  <clipPath id="p66ef87c0a4">
   <rect x="62.86875" y="7.2" width="167.4" height="166.32"/>
  </clipPath>
 </defs>
</svg>
