<?xml version="1.0" encoding="utf-8" standalone="no"?>
<!DOCTYPE svg PUBLIC "-//W3C//DTD SVG 1.1//EN"
  "http://www.w3.org/Graphics/SVG/1.1/DTD/svg11.dtd">
<svg xmlns:xlink="http://www.w3.org/1999/xlink" width="344.025pt" height="214.875469pt" viewBox="0 0 344.025 214.875469" xmlns="http://www.w3.org/2000/svg" version="1.1">
 <metadata>
  <rdf:RDF xmlns:dc="http://purl.org/dc/elements/1.1/" xmlns:cc="http://creativecommons.org/ns#" xmlns:rdf="http://www.w3.org/1999/02/22-rdf-syntax-ns#">
   <cc:Work>
    <dc:type rdf:resource="http://purl.org/dc/dcmitype/StillImage"/>
    <dc:date>2025-09-16T10:20:55.082001</dc:date>
    <dc:format>image/svg+xml</dc:format>
    <dc:creator>
     <cc:Agent>
      <dc:title>Matplotlib v3.6.3, https://matplotlib.org/</dc:title>
     </cc:Agent>
    </dc:creator>
   </cc:Work>
  </rdf:RDF>
 </metadata>
 <defs>
  <style type="text/css">*{stroke-linejoin: round; stroke-linecap: butt}</style>
 </defs>
 <g id="figure_1">
  <g id="patch_1">
   <path d="M 0 214.875469 
L 344.025 214.875469 
L 344.025 0 
L 0 0 
z
" style="fill: #ffffff"/>
  </g>
  <g id="axes_1">
   <g id="patch_2">
    <path d="M 51.378125 177.319219 
L 218.778125 177.319219 
L 218.778125 10.999219 
L 51.378125 10.999219 
z
" style="fill: #ffffff"/>
   </g>
   <g id="matplotlib.axis_1">
    <g id="xtick_1">
     <g id="line2d_1">
      <defs>
       <path id="m450820bf86" d="M 0 0 
L 0 3.5 
" style="stroke: #000000; stroke-width: 0.8"/>
      </defs>
      <g>
       <use xlink:href="#m450820bf86" x="51.378125" y="177.319219" style="stroke: #000000; stroke-width: 0.8"/>
      </g>
     </g>
     <g id="text_1">
      <!-- 0 -->
      <g transform="translate(48.196875 191.917656) scale(0.1 -0.1)">
       <defs>
        <path id="DejaVuSans-30" d="M 2034 4250 
Q 1547 4250 1301 3770 
Q 1056 3291 1056 2328 
Q 1056 1369 1301 889 
Q 1547 409 2034 409 
Q 2525 409 2770 889 
Q 3016 1369 3016 2328 
Q 3016 3291 2770 3770 
Q 2525 4250 2034 4250 
z
M 2034 4750 
Q 2819 4750 3233 4129 
Q 3647 3509 3647 2328 
Q 3647 1150 3233 529 
Q 2819 -91 2034 -91 
Q 1250 -91 836 529 
Q 422 1150 422 2328 
Q 422 3509 836 4129 
Q 1250 4750 2034 4750 
z
" transform="scale(0.015625)"/>
       </defs>
       <use xlink:href="#DejaVuSans-30"/>
      </g>
     </g>
    </g>
    <g id="xtick_2">
     <g id="line2d_2">
      <g>
       <use xlink:href="#m450820bf86" x="107.178125" y="177.319219" style="stroke: #000000; stroke-width: 0.8"/>
      </g>
     </g>
     <g id="text_2">
      <!-- 10 -->
      <g transform="translate(100.815625 191.917656) scale(0.1 -0.1)">
       <defs>
        <path id="DejaVuSans-31" d="M 794 531 
L 1825 531 
L 1825 4091 
L 703 3866 
L 703 4441 
L 1819 4666 
L 2450 4666 
L 2450 531 
L 3481 531 
L 3481 0 
L 794 0 
L 794 531 
z
" transform="scale(0.015625)"/>
       </defs>
       <use xlink:href="#DejaVuSans-31"/>
       <use xlink:href="#DejaVuSans-30" x="63.623047"/>
      </g>
     </g>
    </g>
    <g id="xtick_3">
     <g id="line2d_3">
      <g>
       <use xlink:href="#m450820bf86" x="162.978125" y="177.319219" style="stroke: #000000; stroke-width: 0.8"/>
      </g>
     </g>
     <g id="text_3">
      <!-- 20 -->
      <g transform="translate(156.615625 191.917656) scale(0.1 -0.1)">
       <defs>
        <path id="DejaVuSans-32" d="M 1228 531 
L 3431 531 
L 3431 0 
L 469 0 
L 469 531 
Q 828 903 1448 1529 
Q 2069 2156 2228 2338 
Q 2531 2678 2651 2914 
Q 2772 3150 2772 3378 
Q 2772 3750 2511 3984 
Q 2250 4219 1831 4219 
Q 1534 4219 1204 4116 
Q 875 4013 500 3803 
L 500 4441 
Q 881 4594 1212 4672 
Q 1544 4750 1819 4750 
Q 2544 4750 2975 4387 
Q 3406 4025 3406 3419 
Q 3406 3131 3298 2873 
Q 3191 2616 2906 2266 
Q 2828 2175 2409 1742 
Q 1991 1309 1228 531 
z
" transform="scale(0.015625)"/>
       </defs>
       <use xlink:href="#DejaVuSans-32"/>
       <use xlink:href="#DejaVuSans-30" x="63.623047"/>
      </g>
     </g>
    </g>
    <g id="xtick_4">
     <g id="line2d_4">
      <g>
       <use xlink:href="#m450820bf86" x="218.778125" y="177.319219" style="stroke: #000000; stroke-width: 0.8"/>
      </g>
     </g>
     <g id="text_4">
      <!-- 30 -->
      <g transform="translate(212.415625 191.917656) scale(0.1 -0.1)">
       <defs>
        <path id="DejaVuSans-33" d="M 2597 2516 
Q 3050 2419 3304 2112 
Q 3559 1806 3559 1356 
Q 3559 666 3084 287 
Q 2609 -91 1734 -91 
Q 1441 -91 1130 -33 
Q 819 25 488 141 
L 488 750 
Q 750 597 1062 519 
Q 1375 441 1716 441 
Q 2309 441 2620 675 
Q 2931 909 2931 1356 
Q 2931 1769 2642 2001 
Q 2353 2234 1838 2234 
L 1294 2234 
L 1294 2753 
L 1863 2753 
Q 2328 2753 2575 2939 
Q 2822 3125 2822 3475 
Q 2822 3834 2567 4026 
Q 2313 4219 1838 4219 
Q 1578 4219 1281 4162 
Q 984 4106 628 3988 
L 628 4550 
Q 988 4650 1302 4700 
Q 1616 4750 1894 4750 
Q 2613 4750 3031 4423 
Q 3450 4097 3450 3541 
Q 3450 3153 3228 2886 
Q 3006 2619 2597 2516 
z
" transform="scale(0.015625)"/>
       </defs>
       <use xlink:href="#DejaVuSans-33"/>
       <use xlink:href="#DejaVuSans-30" x="63.623047"/>
      </g>
     </g>
    </g>
    <g id="text_5">
     <!-- Exceedence Probability -->
     <g transform="translate(76.88125 205.595781) scale(0.1 -0.1)">
      <defs>
       <path id="DejaVuSans-45" d="M 628 4666 
L 3578 4666 
L 3578 4134 
L 1259 4134 
L 1259 2753 
L 3481 2753 
L 3481 2222 
L 1259 2222 
L 1259 531 
L 3634 531 
L 3634 0 
L 628 0 
L 628 4666 
z
" transform="scale(0.015625)"/>
       <path id="DejaVuSans-78" d="M 3513 3500 
L 2247 1797 
L 3578 0 
L 2900 0 
L 1881 1375 
L 863 0 
L 184 0 
L 1544 1831 
L 300 3500 
L 978 3500 
L 1906 2253 
L 2834 3500 
L 3513 3500 
z
" transform="scale(0.015625)"/>
       <path id="DejaVuSans-63" d="M 3122 3366 
L 3122 2828 
Q 2878 2963 2633 3030 
Q 2388 3097 2138 3097 
Q 1578 3097 1268 2742 
Q 959 2388 959 1747 
Q 959 1106 1268 751 
Q 1578 397 2138 397 
Q 2388 397 2633 464 
Q 2878 531 3122 666 
L 3122 134 
Q 2881 22 2623 -34 
Q 2366 -91 2075 -91 
Q 1284 -91 818 406 
Q 353 903 353 1747 
Q 353 2603 823 3093 
Q 1294 3584 2113 3584 
Q 2378 3584 2631 3529 
Q 2884 3475 3122 3366 
z
" transform="scale(0.015625)"/>
       <path id="DejaVuSans-65" d="M 3597 1894 
L 3597 1613 
L 953 1613 
Q 991 1019 1311 708 
Q 1631 397 2203 397 
Q 2534 397 2845 478 
Q 3156 559 3463 722 
L 3463 178 
Q 3153 47 2828 -22 
Q 2503 -91 2169 -91 
Q 1331 -91 842 396 
Q 353 884 353 1716 
Q 353 2575 817 3079 
Q 1281 3584 2069 3584 
Q 2775 3584 3186 3129 
Q 3597 2675 3597 1894 
z
M 3022 2063 
Q 3016 2534 2758 2815 
Q 2500 3097 2075 3097 
Q 1594 3097 1305 2825 
Q 1016 2553 972 2059 
L 3022 2063 
z
" transform="scale(0.015625)"/>
       <path id="DejaVuSans-64" d="M 2906 2969 
L 2906 4863 
L 3481 4863 
L 3481 0 
L 2906 0 
L 2906 525 
Q 2725 213 2448 61 
Q 2172 -91 1784 -91 
Q 1150 -91 751 415 
Q 353 922 353 1747 
Q 353 2572 751 3078 
Q 1150 3584 1784 3584 
Q 2172 3584 2448 3432 
Q 2725 3281 2906 2969 
z
M 947 1747 
Q 947 1113 1208 752 
Q 1469 391 1925 391 
Q 2381 391 2643 752 
Q 2906 1113 2906 1747 
Q 2906 2381 2643 2742 
Q 2381 3103 1925 3103 
Q 1469 3103 1208 2742 
Q 947 2381 947 1747 
z
" transform="scale(0.015625)"/>
       <path id="DejaVuSans-6e" d="M 3513 2113 
L 3513 0 
L 2938 0 
L 2938 2094 
Q 2938 2591 2744 2837 
Q 2550 3084 2163 3084 
Q 1697 3084 1428 2787 
Q 1159 2491 1159 1978 
L 1159 0 
L 581 0 
L 581 3500 
L 1159 3500 
L 1159 2956 
Q 1366 3272 1645 3428 
Q 1925 3584 2291 3584 
Q 2894 3584 3203 3211 
Q 3513 2838 3513 2113 
z
" transform="scale(0.015625)"/>
       <path id="DejaVuSans-20" transform="scale(0.015625)"/>
       <path id="DejaVuSans-50" d="M 1259 4147 
L 1259 2394 
L 2053 2394 
Q 2494 2394 2734 2622 
Q 2975 2850 2975 3272 
Q 2975 3691 2734 3919 
Q 2494 4147 2053 4147 
L 1259 4147 
z
M 628 4666 
L 2053 4666 
Q 2838 4666 3239 4311 
Q 3641 3956 3641 3272 
Q 3641 2581 3239 2228 
Q 2838 1875 2053 1875 
L 1259 1875 
L 1259 0 
L 628 0 
L 628 4666 
z
" transform="scale(0.015625)"/>
       <path id="DejaVuSans-72" d="M 2631 2963 
Q 2534 3019 2420 3045 
Q 2306 3072 2169 3072 
Q 1681 3072 1420 2755 
Q 1159 2438 1159 1844 
L 1159 0 
L 581 0 
L 581 3500 
L 1159 3500 
L 1159 2956 
Q 1341 3275 1631 3429 
Q 1922 3584 2338 3584 
Q 2397 3584 2469 3576 
Q 2541 3569 2628 3553 
L 2631 2963 
z
" transform="scale(0.015625)"/>
       <path id="DejaVuSans-6f" d="M 1959 3097 
Q 1497 3097 1228 2736 
Q 959 2375 959 1747 
Q 959 1119 1226 758 
Q 1494 397 1959 397 
Q 2419 397 2687 759 
Q 2956 1122 2956 1747 
Q 2956 2369 2687 2733 
Q 2419 3097 1959 3097 
z
M 1959 3584 
Q 2709 3584 3137 3096 
Q 3566 2609 3566 1747 
Q 3566 888 3137 398 
Q 2709 -91 1959 -91 
Q 1206 -91 779 398 
Q 353 888 353 1747 
Q 353 2609 779 3096 
Q 1206 3584 1959 3584 
z
" transform="scale(0.015625)"/>
       <path id="DejaVuSans-62" d="M 3116 1747 
Q 3116 2381 2855 2742 
Q 2594 3103 2138 3103 
Q 1681 3103 1420 2742 
Q 1159 2381 1159 1747 
Q 1159 1113 1420 752 
Q 1681 391 2138 391 
Q 2594 391 2855 752 
Q 3116 1113 3116 1747 
z
M 1159 2969 
Q 1341 3281 1617 3432 
Q 1894 3584 2278 3584 
Q 2916 3584 3314 3078 
Q 3713 2572 3713 1747 
Q 3713 922 3314 415 
Q 2916 -91 2278 -91 
Q 1894 -91 1617 61 
Q 1341 213 1159 525 
L 1159 0 
L 581 0 
L 581 4863 
L 1159 4863 
L 1159 2969 
z
" transform="scale(0.015625)"/>
       <path id="DejaVuSans-61" d="M 2194 1759 
Q 1497 1759 1228 1600 
Q 959 1441 959 1056 
Q 959 750 1161 570 
Q 1363 391 1709 391 
Q 2188 391 2477 730 
Q 2766 1069 2766 1631 
L 2766 1759 
L 2194 1759 
z
M 3341 1997 
L 3341 0 
L 2766 0 
L 2766 531 
Q 2569 213 2275 61 
Q 1981 -91 1556 -91 
Q 1019 -91 701 211 
Q 384 513 384 1019 
Q 384 1609 779 1909 
Q 1175 2209 1959 2209 
L 2766 2209 
L 2766 2266 
Q 2766 2663 2505 2880 
Q 2244 3097 1772 3097 
Q 1472 3097 1187 3025 
Q 903 2953 641 2809 
L 641 3341 
Q 956 3463 1253 3523 
Q 1550 3584 1831 3584 
Q 2591 3584 2966 3190 
Q 3341 2797 3341 1997 
z
" transform="scale(0.015625)"/>
       <path id="DejaVuSans-69" d="M 603 3500 
L 1178 3500 
L 1178 0 
L 603 0 
L 603 3500 
z
M 603 4863 
L 1178 4863 
L 1178 4134 
L 603 4134 
L 603 4863 
z
" transform="scale(0.015625)"/>
       <path id="DejaVuSans-6c" d="M 603 4863 
L 1178 4863 
L 1178 0 
L 603 0 
L 603 4863 
z
" transform="scale(0.015625)"/>
       <path id="DejaVuSans-74" d="M 1172 4494 
L 1172 3500 
L 2356 3500 
L 2356 3053 
L 1172 3053 
L 1172 1153 
Q 1172 725 1289 603 
Q 1406 481 1766 481 
L 2356 481 
L 2356 0 
L 1766 0 
Q 1100 0 847 248 
Q 594 497 594 1153 
L 594 3053 
L 172 3053 
L 172 3500 
L 594 3500 
L 594 4494 
L 1172 4494 
z
" transform="scale(0.015625)"/>
       <path id="DejaVuSans-79" d="M 2059 -325 
Q 1816 -950 1584 -1140 
Q 1353 -1331 966 -1331 
L 506 -1331 
L 506 -850 
L 844 -850 
Q 1081 -850 1212 -737 
Q 1344 -625 1503 -206 
L 1606 56 
L 191 3500 
L 800 3500 
L 1894 763 
L 2988 3500 
L 3597 3500 
L 2059 -325 
z
" transform="scale(0.015625)"/>
      </defs>
      <use xlink:href="#DejaVuSans-45"/>
      <use xlink:href="#DejaVuSans-78" x="63.183594"/>
      <use xlink:href="#DejaVuSans-63" x="120.613281"/>
      <use xlink:href="#DejaVuSans-65" x="175.59375"/>
      <use xlink:href="#DejaVuSans-65" x="237.117188"/>
      <use xlink:href="#DejaVuSans-64" x="298.640625"/>
      <use xlink:href="#DejaVuSans-65" x="362.117188"/>
      <use xlink:href="#DejaVuSans-6e" x="423.640625"/>
      <use xlink:href="#DejaVuSans-63" x="487.019531"/>
      <use xlink:href="#DejaVuSans-65" x="542"/>
      <use xlink:href="#DejaVuSans-20" x="603.523438"/>
      <use xlink:href="#DejaVuSans-50" x="635.310547"/>
      <use xlink:href="#DejaVuSans-72" x="693.863281"/>
      <use xlink:href="#DejaVuSans-6f" x="732.726562"/>
      <use xlink:href="#DejaVuSans-62" x="793.908203"/>
      <use xlink:href="#DejaVuSans-61" x="857.384766"/>
      <use xlink:href="#DejaVuSans-62" x="918.664062"/>
      <use xlink:href="#DejaVuSans-69" x="982.140625"/>
      <use xlink:href="#DejaVuSans-6c" x="1009.923828"/>
      <use xlink:href="#DejaVuSans-69" x="1037.707031"/>
      <use xlink:href="#DejaVuSans-74" x="1065.490234"/>
      <use xlink:href="#DejaVuSans-79" x="1104.699219"/>
     </g>
    </g>
   </g>
   <g id="matplotlib.axis_2">
    <g id="ytick_1">
     <g id="line2d_5">
      <defs>
       <path id="m2d069a6e53" d="M 0 0 
L -3.5 0 
" style="stroke: #000000; stroke-width: 0.8"/>
      </defs>
      <g>
       <use xlink:href="#m2d069a6e53" x="51.378125" y="177.319219" style="stroke: #000000; stroke-width: 0.8"/>
      </g>
     </g>
     <g id="text_6">
      <!-- $\mathdefault{10^{-6}}$ -->
      <g transform="translate(20.878125 181.118438) scale(0.1 -0.1)">
       <defs>
        <path id="DejaVuSans-2212" d="M 678 2272 
L 4684 2272 
L 4684 1741 
L 678 1741 
L 678 2272 
z
" transform="scale(0.015625)"/>
        <path id="DejaVuSans-36" d="M 2113 2584 
Q 1688 2584 1439 2293 
Q 1191 2003 1191 1497 
Q 1191 994 1439 701 
Q 1688 409 2113 409 
Q 2538 409 2786 701 
Q 3034 994 3034 1497 
Q 3034 2003 2786 2293 
Q 2538 2584 2113 2584 
z
M 3366 4563 
L 3366 3988 
Q 3128 4100 2886 4159 
Q 2644 4219 2406 4219 
Q 1781 4219 1451 3797 
Q 1122 3375 1075 2522 
Q 1259 2794 1537 2939 
Q 1816 3084 2150 3084 
Q 2853 3084 3261 2657 
Q 3669 2231 3669 1497 
Q 3669 778 3244 343 
Q 2819 -91 2113 -91 
Q 1303 -91 875 529 
Q 447 1150 447 2328 
Q 447 3434 972 4092 
Q 1497 4750 2381 4750 
Q 2619 4750 2861 4703 
Q 3103 4656 3366 4563 
z
" transform="scale(0.015625)"/>
       </defs>
       <use xlink:href="#DejaVuSans-31" transform="translate(0 0.765625)"/>
       <use xlink:href="#DejaVuSans-30" transform="translate(63.623047 0.765625)"/>
       <use xlink:href="#DejaVuSans-2212" transform="translate(128.203125 39.046875) scale(0.7)"/>
       <use xlink:href="#DejaVuSans-36" transform="translate(186.855469 39.046875) scale(0.7)"/>
      </g>
     </g>
    </g>
    <g id="ytick_2">
     <g id="line2d_6">
      <g>
       <use xlink:href="#m2d069a6e53" x="51.378125" y="94.159219" style="stroke: #000000; stroke-width: 0.8"/>
      </g>
     </g>
     <g id="text_7">
      <!-- $\mathdefault{10^{-5}}$ -->
      <g transform="translate(20.878125 97.958438) scale(0.1 -0.1)">
       <defs>
        <path id="DejaVuSans-35" d="M 691 4666 
L 3169 4666 
L 3169 4134 
L 1269 4134 
L 1269 2991 
Q 1406 3038 1543 3061 
Q 1681 3084 1819 3084 
Q 2600 3084 3056 2656 
Q 3513 2228 3513 1497 
Q 3513 744 3044 326 
Q 2575 -91 1722 -91 
Q 1428 -91 1123 -41 
Q 819 9 494 109 
L 494 744 
Q 775 591 1075 516 
Q 1375 441 1709 441 
Q 2250 441 2565 725 
Q 2881 1009 2881 1497 
Q 2881 1984 2565 2268 
Q 2250 2553 1709 2553 
Q 1456 2553 1204 2497 
Q 953 2441 691 2322 
L 691 4666 
z
" transform="scale(0.015625)"/>
       </defs>
       <use xlink:href="#DejaVuSans-31" transform="translate(0 0.684375)"/>
       <use xlink:href="#DejaVuSans-30" transform="translate(63.623047 0.684375)"/>
       <use xlink:href="#DejaVuSans-2212" transform="translate(128.203125 38.965625) scale(0.7)"/>
       <use xlink:href="#DejaVuSans-35" transform="translate(186.855469 38.965625) scale(0.7)"/>
      </g>
     </g>
    </g>
    <g id="ytick_3">
     <g id="line2d_7">
      <g>
       <use xlink:href="#m2d069a6e53" x="51.378125" y="10.999219" style="stroke: #000000; stroke-width: 0.8"/>
      </g>
     </g>
     <g id="text_8">
      <!-- $\mathdefault{10^{-4}}$ -->
      <g transform="translate(20.878125 14.798438) scale(0.1 -0.1)">
       <defs>
        <path id="DejaVuSans-34" d="M 2419 4116 
L 825 1625 
L 2419 1625 
L 2419 4116 
z
M 2253 4666 
L 3047 4666 
L 3047 1625 
L 3713 1625 
L 3713 1100 
L 3047 1100 
L 3047 0 
L 2419 0 
L 2419 1100 
L 313 1100 
L 313 1709 
L 2253 4666 
z
" transform="scale(0.015625)"/>
       </defs>
       <use xlink:href="#DejaVuSans-31" transform="translate(0 0.684375)"/>
       <use xlink:href="#DejaVuSans-30" transform="translate(63.623047 0.684375)"/>
       <use xlink:href="#DejaVuSans-2212" transform="translate(128.203125 38.965625) scale(0.7)"/>
       <use xlink:href="#DejaVuSans-34" transform="translate(186.855469 38.965625) scale(0.7)"/>
      </g>
     </g>
    </g>
    <g id="ytick_4">
     <g id="line2d_8">
      <defs>
       <path id="m3540f98a90" d="M 0 0 
L -2 0 
" style="stroke: #000000; stroke-width: 0.6"/>
      </defs>
      <g>
       <use xlink:href="#m3540f98a90" x="51.378125" y="152.285564" style="stroke: #000000; stroke-width: 0.6"/>
      </g>
     </g>
    </g>
    <g id="ytick_5">
     <g id="line2d_9">
      <g>
       <use xlink:href="#m3540f98a90" x="51.378125" y="137.641815" style="stroke: #000000; stroke-width: 0.6"/>
      </g>
     </g>
    </g>
    <g id="ytick_6">
     <g id="line2d_10">
      <g>
       <use xlink:href="#m3540f98a90" x="51.378125" y="127.25191" style="stroke: #000000; stroke-width: 0.6"/>
      </g>
     </g>
    </g>
    <g id="ytick_7">
     <g id="line2d_11">
      <g>
       <use xlink:href="#m3540f98a90" x="51.378125" y="119.192873" style="stroke: #000000; stroke-width: 0.6"/>
      </g>
     </g>
    </g>
    <g id="ytick_8">
     <g id="line2d_12">
      <g>
       <use xlink:href="#m3540f98a90" x="51.378125" y="112.608161" style="stroke: #000000; stroke-width: 0.6"/>
      </g>
     </g>
    </g>
    <g id="ytick_9">
     <g id="line2d_13">
      <g>
       <use xlink:href="#m3540f98a90" x="51.378125" y="107.040866" style="stroke: #000000; stroke-width: 0.6"/>
      </g>
     </g>
    </g>
    <g id="ytick_10">
     <g id="line2d_14">
      <g>
       <use xlink:href="#m3540f98a90" x="51.378125" y="102.218255" style="stroke: #000000; stroke-width: 0.6"/>
      </g>
     </g>
    </g>
    <g id="ytick_11">
     <g id="line2d_15">
      <g>
       <use xlink:href="#m3540f98a90" x="51.378125" y="97.964412" style="stroke: #000000; stroke-width: 0.6"/>
      </g>
     </g>
    </g>
    <g id="ytick_12">
     <g id="line2d_16">
      <g>
       <use xlink:href="#m3540f98a90" x="51.378125" y="69.125564" style="stroke: #000000; stroke-width: 0.6"/>
      </g>
     </g>
    </g>
    <g id="ytick_13">
     <g id="line2d_17">
      <g>
       <use xlink:href="#m3540f98a90" x="51.378125" y="54.481815" style="stroke: #000000; stroke-width: 0.6"/>
      </g>
     </g>
    </g>
    <g id="ytick_14">
     <g id="line2d_18">
      <g>
       <use xlink:href="#m3540f98a90" x="51.378125" y="44.09191" style="stroke: #000000; stroke-width: 0.6"/>
      </g>
     </g>
    </g>
    <g id="ytick_15">
     <g id="line2d_19">
      <g>
       <use xlink:href="#m3540f98a90" x="51.378125" y="36.032873" style="stroke: #000000; stroke-width: 0.6"/>
      </g>
     </g>
    </g>
    <g id="ytick_16">
     <g id="line2d_20">
      <g>
       <use xlink:href="#m3540f98a90" x="51.378125" y="29.448161" style="stroke: #000000; stroke-width: 0.6"/>
      </g>
     </g>
    </g>
    <g id="ytick_17">
     <g id="line2d_21">
      <g>
       <use xlink:href="#m3540f98a90" x="51.378125" y="23.880866" style="stroke: #000000; stroke-width: 0.6"/>
      </g>
     </g>
    </g>
    <g id="ytick_18">
     <g id="line2d_22">
      <g>
       <use xlink:href="#m3540f98a90" x="51.378125" y="19.058255" style="stroke: #000000; stroke-width: 0.6"/>
      </g>
     </g>
    </g>
    <g id="ytick_19">
     <g id="line2d_23">
      <g>
       <use xlink:href="#m3540f98a90" x="51.378125" y="14.804412" style="stroke: #000000; stroke-width: 0.6"/>
      </g>
     </g>
    </g>
    <g id="text_9">
     <!-- Flow [mm/s] -->
     <g transform="translate(14.798437 125.092812) rotate(-90) scale(0.1 -0.1)">
      <defs>
       <path id="DejaVuSans-46" d="M 628 4666 
L 3309 4666 
L 3309 4134 
L 1259 4134 
L 1259 2759 
L 3109 2759 
L 3109 2228 
L 1259 2228 
L 1259 0 
L 628 0 
L 628 4666 
z
" transform="scale(0.015625)"/>
       <path id="DejaVuSans-77" d="M 269 3500 
L 844 3500 
L 1563 769 
L 2278 3500 
L 2956 3500 
L 3675 769 
L 4391 3500 
L 4966 3500 
L 4050 0 
L 3372 0 
L 2619 2869 
L 1863 0 
L 1184 0 
L 269 3500 
z
" transform="scale(0.015625)"/>
       <path id="DejaVuSans-5b" d="M 550 4863 
L 1875 4863 
L 1875 4416 
L 1125 4416 
L 1125 -397 
L 1875 -397 
L 1875 -844 
L 550 -844 
L 550 4863 
z
" transform="scale(0.015625)"/>
       <path id="DejaVuSans-6d" d="M 3328 2828 
Q 3544 3216 3844 3400 
Q 4144 3584 4550 3584 
Q 5097 3584 5394 3201 
Q 5691 2819 5691 2113 
L 5691 0 
L 5113 0 
L 5113 2094 
Q 5113 2597 4934 2840 
Q 4756 3084 4391 3084 
Q 3944 3084 3684 2787 
Q 3425 2491 3425 1978 
L 3425 0 
L 2847 0 
L 2847 2094 
Q 2847 2600 2669 2842 
Q 2491 3084 2119 3084 
Q 1678 3084 1418 2786 
Q 1159 2488 1159 1978 
L 1159 0 
L 581 0 
L 581 3500 
L 1159 3500 
L 1159 2956 
Q 1356 3278 1631 3431 
Q 1906 3584 2284 3584 
Q 2666 3584 2933 3390 
Q 3200 3197 3328 2828 
z
" transform="scale(0.015625)"/>
       <path id="DejaVuSans-2f" d="M 1625 4666 
L 2156 4666 
L 531 -594 
L 0 -594 
L 1625 4666 
z
" transform="scale(0.015625)"/>
       <path id="DejaVuSans-73" d="M 2834 3397 
L 2834 2853 
Q 2591 2978 2328 3040 
Q 2066 3103 1784 3103 
Q 1356 3103 1142 2972 
Q 928 2841 928 2578 
Q 928 2378 1081 2264 
Q 1234 2150 1697 2047 
L 1894 2003 
Q 2506 1872 2764 1633 
Q 3022 1394 3022 966 
Q 3022 478 2636 193 
Q 2250 -91 1575 -91 
Q 1294 -91 989 -36 
Q 684 19 347 128 
L 347 722 
Q 666 556 975 473 
Q 1284 391 1588 391 
Q 1994 391 2212 530 
Q 2431 669 2431 922 
Q 2431 1156 2273 1281 
Q 2116 1406 1581 1522 
L 1381 1569 
Q 847 1681 609 1914 
Q 372 2147 372 2553 
Q 372 3047 722 3315 
Q 1072 3584 1716 3584 
Q 2034 3584 2315 3537 
Q 2597 3491 2834 3397 
z
" transform="scale(0.015625)"/>
       <path id="DejaVuSans-5d" d="M 1947 4863 
L 1947 -844 
L 622 -844 
L 622 -397 
L 1369 -397 
L 1369 4416 
L 622 4416 
L 622 4863 
L 1947 4863 
z
" transform="scale(0.015625)"/>
      </defs>
      <use xlink:href="#DejaVuSans-46"/>
      <use xlink:href="#DejaVuSans-6c" x="57.519531"/>
      <use xlink:href="#DejaVuSans-6f" x="85.302734"/>
      <use xlink:href="#DejaVuSans-77" x="146.484375"/>
      <use xlink:href="#DejaVuSans-20" x="228.271484"/>
      <use xlink:href="#DejaVuSans-5b" x="260.058594"/>
      <use xlink:href="#DejaVuSans-6d" x="299.072266"/>
      <use xlink:href="#DejaVuSans-6d" x="396.484375"/>
      <use xlink:href="#DejaVuSans-2f" x="493.896484"/>
      <use xlink:href="#DejaVuSans-73" x="527.587891"/>
      <use xlink:href="#DejaVuSans-5d" x="579.6875"/>
     </g>
    </g>
   </g>
   <g id="line2d_24">
    <path d="M 51.632687 -0.965994 
L 52.650935 17.287197 
L 52.905497 17.554348 
L 53.160059 19.621184 
L 53.923745 20.289128 
L 54.178307 20.920662 
L 54.43287 21.166318 
L 54.687432 21.21565 
L 54.941994 21.613314 
L 55.196556 23.827758 
L 55.451118 24.362988 
L 55.70568 24.470871 
L 55.960242 24.851019 
L 56.214804 24.905654 
L 56.97849 28.650283 
L 57.742176 30.454831 
L 57.996738 30.840138 
L 58.2513 30.840138 
L 58.505862 31.228869 
L 59.014986 31.359381 
L 59.269548 31.688482 
L 59.52411 31.754515 
L 59.778672 32.086503 
L 60.033234 32.828564 
L 60.542359 33.308356 
L 60.796921 33.655792 
L 61.051483 34.860776 
L 61.306045 35.005123 
L 61.815169 35.51493 
L 62.069731 35.589177 
L 62.324293 35.810344 
L 63.087979 37.244289 
L 64.360789 37.553382 
L 64.615351 38.101629 
L 64.869913 38.259557 
L 65.124475 38.259557 
L 65.379037 38.818714 
L 65.633599 39.060638 
L 66.397286 39.222826 
L 67.160972 39.304194 
L 68.17922 40.045809 
L 68.433782 41.144224 
L 68.688344 41.316067 
L 68.942906 41.316067 
L 69.197468 41.836558 
L 69.45203 42.011735 
L 69.706592 42.011735 
L 69.961154 42.277098 
L 70.470278 42.365655 
L 70.72484 43.082041 
L 70.979402 43.082041 
L 71.488526 43.629844 
L 72.252213 45.612637 
L 72.761337 45.709774 
L 73.015899 45.807173 
L 73.525023 46.897397 
L 73.779585 46.897397 
L 74.288709 47.200222 
L 74.543271 47.200222 
L 75.306957 48.43875 
L 75.561519 48.43875 
L 75.816081 49.074913 
L 77.088891 50.268867 
L 77.343453 50.938406 
L 77.852578 51.163949 
L 78.361702 51.849155 
L 78.616264 52.08178 
L 78.870826 52.548933 
L 79.125388 52.666672 
L 79.37995 53.622658 
L 79.634512 54.111691 
L 79.889074 54.98129 
L 80.398198 55.233642 
L 80.65276 55.489202 
L 80.907322 56.132481 
L 81.161884 56.132481 
L 81.416446 56.524021 
L 81.671008 56.655484 
L 81.92557 56.919853 
L 82.180132 56.919853 
L 82.434694 57.455981 
L 82.943818 57.726298 
L 83.19838 58.135604 
L 83.452943 58.135604 
L 84.216629 58.549603 
L 84.471191 58.549603 
L 84.725753 59.393711 
L 85.234877 59.822473 
L 85.489439 59.822473 
L 85.998563 60.111168 
L 86.253125 60.695576 
L 86.507687 60.991364 
L 86.762249 61.89526 
L 87.016811 62.354969 
L 87.525935 62.664725 
L 88.035059 62.664725 
L 88.289621 62.977161 
L 88.544183 62.977161 
L 89.816994 63.772085 
L 90.071556 63.772085 
L 91.344366 65.41266 
L 91.598928 65.41266 
L 91.85349 65.582787 
L 92.108052 65.582787 
L 92.362614 66.435951 
L 92.617176 66.609029 
L 92.871738 66.609029 
L 93.1263 66.782941 
L 93.380862 67.487086 
L 93.635424 67.487086 
L 93.889986 67.665288 
L 94.39911 67.665288 
L 94.653672 68.20727 
L 94.908234 68.20727 
L 95.162797 68.38907 
L 95.417359 68.75544 
L 95.926483 68.75544 
L 96.181045 69.312059 
L 96.435607 69.499521 
L 96.690169 69.877391 
L 97.199293 69.877391 
L 97.453855 70.259256 
L 97.962979 70.259256 
L 98.472103 70.841923 
L 98.726665 71.037519 
L 99.490351 72.031711 
L 99.999475 72.031711 
L 100.508599 72.43718 
L 100.763161 72.847252 
L 101.017724 72.847252 
L 101.526848 73.473583 
L 101.78141 73.684006 
L 102.290534 74.322735 
L 102.799658 74.754917 
L 103.308782 75.858556 
L 103.563344 76.083389 
L 104.581592 76.083389 
L 104.836154 76.539865 
L 105.090716 76.539865 
L 105.59984 77.231658 
L 105.854402 77.231658 
L 106.108964 77.465232 
L 106.363526 78.414933 
L 106.872651 78.899316 
L 108.145461 78.899316 
L 108.400023 79.143966 
L 108.654585 79.143966 
L 109.163709 79.64109 
L 109.672833 79.64109 
L 109.927395 79.890834 
L 110.181957 79.890834 
L 110.691081 80.395564 
L 110.945643 80.395564 
L 111.200205 80.907447 
L 111.454767 81.166136 
L 111.709329 81.689138 
L 112.218453 82.219826 
L 112.727578 82.219826 
L 112.98214 82.488123 
L 113.236702 82.488123 
L 113.491264 82.758428 
L 113.745826 82.758428 
L 114.000388 83.030771 
L 114.25495 83.030771 
L 114.509512 83.308279 
L 114.764074 83.308279 
L 115.52776 84.71264 
L 115.782322 85.000186 
L 116.036884 85.000186 
L 116.291446 85.876822 
L 117.055132 85.876822 
L 117.309694 86.473294 
L 117.818818 86.473294 
L 118.07338 86.775266 
L 118.582505 86.775266 
L 118.837067 87.390356 
L 119.091629 87.700127 
L 119.346191 87.700127 
L 119.600753 88.012578 
L 119.855315 88.645708 
L 120.109877 88.645708 
L 120.619001 89.290135 
L 120.873563 89.290135 
L 121.128125 89.616712 
L 121.637249 89.616712 
L 122.146373 90.278863 
L 122.400935 90.278863 
L 122.910059 90.95338 
L 123.164621 90.95338 
L 123.673745 91.640734 
L 123.928307 91.640734 
L 124.18287 91.993317 
L 124.691994 91.993317 
L 124.946556 92.3454 
L 125.45568 92.3454 
L 125.710242 92.70095 
L 126.473928 94.533176 
L 127.492176 94.533176 
L 127.746738 94.911045 
L 128.0013 94.911045 
L 128.510424 95.678856 
L 129.27411 95.678856 
L 129.528672 96.06897 
L 129.783234 96.06897 
L 130.037797 96.463345 
L 130.292359 98.090032 
L 130.546921 98.090032 
L 130.801483 99.356389 
L 131.056045 99.356389 
L 131.310607 99.788572 
L 131.565169 99.788572 
L 132.074293 100.668768 
L 132.328855 100.668768 
L 132.583417 101.117043 
L 133.092541 101.117043 
L 133.347103 101.570953 
L 133.601665 101.570953 
L 133.856227 102.03064 
L 134.365351 102.03064 
L 134.874475 103.93571 
L 135.129037 104.426716 
L 135.383599 104.426716 
L 135.892724 105.429218 
L 136.147286 105.429218 
L 136.65641 106.460345 
L 137.165534 106.460345 
L 137.420096 106.987162 
L 138.438344 106.987162 
L 138.692906 107.521777 
L 139.20203 107.521777 
L 139.711154 108.615352 
L 139.965716 108.615352 
L 140.220278 109.174813 
L 140.729402 109.174813 
L 140.983964 109.743077 
L 141.238526 109.743077 
L 141.747651 110.9138 
L 142.002213 110.9138 
L 142.256775 111.510328 
L 143.020461 111.510328 
L 143.275023 112.733782 
L 143.529585 112.733782 
L 143.784147 113.36141 
L 145.056957 113.36141 
L 145.311519 114.000138 
L 145.820643 114.000138 
L 146.075205 114.650367 
L 146.584329 114.650367 
L 146.838891 115.312517 
L 147.348016 115.312517 
L 147.602578 115.987034 
L 148.111702 115.987034 
L 148.366264 116.674389 
L 148.875388 116.674389 
L 149.12995 117.37508 
L 151.166446 117.37508 
L 151.421008 118.089634 
L 152.184694 118.089634 
L 152.439256 118.818612 
L 153.202943 118.818612 
L 153.457505 119.571054 
L 154.730315 119.571054 
L 154.984877 120.330878 
L 155.494001 120.330878 
L 155.748563 121.107032 
L 156.512249 121.107032 
L 156.766811 121.900233 
L 157.530497 121.900233 
L 157.785059 122.711247 
L 159.566994 122.711247 
L 159.821556 123.540892 
L 161.094366 123.540892 
L 161.348928 124.390044 
L 161.60349 124.390044 
L 161.858052 125.259643 
L 162.112614 125.259643 
L 162.367176 126.150698 
L 162.8763 126.150698 
L 163.130862 127.064294 
L 164.658234 127.064294 
L 164.912797 128.001602 
L 165.167359 128.001602 
L 165.421921 128.963886 
L 166.185607 128.963886 
L 166.440169 129.952512 
L 167.712979 129.952512 
L 167.967541 130.968964 
L 168.731227 130.968964 
L 168.985789 132.026779 
L 170.004037 132.026779 
L 170.258599 133.104224 
L 172.040534 133.104224 
L 172.295096 134.214803 
L 173.822468 134.214803 
L 174.07703 135.360619 
L 175.095278 135.360619 
L 175.34984 136.543982 
L 176.113526 136.543982 
L 176.368089 137.767436 
L 178.913709 137.767436 
L 179.168271 139.033793 
L 180.441081 139.033793 
L 180.695643 140.346171 
L 181.713891 140.346171 
L 181.968453 141.708043 
L 182.986702 141.708043 
L 183.241264 143.123288 
L 185.786884 143.123288 
L 186.041446 144.596261 
L 188.332505 144.596261 
L 188.587067 146.131872 
L 189.605315 146.131872 
L 189.859877 147.735687 
L 190.878125 147.735687 
L 191.132687 149.414045 
L 192.914621 149.414045 
L 193.169183 151.19449 
L 195.20568 151.19449 
L 195.460242 153.045928 
L 197.242176 153.045928 
L 197.496738 154.99743 
L 199.787797 154.99743 
L 200.042359 157.060434 
L 202.587979 157.060434 
L 202.842541 159.248457 
L 204.115351 159.248457 
L 204.369913 161.577637 
L 206.660972 161.577637 
L 206.915534 164.067447 
L 209.970278 164.067447 
L 210.22484 166.741698 
L 212.770461 166.741698 
L 213.025023 169.629916 
L 215.570643 169.629916 
L 215.825205 172.769341 
L 218.87995 172.769341 
L 218.87995 172.769341 
" clip-path="url(#p549c91aebd)" style="fill: none; stroke: #000000; stroke-width: 1.5; stroke-linecap: square"/>
   </g>
   <g id="line2d_25">
    <path d="M 69.280512 -1 
L 69.468536 -0.463435 
L 70.487714 0.369613 
L 70.742509 1.199186 
L 70.997303 1.353496 
L 71.506892 2.740317 
L 73.035659 4.241685 
L 73.290454 4.971903 
L 73.545248 5.158011 
L 73.800043 5.791505 
L 74.054837 6.999854 
L 74.309632 7.133775 
L 74.564426 7.473112 
L 75.583604 10.833072 
L 75.838399 11.36951 
L 76.093193 11.406913 
L 76.347988 13.435152 
L 76.602783 13.580428 
L 77.112372 15.157766 
L 77.876755 15.411673 
L 78.386344 17.791598 
L 78.641139 17.832013 
L 78.895933 19.682512 
L 79.405522 19.932491 
L 80.679495 20.164569 
L 80.934289 20.968308 
L 81.698673 21.228883 
L 82.208262 23.398187 
L 82.463057 24.359706 
L 83.482235 26.264005 
L 83.737029 26.506017 
L 83.991824 26.903948 
L 84.246618 26.913578 
L 84.501413 27.441927 
L 85.265796 28.065899 
L 85.520591 29.412242 
L 85.775385 29.876169 
L 86.03018 31.056001 
L 86.539769 31.599508 
L 87.049358 34.173372 
L 87.304152 34.364876 
L 87.813741 36.455171 
L 88.578125 37.378258 
L 88.83292 37.569452 
L 89.087714 37.945778 
L 89.342509 38.530237 
L 89.597303 38.589405 
L 89.852098 39.143738 
L 90.361687 39.483546 
L 90.616481 39.949723 
L 91.12607 40.070327 
L 91.380865 40.128384 
L 91.635659 41.164163 
L 92.145248 41.321466 
L 92.400043 41.914723 
L 92.654837 42.053506 
L 92.909632 43.579098 
L 93.164426 43.876626 
L 93.92881 46.642429 
L 94.183604 47.505774 
L 94.438399 47.591086 
L 94.947988 48.464756 
L 95.457577 48.514538 
L 95.712372 48.867869 
L 96.221961 49.018553 
L 96.476755 49.247544 
L 96.73155 49.658505 
L 99.0247 51.12553 
L 99.534289 51.159861 
L 100.298673 51.359748 
L 100.808262 51.455304 
L 101.063057 51.592397 
L 104.375385 51.777217 
L 106.668536 52.22627 
L 106.92333 52.483499 
L 107.942509 52.699473 
L 108.197303 53.04835 
L 109.471276 53.174222 
L 110.235659 53.538041 
L 110.745248 53.566208 
L 111.254837 54.081953 
L 111.509632 55.653072 
L 112.019221 55.676215 
L 112.783604 57.584594 
L 113.293193 57.941471 
L 113.802783 58.938336 
L 114.312372 59.311144 
L 114.567166 59.877019 
L 114.821961 59.980666 
L 115.841139 60.84244 
L 116.095933 60.925454 
L 116.350728 61.499286 
L 116.605522 61.517538 
L 117.115111 62.418652 
L 117.369906 62.602895 
L 117.6247 63.751286 
L 117.879495 64.012932 
L 118.389084 64.131804 
L 118.898673 66.083728 
L 119.153467 66.400023 
L 119.408262 66.442451 
L 119.663057 67.333856 
L 119.917851 67.335503 
L 120.172646 67.544409 
L 120.682235 68.475921 
L 120.937029 68.482848 
L 121.446618 68.654472 
L 121.956207 69.762309 
L 122.465796 69.884262 
L 122.720591 69.888368 
L 122.975385 70.039868 
L 123.484974 71.092415 
L 123.739769 71.152144 
L 124.249358 71.802481 
L 124.758947 71.989486 
L 125.013741 72.189752 
L 125.268536 72.649271 
L 125.52333 73.405934 
L 125.778125 74.590174 
L 126.03292 75.091999 
L 126.287714 75.171873 
L 126.797303 75.843996 
L 127.052098 75.949328 
L 127.306892 76.367695 
L 127.561687 76.440399 
L 128.071276 76.942701 
L 128.580865 78.018569 
L 128.835659 79.053105 
L 129.345248 79.986497 
L 129.600043 80.286793 
L 130.364426 80.42995 
L 130.874015 81.56292 
L 131.383604 82.484584 
L 131.893193 82.531743 
L 132.147988 83.548103 
L 132.657577 83.655994 
L 132.912372 84.17034 
L 133.167166 84.331339 
L 134.186344 85.995374 
L 134.441139 87.2219 
L 134.695933 87.261943 
L 135.205522 88.029587 
L 135.460317 88.039787 
L 135.715111 88.906687 
L 135.969906 89.353774 
L 136.2247 90.085575 
L 136.479495 90.089293 
L 136.734289 90.461808 
L 137.243878 90.748341 
L 137.498673 91.015913 
L 138.008262 91.14771 
L 138.263057 91.196508 
L 138.517851 91.391446 
L 138.772646 91.406853 
L 139.02744 92.645011 
L 139.791824 92.907219 
L 140.046618 93.003907 
L 140.301413 94.030452 
L 140.811002 94.461182 
L 141.065796 94.999942 
L 141.320591 95.146101 
L 141.83018 95.740597 
L 142.084974 95.772235 
L 142.339769 96.582463 
L 142.849358 96.690076 
L 143.104152 96.877958 
L 143.358947 97.681165 
L 143.613741 97.688847 
L 143.868536 98.043853 
L 144.378125 98.296073 
L 144.887714 98.375895 
L 145.142509 98.479875 
L 145.652098 99.584182 
L 146.161687 99.697108 
L 146.416481 100.040559 
L 146.671276 100.166563 
L 147.180865 100.975178 
L 147.435659 100.989387 
L 148.200043 101.498178 
L 148.709632 102.395527 
L 148.964426 102.801528 
L 149.219221 102.877301 
L 149.474015 103.568177 
L 150.493193 104.035712 
L 150.747988 104.391899 
L 151.512372 104.66559 
L 152.786344 106.1147 
L 153.041139 106.194145 
L 153.550728 106.791029 
L 153.805522 106.798118 
L 154.569906 107.268353 
L 154.8247 107.294948 
L 155.079495 107.458267 
L 155.334289 108.007606 
L 155.843878 108.14198 
L 156.098673 108.476445 
L 156.608262 108.823362 
L 157.372646 109.847479 
L 158.391824 110.071741 
L 158.646618 110.260823 
L 159.156207 110.356294 
L 159.920591 110.924407 
L 160.175385 111.329165 
L 160.43018 111.504845 
L 160.684974 111.825086 
L 161.194563 111.941591 
L 161.449358 112.164631 
L 161.704152 112.210846 
L 161.958947 112.516741 
L 162.213741 112.541068 
L 162.468536 112.67888 
L 163.23292 112.803963 
L 163.742509 112.948158 
L 163.997303 113.062233 
L 164.252098 113.31411 
L 164.506892 113.322145 
L 165.52607 113.923926 
L 166.035659 114.035913 
L 166.290454 114.39509 
L 166.545248 114.405704 
L 166.800043 114.7454 
L 168.32881 114.902515 
L 169.347988 115.21166 
L 170.112372 115.236633 
L 170.876755 115.505697 
L 178.265796 116.643476 
L 178.520591 116.820902 
L 180.558947 117.092879 
L 183.106892 117.473044 
L 184.890454 117.637867 
L 188.457577 117.795187 
L 197.375385 118.358745 
L 201.706892 118.551835 
L 202.471276 118.620834 
L 206.038399 118.748489 
L 210.369906 118.865707 
L 213.682235 118.971147 
L 216.23018 119.084421 
L 219.03292 119.224845 
L 219.03292 119.224845 
" clip-path="url(#p549c91aebd)" style="fill: none; stroke: #8da0cb; stroke-width: 1.5; stroke-linecap: square"/>
   </g>
   <g id="line2d_26">
    <path d="M 53.416331 -1 
L 53.416481 -0.994239 
L 53.671276 2.727478 
L 54.180865 3.942129 
L 54.690454 7.093053 
L 55.200043 8.181266 
L 55.454837 8.19632 
L 55.964426 8.710038 
L 56.219221 11.044351 
L 56.474015 11.11764 
L 56.72881 13.15067 
L 56.983604 13.19355 
L 57.493193 13.716625 
L 57.747988 14.015224 
L 58.002783 14.061428 
L 58.257577 14.538701 
L 58.512372 15.921746 
L 58.767166 16.100296 
L 59.021961 16.114295 
L 59.276755 16.805862 
L 59.53155 16.92641 
L 59.786344 18.419476 
L 60.295933 19.301695 
L 60.805522 19.630998 
L 61.060317 20.397657 
L 61.315111 20.411824 
L 62.334289 22.869448 
L 62.589084 22.897259 
L 63.098673 23.645792 
L 63.353467 23.781394 
L 63.608262 24.587503 
L 63.863057 25.864025 
L 64.117851 25.936209 
L 64.372646 26.279238 
L 64.62744 26.392172 
L 64.882235 27.423052 
L 65.137029 27.505063 
L 65.391824 27.794377 
L 65.646618 27.806177 
L 65.901413 28.240797 
L 66.156207 29.394638 
L 66.665796 29.92162 
L 66.920591 31.358869 
L 67.175385 31.387433 
L 67.43018 32.123166 
L 68.194563 32.268445 
L 68.704152 32.577791 
L 69.213741 33.654881 
L 69.72333 36.242016 
L 69.978125 36.264566 
L 70.487714 36.555655 
L 70.742509 36.57946 
L 70.997303 36.739804 
L 71.252098 37.414352 
L 71.506892 37.423453 
L 71.761687 37.707484 
L 72.271276 37.861605 
L 72.52607 38.378454 
L 72.780865 38.381379 
L 73.035659 38.933856 
L 73.800043 39.04009 
L 74.309632 39.192625 
L 74.819221 39.78105 
L 75.32881 41.658399 
L 75.583604 41.817026 
L 75.838399 42.159838 
L 76.093193 42.995354 
L 76.602783 43.229262 
L 77.112372 43.754459 
L 77.367166 44.410114 
L 77.621961 44.709827 
L 77.876755 44.760261 
L 78.13155 45.048687 
L 78.386344 45.632224 
L 78.641139 45.758507 
L 78.895933 46.539558 
L 79.915111 46.675396 
L 80.4247 47.176416 
L 81.189084 47.546757 
L 81.443878 47.560578 
L 82.463057 48.048567 
L 82.717851 48.636969 
L 82.972646 48.701555 
L 83.737029 49.645118 
L 83.991824 49.702774 
L 84.756207 50.733202 
L 85.011002 50.887691 
L 85.265796 51.259864 
L 85.520591 51.291252 
L 86.284974 51.945363 
L 86.539769 52.036229 
L 86.794563 52.425374 
L 87.049358 52.587345 
L 87.304152 53.902998 
L 88.068536 54.121698 
L 88.32333 54.772452 
L 88.578125 54.779671 
L 88.83292 55.473631 
L 89.342509 55.717273 
L 90.616481 55.963057 
L 91.12607 56.523282 
L 91.380865 56.624901 
L 91.635659 57.431437 
L 91.890454 57.441701 
L 92.145248 57.59695 
L 92.654837 57.704821 
L 92.909632 57.757199 
L 93.674015 58.196813 
L 93.92881 58.211805 
L 94.183604 58.372168 
L 94.693193 58.483604 
L 94.947988 58.782563 
L 95.202783 59.400402 
L 95.457577 59.472071 
L 95.712372 59.812804 
L 96.476755 60.224985 
L 96.73155 60.887972 
L 96.986344 61.160512 
L 97.241139 61.189502 
L 97.495933 61.822609 
L 98.260317 62.095746 
L 98.769906 62.241862 
L 99.279495 62.792955 
L 99.789084 63.292275 
L 100.043878 63.30739 
L 100.553467 64.427273 
L 101.572646 64.737009 
L 102.082235 64.971491 
L 102.337029 65.310667 
L 102.846618 65.436081 
L 103.611002 65.620164 
L 103.865796 65.951668 
L 104.884974 66.134879 
L 106.92333 67.276157 
L 107.687714 67.498344 
L 107.942509 67.669689 
L 109.980865 67.991287 
L 110.490454 68.279649 
L 110.745248 69.544402 
L 111.000043 69.584657 
L 111.509632 70.087377 
L 111.764426 70.156466 
L 112.019221 70.533426 
L 112.52881 70.695589 
L 113.038399 71.692831 
L 113.547988 71.714799 
L 113.802783 71.981209 
L 114.057577 72.06803 
L 114.312372 72.843273 
L 114.567166 72.953084 
L 114.821961 73.212083 
L 115.076755 73.255612 
L 115.33155 73.469345 
L 115.841139 73.669148 
L 116.860317 74.539944 
L 117.369906 74.95417 
L 117.879495 75.270715 
L 118.134289 75.299752 
L 118.898673 75.911205 
L 119.153467 75.978813 
L 119.408262 76.824772 
L 120.42744 77.521853 
L 120.937029 77.705078 
L 121.191824 78.304738 
L 121.446618 78.336805 
L 121.956207 78.78137 
L 122.465796 80.217854 
L 122.720591 80.423752 
L 122.975385 81.100855 
L 123.23018 81.442733 
L 123.739769 81.758813 
L 123.994563 82.009862 
L 124.249358 82.037743 
L 125.013741 83.274958 
L 126.03292 86.047891 
L 126.797303 86.675548 
L 127.052098 86.889824 
L 127.561687 86.986881 
L 127.816481 87.180578 
L 128.071276 87.750667 
L 128.580865 88.115666 
L 129.345248 88.342328 
L 129.600043 88.525106 
L 129.854837 88.559177 
L 130.364426 89.063167 
L 130.619221 89.843957 
L 132.147988 91.320606 
L 132.912372 91.502762 
L 133.167166 92.046548 
L 133.93155 92.226754 
L 134.441139 92.551745 
L 134.695933 92.555163 
L 134.950728 92.75825 
L 135.205522 93.251275 
L 135.715111 93.607946 
L 135.969906 93.666977 
L 136.2247 93.989627 
L 136.479495 93.996821 
L 137.753467 95.658757 
L 138.263057 95.773111 
L 139.791824 96.623279 
L 140.046618 97.086532 
L 141.320591 98.005931 
L 141.83018 98.063281 
L 142.594563 98.502588 
L 142.849358 98.50394 
L 143.104152 98.831371 
L 144.378125 99.099383 
L 144.887714 99.233294 
L 145.142509 99.770159 
L 145.906892 99.869039 
L 146.161687 100.512603 
L 147.180865 100.910673 
L 147.435659 101.332201 
L 147.945248 101.503258 
L 149.474015 101.983628 
L 149.72881 102.514534 
L 150.493193 102.782701 
L 151.257577 103.169699 
L 151.512372 103.222005 
L 151.767166 103.705483 
L 152.276755 104.063962 
L 152.53155 104.243089 
L 152.786344 104.274485 
L 153.041139 104.905941 
L 153.295933 104.912954 
L 153.805522 105.33915 
L 154.315111 105.473668 
L 154.569906 105.540618 
L 155.079495 105.930465 
L 156.098673 106.395265 
L 156.353467 106.450806 
L 157.117851 106.861181 
L 157.62744 106.893044 
L 158.391824 107.389693 
L 158.901413 107.548495 
L 159.156207 107.80856 
L 159.665796 107.93599 
L 159.920591 108.006167 
L 160.175385 108.282392 
L 160.939769 108.365616 
L 161.704152 108.616315 
L 161.958947 108.630604 
L 162.468536 108.979777 
L 163.23292 109.069125 
L 163.742509 109.252675 
L 163.997303 109.720612 
L 164.506892 109.798801 
L 165.016481 110.223186 
L 165.52607 110.534013 
L 166.800043 110.684957 
L 167.309632 111.331944 
L 168.074015 111.448029 
L 168.838399 111.848365 
L 169.347988 111.985825 
L 169.602783 112.253441 
L 170.367166 112.335133 
L 170.876755 112.550176 
L 171.386344 112.633058 
L 171.641139 112.840836 
L 174.953467 113.414466 
L 175.208262 113.658919 
L 176.482235 113.889573 
L 176.991824 114.25824 
L 177.756207 114.422924 
L 179.539769 114.759647 
L 179.794563 115.147355 
L 183.361687 115.542241 
L 183.616481 115.694565 
L 183.871276 116.078104 
L 188.202783 116.875529 
L 188.457577 117.090982 
L 189.476755 117.196867 
L 189.986344 117.306435 
L 191.769906 117.577895 
L 192.0247 117.75282 
L 192.789084 117.880124 
L 193.043878 117.980356 
L 193.298673 118.297571 
L 194.317851 118.464555 
L 194.82744 118.566775 
L 195.082235 118.604999 
L 196.356207 119.445322 
L 198.139769 119.867713 
L 198.394563 120.092461 
L 198.904152 120.194831 
L 199.158947 120.538037 
L 199.413741 120.545746 
L 199.92333 120.744418 
L 200.687714 120.854049 
L 201.706892 120.976301 
L 201.961687 121.141175 
L 202.72607 121.276742 
L 203.745248 121.561081 
L 204.509632 121.690924 
L 205.019221 121.792293 
L 206.038399 121.857036 
L 206.802783 122.041757 
L 207.821961 122.315196 
L 208.841139 122.814529 
L 209.605522 122.960657 
L 209.860317 123.175418 
L 210.879495 123.515029 
L 211.389084 123.73674 
L 212.153467 123.864562 
L 212.917851 124.172978 
L 213.937029 124.629503 
L 214.191824 124.866873 
L 214.701413 124.924534 
L 215.211002 125.275878 
L 215.465796 125.340687 
L 215.720591 125.736257 
L 216.23018 125.825528 
L 216.484974 125.852926 
L 216.739769 126.012122 
L 216.994563 126.034342 
L 217.504152 126.237071 
L 218.268536 126.336725 
L 219.03292 126.468203 
L 219.03292 126.468203 
" clip-path="url(#p549c91aebd)" style="fill: none; stroke: #e78ac3; stroke-width: 1.5; stroke-linecap: square"/>
   </g>
   <g id="line2d_27">
    <path d="M 54.693269 -1 
L 55.454837 1.796523 
L 55.709632 1.800759 
L 55.964426 1.959213 
L 56.219221 4.851 
L 56.72881 5.501099 
L 56.983604 6.854372 
L 57.238399 7.198661 
L 57.493193 7.205675 
L 57.747988 7.991431 
L 58.257577 10.62756 
L 58.512372 12.082526 
L 58.767166 12.488742 
L 59.021961 12.504642 
L 59.276755 14.142056 
L 59.53155 14.181449 
L 59.786344 14.995438 
L 60.041139 15.03292 
L 60.295933 15.474486 
L 60.550728 16.385497 
L 60.805522 16.610291 
L 61.315111 17.342423 
L 61.569906 18.145078 
L 61.8247 18.192586 
L 62.079495 19.521137 
L 62.589084 19.718399 
L 63.098673 20.73827 
L 63.863057 21.059503 
L 64.117851 21.816135 
L 64.372646 22.221045 
L 64.62744 22.361282 
L 65.137029 23.207723 
L 65.391824 23.422917 
L 65.646618 23.427191 
L 65.901413 24.155303 
L 66.156207 24.523439 
L 66.411002 24.586623 
L 66.920591 25.481723 
L 67.175385 25.783327 
L 67.684974 25.95371 
L 68.449358 26.366008 
L 68.958947 26.82608 
L 69.468536 26.878251 
L 69.72333 27.491362 
L 71.252098 28.393347 
L 71.761687 30.042569 
L 72.016481 30.154435 
L 72.52607 30.508468 
L 73.545248 30.594698 
L 74.054837 31.107903 
L 74.309632 31.245188 
L 74.564426 32.055166 
L 74.819221 32.175085 
L 75.074015 32.480052 
L 75.838399 32.625019 
L 77.112372 33.356105 
L 77.876755 33.577387 
L 78.13155 33.653547 
L 78.386344 33.998735 
L 78.895933 34.206783 
L 79.150728 34.756643 
L 79.405522 35.00472 
L 79.915111 35.671773 
L 80.169906 35.832244 
L 80.679495 36.557583 
L 80.934289 37.196572 
L 81.698673 37.295657 
L 81.953467 37.750432 
L 82.717851 37.798853 
L 82.972646 37.953941 
L 83.482235 38.045395 
L 83.737029 38.396891 
L 84.246618 38.479119 
L 85.011002 39.266644 
L 85.520591 39.638039 
L 86.284974 39.733573 
L 86.539769 39.902179 
L 86.794563 39.927699 
L 87.304152 40.416893 
L 88.068536 40.591097 
L 88.578125 41.308709 
L 89.087714 41.437184 
L 89.342509 41.500653 
L 89.852098 42.112794 
L 90.106892 42.759433 
L 90.361687 42.765053 
L 90.616481 43.000876 
L 91.12607 43.141856 
L 91.380865 43.835821 
L 91.635659 44.171206 
L 92.145248 44.223025 
L 93.419221 44.848403 
L 93.674015 45.27992 
L 94.183604 45.358022 
L 94.693193 45.563766 
L 94.947988 46.00305 
L 95.202783 46.006586 
L 95.967166 46.487015 
L 96.221961 47.249186 
L 96.476755 47.32433 
L 96.73155 47.724501 
L 96.986344 48.724095 
L 97.241139 49.112675 
L 97.750728 49.188621 
L 98.769906 49.483469 
L 99.789084 49.573318 
L 100.298673 50.579052 
L 101.063057 51.022718 
L 101.572646 51.792557 
L 102.082235 51.928779 
L 102.337029 52.32776 
L 102.591824 52.446501 
L 103.101413 53.25645 
L 103.611002 53.287703 
L 104.120591 53.725162 
L 104.375385 53.767114 
L 104.63018 54.224407 
L 105.139769 54.279097 
L 105.904152 54.74276 
L 106.158947 55.709413 
L 106.413741 55.993565 
L 106.668536 56.044466 
L 106.92333 56.679667 
L 107.178125 57.008614 
L 107.942509 57.10887 
L 108.197303 57.768177 
L 108.452098 58.027191 
L 108.706892 58.043554 
L 108.961687 58.266763 
L 109.72607 58.452538 
L 109.980865 60.018004 
L 110.235659 60.203378 
L 110.745248 60.259786 
L 111.254837 60.967914 
L 112.52881 62.961438 
L 113.547988 63.274315 
L 114.567166 64.870856 
L 114.821961 64.914543 
L 115.586344 65.687302 
L 115.841139 66.012983 
L 116.095933 66.124761 
L 116.860317 67.01923 
L 117.115111 67.560806 
L 117.6247 67.844828 
L 117.879495 68.4469 
L 118.389084 68.623571 
L 118.643878 68.970528 
L 119.153467 69.2175 
L 119.917851 70.059318 
L 120.172646 70.101187 
L 120.42744 70.329692 
L 120.937029 70.351093 
L 121.446618 70.808821 
L 121.701413 71.724705 
L 122.465796 72.344789 
L 122.975385 72.367196 
L 123.23018 72.522381 
L 123.739769 72.55997 
L 123.994563 72.66114 
L 124.249358 73.125333 
L 124.504152 73.144845 
L 125.013741 73.858692 
L 125.52333 74.160902 
L 125.778125 74.535056 
L 126.797303 74.568923 
L 127.052098 74.718733 
L 127.816481 74.821002 
L 128.071276 74.950206 
L 128.580865 75.039708 
L 128.835659 75.09031 
L 129.090454 76.167191 
L 129.600043 76.303226 
L 130.109632 76.859021 
L 131.12881 77.043139 
L 131.638399 78.343007 
L 131.893193 78.716806 
L 132.402783 78.892855 
L 132.657577 79.244758 
L 133.421961 79.299211 
L 133.676755 79.442826 
L 133.93155 79.928905 
L 134.186344 80.011138 
L 134.441139 80.360329 
L 134.695933 81.07915 
L 134.950728 81.131562 
L 135.460317 82.170026 
L 135.715111 82.334108 
L 135.969906 82.704594 
L 136.734289 83.121521 
L 137.753467 84.271926 
L 138.008262 84.952013 
L 138.517851 85.137816 
L 138.772646 85.27632 
L 139.02744 85.891861 
L 140.046618 87.002373 
L 140.301413 87.630572 
L 140.556207 87.836592 
L 140.811002 87.851354 
L 141.065796 88.153346 
L 141.575385 88.169185 
L 142.084974 88.648719 
L 142.594563 89.741269 
L 142.849358 89.743002 
L 143.868536 90.923803 
L 144.63292 91.186145 
L 145.142509 91.488376 
L 146.416481 91.586527 
L 146.671276 92.047564 
L 146.92607 92.179658 
L 147.180865 92.940308 
L 147.690454 93.503368 
L 147.945248 93.506865 
L 148.200043 93.786978 
L 148.454837 93.852022 
L 148.964426 94.422713 
L 149.219221 94.528016 
L 149.474015 95.028501 
L 151.002783 95.538011 
L 152.021961 95.808957 
L 152.276755 96.15655 
L 152.53155 96.250918 
L 152.786344 96.722814 
L 153.295933 96.774357 
L 154.315111 97.962082 
L 154.569906 98.654405 
L 154.8247 98.658985 
L 155.079495 99.641101 
L 155.589084 99.919748 
L 156.353467 99.965524 
L 157.117851 100.507148 
L 157.372646 101.374433 
L 157.882235 101.864887 
L 158.137029 103.837536 
L 158.391824 103.935686 
L 158.646618 104.478227 
L 158.901413 104.488238 
L 159.665796 104.804015 
L 160.43018 104.911585 
L 160.939769 105.242152 
L 161.194563 105.498477 
L 161.449358 105.564009 
L 161.704152 106.173572 
L 162.213741 106.686533 
L 162.468536 107.391181 
L 162.72333 107.47376 
L 163.23292 107.948812 
L 163.487714 107.962983 
L 163.997303 108.750852 
L 164.252098 108.940441 
L 164.761687 109.569016 
L 165.780865 110.014637 
L 166.290454 110.122372 
L 166.545248 110.3703 
L 166.800043 110.424439 
L 167.054837 110.728819 
L 167.819221 110.937933 
L 168.074015 111.087471 
L 168.32881 112.917453 
L 168.583604 113.151932 
L 168.838399 113.157446 
L 169.093193 113.801064 
L 169.347988 113.842648 
L 169.857577 114.431336 
L 170.112372 116.222374 
L 170.876755 116.475673 
L 171.895933 117.456764 
L 172.405522 118.37868 
L 172.660317 118.53312 
L 172.915111 118.882009 
L 173.169906 120.082204 
L 173.679495 120.288482 
L 173.934289 120.309105 
L 174.189084 121.189087 
L 174.443878 121.396577 
L 174.953467 121.576604 
L 175.717851 122.719676 
L 175.972646 123.468554 
L 176.22744 123.552275 
L 176.482235 124.51974 
L 176.737029 124.592968 
L 177.501413 125.18486 
L 178.520591 125.270246 
L 179.03018 125.403123 
L 179.794563 125.463105 
L 180.049358 125.592663 
L 180.304152 125.949817 
L 180.558947 126.068124 
L 180.813741 127.01457 
L 181.068536 127.232699 
L 181.32333 127.904521 
L 181.578125 127.950987 
L 182.087714 128.754744 
L 182.597303 129.378394 
L 182.852098 129.87578 
L 183.106892 130.894648 
L 183.361687 131.083135 
L 183.871276 131.882103 
L 184.12607 131.988183 
L 184.380865 132.426347 
L 184.635659 132.549233 
L 185.145248 134.105107 
L 185.654837 134.115297 
L 185.909632 134.367629 
L 186.164426 134.831342 
L 186.674015 134.948663 
L 187.183604 135.300275 
L 187.947988 135.419034 
L 188.202783 135.67695 
L 188.457577 135.727663 
L 188.967166 136.212944 
L 189.73155 136.429497 
L 189.986344 136.842895 
L 190.241139 136.988447 
L 190.495933 137.322965 
L 191.260317 139.783928 
L 191.515111 141.775527 
L 192.0247 142.340221 
L 192.279495 142.430228 
L 193.043878 144.140204 
L 193.298673 144.341829 
L 193.808262 147.720305 
L 194.063057 148.005101 
L 194.317851 149.170112 
L 195.082235 149.693534 
L 195.337029 149.708341 
L 195.591824 149.987191 
L 196.611002 150.188251 
L 196.865796 150.326279 
L 197.884974 151.430035 
L 198.649358 151.650661 
L 199.158947 152.987283 
L 199.413741 153.613946 
L 199.668536 153.723549 
L 199.92333 154.057309 
L 200.178125 154.616259 
L 200.43292 154.672624 
L 200.687714 155.042788 
L 201.197303 157.247452 
L 201.452098 157.823159 
L 201.706892 157.921328 
L 201.961687 158.869447 
L 202.216481 160.399708 
L 202.471276 160.644726 
L 202.72607 161.065241 
L 202.980865 167.405551 
L 203.490454 173.125377 
L 203.745248 173.603922 
L 204.000043 174.580806 
L 205.019221 174.764429 
L 205.52881 175.014254 
L 208.33155 175.433863 
L 213.42744 175.900688 
L 213.682235 176.078562 
L 214.956207 176.147781 
L 215.465796 176.176523 
L 215.720591 176.335029 
L 216.994563 176.492648 
L 218.778125 177.149572 
L 219.03292 177.165714 
L 219.03292 177.165714 
" clip-path="url(#p549c91aebd)" style="fill: none; stroke: #fc8d62; stroke-width: 1.5; stroke-linecap: square"/>
   </g>
   <g id="patch_3">
    <path d="M 51.378125 177.319219 
L 51.378125 10.999219 
" style="fill: none; stroke: #000000; stroke-width: 0.8; stroke-linejoin: miter; stroke-linecap: square"/>
   </g>
   <g id="patch_4">
    <path d="M 218.778125 177.319219 
L 218.778125 10.999219 
" style="fill: none; stroke: #000000; stroke-width: 0.8; stroke-linejoin: miter; stroke-linecap: square"/>
   </g>
   <g id="patch_5">
    <path d="M 51.378125 177.319219 
L 218.778125 177.319219 
" style="fill: none; stroke: #000000; stroke-width: 0.8; stroke-linejoin: miter; stroke-linecap: square"/>
   </g>
   <g id="patch_6">
    <path d="M 51.378125 10.999219 
L 218.778125 10.999219 
" style="fill: none; stroke: #000000; stroke-width: 0.8; stroke-linejoin: miter; stroke-linecap: square"/>
   </g>
   <g id="legend_1">
    <g id="patch_7">
     <path d="M 225.778125 77.711719 
L 334.825 77.711719 
Q 336.825 77.711719 336.825 75.711719 
L 336.825 17.999219 
Q 336.825 15.999219 334.825 15.999219 
L 225.778125 15.999219 
Q 223.778125 15.999219 223.778125 17.999219 
L 223.778125 75.711719 
Q 223.778125 77.711719 225.778125 77.711719 
z
" style="fill: #ffffff; opacity: 0.8; stroke: #cccccc; stroke-linejoin: miter"/>
    </g>
    <g id="line2d_28">
     <path d="M 227.778125 24.097656 
L 237.778125 24.097656 
L 247.778125 24.097656 
" style="fill: none; stroke: #000000; stroke-width: 1.5; stroke-linecap: square"/>
    </g>
    <g id="text_10">
     <!-- MEF Observed -->
     <g transform="translate(255.778125 27.597656) scale(0.1 -0.1)">
      <defs>
       <path id="DejaVuSans-4d" d="M 628 4666 
L 1569 4666 
L 2759 1491 
L 3956 4666 
L 4897 4666 
L 4897 0 
L 4281 0 
L 4281 4097 
L 3078 897 
L 2444 897 
L 1241 4097 
L 1241 0 
L 628 0 
L 628 4666 
z
" transform="scale(0.015625)"/>
       <path id="DejaVuSans-4f" d="M 2522 4238 
Q 1834 4238 1429 3725 
Q 1025 3213 1025 2328 
Q 1025 1447 1429 934 
Q 1834 422 2522 422 
Q 3209 422 3611 934 
Q 4013 1447 4013 2328 
Q 4013 3213 3611 3725 
Q 3209 4238 2522 4238 
z
M 2522 4750 
Q 3503 4750 4090 4092 
Q 4678 3434 4678 2328 
Q 4678 1225 4090 567 
Q 3503 -91 2522 -91 
Q 1538 -91 948 565 
Q 359 1222 359 2328 
Q 359 3434 948 4092 
Q 1538 4750 2522 4750 
z
" transform="scale(0.015625)"/>
       <path id="DejaVuSans-76" d="M 191 3500 
L 800 3500 
L 1894 563 
L 2988 3500 
L 3597 3500 
L 2284 0 
L 1503 0 
L 191 3500 
z
" transform="scale(0.015625)"/>
      </defs>
      <use xlink:href="#DejaVuSans-4d"/>
      <use xlink:href="#DejaVuSans-45" x="86.279297"/>
      <use xlink:href="#DejaVuSans-46" x="149.462891"/>
      <use xlink:href="#DejaVuSans-20" x="206.982422"/>
      <use xlink:href="#DejaVuSans-4f" x="238.769531"/>
      <use xlink:href="#DejaVuSans-62" x="317.480469"/>
      <use xlink:href="#DejaVuSans-73" x="380.957031"/>
      <use xlink:href="#DejaVuSans-65" x="433.056641"/>
      <use xlink:href="#DejaVuSans-72" x="494.580078"/>
      <use xlink:href="#DejaVuSans-76" x="535.693359"/>
      <use xlink:href="#DejaVuSans-65" x="594.873047"/>
      <use xlink:href="#DejaVuSans-64" x="656.396484"/>
     </g>
    </g>
    <g id="line2d_29">
     <path d="M 227.778125 38.775781 
L 237.778125 38.775781 
L 247.778125 38.775781 
" style="fill: none; stroke: #8da0cb; stroke-width: 1.5; stroke-linecap: square"/>
    </g>
    <g id="text_11">
     <!-- SPRUCE-Hollow -->
     <g transform="translate(255.778125 42.275781) scale(0.1 -0.1)">
      <defs>
       <path id="DejaVuSans-53" d="M 3425 4513 
L 3425 3897 
Q 3066 4069 2747 4153 
Q 2428 4238 2131 4238 
Q 1616 4238 1336 4038 
Q 1056 3838 1056 3469 
Q 1056 3159 1242 3001 
Q 1428 2844 1947 2747 
L 2328 2669 
Q 3034 2534 3370 2195 
Q 3706 1856 3706 1288 
Q 3706 609 3251 259 
Q 2797 -91 1919 -91 
Q 1588 -91 1214 -16 
Q 841 59 441 206 
L 441 856 
Q 825 641 1194 531 
Q 1563 422 1919 422 
Q 2459 422 2753 634 
Q 3047 847 3047 1241 
Q 3047 1584 2836 1778 
Q 2625 1972 2144 2069 
L 1759 2144 
Q 1053 2284 737 2584 
Q 422 2884 422 3419 
Q 422 4038 858 4394 
Q 1294 4750 2059 4750 
Q 2388 4750 2728 4690 
Q 3069 4631 3425 4513 
z
" transform="scale(0.015625)"/>
       <path id="DejaVuSans-52" d="M 2841 2188 
Q 3044 2119 3236 1894 
Q 3428 1669 3622 1275 
L 4263 0 
L 3584 0 
L 2988 1197 
Q 2756 1666 2539 1819 
Q 2322 1972 1947 1972 
L 1259 1972 
L 1259 0 
L 628 0 
L 628 4666 
L 2053 4666 
Q 2853 4666 3247 4331 
Q 3641 3997 3641 3322 
Q 3641 2881 3436 2590 
Q 3231 2300 2841 2188 
z
M 1259 4147 
L 1259 2491 
L 2053 2491 
Q 2509 2491 2742 2702 
Q 2975 2913 2975 3322 
Q 2975 3731 2742 3939 
Q 2509 4147 2053 4147 
L 1259 4147 
z
" transform="scale(0.015625)"/>
       <path id="DejaVuSans-55" d="M 556 4666 
L 1191 4666 
L 1191 1831 
Q 1191 1081 1462 751 
Q 1734 422 2344 422 
Q 2950 422 3222 751 
Q 3494 1081 3494 1831 
L 3494 4666 
L 4128 4666 
L 4128 1753 
Q 4128 841 3676 375 
Q 3225 -91 2344 -91 
Q 1459 -91 1007 375 
Q 556 841 556 1753 
L 556 4666 
z
" transform="scale(0.015625)"/>
       <path id="DejaVuSans-43" d="M 4122 4306 
L 4122 3641 
Q 3803 3938 3442 4084 
Q 3081 4231 2675 4231 
Q 1875 4231 1450 3742 
Q 1025 3253 1025 2328 
Q 1025 1406 1450 917 
Q 1875 428 2675 428 
Q 3081 428 3442 575 
Q 3803 722 4122 1019 
L 4122 359 
Q 3791 134 3420 21 
Q 3050 -91 2638 -91 
Q 1578 -91 968 557 
Q 359 1206 359 2328 
Q 359 3453 968 4101 
Q 1578 4750 2638 4750 
Q 3056 4750 3426 4639 
Q 3797 4528 4122 4306 
z
" transform="scale(0.015625)"/>
       <path id="DejaVuSans-2d" d="M 313 2009 
L 1997 2009 
L 1997 1497 
L 313 1497 
L 313 2009 
z
" transform="scale(0.015625)"/>
       <path id="DejaVuSans-48" d="M 628 4666 
L 1259 4666 
L 1259 2753 
L 3553 2753 
L 3553 4666 
L 4184 4666 
L 4184 0 
L 3553 0 
L 3553 2222 
L 1259 2222 
L 1259 0 
L 628 0 
L 628 4666 
z
" transform="scale(0.015625)"/>
      </defs>
      <use xlink:href="#DejaVuSans-53"/>
      <use xlink:href="#DejaVuSans-50" x="63.476562"/>
      <use xlink:href="#DejaVuSans-52" x="123.779297"/>
      <use xlink:href="#DejaVuSans-55" x="193.261719"/>
      <use xlink:href="#DejaVuSans-43" x="266.455078"/>
      <use xlink:href="#DejaVuSans-45" x="336.279297"/>
      <use xlink:href="#DejaVuSans-2d" x="399.462891"/>
      <use xlink:href="#DejaVuSans-48" x="435.546875"/>
      <use xlink:href="#DejaVuSans-6f" x="510.742188"/>
      <use xlink:href="#DejaVuSans-6c" x="571.923828"/>
      <use xlink:href="#DejaVuSans-6c" x="599.707031"/>
      <use xlink:href="#DejaVuSans-6f" x="627.490234"/>
      <use xlink:href="#DejaVuSans-77" x="688.671875"/>
     </g>
    </g>
    <g id="line2d_30">
     <path d="M 227.778125 53.453906 
L 237.778125 53.453906 
L 247.778125 53.453906 
" style="fill: none; stroke: #e78ac3; stroke-width: 1.5; stroke-linecap: square"/>
    </g>
    <g id="text_12">
     <!-- HILLSLOPE -->
     <g transform="translate(255.778125 56.953906) scale(0.1 -0.1)">
      <defs>
       <path id="DejaVuSans-49" d="M 628 4666 
L 1259 4666 
L 1259 0 
L 628 0 
L 628 4666 
z
" transform="scale(0.015625)"/>
       <path id="DejaVuSans-4c" d="M 628 4666 
L 1259 4666 
L 1259 531 
L 3531 531 
L 3531 0 
L 628 0 
L 628 4666 
z
" transform="scale(0.015625)"/>
      </defs>
      <use xlink:href="#DejaVuSans-48"/>
      <use xlink:href="#DejaVuSans-49" x="75.195312"/>
      <use xlink:href="#DejaVuSans-4c" x="104.6875"/>
      <use xlink:href="#DejaVuSans-4c" x="160.400391"/>
      <use xlink:href="#DejaVuSans-53" x="216.113281"/>
      <use xlink:href="#DejaVuSans-4c" x="279.589844"/>
      <use xlink:href="#DejaVuSans-4f" x="331.677734"/>
      <use xlink:href="#DejaVuSans-50" x="410.388672"/>
      <use xlink:href="#DejaVuSans-45" x="470.691406"/>
     </g>
    </g>
    <g id="line2d_31">
     <path d="M 227.778125 68.132031 
L 237.778125 68.132031 
L 247.778125 68.132031 
" style="fill: none; stroke: #fc8d62; stroke-width: 1.5; stroke-linecap: square"/>
    </g>
    <g id="text_13">
     <!-- CLM 5.0 -->
     <g transform="translate(255.778125 71.632031) scale(0.1 -0.1)">
      <defs>
       <path id="DejaVuSans-2e" d="M 684 794 
L 1344 794 
L 1344 0 
L 684 0 
L 684 794 
z
" transform="scale(0.015625)"/>
      </defs>
      <use xlink:href="#DejaVuSans-43"/>
      <use xlink:href="#DejaVuSans-4c" x="69.824219"/>
      <use xlink:href="#DejaVuSans-4d" x="125.537109"/>
      <use xlink:href="#DejaVuSans-20" x="211.816406"/>
      <use xlink:href="#DejaVuSans-35" x="243.603516"/>
      <use xlink:href="#DejaVuSans-2e" x="307.226562"/>
      <use xlink:href="#DejaVuSans-30" x="339.013672"/>
     </g>
    </g>
   </g>
  </g>
 </g>
 <defs>
  <clipPath id="p549c91aebd">
   <rect x="51.378125" y="10.999219" width="167.4" height="166.32"/>
  </clipPath>
 </defs>
</svg>
