<?xml version="1.0" encoding="utf-8" standalone="no"?>
<!DOCTYPE svg PUBLIC "-//W3C//DTD SVG 1.1//EN"
  "http://www.w3.org/Graphics/SVG/1.1/DTD/svg11.dtd">
<svg xmlns:xlink="http://www.w3.org/1999/xlink" width="468.2325pt" height="230.609531pt" viewBox="0 0 468.2325 230.609531" xmlns="http://www.w3.org/2000/svg" version="1.1">
 <metadata>
  <rdf:RDF xmlns:dc="http://purl.org/dc/elements/1.1/" xmlns:cc="http://creativecommons.org/ns#" xmlns:rdf="http://www.w3.org/1999/02/22-rdf-syntax-ns#">
   <cc:Work>
    <dc:type rdf:resource="http://purl.org/dc/dcmitype/StillImage"/>
    <dc:date>2024-09-20T10:32:10.135119</dc:date>
    <dc:format>image/svg+xml</dc:format>
    <dc:creator>
     <cc:Agent>
      <dc:title>Matplotlib v3.6.3, https://matplotlib.org/</dc:title>
     </cc:Agent>
    </dc:creator>
   </cc:Work>
  </rdf:RDF>
 </metadata>
 <defs>
  <style type="text/css">*{stroke-linejoin: round; stroke-linecap: butt}</style>
 </defs>
 <g id="figure_1">
  <g id="patch_1">
   <path d="M 0 230.609531 
L 468.2325 230.609531 
L 468.2325 0 
L 0 0 
z
" style="fill: #ffffff"/>
  </g>
  <g id="axes_1">
   <g id="patch_2">
    <path d="M 98.855156 173.52 
L 266.255156 173.52 
L 266.255156 7.2 
L 98.855156 7.2 
z
" style="fill: #ffffff"/>
   </g>
   <g id="matplotlib.axis_1">
    <g id="xtick_1">
     <g id="line2d_1">
      <defs>
       <path id="m05d8f0140c" d="M 0 0 
L 0 9 
" style="stroke: #000000; stroke-width: 1.875"/>
      </defs>
      <g>
       <use xlink:href="#m05d8f0140c" x="98.855156" y="173.52" style="stroke: #000000; stroke-width: 1.875"/>
      </g>
     </g>
     <g id="text_1">
      <!-- 0 -->
      <g transform="translate(93.606094 198.557422) scale(0.165 -0.165)">
       <defs>
        <path id="DejaVuSans-30" d="M 2034 4250 
Q 1547 4250 1301 3770 
Q 1056 3291 1056 2328 
Q 1056 1369 1301 889 
Q 1547 409 2034 409 
Q 2525 409 2770 889 
Q 3016 1369 3016 2328 
Q 3016 3291 2770 3770 
Q 2525 4250 2034 4250 
z
M 2034 4750 
Q 2819 4750 3233 4129 
Q 3647 3509 3647 2328 
Q 3647 1150 3233 529 
Q 2819 -91 2034 -91 
Q 1250 -91 836 529 
Q 422 1150 422 2328 
Q 422 3509 836 4129 
Q 1250 4750 2034 4750 
z
" transform="scale(0.015625)"/>
       </defs>
       <use xlink:href="#DejaVuSans-30"/>
      </g>
     </g>
    </g>
    <g id="xtick_2">
     <g id="line2d_2">
      <g>
       <use xlink:href="#m05d8f0140c" x="182.555156" y="173.52" style="stroke: #000000; stroke-width: 1.875"/>
      </g>
     </g>
     <g id="text_2">
      <!-- 20 -->
      <g transform="translate(172.057031 198.557422) scale(0.165 -0.165)">
       <defs>
        <path id="DejaVuSans-32" d="M 1228 531 
L 3431 531 
L 3431 0 
L 469 0 
L 469 531 
Q 828 903 1448 1529 
Q 2069 2156 2228 2338 
Q 2531 2678 2651 2914 
Q 2772 3150 2772 3378 
Q 2772 3750 2511 3984 
Q 2250 4219 1831 4219 
Q 1534 4219 1204 4116 
Q 875 4013 500 3803 
L 500 4441 
Q 881 4594 1212 4672 
Q 1544 4750 1819 4750 
Q 2544 4750 2975 4387 
Q 3406 4025 3406 3419 
Q 3406 3131 3298 2873 
Q 3191 2616 2906 2266 
Q 2828 2175 2409 1742 
Q 1991 1309 1228 531 
z
" transform="scale(0.015625)"/>
       </defs>
       <use xlink:href="#DejaVuSans-32"/>
       <use xlink:href="#DejaVuSans-30" x="63.623047"/>
      </g>
     </g>
    </g>
    <g id="xtick_3">
     <g id="line2d_3">
      <g>
       <use xlink:href="#m05d8f0140c" x="266.255156" y="173.52" style="stroke: #000000; stroke-width: 1.875"/>
      </g>
     </g>
     <g id="text_3">
      <!-- 40 -->
      <g transform="translate(255.757031 198.557422) scale(0.165 -0.165)">
       <defs>
        <path id="DejaVuSans-34" d="M 2419 4116 
L 825 1625 
L 2419 1625 
L 2419 4116 
z
M 2253 4666 
L 3047 4666 
L 3047 1625 
L 3713 1625 
L 3713 1100 
L 3047 1100 
L 3047 0 
L 2419 0 
L 2419 1100 
L 313 1100 
L 313 1709 
L 2253 4666 
z
" transform="scale(0.015625)"/>
       </defs>
       <use xlink:href="#DejaVuSans-34"/>
       <use xlink:href="#DejaVuSans-30" x="63.623047"/>
      </g>
     </g>
    </g>
    <g id="text_4">
     <!-- Exceedence Probability -->
     <g transform="translate(77.800781 219.666094) scale(0.18 -0.18)">
      <defs>
       <path id="DejaVuSans-45" d="M 628 4666 
L 3578 4666 
L 3578 4134 
L 1259 4134 
L 1259 2753 
L 3481 2753 
L 3481 2222 
L 1259 2222 
L 1259 531 
L 3634 531 
L 3634 0 
L 628 0 
L 628 4666 
z
" transform="scale(0.015625)"/>
       <path id="DejaVuSans-78" d="M 3513 3500 
L 2247 1797 
L 3578 0 
L 2900 0 
L 1881 1375 
L 863 0 
L 184 0 
L 1544 1831 
L 300 3500 
L 978 3500 
L 1906 2253 
L 2834 3500 
L 3513 3500 
z
" transform="scale(0.015625)"/>
       <path id="DejaVuSans-63" d="M 3122 3366 
L 3122 2828 
Q 2878 2963 2633 3030 
Q 2388 3097 2138 3097 
Q 1578 3097 1268 2742 
Q 959 2388 959 1747 
Q 959 1106 1268 751 
Q 1578 397 2138 397 
Q 2388 397 2633 464 
Q 2878 531 3122 666 
L 3122 134 
Q 2881 22 2623 -34 
Q 2366 -91 2075 -91 
Q 1284 -91 818 406 
Q 353 903 353 1747 
Q 353 2603 823 3093 
Q 1294 3584 2113 3584 
Q 2378 3584 2631 3529 
Q 2884 3475 3122 3366 
z
" transform="scale(0.015625)"/>
       <path id="DejaVuSans-65" d="M 3597 1894 
L 3597 1613 
L 953 1613 
Q 991 1019 1311 708 
Q 1631 397 2203 397 
Q 2534 397 2845 478 
Q 3156 559 3463 722 
L 3463 178 
Q 3153 47 2828 -22 
Q 2503 -91 2169 -91 
Q 1331 -91 842 396 
Q 353 884 353 1716 
Q 353 2575 817 3079 
Q 1281 3584 2069 3584 
Q 2775 3584 3186 3129 
Q 3597 2675 3597 1894 
z
M 3022 2063 
Q 3016 2534 2758 2815 
Q 2500 3097 2075 3097 
Q 1594 3097 1305 2825 
Q 1016 2553 972 2059 
L 3022 2063 
z
" transform="scale(0.015625)"/>
       <path id="DejaVuSans-64" d="M 2906 2969 
L 2906 4863 
L 3481 4863 
L 3481 0 
L 2906 0 
L 2906 525 
Q 2725 213 2448 61 
Q 2172 -91 1784 -91 
Q 1150 -91 751 415 
Q 353 922 353 1747 
Q 353 2572 751 3078 
Q 1150 3584 1784 3584 
Q 2172 3584 2448 3432 
Q 2725 3281 2906 2969 
z
M 947 1747 
Q 947 1113 1208 752 
Q 1469 391 1925 391 
Q 2381 391 2643 752 
Q 2906 1113 2906 1747 
Q 2906 2381 2643 2742 
Q 2381 3103 1925 3103 
Q 1469 3103 1208 2742 
Q 947 2381 947 1747 
z
" transform="scale(0.015625)"/>
       <path id="DejaVuSans-6e" d="M 3513 2113 
L 3513 0 
L 2938 0 
L 2938 2094 
Q 2938 2591 2744 2837 
Q 2550 3084 2163 3084 
Q 1697 3084 1428 2787 
Q 1159 2491 1159 1978 
L 1159 0 
L 581 0 
L 581 3500 
L 1159 3500 
L 1159 2956 
Q 1366 3272 1645 3428 
Q 1925 3584 2291 3584 
Q 2894 3584 3203 3211 
Q 3513 2838 3513 2113 
z
" transform="scale(0.015625)"/>
       <path id="DejaVuSans-20" transform="scale(0.015625)"/>
       <path id="DejaVuSans-50" d="M 1259 4147 
L 1259 2394 
L 2053 2394 
Q 2494 2394 2734 2622 
Q 2975 2850 2975 3272 
Q 2975 3691 2734 3919 
Q 2494 4147 2053 4147 
L 1259 4147 
z
M 628 4666 
L 2053 4666 
Q 2838 4666 3239 4311 
Q 3641 3956 3641 3272 
Q 3641 2581 3239 2228 
Q 2838 1875 2053 1875 
L 1259 1875 
L 1259 0 
L 628 0 
L 628 4666 
z
" transform="scale(0.015625)"/>
       <path id="DejaVuSans-72" d="M 2631 2963 
Q 2534 3019 2420 3045 
Q 2306 3072 2169 3072 
Q 1681 3072 1420 2755 
Q 1159 2438 1159 1844 
L 1159 0 
L 581 0 
L 581 3500 
L 1159 3500 
L 1159 2956 
Q 1341 3275 1631 3429 
Q 1922 3584 2338 3584 
Q 2397 3584 2469 3576 
Q 2541 3569 2628 3553 
L 2631 2963 
z
" transform="scale(0.015625)"/>
       <path id="DejaVuSans-6f" d="M 1959 3097 
Q 1497 3097 1228 2736 
Q 959 2375 959 1747 
Q 959 1119 1226 758 
Q 1494 397 1959 397 
Q 2419 397 2687 759 
Q 2956 1122 2956 1747 
Q 2956 2369 2687 2733 
Q 2419 3097 1959 3097 
z
M 1959 3584 
Q 2709 3584 3137 3096 
Q 3566 2609 3566 1747 
Q 3566 888 3137 398 
Q 2709 -91 1959 -91 
Q 1206 -91 779 398 
Q 353 888 353 1747 
Q 353 2609 779 3096 
Q 1206 3584 1959 3584 
z
" transform="scale(0.015625)"/>
       <path id="DejaVuSans-62" d="M 3116 1747 
Q 3116 2381 2855 2742 
Q 2594 3103 2138 3103 
Q 1681 3103 1420 2742 
Q 1159 2381 1159 1747 
Q 1159 1113 1420 752 
Q 1681 391 2138 391 
Q 2594 391 2855 752 
Q 3116 1113 3116 1747 
z
M 1159 2969 
Q 1341 3281 1617 3432 
Q 1894 3584 2278 3584 
Q 2916 3584 3314 3078 
Q 3713 2572 3713 1747 
Q 3713 922 3314 415 
Q 2916 -91 2278 -91 
Q 1894 -91 1617 61 
Q 1341 213 1159 525 
L 1159 0 
L 581 0 
L 581 4863 
L 1159 4863 
L 1159 2969 
z
" transform="scale(0.015625)"/>
       <path id="DejaVuSans-61" d="M 2194 1759 
Q 1497 1759 1228 1600 
Q 959 1441 959 1056 
Q 959 750 1161 570 
Q 1363 391 1709 391 
Q 2188 391 2477 730 
Q 2766 1069 2766 1631 
L 2766 1759 
L 2194 1759 
z
M 3341 1997 
L 3341 0 
L 2766 0 
L 2766 531 
Q 2569 213 2275 61 
Q 1981 -91 1556 -91 
Q 1019 -91 701 211 
Q 384 513 384 1019 
Q 384 1609 779 1909 
Q 1175 2209 1959 2209 
L 2766 2209 
L 2766 2266 
Q 2766 2663 2505 2880 
Q 2244 3097 1772 3097 
Q 1472 3097 1187 3025 
Q 903 2953 641 2809 
L 641 3341 
Q 956 3463 1253 3523 
Q 1550 3584 1831 3584 
Q 2591 3584 2966 3190 
Q 3341 2797 3341 1997 
z
" transform="scale(0.015625)"/>
       <path id="DejaVuSans-69" d="M 603 3500 
L 1178 3500 
L 1178 0 
L 603 0 
L 603 3500 
z
M 603 4863 
L 1178 4863 
L 1178 4134 
L 603 4134 
L 603 4863 
z
" transform="scale(0.015625)"/>
       <path id="DejaVuSans-6c" d="M 603 4863 
L 1178 4863 
L 1178 0 
L 603 0 
L 603 4863 
z
" transform="scale(0.015625)"/>
       <path id="DejaVuSans-74" d="M 1172 4494 
L 1172 3500 
L 2356 3500 
L 2356 3053 
L 1172 3053 
L 1172 1153 
Q 1172 725 1289 603 
Q 1406 481 1766 481 
L 2356 481 
L 2356 0 
L 1766 0 
Q 1100 0 847 248 
Q 594 497 594 1153 
L 594 3053 
L 172 3053 
L 172 3500 
L 594 3500 
L 594 4494 
L 1172 4494 
z
" transform="scale(0.015625)"/>
       <path id="DejaVuSans-79" d="M 2059 -325 
Q 1816 -950 1584 -1140 
Q 1353 -1331 966 -1331 
L 506 -1331 
L 506 -850 
L 844 -850 
Q 1081 -850 1212 -737 
Q 1344 -625 1503 -206 
L 1606 56 
L 191 3500 
L 800 3500 
L 1894 763 
L 2988 3500 
L 3597 3500 
L 2059 -325 
z
" transform="scale(0.015625)"/>
      </defs>
      <use xlink:href="#DejaVuSans-45"/>
      <use xlink:href="#DejaVuSans-78" x="63.183594"/>
      <use xlink:href="#DejaVuSans-63" x="120.613281"/>
      <use xlink:href="#DejaVuSans-65" x="175.59375"/>
      <use xlink:href="#DejaVuSans-65" x="237.117188"/>
      <use xlink:href="#DejaVuSans-64" x="298.640625"/>
      <use xlink:href="#DejaVuSans-65" x="362.117188"/>
      <use xlink:href="#DejaVuSans-6e" x="423.640625"/>
      <use xlink:href="#DejaVuSans-63" x="487.019531"/>
      <use xlink:href="#DejaVuSans-65" x="542"/>
      <use xlink:href="#DejaVuSans-20" x="603.523438"/>
      <use xlink:href="#DejaVuSans-50" x="635.310547"/>
      <use xlink:href="#DejaVuSans-72" x="693.863281"/>
      <use xlink:href="#DejaVuSans-6f" x="732.726562"/>
      <use xlink:href="#DejaVuSans-62" x="793.908203"/>
      <use xlink:href="#DejaVuSans-61" x="857.384766"/>
      <use xlink:href="#DejaVuSans-62" x="918.664062"/>
      <use xlink:href="#DejaVuSans-69" x="982.140625"/>
      <use xlink:href="#DejaVuSans-6c" x="1009.923828"/>
      <use xlink:href="#DejaVuSans-69" x="1037.707031"/>
      <use xlink:href="#DejaVuSans-74" x="1065.490234"/>
      <use xlink:href="#DejaVuSans-79" x="1104.699219"/>
     </g>
    </g>
   </g>
   <g id="matplotlib.axis_2">
    <g id="ytick_1">
     <g id="line2d_4">
      <defs>
       <path id="mfaa2491d10" d="M 0 0 
L -9 0 
" style="stroke: #000000; stroke-width: 1.875"/>
      </defs>
      <g>
       <use xlink:href="#mfaa2491d10" x="98.855156" y="165.959479" style="stroke: #000000; stroke-width: 1.875"/>
      </g>
     </g>
     <g id="text_5">
      <!-- 0.0000 -->
      <g transform="translate(28.620625 172.22819) scale(0.165 -0.165)">
       <defs>
        <path id="DejaVuSans-2e" d="M 684 794 
L 1344 794 
L 1344 0 
L 684 0 
L 684 794 
z
" transform="scale(0.015625)"/>
       </defs>
       <use xlink:href="#DejaVuSans-30"/>
       <use xlink:href="#DejaVuSans-2e" x="63.623047"/>
       <use xlink:href="#DejaVuSans-30" x="95.410156"/>
       <use xlink:href="#DejaVuSans-30" x="159.033203"/>
       <use xlink:href="#DejaVuSans-30" x="222.65625"/>
       <use xlink:href="#DejaVuSans-30" x="286.279297"/>
      </g>
     </g>
    </g>
    <g id="ytick_2">
     <g id="line2d_5">
      <g>
       <use xlink:href="#mfaa2491d10" x="98.855156" y="111.295096" style="stroke: #000000; stroke-width: 1.875"/>
      </g>
     </g>
     <g id="text_6">
      <!-- 0.0002 -->
      <g transform="translate(28.620625 117.563807) scale(0.165 -0.165)">
       <use xlink:href="#DejaVuSans-30"/>
       <use xlink:href="#DejaVuSans-2e" x="63.623047"/>
       <use xlink:href="#DejaVuSans-30" x="95.410156"/>
       <use xlink:href="#DejaVuSans-30" x="159.033203"/>
       <use xlink:href="#DejaVuSans-30" x="222.65625"/>
       <use xlink:href="#DejaVuSans-32" x="286.279297"/>
      </g>
     </g>
    </g>
    <g id="ytick_3">
     <g id="line2d_6">
      <g>
       <use xlink:href="#mfaa2491d10" x="98.855156" y="56.630712" style="stroke: #000000; stroke-width: 1.875"/>
      </g>
     </g>
     <g id="text_7">
      <!-- 0.0004 -->
      <g transform="translate(28.620625 62.899423) scale(0.165 -0.165)">
       <use xlink:href="#DejaVuSans-30"/>
       <use xlink:href="#DejaVuSans-2e" x="63.623047"/>
       <use xlink:href="#DejaVuSans-30" x="95.410156"/>
       <use xlink:href="#DejaVuSans-30" x="159.033203"/>
       <use xlink:href="#DejaVuSans-30" x="222.65625"/>
       <use xlink:href="#DejaVuSans-34" x="286.279297"/>
      </g>
     </g>
    </g>
    <g id="text_8">
     <!-- Flow [mm/s] -->
     <g transform="translate(20.877187 146.040469) rotate(-90) scale(0.18 -0.18)">
      <defs>
       <path id="DejaVuSans-46" d="M 628 4666 
L 3309 4666 
L 3309 4134 
L 1259 4134 
L 1259 2759 
L 3109 2759 
L 3109 2228 
L 1259 2228 
L 1259 0 
L 628 0 
L 628 4666 
z
" transform="scale(0.015625)"/>
       <path id="DejaVuSans-77" d="M 269 3500 
L 844 3500 
L 1563 769 
L 2278 3500 
L 2956 3500 
L 3675 769 
L 4391 3500 
L 4966 3500 
L 4050 0 
L 3372 0 
L 2619 2869 
L 1863 0 
L 1184 0 
L 269 3500 
z
" transform="scale(0.015625)"/>
       <path id="DejaVuSans-5b" d="M 550 4863 
L 1875 4863 
L 1875 4416 
L 1125 4416 
L 1125 -397 
L 1875 -397 
L 1875 -844 
L 550 -844 
L 550 4863 
z
" transform="scale(0.015625)"/>
       <path id="DejaVuSans-6d" d="M 3328 2828 
Q 3544 3216 3844 3400 
Q 4144 3584 4550 3584 
Q 5097 3584 5394 3201 
Q 5691 2819 5691 2113 
L 5691 0 
L 5113 0 
L 5113 2094 
Q 5113 2597 4934 2840 
Q 4756 3084 4391 3084 
Q 3944 3084 3684 2787 
Q 3425 2491 3425 1978 
L 3425 0 
L 2847 0 
L 2847 2094 
Q 2847 2600 2669 2842 
Q 2491 3084 2119 3084 
Q 1678 3084 1418 2786 
Q 1159 2488 1159 1978 
L 1159 0 
L 581 0 
L 581 3500 
L 1159 3500 
L 1159 2956 
Q 1356 3278 1631 3431 
Q 1906 3584 2284 3584 
Q 2666 3584 2933 3390 
Q 3200 3197 3328 2828 
z
" transform="scale(0.015625)"/>
       <path id="DejaVuSans-2f" d="M 1625 4666 
L 2156 4666 
L 531 -594 
L 0 -594 
L 1625 4666 
z
" transform="scale(0.015625)"/>
       <path id="DejaVuSans-73" d="M 2834 3397 
L 2834 2853 
Q 2591 2978 2328 3040 
Q 2066 3103 1784 3103 
Q 1356 3103 1142 2972 
Q 928 2841 928 2578 
Q 928 2378 1081 2264 
Q 1234 2150 1697 2047 
L 1894 2003 
Q 2506 1872 2764 1633 
Q 3022 1394 3022 966 
Q 3022 478 2636 193 
Q 2250 -91 1575 -91 
Q 1294 -91 989 -36 
Q 684 19 347 128 
L 347 722 
Q 666 556 975 473 
Q 1284 391 1588 391 
Q 1994 391 2212 530 
Q 2431 669 2431 922 
Q 2431 1156 2273 1281 
Q 2116 1406 1581 1522 
L 1381 1569 
Q 847 1681 609 1914 
Q 372 2147 372 2553 
Q 372 3047 722 3315 
Q 1072 3584 1716 3584 
Q 2034 3584 2315 3537 
Q 2597 3491 2834 3397 
z
" transform="scale(0.015625)"/>
       <path id="DejaVuSans-5d" d="M 1947 4863 
L 1947 -844 
L 622 -844 
L 622 -397 
L 1369 -397 
L 1369 4416 
L 622 4416 
L 622 4863 
L 1947 4863 
z
" transform="scale(0.015625)"/>
      </defs>
      <use xlink:href="#DejaVuSans-46"/>
      <use xlink:href="#DejaVuSans-6c" x="57.519531"/>
      <use xlink:href="#DejaVuSans-6f" x="85.302734"/>
      <use xlink:href="#DejaVuSans-77" x="146.484375"/>
      <use xlink:href="#DejaVuSans-20" x="228.271484"/>
      <use xlink:href="#DejaVuSans-5b" x="260.058594"/>
      <use xlink:href="#DejaVuSans-6d" x="299.072266"/>
      <use xlink:href="#DejaVuSans-6d" x="396.484375"/>
      <use xlink:href="#DejaVuSans-2f" x="493.896484"/>
      <use xlink:href="#DejaVuSans-73" x="527.587891"/>
      <use xlink:href="#DejaVuSans-5d" x="579.6875"/>
     </g>
    </g>
   </g>
   <g id="line2d_7">
    <path d="M 99.046078 127.89181 
L 99.618842 140.768626 
L 99.809764 142.994744 
L 100.000685 143.163988 
L 100.191607 144.431898 
L 100.764372 144.82638 
L 101.146215 145.333481 
L 101.337136 145.361636 
L 101.528058 145.58719 
L 101.718979 146.79879 
L 101.909901 147.080654 
L 102.100822 147.136963 
L 102.291744 147.334046 
L 102.482665 147.3622 
L 103.05543 149.193837 
L 103.628195 150.010956 
L 103.819116 150.1802 
L 104.010038 150.1802 
L 104.391881 150.377283 
L 104.582802 150.405438 
L 105.919253 151.363646 
L 106.110174 151.842592 
L 107.064782 152.208919 
L 107.637547 152.744175 
L 108.592154 152.856794 
L 108.973997 153.110502 
L 109.164919 153.110502 
L 109.546762 153.392365 
L 111.455977 153.730538 
L 111.646899 154.096865 
L 113.937957 154.885829 
L 114.510722 155.477394 
L 115.083487 155.533703 
L 115.656251 155.843721 
L 116.992702 156.266358 
L 117.374545 156.491912 
L 119.092839 157.139786 
L 119.665603 157.337185 
L 120.238368 157.872441 
L 120.811133 157.985376 
L 121.002054 158.126149 
L 121.383897 158.210613 
L 122.529426 158.464322 
L 122.911269 158.548786 
L 123.674956 158.63325 
L 124.056799 158.858804 
L 125.202328 159.112196 
L 125.584171 159.365904 
L 129.402602 159.929631 
L 129.784445 160.098559 
L 130.166288 160.126714 
L 130.548131 160.239332 
L 137.612227 161.366469 
L 138.184992 161.450933 
L 139.1396 161.507559 
L 140.47605 161.789106 
L 142.576187 161.873886 
L 145.44001 162.211742 
L 146.394618 162.268368 
L 147.540147 162.52176 
L 149.258441 162.606224 
L 150.213049 162.775469 
L 151.549499 162.859933 
L 153.649636 163.057332 
L 154.604244 163.113641 
L 155.36793 163.254415 
L 157.277145 163.338879 
L 160.904654 163.761516 
L 161.286497 163.818141 
L 162.050184 163.93076 
L 163.386634 164.043379 
L 165.29585 164.127843 
L 167.014143 164.268933 
L 169.11428 164.353397 
L 170.068888 164.409706 
L 171.978103 164.49417 
L 172.741789 164.522325 
L 176.369299 164.607105 
L 177.323906 164.663415 
L 181.142337 164.747879 
L 182.287866 164.832343 
L 184.960768 164.916807 
L 185.724454 164.944961 
L 189.351963 165.029742 
L 190.115649 165.057897 
L 194.506844 165.142361 
L 195.27053 165.170515 
L 199.661726 165.254979 
L 200.425412 165.283134 
L 205.007529 165.367598 
L 205.771215 165.396069 
L 212.262547 165.480533 
L 213.026233 165.508688 
L 219.899408 165.593152 
L 220.663094 165.621307 
L 231.545622 165.705771 
L 232.309308 165.733925 
L 248.919481 165.818706 
L 249.683167 165.846861 
L 266.293341 165.875015 
L 266.293341 165.875015 
" clip-path="url(#pb40ff86c8a)" style="fill: none; stroke: #000000; stroke-width: 2.25; stroke-linecap: square"/>
   </g>
   <g id="line2d_8">
    <path d="M 99.046252 14.76 
L 99.810636 56.775356 
L 100.001732 59.765175 
L 100.192827 67.904908 
L 100.383923 69.781314 
L 100.766115 76.601989 
L 100.957211 77.91287 
L 101.148307 80.877664 
L 101.721595 83.770149 
L 101.91269 84.067958 
L 102.103786 85.352772 
L 102.294882 85.764977 
L 102.485978 87.263311 
L 102.86817 88.118857 
L 103.059266 89.838451 
L 103.250362 90.109572 
L 103.441458 95.541353 
L 103.632554 95.664596 
L 103.823649 96.432448 
L 104.205841 96.680524 
L 104.396937 97.919678 
L 104.588033 98.119564 
L 104.970225 99.650349 
L 105.161321 100.121686 
L 105.352417 101.412736 
L 105.543512 101.47987 
L 105.734608 103.237834 
L 106.1168 104.17655 
L 106.307896 104.316092 
L 106.498992 104.601455 
L 106.690088 107.134678 
L 106.881184 108.103268 
L 107.07228 110.14726 
L 107.454471 110.901876 
L 107.836663 110.984823 
L 108.409951 112.777904 
L 108.792143 114.39773 
L 109.174334 117.26212 
L 109.36543 117.60457 
L 109.938718 120.608843 
L 110.129814 121.056153 
L 110.32091 122.332483 
L 110.512006 122.508568 
L 111.085293 125.046349 
L 111.276389 125.131047 
L 111.467485 126.388067 
L 111.658581 126.54003 
L 112.231869 127.65439 
L 112.422964 128.417859 
L 113.187348 129.273882 
L 113.378444 130.106936 
L 113.56954 130.259793 
L 113.951732 131.604645 
L 115.098307 133.003526 
L 115.289403 133.663162 
L 115.480499 133.829159 
L 115.671595 134.387829 
L 115.86269 135.426663 
L 116.053786 135.539672 
L 116.244882 135.82415 
L 117.009266 138.50126 
L 117.200362 138.906089 
L 117.391458 138.934092 
L 117.582554 140.409984 
L 117.773649 140.51255 
L 118.155841 141.600007 
L 118.729129 141.770661 
L 119.111321 143.313244 
L 119.302417 143.338571 
L 119.493512 144.468423 
L 119.875704 144.616661 
L 120.831184 144.753369 
L 121.02228 145.220086 
L 121.595567 145.369181 
L 122.359951 147.335285 
L 122.933238 148.048669 
L 124.27091 148.920349 
L 124.462006 149.543847 
L 124.653101 149.753365 
L 124.844197 150.274231 
L 125.226389 150.50851 
L 125.608581 151.571328 
L 125.799677 151.647419 
L 126.181869 152.452248 
L 127.328444 153.206442 
L 127.51954 153.227318 
L 127.901732 153.471301 
L 128.857211 153.758466 
L 129.048307 154.103412 
L 129.81269 154.391799 
L 130.003786 154.870259 
L 130.194882 154.961238 
L 130.76817 155.772054 
L 130.959266 156.012695 
L 131.341458 156.158282 
L 131.723649 156.277118 
L 132.488033 156.420728 
L 134.398992 156.954802 
L 140.322964 157.2314 
L 140.896252 157.321445 
L 142.042827 157.4396 
L 143.571595 157.593987 
L 143.76269 157.668534 
L 143.953786 158.021475 
L 144.335978 158.02656 
L 145.100362 158.463152 
L 145.673649 158.711683 
L 148.348992 159.411012 
L 148.731184 159.661751 
L 149.113375 159.682445 
L 149.495567 160.01269 
L 151.979814 160.60626 
L 152.744197 160.709534 
L 153.508581 160.883562 
L 154.272964 161.00119 
L 155.037348 161.335695 
L 157.903786 161.959266 
L 158.285978 162.034891 
L 159.623649 162.297971 
L 160.388033 162.416474 
L 163.445567 162.977719 
L 164.401047 163.009821 
L 164.783238 163.113716 
L 165.929814 163.249017 
L 167.076389 163.403632 
L 168.796252 163.522195 
L 170.516115 163.673622 
L 173.191458 163.880216 
L 175.484608 164.032945 
L 177.777759 164.138362 
L 180.07091 164.236764 
L 196.696252 164.519128 
L 234.533238 164.618262 
L 266.446252 164.764256 
L 266.446252 164.764256 
" clip-path="url(#pb40ff86c8a)" style="fill: none; stroke: #8da0cb; stroke-width: 2.25; stroke-linecap: square"/>
   </g>
   <g id="line2d_9">
    <path d="M 99.046252 78.656636 
L 99.428444 103.513012 
L 99.61954 110.31794 
L 99.810636 110.605213 
L 100.001732 113.043611 
L 100.383923 124.646529 
L 100.575019 125.181332 
L 100.766115 127.232249 
L 100.957211 131.329508 
L 101.530499 132.518984 
L 101.721595 132.527647 
L 101.91269 132.758514 
L 102.294882 133.656807 
L 102.485978 133.749322 
L 102.677074 134.798268 
L 103.250362 135.371744 
L 103.441458 136.440581 
L 103.823649 136.945968 
L 104.205841 137.662562 
L 104.588033 137.951396 
L 104.970225 138.619033 
L 105.352417 138.850136 
L 105.543512 138.864659 
L 106.881184 140.179627 
L 107.263375 140.89927 
L 107.836663 141.910269 
L 108.027759 141.913363 
L 108.218855 142.841833 
L 108.409951 142.898564 
L 108.601047 143.349352 
L 110.32091 144.615132 
L 110.703101 145.163952 
L 110.894197 145.323786 
L 111.276389 146.35974 
L 111.658581 146.590797 
L 112.040773 147.668977 
L 112.231869 147.957264 
L 112.422964 147.979501 
L 112.805156 148.234042 
L 112.996252 148.28984 
L 113.56954 148.773933 
L 113.951732 149.013505 
L 114.142827 149.276195 
L 114.525019 149.332822 
L 114.716115 149.613736 
L 116.053786 149.92813 
L 116.435978 150.275742 
L 116.627074 150.306893 
L 116.81817 150.699539 
L 117.200362 150.821162 
L 117.582554 151.132902 
L 117.773649 151.387669 
L 118.155841 151.408744 
L 120.0668 152.546132 
L 121.213375 152.814633 
L 122.742143 153.140168 
L 122.933238 153.141191 
L 123.31543 153.313086 
L 123.506526 153.319895 
L 123.888718 153.572256 
L 125.035293 154.283286 
L 125.417485 154.36466 
L 125.990773 154.846864 
L 126.372964 154.981326 
L 127.137348 155.090477 
L 127.901732 155.199003 
L 129.430499 155.451915 
L 129.81269 155.490859 
L 130.194882 155.834499 
L 130.76817 155.949616 
L 133.825704 156.870742 
L 134.0168 157.027791 
L 134.207896 157.03209 
L 134.590088 157.245768 
L 136.309951 157.548713 
L 137.838718 157.725802 
L 140.131869 157.98752 
L 147.202417 159.260259 
L 149.877759 159.449728 
L 151.21543 159.631195 
L 158.285978 160.199593 
L 159.814745 160.312849 
L 160.579129 160.388094 
L 164.018855 160.827366 
L 164.592143 160.898224 
L 164.974334 161.021646 
L 167.076389 161.177516 
L 170.325019 161.621274 
L 170.898307 161.765506 
L 174.338033 162.087713 
L 176.248992 162.286489 
L 177.586663 162.391802 
L 184.466115 162.965914 
L 186.56817 163.085624 
L 195.740773 163.544188 
L 200.51817 163.711349 
L 229.564745 164.29866 
L 250.394197 164.51517 
L 266.446252 164.641139 
L 266.446252 164.641139 
" clip-path="url(#pb40ff86c8a)" style="fill: none; stroke: #e78ac3; stroke-width: 2.25; stroke-linecap: square"/>
   </g>
   <g id="line2d_10">
    <path d="M 99.046514 92.995001 
L 99.42923 105.777779 
L 100.003304 115.881133 
L 100.38602 120.256815 
L 100.960095 127.014063 
L 101.342811 127.597995 
L 101.916885 130.601432 
L 102.108243 130.660448 
L 102.299601 130.883507 
L 103.065033 135.198916 
L 103.256391 135.600078 
L 103.447749 135.682606 
L 103.639107 136.302787 
L 103.830465 136.482077 
L 104.213181 139.107401 
L 104.595897 139.410744 
L 104.787255 140.799993 
L 105.361329 141.286798 
L 105.744045 141.632554 
L 105.935403 142.290349 
L 106.126761 142.354388 
L 106.318119 142.909623 
L 106.509477 142.972788 
L 106.892193 144.321184 
L 107.274909 144.463716 
L 107.657625 144.85718 
L 108.231699 145.068583 
L 108.423057 145.2299 
L 108.805774 145.918395 
L 108.997132 145.964111 
L 109.379848 146.297109 
L 109.571206 146.299714 
L 109.953922 146.821342 
L 110.336638 146.971414 
L 110.910712 147.739871 
L 111.293428 147.880777 
L 111.867502 147.999939 
L 112.05886 148.198624 
L 112.632934 148.336992 
L 113.01565 148.885291 
L 113.398366 148.922672 
L 113.589724 149.055148 
L 113.781082 149.402013 
L 114.355156 149.524141 
L 114.737872 149.901197 
L 117.608243 150.917401 
L 117.990959 150.939942 
L 118.182317 151.231095 
L 118.756391 151.300126 
L 119.139107 151.539706 
L 119.330465 151.55903 
L 119.713181 152.045481 
L 120.287255 152.158563 
L 120.669971 152.334193 
L 121.052687 152.381374 
L 121.244045 152.658602 
L 122.774909 153.006058 
L 122.966267 153.010099 
L 123.157625 153.156612 
L 123.540341 153.165418 
L 123.923057 153.368175 
L 124.305774 153.404528 
L 124.497132 153.594401 
L 125.262564 153.695947 
L 126.60207 153.899332 
L 126.984786 153.960867 
L 127.367502 154.192836 
L 127.941576 154.303651 
L 128.132934 154.591812 
L 128.898366 154.805997 
L 130.046514 155.105473 
L 130.811946 155.16578 
L 131.003304 155.365123 
L 131.577378 155.481008 
L 131.960095 155.550153 
L 132.151453 155.555714 
L 132.534169 155.969369 
L 133.108243 156.055814 
L 133.682317 156.248101 
L 134.256391 156.369574 
L 135.021823 156.548199 
L 135.595897 156.566272 
L 135.978613 156.819362 
L 136.361329 156.865325 
L 136.552687 157.114535 
L 137.892193 157.370672 
L 138.657625 157.692228 
L 139.997132 157.824292 
L 140.571206 158.206718 
L 142.484786 158.646715 
L 142.676144 158.805086 
L 143.05886 158.844209 
L 143.441576 158.977176 
L 143.824292 159.06121 
L 144.207008 159.215931 
L 146.88602 159.810442 
L 147.842811 160.068 
L 148.416885 160.171046 
L 148.990959 160.317956 
L 150.521823 160.648816 
L 151.669971 160.779097 
L 152.244045 160.926214 
L 153.774909 161.011373 
L 154.540341 161.12523 
L 155.879848 161.278199 
L 157.793428 161.509812 
L 159.898366 161.825864 
L 161.811946 161.954414 
L 162.194662 162.064252 
L 166.787255 162.727099 
L 167.361329 162.874458 
L 173.10207 163.32607 
L 176.163798 163.556138 
L 184.966267 164.182883 
L 187.453922 164.387877 
L 187.836638 164.478938 
L 190.51565 164.626932 
L 191.281082 164.696096 
L 192.811946 164.794407 
L 198.169971 164.997285 
L 217.68849 165.671713 
L 230.892193 165.785414 
L 231.657625 165.874402 
L 234.14528 165.923397 
L 261.509477 165.959477 
L 266.293428 165.959479 
L 266.293428 165.959479 
" clip-path="url(#pb40ff86c8a)" style="fill: none; stroke: #fc8d62; stroke-width: 2.25; stroke-linecap: square"/>
   </g>
   <g id="patch_3">
    <path d="M 98.855156 173.52 
L 98.855156 7.2 
" style="fill: none; stroke: #000000; stroke-width: 1.875; stroke-linejoin: miter; stroke-linecap: square"/>
   </g>
   <g id="patch_4">
    <path d="M 266.255156 173.52 
L 266.255156 7.2 
" style="fill: none; stroke: #000000; stroke-width: 1.875; stroke-linejoin: miter; stroke-linecap: square"/>
   </g>
   <g id="patch_5">
    <path d="M 98.855156 173.52 
L 266.255156 173.52 
" style="fill: none; stroke: #000000; stroke-width: 1.875; stroke-linejoin: miter; stroke-linecap: square"/>
   </g>
   <g id="patch_6">
    <path d="M 98.855156 7.2 
L 266.255156 7.2 
" style="fill: none; stroke: #000000; stroke-width: 1.875; stroke-linejoin: miter; stroke-linecap: square"/>
   </g>
   <g id="legend_1">
    <g id="patch_7">
     <path d="M 277.805156 117.275625 
L 457.7325 117.275625 
Q 461.0325 117.275625 461.0325 113.975625 
L 461.0325 18.75 
Q 461.0325 15.45 457.7325 15.45 
L 277.805156 15.45 
Q 274.505156 15.45 274.505156 18.75 
L 274.505156 113.975625 
Q 274.505156 117.275625 277.805156 117.275625 
z
" style="fill: #ffffff; opacity: 0.8; stroke: #cccccc; stroke-width: 1.5; stroke-linejoin: miter"/>
    </g>
    <g id="line2d_11">
     <path d="M 281.105156 28.812422 
L 297.605156 28.812422 
L 314.105156 28.812422 
" style="fill: none; stroke: #000000; stroke-width: 2.25; stroke-linecap: square"/>
    </g>
    <g id="text_9">
     <!-- MEF Observed -->
     <g transform="translate(327.305156 34.587422) scale(0.165 -0.165)">
      <defs>
       <path id="DejaVuSans-4d" d="M 628 4666 
L 1569 4666 
L 2759 1491 
L 3956 4666 
L 4897 4666 
L 4897 0 
L 4281 0 
L 4281 4097 
L 3078 897 
L 2444 897 
L 1241 4097 
L 1241 0 
L 628 0 
L 628 4666 
z
" transform="scale(0.015625)"/>
       <path id="DejaVuSans-4f" d="M 2522 4238 
Q 1834 4238 1429 3725 
Q 1025 3213 1025 2328 
Q 1025 1447 1429 934 
Q 1834 422 2522 422 
Q 3209 422 3611 934 
Q 4013 1447 4013 2328 
Q 4013 3213 3611 3725 
Q 3209 4238 2522 4238 
z
M 2522 4750 
Q 3503 4750 4090 4092 
Q 4678 3434 4678 2328 
Q 4678 1225 4090 567 
Q 3503 -91 2522 -91 
Q 1538 -91 948 565 
Q 359 1222 359 2328 
Q 359 3434 948 4092 
Q 1538 4750 2522 4750 
z
" transform="scale(0.015625)"/>
       <path id="DejaVuSans-76" d="M 191 3500 
L 800 3500 
L 1894 563 
L 2988 3500 
L 3597 3500 
L 2284 0 
L 1503 0 
L 191 3500 
z
" transform="scale(0.015625)"/>
      </defs>
      <use xlink:href="#DejaVuSans-4d"/>
      <use xlink:href="#DejaVuSans-45" x="86.279297"/>
      <use xlink:href="#DejaVuSans-46" x="149.462891"/>
      <use xlink:href="#DejaVuSans-20" x="206.982422"/>
      <use xlink:href="#DejaVuSans-4f" x="238.769531"/>
      <use xlink:href="#DejaVuSans-62" x="317.480469"/>
      <use xlink:href="#DejaVuSans-73" x="380.957031"/>
      <use xlink:href="#DejaVuSans-65" x="433.056641"/>
      <use xlink:href="#DejaVuSans-72" x="494.580078"/>
      <use xlink:href="#DejaVuSans-76" x="535.693359"/>
      <use xlink:href="#DejaVuSans-65" x="594.873047"/>
      <use xlink:href="#DejaVuSans-64" x="656.396484"/>
     </g>
    </g>
    <g id="line2d_12">
     <path d="M 281.105156 53.031328 
L 297.605156 53.031328 
L 314.105156 53.031328 
" style="fill: none; stroke: #8da0cb; stroke-width: 2.25; stroke-linecap: square"/>
    </g>
    <g id="text_10">
     <!-- SPRUCE-Hollow -->
     <g transform="translate(327.305156 58.806328) scale(0.165 -0.165)">
      <defs>
       <path id="DejaVuSans-53" d="M 3425 4513 
L 3425 3897 
Q 3066 4069 2747 4153 
Q 2428 4238 2131 4238 
Q 1616 4238 1336 4038 
Q 1056 3838 1056 3469 
Q 1056 3159 1242 3001 
Q 1428 2844 1947 2747 
L 2328 2669 
Q 3034 2534 3370 2195 
Q 3706 1856 3706 1288 
Q 3706 609 3251 259 
Q 2797 -91 1919 -91 
Q 1588 -91 1214 -16 
Q 841 59 441 206 
L 441 856 
Q 825 641 1194 531 
Q 1563 422 1919 422 
Q 2459 422 2753 634 
Q 3047 847 3047 1241 
Q 3047 1584 2836 1778 
Q 2625 1972 2144 2069 
L 1759 2144 
Q 1053 2284 737 2584 
Q 422 2884 422 3419 
Q 422 4038 858 4394 
Q 1294 4750 2059 4750 
Q 2388 4750 2728 4690 
Q 3069 4631 3425 4513 
z
" transform="scale(0.015625)"/>
       <path id="DejaVuSans-52" d="M 2841 2188 
Q 3044 2119 3236 1894 
Q 3428 1669 3622 1275 
L 4263 0 
L 3584 0 
L 2988 1197 
Q 2756 1666 2539 1819 
Q 2322 1972 1947 1972 
L 1259 1972 
L 1259 0 
L 628 0 
L 628 4666 
L 2053 4666 
Q 2853 4666 3247 4331 
Q 3641 3997 3641 3322 
Q 3641 2881 3436 2590 
Q 3231 2300 2841 2188 
z
M 1259 4147 
L 1259 2491 
L 2053 2491 
Q 2509 2491 2742 2702 
Q 2975 2913 2975 3322 
Q 2975 3731 2742 3939 
Q 2509 4147 2053 4147 
L 1259 4147 
z
" transform="scale(0.015625)"/>
       <path id="DejaVuSans-55" d="M 556 4666 
L 1191 4666 
L 1191 1831 
Q 1191 1081 1462 751 
Q 1734 422 2344 422 
Q 2950 422 3222 751 
Q 3494 1081 3494 1831 
L 3494 4666 
L 4128 4666 
L 4128 1753 
Q 4128 841 3676 375 
Q 3225 -91 2344 -91 
Q 1459 -91 1007 375 
Q 556 841 556 1753 
L 556 4666 
z
" transform="scale(0.015625)"/>
       <path id="DejaVuSans-43" d="M 4122 4306 
L 4122 3641 
Q 3803 3938 3442 4084 
Q 3081 4231 2675 4231 
Q 1875 4231 1450 3742 
Q 1025 3253 1025 2328 
Q 1025 1406 1450 917 
Q 1875 428 2675 428 
Q 3081 428 3442 575 
Q 3803 722 4122 1019 
L 4122 359 
Q 3791 134 3420 21 
Q 3050 -91 2638 -91 
Q 1578 -91 968 557 
Q 359 1206 359 2328 
Q 359 3453 968 4101 
Q 1578 4750 2638 4750 
Q 3056 4750 3426 4639 
Q 3797 4528 4122 4306 
z
" transform="scale(0.015625)"/>
       <path id="DejaVuSans-2d" d="M 313 2009 
L 1997 2009 
L 1997 1497 
L 313 1497 
L 313 2009 
z
" transform="scale(0.015625)"/>
       <path id="DejaVuSans-48" d="M 628 4666 
L 1259 4666 
L 1259 2753 
L 3553 2753 
L 3553 4666 
L 4184 4666 
L 4184 0 
L 3553 0 
L 3553 2222 
L 1259 2222 
L 1259 0 
L 628 0 
L 628 4666 
z
" transform="scale(0.015625)"/>
      </defs>
      <use xlink:href="#DejaVuSans-53"/>
      <use xlink:href="#DejaVuSans-50" x="63.476562"/>
      <use xlink:href="#DejaVuSans-52" x="123.779297"/>
      <use xlink:href="#DejaVuSans-55" x="193.261719"/>
      <use xlink:href="#DejaVuSans-43" x="266.455078"/>
      <use xlink:href="#DejaVuSans-45" x="336.279297"/>
      <use xlink:href="#DejaVuSans-2d" x="399.462891"/>
      <use xlink:href="#DejaVuSans-48" x="435.546875"/>
      <use xlink:href="#DejaVuSans-6f" x="510.742188"/>
      <use xlink:href="#DejaVuSans-6c" x="571.923828"/>
      <use xlink:href="#DejaVuSans-6c" x="599.707031"/>
      <use xlink:href="#DejaVuSans-6f" x="627.490234"/>
      <use xlink:href="#DejaVuSans-77" x="688.671875"/>
     </g>
    </g>
    <g id="line2d_13">
     <path d="M 281.105156 77.250234 
L 297.605156 77.250234 
L 314.105156 77.250234 
" style="fill: none; stroke: #e78ac3; stroke-width: 2.25; stroke-linecap: square"/>
    </g>
    <g id="text_11">
     <!-- HILLSLOPE -->
     <g transform="translate(327.305156 83.025234) scale(0.165 -0.165)">
      <defs>
       <path id="DejaVuSans-49" d="M 628 4666 
L 1259 4666 
L 1259 0 
L 628 0 
L 628 4666 
z
" transform="scale(0.015625)"/>
       <path id="DejaVuSans-4c" d="M 628 4666 
L 1259 4666 
L 1259 531 
L 3531 531 
L 3531 0 
L 628 0 
L 628 4666 
z
" transform="scale(0.015625)"/>
      </defs>
      <use xlink:href="#DejaVuSans-48"/>
      <use xlink:href="#DejaVuSans-49" x="75.195312"/>
      <use xlink:href="#DejaVuSans-4c" x="104.6875"/>
      <use xlink:href="#DejaVuSans-4c" x="160.400391"/>
      <use xlink:href="#DejaVuSans-53" x="216.113281"/>
      <use xlink:href="#DejaVuSans-4c" x="279.589844"/>
      <use xlink:href="#DejaVuSans-4f" x="331.677734"/>
      <use xlink:href="#DejaVuSans-50" x="410.388672"/>
      <use xlink:href="#DejaVuSans-45" x="470.691406"/>
     </g>
    </g>
    <g id="line2d_14">
     <path d="M 281.105156 101.469141 
L 297.605156 101.469141 
L 314.105156 101.469141 
" style="fill: none; stroke: #fc8d62; stroke-width: 2.25; stroke-linecap: square"/>
    </g>
    <g id="text_12">
     <!-- CLM 5.0 -->
     <g transform="translate(327.305156 107.244141) scale(0.165 -0.165)">
      <defs>
       <path id="DejaVuSans-35" d="M 691 4666 
L 3169 4666 
L 3169 4134 
L 1269 4134 
L 1269 2991 
Q 1406 3038 1543 3061 
Q 1681 3084 1819 3084 
Q 2600 3084 3056 2656 
Q 3513 2228 3513 1497 
Q 3513 744 3044 326 
Q 2575 -91 1722 -91 
Q 1428 -91 1123 -41 
Q 819 9 494 109 
L 494 744 
Q 775 591 1075 516 
Q 1375 441 1709 441 
Q 2250 441 2565 725 
Q 2881 1009 2881 1497 
Q 2881 1984 2565 2268 
Q 2250 2553 1709 2553 
Q 1456 2553 1204 2497 
Q 953 2441 691 2322 
L 691 4666 
z
" transform="scale(0.015625)"/>
      </defs>
      <use xlink:href="#DejaVuSans-43"/>
      <use xlink:href="#DejaVuSans-4c" x="69.824219"/>
      <use xlink:href="#DejaVuSans-4d" x="125.537109"/>
      <use xlink:href="#DejaVuSans-20" x="211.816406"/>
      <use xlink:href="#DejaVuSans-35" x="243.603516"/>
      <use xlink:href="#DejaVuSans-2e" x="307.226562"/>
      <use xlink:href="#DejaVuSans-30" x="339.013672"/>
     </g>
    </g>
   </g>
  </g>
 </g>
 <defs>
  <clipPath id="pb40ff86c8a">
   <rect x="98.855156" y="7.2" width="167.4" height="166.32"/>
  </clipPath>
 </defs>
</svg>
