<?xml version="1.0" standalone="no"?>
<!DOCTYPE svg PUBLIC "-//W3C//DTD SVG 20010904//EN"
 "http://www.w3.org/TR/2001/REC-SVG-20010904/DTD/svg10.dtd">
<svg version="1.0" xmlns="http://www.w3.org/2000/svg"
 width="239.000000pt" height="1536.000000pt" viewBox="0 0 239.000000 1536.000000"
 preserveAspectRatio="xMidYMid meet">
<metadata>
Created by potrace 1.16, written by Peter Selinger 2001-2019
</metadata>
<g transform="translate(0.000000,1536.000000) scale(0.100000,-0.100000)"
fill="#000000" stroke="none">
<path d="M1537 15342 c-31 -34 -56 -107 -110 -327 -125 -497 -307 -1417 -307
-1547 0 -47 -14 -56 -30 -19 -16 39 -54 74 -77 69 -10 -2 -24 -16 -31 -31 -12
-25 -11 -42 7 -130 35 -176 47 -317 33 -395 -41 -225 -82 -669 -102 -1117 -13
-295 -22 -361 -57 -424 l-28 -49 28 -66 c15 -37 29 -96 33 -134 9 -104 -12
-493 -29 -534 -15 -36 -78 -126 -88 -127 -3 -1 -9 50 -13 112 -8 123 -27 180
-62 185 -26 4 -47 -27 -69 -102 -9 -31 -18 -56 -21 -56 -2 0 -13 18 -25 41
-28 57 -51 181 -99 554 -68 530 -100 729 -120 749 -22 22 -7 -697 20 -909 58
-463 80 -611 105 -705 8 -30 13 -56 11 -58 -2 -1 -35 23 -72 56 -90 76 -114
92 -140 92 -30 0 -36 -32 -13 -77 11 -21 69 -94 129 -163 61 -69 122 -141 135
-160 32 -46 38 -80 140 -720 92 -579 106 -716 86 -860 -21 -161 -41 -120 -66
140 -38 403 -61 544 -98 620 -28 58 -53 60 -50 5 4 -84 65 -776 79 -895 33
-282 35 -337 22 -660 -8 -193 -13 -626 -12 -1120 l0 -805 42 -690 c23 -379 44
-717 47 -750 8 -94 -9 -48 -50 135 -70 311 -180 663 -274 878 -44 101 -57 155
-66 272 -6 83 -39 350 -89 715 -14 99 -41 336 -60 527 -51 497 -99 840 -126
906 -11 25 -42 29 -60 7 -19 -23 -8 -151 60 -717 32 -271 73 -623 90 -783 31
-293 54 -467 70 -540 14 -60 12 -73 -6 -47 -8 12 -22 22 -30 22 -20 0 -19 -73
2 -91 50 -41 77 -156 110 -468 38 -363 127 -964 163 -1096 9 -36 4 -55 -14
-55 -26 0 -26 -21 3 -143 17 -67 35 -156 42 -197 15 -96 42 -205 75 -300 33
-95 68 -239 90 -360 9 -52 37 -177 61 -278 25 -100 49 -219 54 -265 10 -94 56
-245 143 -467 55 -140 61 -162 62 -230 0 -109 -22 -153 -95 -190 -44 -22 -65
-41 -90 -80 -18 -29 -51 -63 -72 -78 -44 -29 -138 -136 -138 -158 0 -21 23
-17 64 11 l36 24 0 -29 c0 -48 -20 -80 -49 -80 -29 0 -105 -32 -115 -48 -4 -6
20 0 51 13 32 13 61 21 65 18 5 -2 8 -15 8 -29 0 -34 17 -30 25 7 8 37 30 47
53 25 17 -14 20 -14 35 1 16 16 17 15 17 -28 0 -56 -9 -65 -115 -108 -80 -33
-111 -51 -87 -51 7 0 30 9 52 20 22 11 49 20 60 20 26 0 23 -14 -32 -123 -42
-82 -45 -126 -8 -92 10 9 38 46 61 81 23 35 43 64 45 64 2 0 -6 -24 -17 -52
-11 -29 -22 -84 -25 -123 l-4 -70 14 41 c8 22 21 55 30 72 19 37 42 44 31 10
-3 -13 -8 -97 -10 -188 -2 -91 -1 -147 1 -125 2 22 9 92 14 155 12 120 34 220
50 220 35 0 38 -136 5 -214 -16 -38 -23 -156 -9 -177 3 -6 20 13 38 44 32 57
79 117 92 117 16 0 133 -104 127 -114 -4 -6 -25 -36 -48 -66 -46 -60 -58 -80
-52 -80 2 0 25 27 51 60 68 86 86 80 86 -30 0 -85 -17 -154 -60 -247 -21 -46
-37 -83 -34 -83 2 0 16 19 30 43 66 103 109 167 116 167 4 0 9 -10 11 -22 2
-13 5 29 5 92 1 63 -2 134 -7 157 -9 47 4 87 38 117 21 19 21 19 21 0 0 -10
-3 -29 -6 -42 -6 -21 -7 -21 -20 -5 -13 16 -13 15 -4 -10 16 -46 39 -85 57
-99 13 -9 18 -27 19 -62 0 -38 5 -52 23 -65 21 -16 24 -31 35 -172 l12 -154 8
95 8 95 21 -30 c30 -40 70 -84 61 -65 -4 8 -18 30 -31 48 -43 57 -71 133 -107
293 -37 160 -43 213 -26 224 5 3 10 28 10 55 0 51 35 129 51 113 4 -4 13 -57
20 -118 12 -111 7 -221 -11 -272 -10 -27 -9 -27 6 -8 28 35 41 77 54 173 7 51
16 95 21 97 21 13 38 -88 44 -255 5 -137 11 -190 27 -245 26 -86 35 -70 14 24
-20 85 -20 128 -1 161 19 33 19 46 0 30 -13 -11 -15 0 -15 89 0 87 -4 110 -26
164 -23 55 -26 71 -21 138 7 90 24 143 37 118 13 -23 30 -179 30 -279 0 -101
15 -139 25 -64 10 79 11 81 23 51 14 -34 15 -90 3 -134 -7 -24 -5 -40 10 -70
11 -22 24 -66 30 -99 20 -110 24 -110 29 -5 4 80 8 101 16 90 17 -21 52 -92
74 -152 11 -30 30 -63 43 -73 13 -12 17 -13 10 -3 -7 8 -24 47 -39 85 -14 38
-41 94 -60 125 -39 65 -40 76 -17 166 15 62 17 64 29 42 21 -37 64 -177 64
-207 0 -15 4 -22 9 -17 11 13 37 98 46 150 4 22 11 48 17 59 10 18 12 17 30
-18 11 -21 22 -36 25 -33 2 3 -1 15 -7 27 -6 12 -15 42 -20 68 -12 70 -64 207
-95 252 -15 22 -49 59 -75 84 -40 37 -48 51 -53 93 -13 94 22 96 82 3 32 -48
40 -56 44 -40 13 51 72 -11 65 -68 l-3 -27 -18 33 c-10 19 -20 32 -23 29 -7
-7 23 -72 40 -87 9 -7 16 -23 16 -36 0 -13 5 -23 12 -21 7 1 19 -24 29 -58
l17 -60 1 101 c1 56 -3 125 -9 153 -13 68 -70 153 -134 201 -78 58 -101 85
-115 129 -7 24 -24 50 -41 63 -28 20 -40 48 -22 48 5 0 31 -7 59 -15 58 -17
103 -49 103 -72 0 -13 -6 -11 -26 8 -15 13 8 -25 50 -85 75 -106 165 -251 240
-388 20 -38 39 -68 41 -68 8 0 -16 54 -70 154 -29 56 -60 124 -68 151 -8 28
-27 75 -41 105 -29 62 -35 98 -11 66 8 -11 36 -60 61 -109 25 -49 48 -86 51
-84 8 9 -94 200 -125 233 -15 17 -36 53 -47 80 -27 72 -43 93 -94 119 -25 13
-84 56 -131 95 -69 58 -118 90 -178 116 -1 0 11 27 28 60 23 45 34 86 46 174
26 198 40 252 93 368 61 134 70 166 46 175 -9 4 -30 0 -46 -8 l-30 -16 7 28
c3 15 21 89 40 163 35 145 49 257 59 470 41 960 52 1121 95 1437 21 153 25
243 11 243 -5 0 -14 -7 -21 -15 -8 -10 -17 -12 -22 -7 -16 16 -27 373 -28 890
l0 492 44 88 c24 48 58 120 75 160 54 124 14 116 -63 -13 l-41 -70 -6 250 c-4
138 -12 1020 -19 1960 -13 1834 -12 1910 34 2090 14 55 43 186 66 290 53 247
84 350 112 370 17 11 48 15 120 15 96 0 97 0 118 29 70 99 109 286 56 265 -8
-3 -35 -31 -60 -61 -26 -30 -46 -53 -46 -50 0 2 12 30 26 61 50 110 68 317 28
333 -8 3 -26 -3 -41 -12 -25 -17 -27 -17 -40 1 -7 10 -13 33 -13 51 0 61 198
785 291 1065 62 187 69 225 43 235 -36 13 -61 -13 -84 -89 -12 -40 -39 -115
-61 -166 -60 -140 -228 -723 -395 -1362 -100 -385 -121 -459 -135 -475 -12
-12 -11 212 1 371 15 193 58 595 86 804 62 472 128 739 313 1270 34 96 61 188
61 203 0 32 -20 43 -48 28 -68 -36 -222 -483 -342 -991 -93 -392 -103 -466
-155 -1130 -20 -245 -45 -528 -56 -630 -19 -164 -20 -226 -16 -545 6 -424 1
-504 -53 -906 -22 -167 -46 -358 -54 -424 -12 -111 -13 -83 -12 396 1 430 -1
519 -13 533 -8 9 -18 13 -22 9 -5 -5 -15 -112 -24 -238 -16 -242 -33 -424 -41
-437 -8 -13 -24 -9 -24 6 0 19 -57 66 -81 66 -24 0 -24 -22 -4 -145 8 -49 15
-94 15 -98 0 -5 -25 19 -55 51 -55 60 -82 76 -105 62 -9 -6 -6 -24 14 -73 14
-36 30 -95 35 -132 11 -78 13 -80 102 -165 l68 -65 12 -285 c16 -402 7 -830
-24 -1160 -38 -387 -48 -655 -57 -1425 l-8 -690 -26 -90 -26 -90 5 105 c3 58
10 402 16 765 12 695 8 1019 -17 1405 -25 399 -92 1201 -125 1495 -35 309 -22
452 77 870 82 345 287 1306 333 1565 73 407 131 1007 112 1173 -5 48 -13 73
-28 89 -39 38 -49 20 -62 -114 -30 -302 -124 -1010 -142 -1066 -10 -31 -12
-32 -29 -17 -11 10 -26 14 -38 11 -24 -8 -52 -73 -52 -123 0 -53 -10 -34 -26
47 -23 122 -75 182 -90 104 -10 -56 3 -262 21 -327 9 -32 15 -63 13 -69 -2 -5
-29 29 -61 76 l-57 86 0 229 c0 456 76 1208 124 1227 6 2 39 -7 74 -21 34 -14
70 -25 81 -25 24 0 36 32 21 60 -15 28 -10 29 158 38 l143 8 32 32 c26 26 30
35 21 50 -16 25 -56 42 -116 49 -87 10 -87 11 -8 109 91 112 106 144 91 196
-7 21 -17 38 -24 38 -7 0 -37 -20 -67 -45 -81 -66 -130 -99 -137 -92 -3 4 2
35 12 69 27 93 44 179 45 216 0 33 0 33 -42 30 -38 -3 -45 -7 -65 -43 -13 -22
-23 -35 -23 -30 -1 6 -2 46 -3 90 -2 89 -8 105 -39 105 -20 0 -21 4 -15 68 10
117 229 1231 288 1464 21 86 39 164 39 173 0 21 -43 19 -63 -3z m-491 -4288
c37 -58 39 -84 4 -84 -50 0 -5 -65 75 -106 36 -19 58 -37 61 -52 4 -12 -1 -55
-11 -95 -9 -39 -47 -211 -85 -382 -37 -170 -73 -323 -80 -340 -19 -49 -30 -11
-30 105 1 185 14 279 51 351 40 80 46 151 13 178 -41 33 -44 52 -44 270 0 116
2 211 5 211 3 0 21 -25 41 -56z m-167 -991 c15 -57 31 -334 31 -523 0 -214
-33 -470 -60 -470 -13 0 -28 90 -35 210 -3 58 -19 182 -35 275 -17 94 -39 225
-51 292 l-21 122 22 36 c26 42 94 95 121 95 13 0 21 -12 28 -37z m652 -3985
l-39 -61 -6 74 c-6 77 -28 694 -47 1349 -15 494 -7 832 25 1106 14 116 35 323
46 460 21 256 36 390 48 434 4 14 8 -723 10 -1638 l2 -1663 -39 -61z m-561
2886 c44 -283 140 -2627 112 -2744 -10 -41 -15 25 -67 795 -43 640 -70 1003
-95 1293 -11 122 -20 268 -20 325 0 115 39 412 52 399 5 -5 13 -35 18 -68z
m-131 -969 c14 -150 33 -506 28 -512 -8 -7 -55 205 -62 279 -6 57 12 354 21
345 2 -1 8 -52 13 -112z m-55 -980 c31 -433 42 -737 61 -1660 14 -682 25
-1027 41 -1245 4 -58 3 -82 -4 -75 -41 40 -110 1607 -126 2880 -5 410 3 440
28 100z m579 -42 c14 -206 20 -1077 8 -1120 -13 -47 -45 -92 -58 -80 -22 23
13 1297 37 1297 4 0 10 -44 13 -97z m211 -1808 c0 -784 -10 -1231 -25 -1150
-4 22 -12 281 -18 575 -13 612 -27 966 -42 1095 -13 107 -9 136 33 238 29 72
33 76 43 55 7 -15 10 -285 9 -813z m-565 752 c42 -210 93 -1869 59 -1903 -5
-4 -11 -5 -14 -1 -12 11 -22 262 -34 767 -12 541 -26 975 -37 1114 -7 100 8
114 26 23z m395 -1230 c0 -742 -4 -1007 -17 -1247 -9 -168 -20 -381 -24 -475
l-8 -170 -6 230 c-4 127 -7 430 -8 675 -2 478 -13 1014 -32 1495 l-12 300 28
55 c44 86 56 103 69 90 8 -8 11 -280 10 -953z m-864 -47 c168 -613 214 -842
254 -1257 14 -143 32 -306 41 -363 8 -57 13 -105 11 -108 -11 -10 -27 54 -56
217 -16 91 -45 211 -64 266 -19 55 -53 190 -75 300 -48 240 -189 1083 -196
1175 l-5 65 15 -40 c9 -22 42 -137 75 -255z m687 -137 c17 -103 0 -885 -18
-819 -23 82 -37 821 -16 854 15 23 26 12 34 -35z m-247 -3098 c0 -3 -24 -40
-54 -83 -29 -42 -65 -100 -80 -129 -14 -28 -30 -54 -36 -58 -16 -10 -12 38 5
63 9 12 15 27 14 34 -9 70 22 122 93 156 45 22 58 26 58 17z m-210 -92 c0 -32
-39 -103 -57 -103 -12 0 -12 17 3 90 11 53 54 63 54 13z m466 -64 c16 -26 -13
-270 -34 -291 -24 -24 -82 108 -82 186 0 62 7 76 54 97 48 22 53 22 62 8z
m657 -38 c10 -17 14 -31 9 -31 -9 0 -52 64 -52 77 0 11 25 -16 43 -46z m-613
-135 c0 -34 5 -56 13 -59 8 -4 3 -14 -16 -31 -56 -51 -58 -38 -22 122 10 42
25 22 25 -32z m-215 -15 c19 -38 12 -77 -32 -164 -19 -38 -33 -73 -31 -79 2
-5 14 13 28 41 13 28 27 51 30 51 7 0 20 -58 20 -91 0 -17 -86 -79 -108 -79
-16 0 -15 63 3 130 8 30 17 82 21 115 6 59 25 105 44 105 5 0 16 -13 25 -29z
m701 -138 c-9 -9 -76 61 -76 79 0 7 19 -6 42 -29 23 -23 39 -46 34 -50z m-840
42 c7 -28 2 -63 -16 -110 -15 -40 -30 -17 -30 48 0 75 32 118 46 62z m259 -35
c8 -16 15 -36 15 -44 0 -22 -29 -46 -56 -46 -21 0 -24 4 -24 38 0 84 34 111
65 52z m229 -22 c7 -28 -3 -98 -14 -98 -11 0 -24 96 -15 110 10 17 22 12 29
-12z m327 -123 c13 -27 18 -63 18 -110 l0 -70 -38 75 c-46 89 -58 135 -41 156
17 19 37 2 61 -51z m-553 -51 l-3 -29 -13 23 c-8 13 -11 31 -7 39 9 26 27 0
23 -33z m-50 14 c18 -18 15 -37 -18 -107 l-31 -64 -32 29 c-65 58 -67 64 -37
94 24 24 40 19 41 -13 0 -18 4 -15 16 13 25 59 39 70 61 48z m-207 -41 c-8 -8
-11 -5 -11 9 0 27 14 41 18 19 2 -9 -1 -22 -7 -28z m885 -8 c17 -33 14 -82
-10 -176 l-13 -48 -7 110 c-6 96 -3 145 10 145 2 0 11 -14 20 -31z m-926 -39
c0 -6 -10 -30 -22 -53 -22 -42 -23 -42 -26 -14 -2 16 4 39 13 53 16 25 35 32
35 14z m409 -115 c0 -20 0 -20 -14 -1 -8 11 -15 34 -14 50 l1 31 13 -30 c8
-16 14 -39 14 -50z"/>
</g>
</svg>
