<?xml version="1.0" standalone="no"?>
<!DOCTYPE svg PUBLIC "-//W3C//DTD SVG 20010904//EN"
 "http://www.w3.org/TR/2001/REC-SVG-20010904/DTD/svg10.dtd">
<svg version="1.0" xmlns="http://www.w3.org/2000/svg"
 width="966.000000pt" height="1536.000000pt" viewBox="0 0 966.000000 1536.000000"
 preserveAspectRatio="xMidYMid meet">
<metadata>
Created by potrace 1.16, written by Peter Selinger 2001-2019
</metadata>
<g transform="translate(0.000000,1536.000000) scale(0.100000,-0.100000)"
fill="#000000" stroke="none">
<path d="M5045 15348 c-3 -7 -6 -76 -7 -153 -3 -137 -3 -140 -26 -143 -16 -3
-25 -12 -29 -33 -5 -26 -7 -27 -18 -13 -6 10 -17 14 -23 10 -16 -9 -15 -89 0
-104 9 -9 7 -16 -6 -31 -14 -15 -16 -29 -10 -67 5 -38 15 -55 45 -83 50 -44
50 -61 2 -61 -32 0 -44 7 -85 52 l-48 52 0 -29 c1 -36 38 -130 69 -174 l22
-31 -26 -10 c-14 -5 -32 -10 -38 -10 -7 0 3 -10 22 -22 32 -20 32 -22 12 -29
-11 -5 -21 -12 -21 -17 0 -5 -20 -17 -45 -28 -55 -22 -55 -23 -20 -194 14 -68
25 -136 25 -153 0 -49 -26 -15 -35 46 -4 28 -9 46 -12 40 -8 -21 -31 -15 -45
11 -7 13 -24 43 -37 67 -26 49 -50 79 -62 79 -4 0 -7 -31 -6 -70 1 -46 6 -70
14 -70 17 0 43 -41 43 -67 0 -14 -6 -23 -15 -23 -42 0 15 -69 81 -96 26 -11
30 -17 26 -43 -3 -25 1 -32 29 -47 32 -16 33 -17 11 -25 -15 -6 -22 -17 -23
-36 -1 -29 -15 -74 -36 -108 -16 -27 -34 -9 -43 42 l-6 38 -18 -40 -18 -40
-23 51 c-40 90 -67 86 -42 -6 21 -74 22 -68 -10 -72 l-28 -3 45 -43 c41 -38
44 -44 32 -63 -8 -12 -17 -43 -21 -70 -7 -41 -5 -51 11 -65 24 -22 23 -32 -4
-36 -12 -2 -23 -9 -26 -16 -3 -9 3 -11 23 -6 23 6 26 4 23 -12 -3 -15 -12 -19
-40 -18 l-37 1 30 -29 c16 -16 29 -40 29 -52 0 -19 4 -22 23 -19 15 3 31 -4
50 -22 29 -29 27 -44 -12 -79 -27 -24 -27 -46 -1 -46 26 0 25 -12 -1 -28 -20
-13 -20 -14 -3 -33 16 -18 16 -19 -7 -19 -53 0 -63 51 -29 147 11 31 18 58 16
61 -11 10 -27 -13 -37 -54 -7 -25 -17 -44 -25 -44 -8 0 -28 23 -45 50 -17 28
-35 50 -40 50 -17 0 -9 -85 11 -125 25 -48 25 -55 2 -55 -10 0 -27 -6 -37 -14
-18 -13 -17 -15 22 -25 50 -14 68 -33 55 -58 -16 -29 11 -80 51 -97 40 -16 72
-55 57 -70 -21 -21 -11 -72 20 -101 37 -36 38 -47 3 -39 -27 7 -28 6 -10 -13
25 -29 21 -36 -11 -19 -26 13 -31 13 -45 -1 -8 -9 -23 -13 -32 -10 -23 9 -48
75 -40 106 6 25 6 25 -15 6 -18 -16 -23 -17 -30 -5 -6 8 -10 24 -10 35 0 31
-20 95 -29 95 -4 0 -11 -30 -14 -66 -7 -73 -12 -83 -29 -66 -14 14 -28 16 -28
3 0 -5 15 -18 32 -29 34 -22 30 -27 -22 -34 -25 -4 -24 -4 10 -26 19 -12 45
-22 58 -22 31 0 28 -7 -20 -50 -24 -21 -41 -40 -38 -43 3 -3 24 -1 47 6 53 14
69 2 76 -59 3 -31 15 -58 36 -85 31 -38 33 -59 7 -59 -7 0 -39 33 -70 73 l-58
72 4 -65 3 -65 -35 3 -35 4 26 -21 c33 -25 42 -57 22 -76 -8 -9 -11 -20 -6
-27 4 -7 10 -35 13 -63 5 -48 6 -50 43 -58 35 -9 38 -11 32 -37 -5 -23 3 -41
39 -94 25 -36 48 -61 51 -55 5 7 11 6 21 -2 8 -6 27 -9 44 -5 33 6 42 -9 10
-17 -17 -4 -20 -14 -20 -56 0 -44 -3 -51 -20 -51 -13 0 -22 9 -26 25 -8 30
-20 32 -29 4 l-7 -21 -22 21 c-26 25 -36 26 -36 6 0 -22 -9 -19 -63 21 -44 32
-48 39 -46 72 1 20 1 44 0 52 -2 25 -21 -10 -21 -41 0 -27 0 -27 -39 12 -68
68 -80 48 -29 -48 33 -61 33 -62 13 -77 -17 -14 -18 -17 -5 -26 8 -5 25 -10
37 -10 31 0 36 -14 19 -55 -17 -40 -22 -42 -50 -17 l-20 17 18 -30 c10 -16 27
-39 37 -51 23 -24 24 -52 4 -78 -20 -27 -19 -36 5 -36 23 0 24 -4 10 -30 -7
-13 -6 -21 5 -30 11 -9 12 -16 5 -26 -9 -10 -21 -8 -63 12 -83 38 -100 30 -46
-22 44 -41 53 -62 37 -81 -11 -14 -8 -15 30 -8 l42 7 -20 -35 c-24 -40 -25
-137 -3 -145 14 -4 16 1 33 66 6 23 15 42 20 42 4 0 14 -17 21 -37 7 -21 18
-47 26 -59 16 -25 9 -34 -27 -34 -30 0 -50 -16 -50 -42 0 -11 -7 -18 -20 -18
-13 0 -20 7 -20 20 0 23 -10 26 -29 8 -20 -20 -39 15 -46 88 l-7 64 -19 -25
c-14 -17 -31 -25 -62 -27 l-42 -3 37 -41 38 -41 -25 -11 c-25 -12 -34 -45 -15
-57 6 -3 10 -19 10 -36 0 -24 4 -29 24 -29 14 0 28 5 31 10 22 36 88 -22 84
-75 -1 -16 -1 -46 0 -65 l1 -35 26 33 c38 48 59 42 78 -20 8 -28 13 -55 10
-60 -3 -4 -19 -8 -36 -8 l-32 0 22 -20 c12 -12 22 -29 22 -40 0 -33 17 -31 44
5 15 19 31 35 35 35 12 0 45 -116 37 -135 -3 -9 -26 -25 -52 -36 -42 -19 -47
-19 -63 -5 -10 9 -25 16 -34 16 -9 0 -17 5 -17 10 0 6 5 10 10 10 6 0 10 7 10
15 0 18 -20 19 -54 3 -32 -14 -86 0 -141 38 -30 20 -46 24 -71 19 -48 -9 -51
-23 -7 -41 48 -20 48 -20 33 -39 -11 -13 -9 -20 11 -41 19 -20 24 -38 27 -94
3 -56 8 -73 28 -91 30 -28 30 -46 2 -104 l-22 -46 28 -23 c20 -16 27 -27 21
-37 -5 -8 3 -4 17 9 13 12 27 22 31 22 12 0 8 -35 -7 -55 -7 -11 -17 -30 -21
-43 -6 -21 -5 -22 14 -11 26 17 36 6 36 -39 0 -33 3 -37 23 -35 18 2 24 -3 28
-27 7 -33 24 -31 25 3 0 21 1 21 11 -3 57 -127 59 -130 82 -124 30 7 50 -18
49 -61 -1 -26 2 -32 17 -28 22 6 33 -20 17 -40 -7 -9 -25 -19 -40 -23 -23 -5
-29 -3 -34 15 -7 27 -29 27 -45 1 -13 -21 -38 -27 -38 -10 0 6 5 10 10 10 6 0
10 5 10 11 0 11 -51 8 -81 -5 -10 -5 -20 1 -29 19 -8 14 -19 24 -26 21 -7 -3
-17 7 -23 22 -6 17 -10 21 -10 10 -2 -33 -21 -18 -45 35 -13 28 -28 65 -32 81
-5 16 -15 31 -23 34 -12 4 -13 -7 -7 -61 5 -57 4 -67 -11 -76 -17 -9 -17 -10
1 -30 11 -12 16 -27 12 -37 -5 -13 -2 -15 14 -11 30 8 34 -9 11 -53 l-21 -40
30 0 c37 0 45 -13 20 -35 -24 -22 -25 -38 -4 -70 13 -21 14 -28 4 -41 -11 -12
-15 -12 -21 -2 -7 10 -11 10 -21 0 -14 -14 -37 -15 -58 -2 -12 7 -9 13 13 30
36 29 34 40 -8 40 -26 0 -35 4 -36 18 0 10 -7 2 -16 -18 l-16 -35 -11 30 c-6
17 -21 47 -33 67 -20 31 -29 36 -75 41 -28 4 -54 4 -57 2 -3 -3 15 -26 40 -51
24 -26 39 -48 33 -51 -23 -8 -49 -32 -42 -38 3 -4 15 -2 26 4 16 8 27 6 53
-12 40 -27 50 -57 20 -57 -23 0 -29 -16 -8 -23 8 -3 7 -10 -7 -26 -28 -31 -12
-38 36 -13 23 11 46 19 50 16 14 -9 -10 -40 -43 -56 -18 -9 -27 -18 -20 -22 8
-5 8 -13 1 -26 -5 -10 -10 -28 -10 -40 0 -29 43 -24 48 5 3 16 1 18 -9 8 -17
-17 -29 -16 -29 2 0 31 56 17 89 -21 31 -34 31 -37 16 -60 -14 -22 -14 -24 4
-24 10 0 38 7 61 15 59 21 68 19 34 -7 l-29 -23 54 -5 c54 -5 61 -10 76 -55 5
-13 9 -15 12 -7 8 20 23 3 23 -25 0 -20 4 -24 20 -20 10 3 24 -1 30 -8 9 -11
17 -11 45 1 64 26 185 13 185 -20 0 -39 -84 -48 -137 -15 -33 21 -36 21 -69 5
-46 -22 -77 -20 -100 5 -15 17 -26 19 -60 14 -36 -5 -42 -3 -52 20 -11 23 -17
25 -72 25 -58 0 -63 2 -108 43 -65 60 -102 87 -118 87 -23 0 -16 -16 36 -81
27 -34 47 -66 44 -70 -3 -5 -17 -9 -32 -9 -15 0 -34 -5 -42 -10 -12 -8 -9 -10
11 -10 15 0 32 -7 39 -15 9 -11 22 -14 42 -10 23 5 27 4 22 -9 -3 -9 -1 -16 5
-16 6 0 11 -7 11 -15 0 -9 12 -20 26 -26 26 -9 26 -10 9 -29 -18 -19 -17 -20
4 -20 12 0 38 -16 58 -35 28 -27 44 -35 74 -35 49 0 69 -8 69 -29 0 -28 9 -30
48 -14 35 14 37 14 54 -7 17 -21 26 -52 11 -37 -10 11 -33 -14 -33 -35 0 -19
1 -19 34 1 18 12 36 21 40 21 3 0 3 -18 0 -40 l-7 -40 49 0 c27 0 62 7 77 15
27 14 28 14 25 -8 -2 -15 -11 -23 -28 -25 -14 -1 -48 -7 -77 -13 -39 -8 -51
-14 -46 -25 3 -8 -3 -21 -13 -29 -18 -14 -18 -14 5 -15 13 0 39 -11 57 -25 18
-14 46 -25 63 -25 24 0 31 -4 31 -20 0 -10 -9 -24 -20 -30 -15 -8 -21 -6 -30
10 -6 11 -21 20 -35 20 -13 0 -35 4 -49 10 -15 5 -28 6 -31 0 -12 -19 -93 -23
-126 -6 -18 9 -38 16 -44 16 -7 0 -16 7 -19 16 -6 16 -29 16 -84 -1 -19 -6
-24 -3 -29 14 -3 11 -11 21 -18 21 -7 0 -15 6 -18 13 -4 10 -7 10 -18 0 -19
-18 -27 -16 -34 8 -5 16 -9 18 -15 8 -7 -10 -11 -10 -24 0 -20 17 -50 96 -43
115 9 22 -4 28 -23 11 -16 -15 -20 -13 -50 25 -50 63 -57 55 -33 -46 3 -13 -5
-32 -22 -52 l-27 -32 46 0 c49 0 65 -12 45 -36 -8 -10 -9 -18 -2 -22 5 -4 13
-19 16 -34 4 -15 22 -35 42 -48 36 -22 45 -40 21 -40 -21 0 -31 -21 -15 -31 8
-5 29 -9 47 -9 35 0 41 -10 15 -31 -14 -13 -12 -15 18 -21 19 -4 51 -13 72
-20 33 -11 37 -16 32 -38 l-7 -25 24 23 c29 26 56 29 54 5 -1 -12 16 -26 49
-43 l50 -25 -27 -27 c-38 -37 -38 -60 1 -45 32 12 65 3 59 -16 -3 -6 -22 -21
-44 -33 -36 -19 -39 -24 -42 -67 -2 -33 -7 -47 -18 -47 -7 0 -14 7 -14 16 0
13 -6 15 -27 10 -16 -3 -49 -9 -75 -12 -40 -6 -48 -4 -48 9 0 9 -14 24 -31 33
-25 12 -30 21 -26 40 3 18 0 24 -12 22 -12 -2 -15 4 -13 30 3 27 0 33 -14 30
-12 -2 -29 13 -51 47 l-34 50 7 -51 c7 -57 -8 -119 -31 -128 -24 -9 -17 -26
10 -26 19 0 31 -10 46 -35 12 -19 26 -35 32 -35 7 0 -1 -11 -17 -23 -38 -31
-27 -47 33 -47 45 0 48 -1 44 -23 -5 -28 19 -57 48 -57 10 0 19 -7 19 -15 0
-20 17 -19 29 3 8 12 10 13 11 3 0 -8 7 -23 16 -33 16 -16 16 -21 0 -62 -9
-24 -23 -50 -31 -56 -12 -10 -13 -6 -8 24 4 29 2 36 -10 36 -9 0 -22 9 -30 20
-14 21 -15 21 -21 -5 -6 -22 -11 -26 -39 -23 -21 2 -31 8 -29 17 2 11 -7 12
-46 7 -38 -5 -52 -3 -62 9 -14 17 -57 20 -94 5 -31 -11 -34 -26 -7 -33 15 -3
18 -11 14 -27 -5 -20 -4 -21 15 -11 25 13 72 15 72 2 0 -5 -7 -14 -15 -21 -23
-19 -18 -28 18 -32 29 -3 32 -7 35 -38 2 -20 13 -43 27 -56 l23 -21 13 23 c22
43 59 26 59 -27 0 -10 6 -19 14 -19 7 0 25 -9 40 -21 14 -11 36 -21 48 -21 13
-1 31 -8 40 -16 10 -8 26 -11 40 -7 20 5 21 5 6 -7 -9 -7 -25 -18 -35 -25 -16
-10 -15 -12 15 -23 24 -9 32 -18 32 -36 0 -13 5 -24 10 -24 6 0 10 -11 10 -25
0 -20 5 -25 25 -25 13 0 28 -8 34 -17 8 -14 12 -15 25 -4 14 12 19 11 36 -4
25 -23 26 -57 2 -78 -25 -22 -38 -21 -56 4 -10 15 -21 20 -36 16 -14 -3 -29 3
-46 18 -22 20 -32 23 -80 18 -44 -5 -54 -3 -54 9 0 21 -30 45 -65 54 -16 3
-41 17 -55 30 -23 21 -136 84 -152 84 -17 0 -7 -28 17 -50 29 -27 31 -37 10
-60 -15 -16 -12 -19 41 -31 66 -16 91 -46 30 -36 -40 6 -43 2 -20 -31 11 -16
26 -22 52 -23 l37 0 -32 -16 c-18 -9 -33 -20 -33 -25 0 -15 83 -68 106 -68 12
0 25 -6 28 -12 3 -9 8 -8 16 5 6 9 15 17 20 17 15 0 12 -28 -6 -55 -19 -29 -9
-32 43 -10 41 17 63 19 63 5 0 -5 -6 -10 -14 -10 -7 0 -20 -7 -27 -16 -11 -14
-10 -19 9 -34 17 -14 34 -17 75 -14 62 6 88 -6 67 -31 -12 -14 -11 -16 11 -10
28 7 79 -26 79 -51 0 -16 21 -19 35 -5 6 5 36 11 68 14 51 5 57 4 57 -14 0
-30 57 -38 112 -14 13 5 15 2 11 -17 -6 -23 -6 -23 15 -4 16 14 31 17 57 13
20 -3 37 -1 41 5 4 6 24 8 50 4 l44 -6 0 35 c0 19 5 35 11 35 15 0 6 -75 -11
-95 -8 -10 -31 -15 -61 -15 -37 0 -49 -4 -49 -15 0 -19 -43 -37 -66 -28 -9 3
-20 0 -24 -7 -7 -11 -11 -11 -24 -1 -29 25 -128 -11 -111 -40 11 -17 -22 -9
-48 11 -31 25 -35 25 -63 -1 l-23 -22 -47 32 c-26 17 -64 36 -83 41 -22 6 -53
28 -79 55 -32 34 -48 45 -60 39 -9 -4 -29 -9 -44 -12 -22 -3 -29 1 -37 21 -5
13 -21 27 -35 31 -13 3 -32 14 -42 23 -17 17 -17 16 -11 -17 l7 -34 -28 27
c-15 15 -33 27 -39 27 -19 0 -25 18 -13 40 9 18 8 20 -14 20 -13 0 -26 6 -28
12 -4 10 -10 10 -33 0 -25 -11 -30 -10 -51 9 -27 25 -32 15 -10 -17 10 -13 11
-25 5 -35 -14 -22 -11 -26 21 -32 21 -5 30 -12 30 -25 0 -11 12 -36 26 -57 23
-34 24 -41 13 -64 -7 -14 -15 -29 -17 -33 -6 -13 33 -9 47 4 10 11 10 8 0 -14
-16 -36 -6 -58 28 -59 28 -1 28 -1 -7 -16 -35 -15 -35 -16 -11 -26 21 -10 23
-16 18 -59 -6 -46 -5 -48 18 -48 31 0 31 -9 4 -44 -26 -33 -19 -43 15 -21 34
22 86 12 86 -17 0 -16 5 -19 25 -16 42 8 56 -11 67 -95 6 -42 9 -80 5 -83 -8
-8 -95 32 -134 62 -38 29 -40 39 -15 68 17 20 17 20 -8 3 -51 -35 -98 -55
-108 -45 -6 6 -16 1 -27 -14 l-17 -23 7 30 c6 28 6 29 -13 12 -10 -9 -22 -17
-25 -17 -11 0 -8 38 3 45 6 4 7 12 3 18 -4 7 -8 17 -9 22 0 6 -2 15 -2 21 -2
15 -75 44 -110 44 -62 0 -98 61 -44 75 l27 7 -25 10 c-14 5 -35 19 -47 30 -17
16 -23 18 -23 7 -1 -8 -12 7 -26 34 -33 63 -46 61 -38 -8 6 -49 5 -55 -12 -55
-17 0 -17 -1 -2 -17 16 -15 16 -17 1 -29 -16 -11 -16 -13 0 -37 9 -13 32 -35
51 -47 51 -31 46 -46 -17 -59 -17 -4 -32 -12 -34 -18 -3 -9 21 -13 84 -15 84
-3 92 -9 31 -22 -31 -7 -41 -46 -12 -46 10 0 13 -6 9 -19 -3 -10 6 -49 20 -86
31 -85 32 -105 3 -105 -19 -1 -16 -4 15 -21 29 -15 37 -25 37 -47 0 -33 8 -45
40 -62 14 -7 20 -15 15 -16 -6 -2 -29 -8 -52 -14 -62 -16 -58 -40 6 -40 50 0
54 -5 61 -68 1 -4 -8 -9 -19 -12 -19 -5 -19 -7 9 -25 36 -24 38 -41 6 -49 -25
-6 -43 -35 -23 -37 7 -1 35 -1 64 1 45 1 55 -2 75 -24 13 -15 41 -44 62 -66
33 -33 38 -41 27 -54 -20 -24 28 -43 74 -29 32 10 35 9 35 -9 0 -11 8 -22 19
-25 11 -3 21 -13 24 -23 3 -10 20 -21 43 -27 22 -5 38 -15 36 -21 -1 -7 7 -12
18 -12 10 0 24 -9 31 -21 6 -11 36 -32 67 -46 32 -14 67 -34 78 -45 19 -17 22
-17 27 -4 9 22 37 20 37 -3 0 -10 12 -27 27 -36 l27 -18 -22 -10 c-26 -12 -29
-42 -5 -55 14 -9 14 -10 -6 -17 -12 -4 -28 -2 -35 4 -10 9 -15 8 -20 -4 -3 -8
-15 -15 -26 -15 -17 0 -20 6 -20 43 0 23 -4 47 -8 54 -10 16 -57 33 -92 33
-26 0 -29 -4 -32 -37 -3 -40 -22 -55 -31 -24 -3 11 -17 22 -37 26 -21 5 -38
17 -49 36 -12 23 -21 28 -39 24 -13 -3 -39 -3 -58 1 -27 5 -32 9 -23 20 12 15
4 34 -15 34 -8 0 -19 7 -26 15 -7 9 -19 14 -27 11 -22 -9 -27 23 -9 61 12 26
14 39 6 48 -6 7 -21 39 -34 72 -12 32 -26 57 -32 56 -5 -1 -11 -24 -14 -50
l-5 -48 -20 55 c-23 63 -38 67 -45 13 -4 -33 -9 -39 -35 -43 -20 -4 -26 -8
-17 -13 17 -11 15 -64 -3 -71 -25 -9 -17 -27 9 -20 37 9 79 -36 66 -70 -7 -20
-6 -27 8 -35 16 -10 16 -10 0 -11 -22 0 -24 -18 -3 -26 21 -8 19 -26 -6 -58
-24 -31 -22 -31 31 -10 23 9 43 15 45 13 9 -9 -27 -114 -45 -134 -26 -27 -18
-35 37 -35 39 0 50 -6 99 -52 44 -42 52 -53 39 -60 -26 -15 -17 -27 23 -30 30
-2 38 -7 40 -25 2 -15 10 -23 24 -23 13 0 18 -5 15 -14 -4 -11 1 -14 21 -13
l27 2 0 -78 c0 -65 -3 -78 -18 -83 -19 -6 -42 -42 -33 -52 4 -3 12 3 20 13 14
19 46 15 46 -7 0 -6 -22 -33 -49 -59 -56 -53 -103 -70 -130 -45 -10 9 -23 16
-29 16 -7 0 -12 15 -12 35 0 28 -5 38 -25 47 -14 6 -25 17 -25 25 0 20 -21 16
-62 -12 l-37 -25 2 28 c2 26 1 27 -60 30 -56 3 -65 6 -85 33 -13 17 -33 42
-46 56 -15 16 -21 32 -17 44 11 32 -22 22 -70 -22 -25 -23 -45 -47 -45 -53 1
-6 20 -20 43 -31 37 -18 42 -24 43 -55 0 -30 4 -35 22 -33 26 3 27 -4 7 -31
-20 -27 -19 -36 6 -36 11 0 33 -9 48 -19 14 -10 37 -21 51 -22 20 -3 26 -11
28 -37 2 -20 9 -32 18 -32 8 0 14 -9 14 -20 0 -20 0 -20 29 1 32 23 61 20 61
-7 0 -13 -3 -14 -15 -4 -15 13 -39 5 -30 -11 10 -16 38 -10 76 17 35 24 39 25
62 10 13 -9 48 -17 78 -19 54 -2 54 -2 55 28 2 52 3 55 29 67 19 9 29 8 49 -5
34 -23 41 -51 19 -83 -13 -21 -14 -29 -5 -32 7 -2 26 -15 41 -28 16 -13 38
-24 49 -24 11 0 25 -7 32 -15 7 -8 26 -15 42 -15 19 0 28 -4 26 -12 -7 -19
-328 -35 -386 -19 -25 6 -47 9 -50 7 -8 -9 28 -56 43 -56 38 0 19 -23 -47 -57
-65 -33 -70 -38 -45 -41 35 -4 36 -30 1 -63 l-26 -24 -24 28 c-13 15 -33 60
-44 100 -26 90 -42 122 -60 122 -22 0 -25 -82 -5 -136 35 -94 41 -107 54 -123
8 -9 14 -30 13 -46 0 -17 4 -30 9 -30 5 0 9 -7 9 -15 0 -8 4 -15 8 -15 14 0
130 124 146 157 9 18 22 33 28 33 6 0 19 7 28 15 13 11 24 13 51 5 37 -11 89
-13 89 -5 0 3 -12 17 -27 30 -38 34 -19 45 77 45 47 0 86 6 104 15 39 21 156
21 156 0 0 -20 20 -19 35 2 11 15 20 15 128 -2 65 -9 117 -19 117 -20 0 -2
-26 -18 -57 -35 -32 -18 -119 -74 -193 -125 -74 -51 -155 -102 -179 -115 -89
-45 -206 -90 -209 -80 -2 5 -29 17 -60 26 -31 8 -65 18 -75 20 -13 4 -17 -1
-17 -26 0 -25 6 -34 33 -46 17 -8 41 -20 52 -27 11 -6 22 -13 24 -14 2 -2 -3
-11 -13 -21 -22 -26 -11 -52 23 -52 15 0 36 -7 48 -15 21 -15 23 -13 49 35 29
53 38 59 52 34 13 -24 46 -13 50 16 5 36 20 49 67 61 34 9 55 24 98 73 30 34
74 76 98 94 60 45 198 132 208 132 4 0 16 9 27 21 28 31 74 53 87 40 11 -11
14 -112 2 -130 -4 -7 -18 -16 -31 -21 -32 -13 -30 -31 4 -51 25 -14 30 -24 35
-79 4 -35 7 -102 7 -150 0 -102 3 -99 -110 -107 -62 -5 -78 -3 -89 11 -7 9
-22 16 -33 16 -16 0 -19 -4 -14 -23 14 -45 11 -51 -34 -68 -31 -12 -75 -18
-140 -19 l-95 -1 23 -19 c52 -43 157 -37 296 19 44 18 87 30 95 29 21 -4 -91
-78 -186 -124 -71 -33 -96 -64 -53 -64 11 0 23 -7 25 -15 3 -8 7 -21 9 -29 4
-12 10 -12 31 -3 25 12 25 12 5 29 -11 9 -20 19 -20 22 0 4 19 15 43 26 23 11
84 44 136 74 52 31 97 54 99 51 3 -2 -1 -39 -8 -80 -11 -62 -11 -80 0 -100 10
-19 10 -30 0 -54 -6 -16 -11 -51 -10 -78 4 -80 8 -76 -70 -71 -81 6 -101 -6
-38 -22 119 -31 135 -45 91 -80 -31 -24 -192 -75 -283 -90 -36 -5 -107 -10
-158 -10 -98 0 -114 -10 -61 -38 33 -18 207 -8 323 18 50 11 94 20 98 20 4 0
8 -12 8 -27 0 -21 3 -24 12 -15 17 17 35 15 57 -7 16 -16 18 -26 11 -52 -5
-17 -16 -42 -25 -55 -19 -29 -19 -53 0 -74 25 -27 33 -144 40 -555 6 -373 5
-410 -21 -554 -4 -19 -1 -72 6 -118 10 -62 10 -89 2 -106 -6 -12 -12 -33 -14
-47 -6 -51 -121 -79 -323 -80 -133 0 -238 -12 -405 -46 l-125 -25 -113 17
c-143 21 -221 16 -462 -31 -145 -29 -198 -35 -247 -30 -35 3 -70 8 -78 11 -8
4 -15 1 -15 -4 0 -6 16 -14 35 -18 39 -7 46 -27 16 -44 -28 -15 -102 -12 -200
6 -144 27 -710 10 -1060 -32 -126 -16 -136 -16 -164 1 -35 21 -86 16 -202 -20
-93 -29 -267 -58 -484 -81 -85 -9 -175 -22 -200 -30 -25 -8 -176 -28 -336 -44
-159 -16 -326 -35 -370 -41 -95 -14 -139 -33 -55 -25 92 10 480 20 480 12 0
-3 -25 -17 -56 -31 -68 -30 -70 -53 -6 -75 49 -17 57 -45 17 -60 -14 -5 -25
-14 -25 -20 0 -15 50 -12 145 10 47 11 117 23 155 26 57 6 68 9 59 20 -20 24
7 16 38 -10 l28 -25 -39 -16 c-59 -25 -168 -44 -294 -51 -61 -4 -112 -10 -112
-14 0 -9 59 -17 172 -25 46 -4 94 -9 108 -12 23 -5 20 -7 -26 -28 -71 -32 -98
-59 -83 -86 l11 -21 21 22 c50 50 268 167 330 177 33 5 37 3 37 -16 0 -12 -13
-48 -30 -81 l-30 -59 44 15 c25 9 59 14 78 12 33 -3 33 -3 38 -65 3 -34 10
-66 15 -72 6 -5 28 -13 50 -16 l40 -7 -32 34 c-34 35 -42 73 -23 109 12 22 50
26 50 5 0 -7 -7 -19 -15 -26 -17 -14 -20 -36 -6 -45 14 -8 48 32 83 97 33 63
39 66 118 78 30 5 64 12 74 16 17 7 16 3 -6 -27 -56 -74 -61 -95 -54 -204 3
-55 9 -114 12 -131 4 -24 0 -37 -21 -62 -31 -37 -20 -44 13 -9 26 27 27 60 10
187 -11 84 -10 88 15 142 28 62 92 118 134 118 31 0 41 -27 18 -48 -17 -16
-17 -16 -11 1 3 10 -9 2 -28 -17 -18 -20 -42 -36 -54 -36 -20 0 -32 -18 -32
-48 0 -13 6 -10 23 10 20 25 63 48 88 48 17 0 9 -48 -21 -118 -30 -72 -40
-147 -18 -140 6 2 17 22 24 44 7 21 24 66 38 99 14 33 26 74 26 91 0 28 3 32
26 30 22 -1 25 -5 24 -36 -3 -51 -1 -60 10 -60 26 0 34 111 13 167 -6 14 3 15
68 11 41 -4 90 -13 109 -21 33 -15 34 -16 13 -22 -18 -6 -21 -11 -12 -26 6
-13 6 -25 -1 -38 -16 -30 -12 -66 9 -85 18 -17 19 -16 31 19 17 51 80 80 119
56 12 -8 12 -12 2 -25 -8 -10 -9 -16 -3 -16 14 0 43 41 36 52 -3 4 -18 8 -35
8 -68 0 -5 52 81 66 32 5 41 3 46 -10 6 -15 7 -15 18 0 11 15 14 13 25 -13 7
-19 26 -36 49 -46 41 -18 102 -90 102 -119 0 -27 -17 -57 -53 -95 -17 -18 -28
-36 -24 -39 10 -11 37 16 74 74 62 96 110 95 130 -3 12 -62 18 -72 47 -77 16
-2 21 5 28 37 9 42 40 77 62 69 6 -2 16 -19 22 -37 11 -38 43 -49 51 -18 6 24
21 27 48 7 14 -10 18 -24 17 -54 -2 -22 2 -43 8 -47 5 -3 10 -40 10 -81 0 -75
12 -96 29 -51 5 13 16 63 25 111 18 95 33 136 50 136 7 0 24 -29 40 -65 15
-35 34 -69 42 -76 26 -22 26 17 0 83 -41 102 -36 114 35 77 47 -23 64 -16 74
32 4 19 13 29 25 29 15 0 19 -9 22 -48 3 -44 6 -49 49 -78 48 -32 150 -69 171
-62 7 3 -12 13 -42 23 -70 23 -142 59 -159 79 -12 14 -8 16 40 16 30 0 61 5
69 10 11 7 6 10 -20 10 -19 0 -45 3 -57 6 -19 5 -20 9 -10 32 6 15 21 37 34
50 20 20 23 32 23 105 0 56 5 90 14 103 19 26 29 13 16 -20 -27 -71 -9 -111
113 -250 38 -43 78 -93 88 -110 29 -49 158 -142 184 -132 24 9 18 22 -21 45
-19 12 -33 25 -30 30 3 5 -10 21 -30 36 -20 15 -32 31 -27 35 15 14 240 20
251 7 20 -23 24 -68 12 -113 -15 -51 -10 -60 19 -44 19 10 21 8 21 -25 0 -28
4 -35 20 -35 10 0 24 9 30 19 13 25 13 91 0 91 -5 0 -10 8 -10 19 0 10 -10 42
-22 70 -20 49 -20 53 -4 69 16 16 17 15 10 -13 l-7 -30 32 28 c18 15 37 25 42
21 5 -3 9 -26 9 -52 0 -106 30 -222 58 -222 15 0 14 28 -4 88 -5 16 -2 22 10
22 17 0 30 23 41 75 l7 30 42 -49 c51 -58 80 -60 41 -2 -14 21 -24 41 -21 43
10 10 38 -7 43 -27 8 -30 29 -24 60 16 15 20 41 51 56 68 l28 31 -18 -37 c-9
-21 -14 -40 -11 -43 3 -3 30 0 59 8 l54 13 -3 41 c-3 36 0 44 23 59 23 15 85
94 85 108 0 3 -9 6 -20 6 -15 0 -20 7 -20 25 0 32 25 33 41 3 7 -13 13 -41 13
-64 1 -34 -5 -48 -36 -83 -44 -48 -48 -72 -14 -94 14 -10 28 -33 34 -59 13
-50 79 -165 99 -172 18 -7 12 14 -35 119 -20 44 -35 94 -35 112 1 46 82 187
98 171 7 -7 -15 -50 -47 -90 -18 -23 -19 -30 -9 -56 12 -29 81 -104 81 -88 0
4 -16 26 -35 49 -40 46 -44 78 -15 107 35 35 38 31 66 -83 3 -15 10 -30 15
-33 18 -11 19 23 4 101 -19 102 -19 105 5 105 18 0 20 -7 20 -53 0 -43 5 -58
21 -73 23 -20 23 -17 0 28 -12 24 -11 33 8 79 20 45 21 55 10 76 -11 20 -10
26 4 40 9 9 19 14 22 12 10 -11 43 -156 56 -247 11 -76 11 -99 0 -125 -7 -18
-15 -43 -18 -57 l-4 -25 19 23 c11 12 32 54 47 92 26 67 61 110 91 110 17 0
18 -12 2 -28 -21 -21 -2 -22 20 -2 12 12 22 30 22 40 0 13 7 20 20 20 11 0 20
-1 20 -2 0 -2 -7 -25 -15 -52 -14 -45 -13 -52 5 -94 25 -55 25 -62 1 -62 -11
0 -42 25 -70 57 -28 31 -54 54 -57 50 -9 -9 84 -117 102 -117 21 0 207 -61
221 -72 7 -6 15 -26 19 -44 7 -40 28 -40 32 0 4 34 33 32 42 -2 14 -63 51 -2
79 132 23 109 32 127 59 110 35 -22 36 -86 5 -216 -9 -37 -13 -71 -9 -75 13
-14 36 29 62 117 14 47 30 96 35 110 l11 25 19 -24 c25 -31 22 -77 -5 -74 -17
1 -18 -5 -13 -65 4 -56 9 -70 32 -89 14 -13 31 -23 37 -23 6 0 -1 9 -16 21
-30 24 -32 43 -12 147 10 53 11 83 4 110 -19 70 -16 103 15 125 l27 21 21 -20
c11 -12 23 -39 26 -60 4 -31 1 -43 -16 -58 -32 -29 -26 -59 25 -113 l46 -48
-40 59 c-41 59 -44 79 -14 91 10 4 24 -4 40 -25 13 -17 33 -30 45 -30 12 0 36
-7 52 -16 17 -9 57 -19 90 -23 56 -6 60 -8 63 -34 3 -22 -3 -31 -27 -45 -37
-21 -48 -42 -22 -42 22 0 71 54 71 76 0 37 -20 53 -77 59 -99 12 -161 67 -202
177 -11 32 -20 58 -18 58 103 -19 153 -50 80 -50 -28 0 -34 -3 -23 -10 8 -5
33 -10 55 -10 22 0 52 -7 68 -14 15 -8 27 -11 27 -5 0 5 9 9 20 9 11 0 20 4
20 10 0 18 46 22 81 7 48 -20 95 -70 109 -114 14 -44 34 -63 67 -63 12 0 41
-7 63 -16 33 -13 42 -23 50 -56 11 -40 32 -47 38 -12 2 10 13 29 24 41 17 19
19 27 10 50 -18 48 -34 165 -24 175 6 6 12 -1 16 -21 3 -17 9 -44 12 -61 7
-38 56 -90 83 -90 20 0 19 4 -14 51 -40 58 -50 88 -40 118 8 25 51 39 68 22 9
-9 8 -11 -6 -5 -16 6 -18 2 -15 -27 2 -25 8 -35 23 -37 15 -2 17 -1 6 6 -29
21 31 82 81 82 32 0 42 -13 34 -46 -5 -17 -16 -26 -37 -31 -38 -7 -19 -23 29
-23 43 0 66 -13 124 -66 26 -24 54 -44 62 -44 8 0 29 -14 45 -32 37 -39 48
-31 32 22 -6 22 -9 44 -6 49 13 21 130 -32 121 -55 -19 -46 -18 -48 11 -21 25
24 35 27 51 18 15 -8 28 -6 58 9 l39 20 40 -47 c53 -63 107 -113 123 -113 18
0 16 4 -31 62 -58 71 -97 130 -97 145 0 26 50 25 126 -2 42 -14 78 -24 80 -22
3 2 -25 17 -61 33 -36 16 -65 31 -65 35 0 3 18 11 40 18 47 14 66 7 220 -84
52 -31 107 -59 123 -62 15 -3 27 -10 27 -15 0 -5 -6 -6 -12 -2 -9 5 -9 2 1 -9
7 -9 20 -17 28 -17 24 0 61 -46 73 -90 l12 -43 100 7 c121 9 199 22 213 38 7
8 5 9 -10 4 -32 -11 -241 -29 -267 -23 -21 6 -41 41 -86 149 -6 14 92 9 121
-6 25 -14 27 -13 27 4 0 22 -28 40 -64 40 -67 0 -130 23 -173 63 l-44 41 33
17 33 18 -58 1 c-50 0 -61 4 -83 27 l-26 28 24 6 c42 12 82 9 126 -11 33 -15
42 -24 42 -45 0 -34 28 -59 107 -95 37 -17 99 -55 138 -84 38 -29 80 -58 92
-65 37 -19 89 -13 120 13 36 31 24 43 -24 23 -45 -18 -68 -9 -143 54 -25 21
-69 51 -99 67 -29 16 -48 32 -43 36 6 3 36 3 67 0 44 -6 68 -15 108 -45 78
-59 83 -54 33 29 -47 78 -53 102 -26 102 12 0 24 -9 30 -24 15 -39 133 -116
178 -116 11 0 27 -11 35 -23 10 -16 36 -30 79 -41 35 -10 107 -35 161 -57 101
-40 131 -47 125 -28 -2 7 -33 19 -68 29 -98 27 -280 93 -280 102 0 4 44 8 97
8 75 0 100 4 115 16 15 14 20 15 34 3 12 -10 42 -13 105 -11 81 2 96 -1 180
-33 218 -86 55 49 -207 171 -92 43 -111 59 -76 66 10 2 -1 10 -28 18 -35 12
-52 25 -78 64 -18 27 -30 51 -27 54 2 3 28 -11 57 -30 67 -44 118 -71 125 -65
11 12 -20 46 -81 87 -69 47 -82 65 -70 102 6 21 7 21 20 -5 13 -24 20 -27 65
-25 57 1 94 -24 104 -73 9 -38 62 -83 131 -108 83 -32 202 -63 222 -59 9 2
-35 18 -98 36 -155 44 -215 74 -229 114 -6 17 -11 45 -11 62 0 18 -5 37 -11
43 -9 9 -6 19 10 42 29 40 65 50 93 25 46 -41 98 -118 119 -175 12 -33 33 -69
47 -79 25 -20 67 -27 76 -12 3 5 -8 9 -25 9 -38 0 -66 28 -75 73 l-7 35 34
-28 c41 -34 96 -60 109 -52 19 11 10 25 -29 44 -21 11 -59 43 -85 72 -76 85
-55 101 49 36 62 -39 145 -115 145 -133 0 -7 9 -18 19 -24 26 -13 31 -13 31 5
0 8 -7 15 -15 15 -24 0 -18 27 8 34 39 10 112 6 162 -9 58 -17 69 -13 25 10
-20 10 -69 18 -137 22 l-107 6 -49 54 c-41 44 -56 53 -83 53 -19 0 -34 4 -34
9 0 5 -26 17 -57 26 -66 19 -149 68 -164 97 -16 30 -2 66 34 85 24 14 54 18
122 17 140 -1 163 -18 278 -210 58 -95 82 -113 157 -113 l35 0 -49 19 c-27 11
-62 32 -79 47 -34 33 -95 120 -126 181 -26 51 -21 52 83 22 99 -28 179 -68
324 -161 159 -102 212 -133 212 -122 0 12 -227 180 -320 237 -88 54 -201 100
-303 122 -90 20 -329 31 -512 24 -138 -6 -142 -7 -255 -52 -181 -73 -277 -80
-454 -36 -43 10 -143 23 -221 29 -78 5 -164 16 -190 23 -49 15 -95 50 -95 72
0 28 -42 34 -220 34 -158 0 -181 2 -176 15 6 17 -19 21 -29 5 -3 -5 -17 -10
-30 -10 -13 0 -27 -5 -31 -11 -8 -14 -40 -8 -129 24 -143 52 -377 58 -603 16
-167 -30 -193 -28 -306 32 -123 64 -201 81 -356 77 -98 -3 -120 0 -144 15 -22
15 -25 21 -16 32 17 21 4 68 -36 127 -32 48 -34 52 -18 69 18 20 13 49 -9 49
-8 0 -20 7 -27 15 -18 21 -30 142 -21 210 7 47 14 63 36 81 l29 23 -27 12
c-31 14 -41 42 -42 112 0 36 5 52 19 62 18 13 18 16 2 55 -16 40 -21 144 -10
187 5 19 13 23 45 23 40 0 48 7 27 28 -9 9 4 12 60 12 66 0 74 -2 83 -23 9
-21 9 -21 5 3 -2 14 -8 35 -11 47 -7 22 -5 23 52 23 67 0 154 -23 173 -45 7
-8 20 -15 29 -14 12 0 11 4 -6 16 -33 23 -29 31 29 48 74 22 123 20 148 -7 24
-26 27 -12 4 20 -9 13 -14 24 -13 26 2 1 17 8 33 15 23 9 27 14 16 21 -8 5
-19 6 -25 2 -5 -4 -41 -8 -80 -9 -38 -1 -108 -10 -155 -21 -73 -16 -85 -17
-88 -5 -5 20 37 63 60 63 10 0 18 5 18 11 0 11 -18 10 -130 -7 -25 -3 -40 -13
-51 -33 -9 -16 -28 -30 -43 -33 -28 -6 -33 1 -14 20 9 9 7 12 -10 12 -15 0
-26 -9 -32 -24 -11 -30 -39 -46 -80 -46 -24 0 -33 6 -40 26 -18 47 -9 594 9
594 4 0 54 -42 111 -92 173 -153 280 -220 316 -200 12 7 11 10 -11 20 -14 6
-25 18 -25 25 0 9 -21 18 -57 26 -32 6 -62 15 -68 19 -12 8 -55 69 -55 77 0
11 32 4 70 -15 22 -11 60 -23 83 -26 36 -5 45 -3 51 11 9 25 1 32 -52 38 -27
3 -78 18 -115 32 -65 26 -153 82 -144 91 2 3 33 -4 68 -15 103 -31 265 -51
282 -35 3 3 -6 17 -21 29 -24 21 -25 24 -10 30 24 9 215 -13 255 -30 17 -7 44
-32 59 -54 15 -23 28 -41 30 -41 11 0 1 30 -16 50 -29 33 -12 45 47 32 84 -18
109 -21 122 -13 10 6 7 12 -10 25 -32 22 -143 56 -184 56 -41 0 -54 16 -29 35
33 23 10 25 -47 4 -48 -19 -60 -20 -108 -9 -30 7 -96 16 -148 20 -58 5 -101
14 -111 23 -12 10 -54 16 -132 21 -63 3 -128 9 -144 13 -28 6 -28 7 -23 63 2
31 12 70 20 86 13 25 13 33 2 54 -27 50 -31 209 -5 249 6 11 31 7 126 -22 66
-20 155 -43 199 -53 103 -21 142 -38 167 -69 25 -32 37 -25 15 9 l-17 25 43 5
c23 3 81 7 130 10 48 3 95 10 105 15 9 6 13 11 7 12 -77 10 -227 20 -288 19
-70 -1 -178 14 -201 28 -5 3 -1 9 10 13 12 5 0 8 -36 8 -74 2 -105 18 -105 56
0 23 5 30 24 35 l24 6 -26 16 c-14 10 -60 28 -102 40 -63 18 -79 27 -87 48
-13 33 -1 107 19 119 15 8 14 11 -1 32 -16 24 -20 74 -7 118 l6 23 44 -36 c23
-20 48 -36 55 -36 7 0 17 -5 24 -12 7 -7 51 -12 114 -13 57 -1 112 -5 122 -10
14 -6 7 9 -22 53 -23 33 -45 63 -50 66 -4 2 -27 -1 -51 -7 -35 -10 -45 -9 -48
1 -3 6 -13 12 -23 12 -28 0 -72 58 -63 84 3 11 7 29 7 39 0 9 6 17 12 17 23 0
181 -71 235 -105 30 -19 55 -31 57 -26 1 4 47 -4 101 -18 94 -24 99 -24 125
-8 36 24 33 37 -11 37 -21 0 -56 5 -78 11 -37 11 -38 12 -17 20 32 12 27 15
-16 11 -55 -5 -117 14 -156 48 -18 17 -41 30 -49 30 -9 0 -20 8 -26 17 -8 14
-12 15 -25 4 -21 -17 -46 -7 -46 19 0 16 7 20 38 21 30 0 33 2 17 9 -37 16
-72 11 -78 -10 -3 -11 -12 -20 -20 -20 -22 0 -117 89 -117 110 0 22 48 63 67
56 9 -4 13 4 13 23 0 15 8 35 18 44 46 42 147 60 208 37 20 -8 29 -7 38 4 6 8
21 17 34 21 19 6 22 3 22 -24 0 -44 20 -81 44 -81 12 -1 37 -9 56 -20 35 -18
35 -18 57 2 20 19 27 20 62 10 21 -7 46 -12 55 -12 22 0 20 26 -4 50 -20 20
-20 20 3 20 13 0 27 4 33 10 6 6 25 4 52 -5 26 -9 72 -14 117 -13 67 2 75 5
75 22 0 18 6 19 85 13 47 -3 85 -2 85 2 0 5 15 12 34 15 37 7 86 41 86 59 0 6
-10 21 -22 34 -12 13 -19 26 -15 29 3 4 34 0 69 -9 34 -9 66 -13 71 -10 4 2 1
16 -9 30 -15 24 -15 27 0 35 9 5 16 13 16 17 0 4 -38 25 -84 45 -100 45 -144
46 -164 4 -10 -21 -20 -28 -42 -28 -15 0 -30 5 -32 11 -7 22 -45 -9 -52 -41
-7 -36 -26 -31 -26 6 0 22 -3 24 -22 18 -13 -4 -35 -9 -50 -10 -15 -1 -35 -10
-44 -19 -21 -21 -33 -5 -26 33 l5 26 -28 -22 c-29 -23 -65 -29 -65 -12 0 6 5
10 11 10 20 0 69 62 69 86 0 22 4 24 50 24 35 0 50 4 50 13 0 20 -56 94 -80
107 -29 15 -25 27 16 48 25 13 41 31 51 58 14 37 18 122 7 134 -11 10 -115
-112 -121 -141 -4 -21 -16 -34 -49 -50 -49 -23 -59 -34 -59 -64 0 -13 -13 -26
-37 -37 -25 -12 -38 -25 -38 -38 0 -11 -6 -20 -13 -20 -8 0 -24 -11 -37 -25
-29 -31 -37 -31 -61 -2 l-18 22 -1 -28 c0 -40 -41 -77 -84 -77 -19 0 -38 5
-41 10 -3 6 -50 10 -106 10 -73 0 -98 3 -93 12 5 8 -6 9 -41 5 -125 -18 -199
57 -174 174 7 31 16 49 25 49 8 0 14 -5 14 -11 0 -6 6 -9 13 -6 6 2 32 -11 56
-30 24 -18 56 -33 71 -33 14 0 35 -7 46 -15 19 -15 80 -20 108 -9 10 4 16 18
16 40 0 38 6 40 55 20 29 -12 35 -13 35 -1 0 9 7 11 23 7 22 -5 22 -5 3 16
-26 30 -14 38 35 23 48 -15 55 -11 38 21 -26 49 -29 58 -29 82 0 14 9 31 21
40 18 12 28 12 65 1 32 -10 44 -10 44 -2 0 7 17 12 40 12 49 1 94 32 98 68 2
19 11 27 34 32 27 6 29 10 24 36 -5 26 -3 29 21 29 14 0 31 8 38 17 11 15 17
15 39 5 38 -17 67 -16 60 3 -4 8 -1 15 5 15 6 0 11 7 11 15 0 14 3 14 24 0 38
-25 120 -11 151 27 14 16 25 34 25 39 0 5 16 9 35 9 43 0 60 25 45 66 -14 35
-8 39 28 20 35 -18 43 -13 35 25 -4 24 -2 29 14 29 10 0 28 6 38 14 18 13 18
15 2 30 -9 10 -17 24 -17 32 0 8 -6 14 -12 14 -7 0 -1 10 15 21 15 11 27 27
27 35 0 8 7 17 15 20 23 9 18 23 -11 34 -27 11 -26 19 9 58 18 20 19 22 3 22
-14 0 -16 8 -14 46 4 61 -15 68 -42 15 -21 -42 -35 -51 -43 -28 -2 6 -7 9 -11
6 -3 -3 3 -18 14 -32 19 -24 20 -28 6 -54 -9 -15 -24 -39 -35 -53 -17 -21 -23
-23 -40 -13 -15 10 -20 9 -25 -2 -3 -8 -14 -15 -25 -15 -27 0 -51 -10 -51 -22
0 -5 9 -21 20 -36 24 -30 13 -50 -18 -33 -30 16 -45 14 -86 -14 -20 -14 -50
-25 -66 -25 -23 0 -31 -5 -36 -25 -7 -27 -34 -35 -34 -10 0 19 -14 19 -30 0
-11 -13 -14 -13 -24 -1 -16 21 -115 30 -146 13 -20 -11 -25 -20 -24 -51 l1
-37 -19 33 c-30 49 -69 88 -90 88 -10 0 -27 6 -38 12 -16 10 -28 9 -67 -5 -29
-11 -43 -13 -35 -5 19 19 14 25 -18 20 -25 -4 -30 -1 -30 16 0 19 -6 20 -84
19 -84 -2 -113 6 -86 23 10 7 -6 10 -50 10 -42 0 -80 7 -108 20 -50 23 -112
68 -112 82 0 7 4 7 13 0 22 -18 167 -24 217 -10 43 13 45 15 42 48 -2 19 -8
39 -13 44 -5 6 -9 21 -9 34 l0 25 19 -24 c37 -48 156 -71 224 -44 13 5 17 2
17 -14 0 -26 5 -26 38 0 16 12 28 16 30 10 6 -17 32 -13 32 4 0 8 5 15 11 15
6 0 9 7 5 15 -4 11 2 15 24 15 45 0 46 18 4 61 -44 45 -40 46 74 19 100 -24
102 -24 102 -5 0 8 9 15 19 15 11 0 23 5 26 10 3 6 -3 10 -14 10 -11 0 -22 4
-25 9 -6 10 52 37 60 28 4 -3 15 3 27 14 11 10 27 19 34 19 7 0 13 7 13 15 0
9 9 25 20 37 11 12 20 31 21 42 0 12 1 50 3 85 2 48 -2 69 -16 86 -36 46 -20
65 54 65 37 0 40 2 34 23 -3 12 -6 35 -6 50 0 25 -3 27 -22 21 -22 -6 -22 -6
-5 13 9 11 17 25 17 31 0 7 9 12 20 12 26 0 40 29 40 84 0 41 4 48 32 66 17
10 49 22 71 25 l40 7 -28 22 c-33 26 -31 58 4 66 28 6 41 30 17 30 -9 0 -19
12 -22 26 l-7 26 -38 -38 c-26 -25 -43 -35 -55 -30 -14 6 -16 1 -11 -34 4 -31
2 -40 -10 -40 -8 0 -21 -7 -29 -15 -9 -8 -28 -15 -44 -15 -33 0 -49 -17 -26
-26 9 -3 16 -10 16 -14 0 -14 -32 -21 -46 -9 -10 8 -14 8 -14 0 0 -6 -11 -11
-25 -11 -14 0 -42 -9 -62 -20 -48 -26 -79 -25 -123 1 -31 19 -40 20 -80 11
-25 -6 -100 -17 -168 -23 l-123 -13 -32 32 c-17 18 -26 32 -19 32 7 0 23 -11
36 -25 27 -29 46 -32 46 -9 0 10 5 14 15 10 8 -3 22 -9 30 -12 13 -5 14 -2 5
21 -5 14 -10 38 -10 52 0 25 1 25 25 9 28 -19 58 -20 87 -5 17 9 23 8 30 -5
10 -18 38 -22 38 -6 0 6 9 10 20 10 10 0 23 7 27 15 7 12 16 13 43 5 40 -12
70 -5 70 16 0 12 -4 13 -22 3 -21 -11 -22 -11 -9 4 19 23 51 22 51 -2 0 -10 6
-24 14 -30 20 -17 29 2 21 41 -6 27 -5 30 11 24 11 -4 33 -10 49 -12 l30 -5
-25 15 -25 15 35 1 c26 0 31 3 20 10 -8 5 -26 10 -40 10 -20 0 -22 2 -10 10 8
5 25 10 38 10 18 0 22 5 22 33 0 37 -15 57 -43 57 -35 0 0 28 44 35 21 4 49
15 61 25 l23 18 -38 7 c-28 5 -35 11 -28 18 6 6 11 21 11 33 0 12 7 24 15 28
8 3 15 11 15 18 0 6 9 22 21 34 16 17 18 26 10 40 -5 11 -12 27 -15 37 -4 12
-16 17 -41 17 -19 0 -35 3 -35 6 0 13 92 94 108 95 11 1 9 3 -7 8 -45 12 -35
30 29 48 49 13 59 19 47 28 -13 9 -13 13 -1 30 16 22 18 88 4 116 -8 13 -7 31
1 59 11 35 10 43 -3 57 -15 14 -19 12 -43 -26 -20 -32 -29 -40 -39 -32 -19 16
-26 3 -26 -44 0 -31 -6 -47 -24 -64 l-23 -22 -7 80 c-4 45 -11 83 -17 86 -5 3
-17 -10 -26 -30 -15 -32 -20 -35 -48 -30 l-30 6 28 -23 c29 -26 35 -48 12 -48
-8 0 -20 -10 -26 -22 -17 -33 -17 -33 -38 -7 -17 21 -22 22 -45 11 -15 -7 -31
-12 -36 -12 -16 0 -11 38 6 48 14 8 15 10 1 15 -9 3 -19 22 -23 41 -3 20 -10
36 -14 36 -10 0 -20 -26 -20 -54 0 -22 -27 -56 -46 -56 -29 -1 -36 -17 -23
-59 11 -37 10 -44 -4 -59 -16 -15 -17 -15 -17 2 0 18 -1 18 -18 3 -15 -13 -21
-14 -31 -4 -10 9 -18 6 -40 -19 l-28 -31 -9 40 c-10 47 -34 62 -34 22 l0 -26
-40 33 c-22 18 -40 41 -40 50 0 13 -11 20 -40 24 -48 8 -57 18 -36 40 9 8 16
22 16 31 0 13 9 15 45 11 38 -5 44 -3 34 8 -9 11 -5 14 22 14 30 1 32 2 17 14
-21 16 -23 26 -5 26 6 0 19 4 27 10 12 8 12 11 -1 27 -25 28 -31 53 -14 59 8
4 15 13 15 20 0 8 7 17 15 20 23 9 18 28 -15 52 -22 17 -30 31 -30 53 0 28 2
31 25 25 14 -4 25 -3 25 2 0 11 -47 53 -82 75 -29 18 -38 47 -14 47 7 0 19 -7
26 -15 17 -21 100 -21 100 0 0 8 -7 15 -15 15 -8 0 -15 7 -15 15 0 8 9 15 19
15 10 0 21 7 25 15 3 9 18 15 35 15 33 0 62 30 55 58 -3 11 6 23 25 34 35 19
91 93 91 120 0 25 54 24 80 -2 11 -11 22 -20 25 -20 12 0 3 50 -12 66 -19 18
-22 86 -4 92 6 2 11 10 11 18 0 8 10 14 26 14 20 0 25 4 20 16 -3 9 -6 20 -6
25 0 5 -12 14 -26 19 -20 8 -24 14 -18 33 10 32 11 33 53 9 49 -28 64 -28 56
-1 -5 15 -2 22 14 26 43 11 11 31 -73 45 -35 6 -16 23 22 21 20 -2 51 3 67 10
l30 14 -40 12 c-22 7 -47 15 -55 17 -9 3 3 15 35 32 52 28 61 46 22 47 -37 0
-27 35 23 74 43 33 42 34 -20 15 -18 -6 -20 -2 -20 33 0 45 -14 63 -48 63
l-23 0 20 26 c26 33 38 91 21 107 -9 9 -15 7 -27 -10 -9 -14 -26 -23 -40 -23
-20 0 -23 -4 -18 -20 9 -29 -23 -39 -43 -14 -14 18 -14 18 -7 -6 19 -67 18
-69 -10 -76 -17 -4 -36 -2 -47 5 -18 11 -19 9 -16 -31 3 -37 0 -43 -15 -40
-11 2 -24 -4 -31 -13 -11 -15 -13 -15 -25 -1 -19 23 -73 20 -94 -4 -19 -22
-57 -27 -57 -7 0 6 18 36 40 65 l40 52 -43 -6 c-58 -9 -40 6 25 21 41 9 53 16
51 30 -1 14 4 16 30 10 18 -4 41 -9 52 -11 11 -3 26 0 34 5 13 8 13 15 2 49
-16 47 -11 57 29 66 30 5 31 7 24 43 l-7 38 28 -25 c26 -24 28 -24 39 -6 6 11
19 28 28 38 17 17 17 18 -11 18 -65 0 -84 27 -23 32 37 3 37 3 40 53 1 28 10
64 19 81 9 17 13 39 9 49 -6 16 -8 17 -24 1 -23 -20 -32 -20 -48 2 -12 15 -13
11 -14 -30 0 -44 -2 -48 -25 -48 -23 0 -25 -4 -25 -41 0 -38 -2 -41 -22 -34
-61 18 -68 18 -68 -3 0 -14 -8 -22 -22 -24 -13 -2 -24 -11 -26 -23 -6 -31 -18
-38 -36 -19 -16 16 -19 15 -46 -11 -25 -23 -32 -26 -45 -15 -8 7 -15 20 -15
30 0 10 -10 25 -22 33 l-23 16 28 0 c15 1 27 6 27 11 0 6 11 10 25 10 16 0 35
11 50 28 l24 27 -22 5 c-32 9 -35 40 -3 40 28 0 30 3 40 43 5 22 3 27 -11 27
-14 1 -11 6 12 26 18 15 39 23 53 21 17 -3 22 0 22 18 0 12 7 28 15 35 9 8 13
21 9 32 -3 10 0 41 7 68 9 37 10 52 1 63 -14 17 -6 27 22 27 20 0 20 1 -4 20
-14 11 -19 20 -11 20 11 0 11 3 1 15 -11 13 -7 15 28 15 31 0 40 3 36 14 -3 8
-1 17 5 21 16 9 13 38 -9 90 -19 43 -19 47 -3 40 33 -14 113 -18 113 -6 0 6
-6 11 -12 11 -7 1 1 8 17 17 17 8 32 17 34 19 2 2 -11 20 -28 40 -38 42 -36
58 7 62 31 3 43 17 21 24 -6 2 -2 14 10 30 27 33 26 38 -2 38 -13 0 -43 -14
-67 -32 -30 -23 -55 -32 -82 -33 -37 0 -38 -1 -32 -31 6 -35 -14 -51 -44 -35
-15 8 -17 3 -17 -32 0 -26 -5 -42 -14 -45 -10 -3 -12 0 -7 13 6 16 1 17 -56
11 -34 -3 -72 -13 -84 -21 -26 -17 -250 -40 -295 -30 -16 4 -29 13 -29 20 0
11 11 13 49 8 26 -3 57 -1 67 5 16 9 15 12 -19 28 -42 20 -48 34 -13 34 26 0
37 18 29 48 -6 25 13 38 32 22 12 -10 15 -9 15 3 0 10 6 13 20 10 16 -4 20 0
20 21 0 14 4 26 9 26 5 0 11 13 14 28 5 22 11 29 29 28 21 -1 24 4 28 54 6 60
19 91 58 132 22 24 23 28 9 34 -21 8 -22 24 -2 24 13 0 14 4 5 21 -8 15 -8 24
0 33 6 8 9 29 8 47 -2 28 0 33 15 31 21 -4 21 2 1 34 -18 27 -12 103 9 116 7
4 12 30 12 60 l0 53 55 0 c48 0 55 2 55 20 0 13 -8 21 -22 23 -31 5 -29 15 7
29 34 13 40 39 10 48 -11 3 -20 11 -20 17 0 13 58 68 74 69 6 1 0 4 -13 8 -17
5 -27 18 -35 46 l-11 39 -33 -62 c-35 -65 -40 -70 -60 -50 -10 10 -11 1 -6
-45 l7 -57 -36 15 c-69 29 -108 15 -72 -25 35 -39 -19 -73 -77 -49 -19 8 -64
13 -108 12 -41 -1 -81 2 -89 6 -34 22 50 81 114 81 18 0 28 8 35 25 5 14 14
25 20 25 5 0 10 11 10 24 0 13 7 29 15 36 8 7 15 29 15 49 0 46 14 61 57 61
25 0 31 4 27 15 -5 12 3 15 37 15 l44 1 -27 17 c-16 9 -28 19 -28 22 0 3 17
14 38 25 20 11 37 27 37 35 0 16 -18 17 -70 5 -26 -6 -33 -3 -45 19 l-13 26
-17 -38 c-21 -45 -57 -76 -108 -92 -20 -6 -43 -14 -51 -16 -11 -4 -10 -8 4
-24 16 -17 16 -20 2 -20 -28 0 -47 12 -47 30 0 9 -9 25 -20 35 -12 11 -20 31
-20 49 0 26 5 34 31 43 28 11 31 15 24 40 -3 15 -7 32 -8 38 -1 5 15 12 36 15
l38 5 -40 40 c-44 42 -53 62 -22 45 53 -28 84 7 41 45 -29 26 -26 55 5 55 17
0 25 5 25 18 0 9 9 23 20 30 28 17 25 39 -7 47 -24 6 -26 8 -10 16 9 6 17 18
17 28 0 10 7 24 15 31 14 11 14 15 0 36 -14 22 -14 26 6 53 14 20 37 33 68 41
41 10 44 13 26 22 -11 6 -28 18 -38 26 -23 20 -6 32 46 32 34 0 38 2 32 20 -5
15 3 32 29 60 34 38 47 70 27 70 -4 0 -25 -11 -45 -25 -20 -14 -41 -25 -45
-25 -12 0 -23 48 -16 71 4 10 2 19 -4 19 -10 0 -22 -36 -36 -104 -6 -29 -20
-31 -69 -11 -17 8 -19 5 -13 -23 5 -23 3 -32 -6 -32 -21 0 -170 76 -194 99
-27 26 -31 52 -5 28 24 -22 32 -21 32 2 0 12 9 20 28 24 15 3 36 13 47 21 l20
16 -20 -7 c-32 -11 -1 22 35 37 25 10 30 18 30 46 0 27 5 36 24 44 34 12 41
29 20 44 -16 12 -17 19 -5 81 6 37 9 70 6 73 -3 3 -16 0 -29 -8 -31 -16 -53
-8 -68 26 -11 24 -10 29 14 49 15 13 32 25 39 27 9 3 9 13 -2 42 -12 32 -11
38 1 46 11 7 12 13 5 23 -46 64 -48 69 -38 86 5 9 24 17 42 19 17 2 29 7 26
12 -3 5 0 20 6 34 9 20 9 29 -2 42 -11 14 -11 18 4 29 17 12 26 95 10 95 -3 0
-19 -14 -33 -32 l-27 -32 -17 29 -17 30 6 -52 c5 -50 5 -53 -17 -53 -37 0 -66
-27 -79 -73 -6 -23 -13 -48 -15 -56 -4 -11 -8 -10 -23 3 -16 14 -23 15 -41 6
-11 -6 -29 -10 -38 -8 -11 2 0 12 32 28 45 23 51 30 66 80 9 30 22 66 29 79 9
17 10 26 2 34 -17 17 -13 27 9 27 11 0 23 7 26 15 4 8 12 15 19 15 7 0 32 18
56 41 l44 40 -32 -5 -33 -5 3 57 c1 31 -2 59 -8 61 -5 2 -19 -12 -30 -32 -14
-25 -25 -35 -36 -32 -12 4 -18 -3 -22 -24 -8 -40 -31 -60 -78 -67 -29 -5 -39
-11 -35 -21 3 -8 1 -11 -4 -8 -15 9 -12 71 3 83 7 6 23 9 35 5 12 -3 22 -1 22
5 0 6 7 18 16 27 13 12 14 19 5 28 -23 23 -12 48 29 65 40 17 52 32 25 32 -27
0 -16 19 26 47 l41 27 -26 9 c-32 11 -33 24 -2 69 22 34 23 35 5 47 -11 6 -19
18 -19 26 0 31 -28 14 -37 -22 -4 -20 -14 -38 -21 -41 -19 -6 -15 39 8 83 27
52 26 98 -1 117 -20 13 -21 17 -10 51 7 21 29 58 48 84 l34 45 -20 22 c-12 12
-21 30 -21 40 0 26 -19 56 -35 56 -19 0 -19 6 3 38 19 29 48 130 39 139 -21
20 -64 -32 -90 -109 -4 -11 -17 -18 -33 -18 -24 0 -25 -2 -19 -39 6 -34 3 -41
-14 -51 -17 -9 -22 -8 -28 6 -4 10 0 22 10 29 15 10 15 14 1 33 -20 29 -14 64
12 77 53 26 70 55 33 55 -17 0 -19 3 -10 14 7 8 9 31 5 59 -5 31 -3 52 6 62
10 12 10 15 -4 15 -12 0 -16 9 -16 34 0 19 -5 38 -12 42 -8 5 -9 1 -4 -12 6
-15 5 -16 -5 -7 -13 13 -9 27 31 89 23 36 35 112 21 133 -15 23 -71 -39 -71
-78 0 -35 -7 -39 -25 -14 -11 14 -15 11 -35 -25 -13 -23 -25 -40 -27 -39 -8 9
22 82 46 110 25 28 30 43 35 117 8 95 -3 131 -24 81 -6 -17 -18 -36 -26 -42
-21 -17 -18 19 6 74 11 25 23 67 26 94 l6 48 -34 -39 -35 -40 -6 85 c-4 46 -7
104 -7 129 0 61 -41 118 -55 78z m125 -867 c0 -5 -7 -14 -15 -21 -8 -7 -15
-22 -15 -34 0 -25 -25 -64 -34 -55 -4 3 -2 19 4 35 6 15 9 38 6 50 -3 11 -3
24 1 28 10 9 53 7 53 -3z m-246 -70 c-6 -6 -24 19 -24 34 1 6 7 1 15 -9 8 -11
12 -22 9 -25z m-10 -92 c10 -9 1 -39 -12 -39 -17 0 -62 41 -56 51 6 10 53 2
68 -12z m56 -81 c0 -16 -4 -28 -10 -28 -13 0 -24 46 -16 67 6 15 8 15 16 3 6
-8 10 -27 10 -42z m40 -29 c0 -11 -4 -17 -10 -14 -5 3 -10 13 -10 21 0 8 5 14
10 14 6 0 10 -9 10 -21z m113 -254 c-7 -21 -13 -19 -13 6 0 11 4 18 10 14 5
-3 7 -12 3 -20z m47 -24 c0 -11 -4 -23 -10 -26 -6 -4 -10 5 -10 19 0 14 5 26
10 26 6 0 10 -9 10 -19z m120 -91 c8 -14 8 -32 0 -60 -15 -57 -34 -52 -26 6 3
26 6 53 6 60 0 20 8 17 20 -6z m-440 -146 c0 -21 -18 -54 -30 -54 -11 0 -14
53 -3 63 12 13 33 7 33 -9z m55 -104 c0 -23 -49 -20 -53 3 -3 15 2 18 25 15
17 -2 28 -9 28 -18z m-41 -94 c9 -14 6 -21 -13 -37 -30 -25 -45 -25 -31 0 5
11 10 29 10 41 0 25 18 23 34 -4z m-44 -101 c0 -8 -7 -15 -15 -15 -8 0 -15 7
-15 15 0 8 7 15 15 15 8 0 15 -7 15 -15z m440 -305 c-1 -12 -4 -11 -15 4 -8
10 -12 23 -8 29 7 11 23 -12 23 -33z m-430 -68 c0 -11 -10 -27 -22 -38 -13
-10 -17 -12 -10 -4 6 8 12 24 12 37 0 13 5 23 10 23 6 0 10 -8 10 -18z m114
-65 c-5 -13 -44 -41 -44 -31 0 3 5 14 10 25 12 21 42 27 34 6z m476 -283 c42
-17 52 -33 23 -35 -34 -2 -48 3 -73 27 -20 20 -21 24 -7 24 9 0 35 -7 57 -16z
m-740 -99 c0 -8 -7 -15 -15 -15 -8 0 -15 7 -15 15 0 8 7 15 15 15 8 0 15 -7
15 -15z m400 -21 c0 -8 -4 -14 -10 -14 -5 0 -10 9 -10 21 0 11 5 17 10 14 6
-3 10 -13 10 -21z m170 -5 c0 -20 -15 -26 -25 -9 -9 15 3 43 15 35 5 -3 10
-15 10 -26z m153 14 c-7 -2 -19 -2 -25 0 -7 3 -2 5 12 5 14 0 19 -2 13 -5z
m-603 -238 c-29 -16 -60 -19 -60 -6 0 13 19 19 55 20 l30 0 -25 -14z m-102
-48 c2 -11 -3 -17 -16 -17 -26 0 -34 11 -20 27 14 17 32 12 36 -10z m692 -22
c17 -9 30 -22 30 -30 0 -17 -36 -20 -46 -4 -3 6 -25 20 -48 30 l-41 19 38 0
c21 0 51 -7 67 -15z m-790 -18 c0 -14 -20 -37 -32 -37 -10 0 -11 34 -1 43 11
12 33 8 33 -6z m124 -118 c-8 -13 -24 -1 -24 18 0 13 3 13 15 3 8 -7 12 -16 9
-21z m684 -3 c3 -12 -1 -17 -10 -14 -7 3 -15 13 -16 22 -3 12 1 17 10 14 7 -3
15 -13 16 -22z m-81 -188 c11 -2 8 -9 -13 -28 -15 -14 -24 -19 -20 -12 4 7 2
19 -4 27 -8 9 -9 25 -5 42 l7 28 10 -27 c5 -15 16 -28 25 -30z m-97 -9 c0 -24
-23 -21 -28 4 -2 10 3 17 12 17 10 0 16 -9 16 -21z m-695 -279 c3 -6 -1 -13
-10 -16 -19 -8 -30 0 -20 15 8 14 22 14 30 1z m119 -56 c9 -3 16 -15 16 -26 0
-10 7 -32 15 -48 12 -23 22 -30 46 -30 35 0 92 -27 84 -39 -6 -11 -45 -2 -45
11 0 5 -17 -4 -37 -21 -41 -34 -69 -39 -99 -17 -18 14 -18 16 16 44 19 17 32
33 28 37 -4 4 -32 8 -62 9 -54 1 -56 2 -56 28 0 46 44 71 94 52z m505 -80 c3
-16 1 -17 -13 -5 -19 16 -21 34 -3 29 6 -3 14 -13 16 -24z m-666 -50 c-9 -23
-23 -16 -23 12 0 22 2 24 14 14 8 -6 12 -18 9 -26z m891 -13 c7 -10 -17 -21
-45 -21 -19 0 -25 11 -12 23 9 10 51 8 57 -2z m-820 -30 c3 -5 -1 -14 -10 -21
-11 -10 -18 -10 -27 -1 -9 9 -9 14 3 21 19 12 27 12 34 1z m-12 -203 c-15 -15
-26 -4 -18 18 5 13 9 15 18 6 9 -9 9 -15 0 -24z m768 -93 c0 -18 -23 -25 -82
-25 -65 0 -61 24 5 28 35 2 47 7 47 19 0 13 3 13 15 3 8 -7 15 -18 15 -25z
m-1027 -32 c-7 -2 -19 -2 -25 0 -7 3 -2 5 12 5 14 0 19 -2 13 -5z m385 -20 c5
-17 -26 -29 -40 -15 -6 6 -7 15 -3 22 9 14 37 9 43 -7z m857 -3 c18 -19 15
-50 -5 -50 -14 0 -60 46 -60 60 0 17 46 11 65 -10z m-1006 -14 c15 -9 20 -16
12 -20 -16 -10 -51 3 -51 20 0 17 8 17 39 0z m616 -96 c3 -5 2 -10 -4 -10 -5
0 -13 5 -16 10 -3 6 -2 10 4 10 5 0 13 -4 16 -10z m-31 -224 c-3 -9 -10 -16
-15 -16 -6 0 -5 9 1 21 13 24 24 20 14 -5z m416 -12 c0 -16 -16 -19 -25 -4 -8
13 4 32 16 25 5 -4 9 -13 9 -21z m-84 -29 c15 -11 16 -14 3 -15 -8 0 -24 7
-35 15 -15 11 -16 14 -3 15 8 0 24 -7 35 -15z m-86 -40 c0 -8 -4 -15 -10 -15
-5 0 -10 7 -10 15 0 8 5 15 10 15 6 0 10 -7 10 -15z m-90 -90 c0 -17 -39 -30
-52 -17 -6 6 -2 15 13 25 24 17 39 14 39 -8z m-930 -28 c0 -7 -7 -22 -15 -33
-14 -18 -14 -18 -15 7 0 14 3 29 7 32 11 11 23 8 23 -6z m70 -66 c0 -50 10
-78 21 -60 6 10 12 9 28 -5 25 -23 29 -84 6 -93 -26 -9 -30 6 -11 37 l17 30
-31 0 c-20 0 -42 10 -65 33 l-35 32 26 33 c33 42 44 41 44 -7z m730 20 c0 -14
-18 -23 -30 -16 -6 4 -8 11 -5 16 8 12 35 12 35 0z m-610 -75 l-22 -21 18 35
c10 21 19 30 22 21 2 -7 -6 -23 -18 -35z m101 -169 c-17 -45 -38 -44 -84 1
-23 23 -38 45 -34 49 4 4 15 0 23 -9 14 -14 19 -14 45 -1 16 8 29 22 30 31 0
11 6 6 15 -13 12 -23 13 -37 5 -58z m134 11 c-12 -40 -41 -73 -68 -76 -37 -5
-35 22 2 38 17 7 32 22 35 36 4 13 13 24 22 24 11 0 14 -6 9 -22z m59 -22 c5
-24 14 -37 29 -42 22 -7 22 -7 -4 -16 -58 -19 -96 21 -69 73 16 30 37 23 44
-15z m139 -73 c-7 -2 -19 -2 -25 0 -7 3 -2 5 12 5 14 0 19 -2 13 -5z m677
-309 c0 -9 -7 -14 -17 -12 -25 5 -28 28 -4 28 12 0 21 -6 21 -16z m-70 -21 c0
-13 -3 -13 -15 -3 -8 7 -12 16 -9 21 8 13 24 1 24 -18z m-930 -112 c0 -12 -20
-25 -27 -18 -7 7 6 27 18 27 5 0 9 -4 9 -9z m-16 -142 c-24 -27 -29 -16 -8 16
10 16 20 23 22 16 2 -7 -4 -21 -14 -32z m660 -124 c11 -8 17 -18 14 -21 -10
-9 -46 5 -52 21 -7 19 13 19 38 0z m-887 -12 c-9 -9 -19 -14 -23 -11 -10 10 6
28 24 28 15 0 15 -1 -1 -17z m521 -126 c2 -10 -3 -17 -12 -17 -18 0 -29 16
-21 31 9 14 29 6 33 -14z m672 -223 c0 -8 -13 -17 -30 -20 -16 -4 -30 -12 -30
-20 0 -7 -8 -15 -17 -18 -10 -3 -26 -19 -35 -36 -19 -33 -39 -38 -57 -16 -10
12 -5 20 29 42 25 17 43 37 46 53 5 23 11 26 50 28 33 1 44 -2 44 -13z m-150
-14 c0 -5 -7 -10 -15 -10 -8 0 -15 5 -15 10 0 6 7 10 15 10 8 0 15 -4 15 -10z
m-710 -19 c0 -12 -20 -25 -27 -18 -7 7 6 27 18 27 5 0 9 -4 9 -9z m1318 -18
c3 -18 -1 -23 -20 -23 -33 0 -52 15 -45 35 10 26 61 16 65 -12z m-313 -73 c-5
-8 -11 -8 -17 -2 -6 6 -7 16 -3 22 5 8 11 8 17 2 6 -6 7 -16 3 -22z m285 20
c13 -8 13 -13 -3 -39 -9 -16 -17 -38 -17 -49 0 -30 -24 -46 -40 -27 -11 13
-10 14 4 9 9 -3 16 -1 16 5 0 7 -13 17 -30 22 -16 6 -30 16 -30 23 0 16 20 41
45 54 25 14 36 14 55 2z m-1135 -21 c0 -7 -8 -15 -17 -17 -18 -3 -25 18 -11
32 10 10 28 1 28 -15z m963 -167 c3 -9 -2 -13 -14 -10 -9 1 -19 9 -22 16 -3 9
2 13 14 10 9 -1 19 -9 22 -16z m-66 -74 c14 -14 18 -23 10 -26 -17 -5 -64 27
-57 38 10 15 23 12 47 -12z m-74 -10 c7 -7 8 -17 1 -30 -13 -23 -57 -23 -129
2 l-55 19 45 -5 c31 -3 52 0 65 10 24 18 57 20 73 4z m-160 -91 c6 -7 7 -18 2
-26 -6 -11 -15 -10 -44 8 -20 13 -36 25 -36 27 0 10 69 3 78 -9z m-388 -23 c0
-9 -5 -14 -12 -12 -18 6 -21 28 -4 28 9 0 16 -7 16 -16z m-635 -116 c14 -6 25
-15 25 -20 0 -5 -13 -2 -30 7 -45 23 -41 34 5 13z m675 -57 c-10 -20 -30 -29
-30 -14 0 10 33 44 37 39 3 -2 0 -14 -7 -25z m598 -100 c3 -8 -1 -12 -9 -9 -7
2 -15 10 -17 17 -3 8 1 12 9 9 7 -2 15 -10 17 -17z m-443 -91 c29 -15 33 -20
18 -20 -11 0 -31 9 -44 20 -31 25 -23 25 26 0z m303 -4 c3 -13 -1 -17 -14 -14
-11 2 -20 11 -22 22 -3 13 1 17 14 14 11 -2 20 -11 22 -22z m-1218 -13 c0 -13
-3 -13 -15 -3 -8 7 -12 16 -9 21 8 13 24 1 24 -18z m111 -23 c10 -6 19 -17 19
-24 0 -27 -28 -24 -56 5 -27 28 -27 29 -5 29 12 0 31 -5 42 -10z m80 -19 c8
12 10 12 18 0 8 -12 12 -12 25 -2 13 11 16 11 16 -3 0 -13 11 -16 61 -16 l61
0 -7 -32 c-10 -44 -11 -44 -48 -29 -18 7 -57 17 -87 22 -54 9 -80 28 -80 57 0
12 3 12 16 1 13 -10 17 -10 25 2z m579 -336 c17 -20 37 -19 49 3 9 15 13 14
42 -14 17 -18 28 -37 25 -43 -8 -12 -133 -16 -160 -5 -19 7 -22 60 -3 67 22 9
34 7 47 -8z m-730 -96 c0 -11 -4 -17 -10 -14 -5 3 -10 13 -10 21 0 8 5 14 10
14 6 0 10 -9 10 -21z m-155 -24 l30 -13 -29 -1 c-23 -1 -27 -4 -18 -13 17 -17
15 -38 -5 -38 -23 0 -63 39 -63 62 0 22 40 24 85 3z m888 -52 c11 -10 -24 -43
-45 -43 -22 0 -23 13 -2 34 16 17 36 21 47 9z m93 -48 c-22 -17 -42 -19 -50
-6 -9 13 5 21 38 21 29 -1 30 -1 12 -15z m664 -29 c0 -7 10 -25 21 -40 29 -37
19 -42 -30 -16 -37 19 -40 22 -26 36 8 9 15 22 15 30 0 8 5 12 10 9 6 -3 10
-12 10 -19z m310 9 c-33 -19 -50 -18 -26 0 11 8 27 15 35 15 10 -1 7 -6 -9
-15z m-2111 -91 c-6 -8 -15 -14 -20 -14 -14 0 -11 28 4 33 20 7 29 -4 16 -19z
m1967 -209 c3 -14 3 -32 0 -41 -10 -27 -31 -9 -34 29 -2 28 1 37 12 37 9 0 18
-11 22 -25z m-33 -72 c11 -26 -9 -65 -44 -84 -18 -9 -20 -8 -15 9 6 17 3 19
-14 15 -11 -3 -20 0 -20 6 0 6 -12 11 -27 11 -22 0 -25 2 -13 10 8 5 27 10 42
10 65 0 78 31 22 55 -20 8 -33 19 -29 25 9 15 85 -30 98 -57z m-1223 32 c7 -8
8 -15 2 -15 -5 0 -15 7 -22 15 -7 8 -8 15 -2 15 5 0 15 -7 22 -15z m346 -20
c15 -24 17 -24 30 -8 13 17 13 17 14 0 0 -28 -29 -32 -56 -7 -25 25 -31 40
-14 40 5 0 17 -11 26 -25z m-976 -30 c0 -8 -7 -15 -16 -15 -14 0 -14 3 -4 15
7 8 14 15 16 15 2 0 4 -7 4 -15z m1116 -102 c-2 -3 -9 -2 -15 1 -6 4 -6 17 2
39 l12 32 3 -33 c2 -19 1 -36 -2 -39z m62 9 c2 -7 -3 -12 -12 -12 -9 0 -16 7
-16 16 0 17 22 14 28 -4z m-232 -246 c22 -17 11 -35 -13 -20 -19 12 -29 34
-16 34 5 0 18 -6 29 -14z m-956 -71 c13 -14 21 -27 18 -30 -2 -3 -17 9 -33 25
-16 17 -24 30 -19 30 6 0 21 -11 34 -25z m624 -61 c26 -10 20 -37 -6 -28 -29
8 -31 10 -23 23 7 13 8 13 29 5z m82 -59 c8 -33 -3 -74 -22 -82 -10 -4 -26 7
-44 28 -35 40 -37 49 -11 42 13 -3 24 2 33 16 17 28 36 26 44 -4z m1122 -187
c2 -20 -1 -28 -12 -28 -10 0 -13 6 -9 17 5 12 2 15 -10 10 -9 -3 -19 -2 -22 3
-10 16 6 31 28 28 16 -2 23 -11 25 -30z m-107 -15 c15 -15 -33 -63 -61 -63
-19 0 -21 3 -11 9 12 8 12 13 -2 35 -9 14 -17 28 -17 32 0 9 80 -2 91 -13z
m-685 -48 c31 -29 44 -32 44 -10 0 20 68 20 116 0 32 -13 37 -13 51 0 11 11
39 15 108 15 52 0 97 4 100 10 3 6 13 10 21 10 42 0 -21 -66 -73 -76 -26 -5
-37 -14 -48 -40 -8 -19 -19 -34 -25 -34 -6 0 -8 5 -4 11 4 7 3 10 -2 7 -115
-55 -144 -64 -144 -44 0 18 -25 21 -36 5 -8 -14 -153 -6 -201 11 -27 10 -33
17 -33 40 0 30 18 39 80 40 l35 1 -50 26 c-62 32 -63 32 -45 43 28 18 78 11
106 -15z m-1009 -77 c-3 -7 -5 -2 -5 12 0 14 2 19 5 13 2 -7 2 -19 0 -25z
m386 15 c-5 -13 -2 -15 16 -10 17 4 24 0 32 -19 20 -55 -2 -73 -40 -32 -16 17
-23 19 -35 9 -22 -18 -80 -10 -84 12 -5 24 28 35 43 14 11 -15 15 -13 40 13
33 35 37 36 28 13z m-843 -12 c0 -12 -20 -25 -27 -18 -7 7 6 27 18 27 5 0 9
-4 9 -9z m540 -38 c0 -6 20 -15 45 -19 25 -3 45 -11 45 -16 0 -22 -59 -68 -88
-68 -53 0 -107 61 -67 76 8 4 15 18 15 34 0 26 2 27 25 17 14 -7 25 -17 25
-24z m558 17 c34 -21 46 -58 15 -45 -10 3 -37 10 -61 15 -50 9 -57 14 -49 35
9 21 56 19 95 -5z m-393 -20 c-3 -5 -13 -10 -21 -10 -8 0 -14 5 -14 10 0 6 9
10 21 10 11 0 17 -4 14 -10z m414 -59 c20 -13 6 -41 -21 -41 -33 0 -68 11 -68
20 0 8 45 28 65 29 6 0 16 -3 24 -8z m-829 -32 c0 -5 -4 -9 -10 -9 -5 0 -10 7
-10 16 0 8 5 12 10 9 6 -3 10 -10 10 -16z m353 2 c-5 -21 49 -60 100 -70 17
-4 33 -13 35 -20 3 -10 -5 -11 -39 -5 -24 5 -63 8 -87 9 -47 0 -65 17 -56 50
12 40 57 75 47 36z m837 4 l35 -13 -35 -1 c-19 0 -48 6 -65 14 l-30 13 30 0
c17 0 46 -6 65 -13z m-1436 -30 c-4 -8 -10 -15 -15 -15 -5 0 -15 -12 -21 -26
-10 -20 -9 -27 2 -34 12 -7 11 -12 -3 -28 -9 -10 -17 -24 -17 -31 0 -16 -21
-10 -33 11 -15 23 0 64 38 103 37 37 58 45 49 20z m1354 -14 c3 -10 0 -12 -12
-8 -13 5 -16 -1 -16 -39 0 -32 -4 -44 -12 -42 -14 5 -23 70 -14 95 7 18 48 13
54 -6z m-1481 -43 c-3 -8 -6 -5 -6 6 -1 11 2 17 5 13 3 -3 4 -12 1 -19z m178
-148 c35 0 32 -26 -5 -45 -36 -18 -40 -19 -40 -1 0 7 -7 19 -15 26 -14 12 -14
15 2 32 15 16 18 17 25 3 5 -8 20 -15 33 -15z m125 -72 l-10 -31 28 26 c30 29
73 35 91 14 17 -21 0 -29 -21 -10 -10 9 -21 14 -24 11 -7 -7 11 -23 52 -48 24
-14 33 -27 36 -53 3 -31 1 -34 -13 -27 -9 5 -20 6 -23 2 -4 -4 -12 2 -18 13
-11 19 -11 19 -18 0 -7 -18 -9 -18 -20 8 -9 19 -25 30 -52 37 -22 6 -38 17
-38 25 0 19 -14 19 -52 -1 -18 -9 -27 -11 -23 -4 8 13 95 70 106 70 4 0 4 -14
-1 -32z m304 -74 c22 -8 20 -27 -4 -42 -12 -7 -17 -18 -13 -28 10 -27 -29 -12
-46 18 -13 22 -13 29 -2 42 14 17 38 20 65 10z m434 -56 c2 -8 -5 -18 -15 -22
-10 -3 -29 -13 -43 -21 -29 -17 -75 -11 -102 13 -17 14 -18 13 -18 -6 0 -24
-33 -31 -46 -11 -5 8 -10 6 -16 -5 -13 -22 -32 -20 -65 8 -22 19 -25 27 -16
37 10 10 15 9 28 -1 11 -9 22 -10 42 -2 16 6 35 11 43 12 8 0 41 3 73 6 38 4
57 2 57 -5 0 -16 26 -13 40 4 15 18 34 15 38 -7z m-903 -17 c3 -5 1 -12 -5
-16 -14 -9 -52 4 -45 16 8 12 42 12 50 0z m1356 -41 c24 -14 24 -26 0 -40 -26
-13 -71 7 -71 32 0 21 38 25 71 8z m-469 -61 c21 -11 21 -12 3 -25 -22 -16
-111 -19 -120 -4 -4 6 -4 17 -1 25 7 18 87 20 118 4z m1712 -15 c7 -17 -6 -18
-22 -2 -7 7 -12 15 -12 20 0 12 28 -2 34 -18z m-2324 -14 c-12 -23 -30 -27
-30 -7 0 17 10 27 27 27 11 0 11 -5 3 -20z m1194 -5 c26 -20 45 -19 69 2 18
17 19 17 33 -2 13 -18 19 -55 9 -55 -3 0 -14 5 -25 12 -16 11 -23 9 -40 -10
-15 -16 -28 -21 -43 -16 -31 9 -57 34 -57 54 0 33 23 39 54 15z m176 0 c-7 -8
-16 -12 -21 -9 -13 8 -1 24 18 24 13 0 13 -3 3 -15z m85 -16 c10 -15 -1 -23
-20 -15 -9 3 -13 10 -10 16 8 13 22 13 30 -1z m-15 -54 c0 -20 -38 -57 -53
-52 -20 6 -20 40 -1 54 24 18 54 17 54 -2z m-413 -142 c-16 -16 -17 -15 -17
17 0 32 1 33 17 17 16 -16 16 -18 0 -34z m-521 -119 c8 -18 14 -38 14 -44 0
-15 -66 -12 -107 5 l-36 15 27 25 c15 14 33 25 41 25 8 0 17 5 20 10 10 15 25
1 41 -36z m136 5 c21 -11 21 -12 3 -25 -41 -30 -141 -8 -120 26 8 14 91 13
117 -1z m125 -65 c2 -7 -10 -17 -27 -22 -16 -6 -30 -16 -30 -21 0 -15 -57 -13
-100 3 l-35 13 75 21 c80 22 111 24 117 6z m-577 -60 c0 -16 -26 -19 -35 -4
-3 6 -4 14 0 20 8 13 35 1 35 -16z m283 0 c3 -4 -1 -20 -10 -37 -14 -28 -14
-31 3 -44 27 -20 13 -24 -23 -6 -51 24 -55 65 -9 83 27 11 31 11 39 4z m147
-19 c0 -2 -23 -16 -51 -31 -54 -27 -58 -15 -5 17 29 18 56 25 56 14z m81 -63
c49 -41 -24 -74 -79 -36 -20 14 -23 14 -28 0 -6 -17 -34 -22 -34 -8 0 21 64
60 101 61 9 1 27 -7 40 -17z m-294 -178 c-10 -10 -48 27 -41 38 4 6 16 1 27
-11 12 -11 18 -24 14 -27z m132 26 c53 -25 80 -25 120 -2 36 20 54 13 89 -38
23 -34 29 -84 12 -95 -5 -3 -16 6 -25 19 -10 15 -37 32 -66 41 -27 9 -51 21
-54 26 -4 5 -25 9 -48 9 -33 0 -51 7 -77 30 -29 24 -32 29 -15 29 11 0 40 -8
64 -19z m-292 -127 c20 -43 37 -47 62 -12 17 23 19 33 11 49 -10 18 -8 20 19
20 44 0 61 -10 61 -35 0 -33 14 -38 35 -15 14 15 21 17 32 9 18 -16 16 -29 -7
-54 l-20 -22 22 1 c21 1 23 -3 21 -38 -2 -21 -8 -45 -14 -52 -6 -7 -44 -20
-85 -30 -61 -13 -80 -14 -104 -4 -16 7 -37 10 -45 6 -13 -5 -14 -2 -5 15 9 15
8 24 -1 35 -14 17 -65 19 -72 2 -4 -9 -6 -8 -6 2 0 8 8 26 19 40 25 32 25 40
0 40 -29 0 -70 21 -70 37 0 7 5 13 10 13 6 0 10 -8 10 -17 0 -13 3 -14 12 -5
7 7 23 12 35 12 16 0 30 10 41 30 9 16 19 24 21 17 2 -6 10 -26 18 -44z m317
-22 c21 -14 35 -17 47 -11 18 10 76 -6 118 -31 47 -30 7 -79 -65 -79 -22 0
-55 -7 -73 -16 -19 -9 -42 -13 -56 -10 -24 6 -25 10 -25 80 0 93 5 99 54 67z
m645 -57 c36 -8 70 -19 77 -25 8 -6 13 -5 18 6 4 12 24 15 96 15 52 0 90 -4
90 -10 0 -26 -174 -112 -272 -135 -34 -8 -75 -24 -90 -35 -40 -30 -62 -23 -66
20 -2 19 -10 42 -17 50 -20 22 -29 93 -16 119 11 19 18 21 64 15 29 -3 81 -12
116 -20z m-580 -150 c-45 -47 -79 -64 -128 -64 -22 0 -42 -5 -45 -12 -3 -9 -8
-8 -16 5 -11 17 -13 17 -24 1 -16 -21 -36 -11 -36 18 0 19 -4 20 -42 14 -35
-6 -39 -5 -29 8 7 8 34 20 61 26 39 9 218 34 279 39 9 1 0 -14 -20 -35z m121
-49 c18 -22 8 -274 -11 -286 -28 -17 -124 -21 -242 -10 -128 12 -154 21 -117
41 17 9 32 9 66 0 24 -7 57 -10 74 -7 16 4 32 2 35 -3 3 -6 24 -10 45 -10 l39
0 3 52 3 51 44 11 c65 16 71 34 38 101 -15 31 -25 60 -22 66 9 14 31 11 45 -6z
m290 -151 c0 -8 -5 -12 -10 -9 -6 4 -8 11 -5 16 9 14 15 11 15 -7z m-720 -113
c0 -10 -30 -24 -37 -17 -3 3 -2 9 2 15 8 13 35 15 35 2z m779 -582 c17 -6 31
-14 31 -19 0 -19 -39 -35 -77 -31 -16 1 -36 38 -28 51 8 13 35 13 74 -1z m134
-640 c97 -24 109 -31 41 -23 -87 10 -154 25 -154 35 0 14 23 11 113 -12z m192
-40 c4 -6 5 -13 2 -15 -7 -8 -57 7 -57 17 0 13 47 11 55 -2z m-691 -45 c10
-27 -3 -30 -26 -6 l-22 22 21 0 c11 0 24 -7 27 -16z m17 -1839 c-1 -15 -24
-12 -29 3 -3 9 2 13 12 10 10 -1 17 -7 17 -13z m-1206 -35 c0 -16 -47 -30 -75
-23 -31 8 -24 20 18 31 44 12 57 10 57 -8z m685 10 c0 -11 -48 -25 -56 -17 -4
3 -3 10 1 16 8 14 55 14 55 1z m-527 -32 c23 -27 22 -37 -9 -48 -40 -16 -51
-11 -24 10 33 26 10 25 -34 -1 l-36 -21 0 24 c0 13 7 34 16 47 19 27 59 22 87
-11z m427 2 c0 -19 -11 -26 -23 -14 -8 8 3 34 14 34 5 0 9 -9 9 -20z m595 -11
c29 -35 30 -64 1 -64 -15 0 -23 12 -32 48 -14 55 -6 59 31 16z m-107 9 c17
-17 15 -29 -3 -22 -10 4 -15 0 -15 -15 0 -15 9 -25 30 -32 38 -14 40 -34 3
-25 l-28 7 30 -25 c37 -31 25 -34 -21 -5 -47 28 -55 48 -42 92 12 38 25 46 46
25z m190 -5 c6 -19 -25 -16 -32 3 -4 11 -1 14 11 12 9 -2 18 -9 21 -15z
m-2210 0 c-21 -2 -55 -2 -75 0 -21 2 -4 4 37 4 41 0 58 -2 38 -4z m833 -3 c25
-14 25 -47 -1 -55 -25 -8 -40 1 -40 24 0 9 -5 22 -12 29 -9 9 -7 12 11 12 12
0 31 -5 42 -10z m554 1 c-6 -6 -30 -13 -55 -16 l-45 -5 35 14 c41 17 79 21 65
7z m575 -3 c-1 -30 -18 -43 -46 -33 -35 13 -42 32 -12 38 44 8 58 7 58 -5z
m-1281 -24 c-6 -8 -20 -14 -30 -14 -20 0 -25 -15 -9 -25 6 -4 8 -11 5 -16 -9
-14 -37 -11 -57 8 -18 16 -18 17 9 30 16 7 39 20 52 28 29 16 47 10 30 -11z
m247 1 c-19 -15 -46 -20 -46 -10 0 6 40 24 55 24 6 0 1 -6 -9 -14z m397 -30
c-3 -15 -63 -24 -92 -14 -21 8 -23 12 -11 20 19 12 106 7 103 -6z m1482 5 c-3
-5 -22 -10 -41 -10 -19 0 -34 5 -34 10 0 6 18 10 41 10 24 0 38 -4 34 -10z
m1736 -40 c52 -62 47 -63 -186 -8 l-140 33 70 6 c39 4 105 6 149 5 77 -1 79
-2 107 -36z m-3016 14 c-22 -17 -46 -15 -53 4 -2 8 8 12 35 12 36 -1 37 -1 18
-16z m818 -4 c-3 -11 -9 -20 -14 -20 -11 0 -11 3 -3 24 9 23 23 20 17 -4z
m577 5 c0 -8 -7 -15 -15 -15 -8 0 -15 7 -15 15 0 8 7 15 15 15 8 0 15 -7 15
-15z m-3875 -15 c-3 -5 -13 -10 -21 -10 -8 0 -12 5 -9 10 3 6 13 10 21 10 8 0
12 -4 9 -10z m105 -23 c0 -48 -36 -79 -99 -85 -55 -5 -101 3 -101 18 0 5 11
17 25 26 24 16 152 72 168 73 4 1 7 -14 7 -32z m510 -43 c0 -64 -37 -54 -49
13 -11 57 -4 69 25 42 16 -15 24 -34 24 -55z m1154 60 c13 -5 14 -9 5 -20 -21
-26 -71 -11 -54 16 7 11 26 13 49 4z m2730 0 c16 -6 23 -44 8 -44 -16 0 -52
32 -47 41 7 11 17 11 39 3z m-3619 -23 c22 -10 45 -24 51 -32 13 -16 39 -118
32 -124 -2 -3 -22 4 -43 15 -22 11 -52 20 -67 20 -15 0 -28 4 -28 8 0 14 32
38 65 50 l30 10 -29 1 c-22 1 -39 -9 -66 -39 -20 -22 -41 -40 -47 -40 -28 0
-45 114 -21 138 17 17 77 14 123 -7z m2506 9 c19 0 31 -6 35 -17 3 -10 10 -27
16 -37 8 -16 7 -18 -7 -12 -9 3 -20 6 -24 6 -4 0 -25 17 -47 37 -21 20 -31 33
-21 30 10 -4 32 -7 48 -7z m1392 -10 c-37 -22 -42 -43 -15 -60 22 -15 -92 -5
-163 13 -50 13 -50 14 -25 27 47 25 105 39 170 39 l65 1 -32 -20z m-4352 -37
c31 -72 24 -76 -60 -37 -41 19 -72 37 -69 40 5 4 96 42 106 44 1 0 12 -21 23
-47z m87 35 c7 -7 12 -32 12 -56 0 -39 -2 -43 -15 -32 -29 24 -57 71 -51 85 7
18 37 20 54 3z m552 -8 c0 -13 -7 -20 -20 -20 -19 0 -27 20 -13 33 13 14 33 6
33 -13z m274 11 c6 -9 -52 -41 -72 -41 -21 0 -25 23 -7 37 21 15 71 18 79 4z
m710 -6 c18 -14 9 -15 -85 -14 l-104 1 50 13 c67 18 116 17 139 0z m-624 -10
c16 -8 42 -27 57 -41 l28 -27 -35 7 c-41 7 -84 36 -88 60 -4 20 1 20 38 1z
m1400 -40 c20 -20 22 -27 12 -37 -11 -11 -18 -7 -40 18 -15 18 -37 37 -49 43
-13 7 -23 16 -23 21 0 15 72 -18 100 -45z m2107 26 c30 -15 34 -37 14 -62 -24
-30 -49 -19 -53 23 -2 25 -8 34 -25 36 -22 3 -29 13 -17 24 6 7 52 -5 81 -21z
m-5709 7 c-3 -7 -15 -14 -29 -16 -23 -2 -23 -2 -5 13 24 18 39 20 34 3z m227
-10 c7 -8 -8 -9 -57 -5 -56 5 -68 4 -68 -8 0 -16 -20 -19 -57 -9 -25 7 -31 29
-10 38 20 9 181 -4 192 -16z m1739 16 c24 -9 19 -34 -7 -34 -13 0 -28 -5 -34
-11 -6 -6 -16 -8 -22 -5 -12 8 -15 39 -4 49 8 9 46 9 67 1z m3201 -8 c29 -21
12 -46 -31 -46 -42 0 -114 19 -114 31 0 8 64 26 101 28 14 1 34 -5 44 -13z
m2505 5 c0 -5 -12 -27 -26 -49 l-26 -40 -57 19 c-31 11 -83 23 -115 26 -51 5
-56 8 -35 15 78 30 259 50 259 29z m-3700 -27 c0 -8 -4 -12 -10 -9 -5 3 -10
10 -10 16 0 5 5 9 10 9 6 0 10 -7 10 -16z m-1830 -9 c28 -34 -28 -62 -70 -35
-12 7 -12 12 4 29 22 25 49 27 66 6z m1240 2 c0 -7 -6 -21 -13 -32 -19 -26
-30 -3 -11 23 17 25 24 28 24 9z m710 -78 c0 -15 -33 -10 -80 13 -43 20 -44
21 -20 28 19 5 24 12 23 31 -2 21 2 19 37 -20 22 -24 40 -47 40 -52z m-3615
71 c-4 -6 -37 -26 -75 -45 -51 -26 -69 -40 -72 -57 -2 -17 -10 -23 -27 -23
-13 0 -26 5 -28 11 -5 15 30 40 121 88 71 37 92 44 81 26z m3010 -74 c9 -60 4
-79 -23 -81 -12 -1 -35 -14 -50 -28 -40 -38 -56 -35 -49 7 10 61 44 125 71
136 29 10 35 30 10 30 -9 0 -12 5 -8 12 12 19 42 -28 49 -76z m-3495 66 c0
-12 -51 -34 -59 -27 -7 8 28 35 46 35 7 0 13 -4 13 -8z m3257 -13 c-9 -6 -17
-18 -17 -27 0 -9 -5 -24 -10 -32 -7 -11 -10 -5 -10 23 0 30 5 39 23 46 27 11
38 3 14 -10z m-3530 -2 c13 -14 -22 -38 -97 -66 -91 -35 -149 -46 -170 -31
-18 13 -4 23 80 58 30 12 62 30 70 38 11 11 28 14 63 11 26 -2 50 -7 54 -10z
m931 -18 l24 -29 -52 0 c-36 0 -52 4 -56 15 -20 50 47 62 84 14z m6703 12
c-10 -18 -77 -38 -88 -27 -8 7 59 46 80 46 14 0 16 -4 8 -19z m-7466 -11 c0
-20 -71 -38 -87 -22 -8 8 -8 15 2 27 17 21 85 17 85 -5z m1155 -5 c41 -30 60
-33 35 -5 -10 11 -13 20 -7 20 6 0 25 -16 44 -36 18 -20 43 -40 56 -45 25 -10
28 -22 9 -38 -11 -8 -25 -3 -61 20 -28 19 -65 34 -92 37 -50 5 -62 19 -44 51
14 27 19 26 60 -4z m1464 -6 c5 -5 7 -11 4 -15 -7 -6 -64 21 -73 36 -6 11 55
-8 69 -21z m655 17 c7 -8 11 -27 9 -43 -3 -25 -7 -28 -46 -31 -54 -4 -152 24
-152 43 0 13 21 21 95 38 42 10 83 6 94 -7z m1011 1 c0 -7 -7 -22 -15 -33 -14
-18 -14 -18 -15 7 0 14 3 29 7 32 11 11 23 8 23 -6z m27 -23 l-6 -35 21 27 22
27 23 -28 c15 -16 23 -37 21 -52 -2 -17 4 -27 22 -36 30 -15 40 -57 15 -57
-28 0 -97 61 -92 81 3 12 -2 19 -19 23 -24 6 -32 35 -18 70 11 28 17 17 11
-20z m1021 19 c5 -18 -10 -16 -34 2 -18 15 -18 15 5 13 14 -2 26 -9 29 -15z
m829 -9 c14 -14 23 -28 20 -30 -7 -7 -87 38 -87 49 0 17 43 5 67 -19z m-705
-1 c19 -17 24 -43 9 -43 -15 0 -41 30 -41 46 0 18 9 18 32 -3z m500 -12 c56
-35 67 -51 37 -51 -30 0 -109 47 -109 65 0 22 21 18 72 -14z m-5729 12 c-7 -2
-19 -2 -25 0 -7 3 -2 5 12 5 14 0 19 -2 13 -5z m347 -13 c14 -26 6 -51 -24
-79 l-24 -23 -38 35 -38 35 49 25 c61 32 62 32 75 7z m1027 -12 c-3 -7 -5 -2
-5 12 0 14 2 19 5 13 2 -7 2 -19 0 -25z m893 23 c0 -6 -4 -13 -10 -16 -19 -12
-10 -22 16 -17 28 5 70 -13 78 -34 7 -17 -3 -44 -16 -44 -5 0 -6 6 -3 13 3 6
-2 1 -12 -13 -69 -96 -119 -91 -137 13 -4 21 -4 47 -1 57 10 31 85 66 85 41z
m5177 -28 c48 -23 58 -32 58 -53 0 -17 -6 -26 -20 -28 -33 -6 -39 -19 -21 -46
19 -30 7 -33 -29 -10 -15 10 -34 14 -49 10 -16 -4 -32 1 -49 14 -14 11 -47 23
-73 27 -81 11 -119 73 -45 73 31 0 42 5 56 26 16 24 21 26 66 21 27 -3 74 -19
106 -34z m-1930 -10 c-3 -10 -5 -4 -5 12 0 17 2 24 5 18 2 -7 2 -21 0 -30z
m-5612 13 c-28 -12 -29 -13 -7 -18 29 -8 28 -26 -2 -40 -33 -14 -52 -5 -58 27
-6 30 15 44 67 44 l30 0 -30 -13z m1315 -6 c6 -11 9 -20 7 -20 -2 0 -12 9 -22
20 -10 11 -13 20 -7 20 6 0 16 -9 22 -20z m565 0 c11 -13 31 -20 52 -20 20 0
32 -4 28 -10 -7 -11 -58 -13 -93 -4 -18 5 -20 9 -11 20 17 21 -10 18 -33 -3
-17 -15 -18 -15 -18 4 0 11 3 23 7 26 13 14 50 6 68 -13z m305 5 c-19 -22 -70
-58 -76 -53 -16 17 39 67 75 68 11 0 11 -3 1 -15z m538 8 c-10 -2 -26 -2 -35
0 -10 3 -2 5 17 5 19 0 27 -2 18 -5z m80 -5 c-7 -19 -38 -22 -38 -4 0 10 9 16
21 16 12 0 19 -5 17 -12z m502 2 c-8 -6 -24 -16 -35 -22 -20 -11 -20 -11 -1
11 11 11 26 21 35 21 14 0 14 -2 1 -10z m389 -4 c16 -20 5 -41 -40 -72 -27
-19 -53 -28 -82 -28 l-42 -1 -3 50 c-1 29 1 45 6 37 6 -9 20 -8 63 7 66 24 83
25 98 7z m1749 -13 c4 -25 -16 -31 -36 -11 -20 20 -14 40 11 36 14 -2 23 -11
25 -25z m111 18 c20 -13 4 -31 -29 -31 -38 0 -60 9 -60 26 0 16 66 20 89 5z
m1074 -15 c30 -13 57 -28 61 -34 3 -5 -14 -15 -39 -21 -40 -10 -48 -9 -64 6
-23 21 -38 73 -22 73 6 0 35 -11 64 -24z m62 3 c16 -16 -30 -10 -51 7 -18 15
-18 15 11 9 17 -4 34 -11 40 -16z m-4091 -11 c5 -9 7 -20 3 -24 -8 -8 -47 24
-47 38 0 15 32 5 44 -14z m-2810 3 c15 -23 -76 -54 -144 -49 l-45 3 75 27 c81
29 106 33 114 19z m829 -1 c30 0 38 -3 30 -11 -17 -17 -100 -24 -118 -9 -25
21 -17 33 16 26 17 -3 50 -6 72 -6z m1433 -22 c15 -30 15 -32 -2 -45 -9 -7
-16 -14 -13 -16 2 -2 16 -11 32 -20 15 -10 27 -26 27 -37 0 -28 -35 -60 -65
-60 -16 0 -25 -6 -25 -16 0 -14 -3 -14 -15 -4 -8 7 -15 28 -15 47 0 30 3 34
18 28 56 -23 65 -15 36 35 -13 20 -15 39 -10 74 4 25 9 46 11 46 3 0 12 -14
21 -32z m2435 -35 c9 -10 6 -13 -15 -13 -38 0 -63 16 -82 51 l-16 31 51 -28
c28 -15 56 -33 62 -41z m1878 53 l24 -13 -24 -17 -23 -16 27 0 c16 0 42 -8 60
-17 l32 -18 -33 -3 c-44 -4 -102 26 -125 66 l-19 32 29 0 c15 -1 39 -7 52 -14z
m-2513 -7 c10 -17 -13 -36 -27 -22 -12 12 -4 33 11 33 5 0 12 -5 16 -11z
m1012 -6 c5 -17 -26 -29 -40 -15 -6 6 -7 15 -3 22 9 14 37 9 43 -7z m1650 5
c19 -19 14 -38 -10 -38 -22 0 -58 26 -58 42 0 12 54 10 68 -4z m669 1 c40 -15
73 -49 73 -76 0 -28 -10 -29 -33 -3 -11 14 -29 20 -55 20 -21 0 -47 7 -58 15
-19 15 -19 15 5 35 27 23 30 24 68 9z m-5508 -20 c22 -13 30 -24 24 -30 -12
-12 -87 -1 -110 17 -16 12 -16 13 10 14 15 0 27 5 27 10 0 15 11 12 49 -11z
m3092 -26 c69 -73 74 -80 59 -98 -25 -30 -56 -17 -109 43 -51 57 -62 86 -38
95 29 12 45 4 88 -40z m-2523 8 c4 -22 -13 -51 -29 -51 -10 0 -12 41 -3 65 9
22 28 13 32 -14z m518 -3 c12 -12 -24 -21 -59 -14 -40 8 -61 21 -54 34 7 10
99 -7 113 -20z m554 8 c0 -8 -12 -28 -26 -45 -20 -24 -22 -31 -10 -31 24 0 19
-17 -11 -48 -25 -24 -28 -25 -31 -9 -7 34 8 86 34 117 28 32 44 38 44 16z
m645 -11 c28 -27 33 -60 10 -69 -11 -4 -15 2 -15 20 0 17 -8 27 -24 33 -13 5
-26 17 -29 25 -10 26 30 20 58 -9z m130 -13 c-3 -3 -16 5 -28 17 l-22 23 28
-17 c15 -10 25 -20 22 -23z m925 3 c0 -27 -24 -49 -45 -41 -20 7 -19 35 1 57
20 22 44 14 44 -16z m-4682 3 c-2 -19 -9 -23 -37 -23 -45 0 -51 22 -9 34 48
14 50 13 46 -11z m706 13 c7 -10 -30 -28 -79 -37 -41 -7 -63 10 -43 33 12 15
114 18 122 4z m492 -20 c21 -15 49 -39 60 -52 26 -29 40 -69 25 -69 -6 0 -11
5 -11 10 0 6 -4 10 -10 10 -19 0 -10 -29 16 -47 32 -24 26 -59 -21 -109 -38
-40 -45 -41 -81 -11 -34 29 -26 43 34 61 l47 15 -42 0 c-23 1 -54 -4 -69 -9
l-27 -11 7 76 c10 111 18 122 64 89 23 -16 30 -58 12 -69 -5 -3 -10 -11 -10
-16 0 -15 16 -2 40 31 l20 29 -55 43 c-52 40 -66 58 -47 58 5 0 27 -13 48 -29z
m1562 -1 c59 -26 58 -56 -3 -50 -25 2 -97 43 -116 66 -12 15 -10 16 31 9 25
-4 64 -15 88 -25z m-1795 5 c-1 -5 -8 -14 -17 -20 -18 -11 -42 7 -31 25 8 13
51 9 48 -5z m5718 -6 l24 -20 -30 6 c-16 3 -37 13 -45 21 -24 24 23 18 51 -7z
m-6173 -12 c19 -15 3 -24 -57 -32 l-55 -7 30 30 c29 31 52 33 82 9z m1074 7
c10 -6 10 -64 1 -64 -4 0 -20 12 -37 28 l-29 27 28 -39 29 -38 -23 -19 c-13
-11 -27 -19 -31 -19 -21 0 -40 116 -23 134 7 7 70 -1 85 -10z m648 4 c0 -17
-51 -68 -67 -68 -11 0 -11 5 -2 23 25 48 69 77 69 45z m1158 -38 c-3 -28 -13
-59 -23 -70 -16 -18 -17 -30 -4 -80 3 -11 -4 -15 -30 -13 -77 3 -79 63 -5 156
25 31 50 57 56 57 7 0 9 -19 6 -50z m-3049 31 c17 -11 7 -61 -13 -61 -15 0
-39 47 -31 61 8 11 26 11 44 0z m536 -9 c0 -18 -20 -15 -23 4 -3 10 1 15 10
12 7 -3 13 -10 13 -16z m1474 9 c16 -10 6 -31 -14 -31 -17 0 -28 17 -20 30 8
12 16 12 34 1z m2172 -17 c9 -11 8 -14 -8 -14 -19 0 -43 17 -43 31 0 11 38 -2
51 -17z m206 14 c15 -19 23 -61 17 -86 -8 -28 -24 -19 -24 14 0 15 -6 24 -15
24 -21 0 -30 27 -15 45 15 18 25 19 37 3z m551 -6 c5 -17 -27 -27 -41 -13 -9
9 -8 14 3 21 18 11 32 8 38 -8z m184 2 c11 -7 10 -34 -1 -34 -6 0 -13 5 -17
11 -4 8 -27 10 -64 6 -56 -5 -102 6 -70 17 8 2 22 7 30 10 16 6 108 -2 122
-10z m173 6 c3 -5 -6 -12 -20 -16 -29 -7 -41 -1 -30 15 8 14 42 14 50 1z m825
-19 c0 -23 -9 -31 -26 -24 -17 6 -18 40 -1 46 17 6 27 -1 27 -22z m79 20 c16
-10 6 -31 -14 -31 -17 0 -28 17 -20 30 8 12 16 12 34 1z m-7312 -7 c-3 -3 -12
-4 -19 -1 -8 3 -5 6 6 6 11 1 17 -2 13 -5z m5598 -44 c30 -59 31 -76 6 -89
-25 -14 -39 3 -42 49 -3 45 0 90 6 90 2 0 16 -22 30 -50z m-4611 17 c-14 -33
-130 -76 -206 -77 -13 0 37 69 54 75 23 8 141 22 150 18 4 -2 5 -9 2 -16z
m562 -3 l39 -16 -70 -29 c-39 -15 -78 -28 -87 -28 -39 -2 -48 82 -10 93 26 7
84 -2 128 -20z m307 -50 c-1 -38 -7 -83 -13 -99 l-12 -30 -10 25 c-10 27 -6
149 6 169 19 29 31 1 29 -65z m2431 -21 c6 -89 -4 -170 -17 -128 -3 11 -7 45
-8 75 -7 161 13 204 25 53z m684 88 c8 -4 12 -19 10 -32 -6 -47 -88 -26 -88
23 0 14 8 18 33 18 17 0 38 -4 45 -9z m693 -1 c26 -14 24 -32 -3 -28 -13 2
-24 11 -26 21 -4 20 2 21 29 7z m849 -20 c0 -10 -7 -23 -15 -30 -8 -7 -15 -21
-15 -31 0 -11 -4 -19 -8 -19 -10 0 -62 53 -62 63 0 11 74 45 87 40 7 -3 13
-13 13 -23z m630 20 c0 -5 -7 -10 -15 -10 -8 0 -15 5 -15 10 0 6 7 10 15 10 8
0 15 -4 15 -10z m660 -9 c0 -21 -22 -33 -45 -25 -21 9 -19 19 8 32 32 15 37
14 37 -7z m-4315 -20 l60 -29 -42 -1 c-23 -1 -45 4 -49 11 -5 7 -10 4 -15 -10
-17 -45 -69 -16 -69 37 0 30 42 27 115 -8z m1028 12 c30 -17 31 -18 9 -21 -32
-5 -52 4 -52 23 0 19 4 19 43 -2z m-1323 -10 c0 -2 -13 -9 -30 -14 -16 -6 -30
-15 -30 -20 0 -5 -11 -14 -25 -19 -14 -5 -27 -20 -31 -35 -8 -32 -38 -30 -42
3 -4 25 19 56 53 75 39 21 105 27 105 10z m130 -8 c0 -16 -6 -25 -15 -25 -18
0 -20 21 -3 38 17 17 18 16 18 -13z m585 -11 c0 -22 -5 -30 -21 -32 -16 -2
-23 4 -28 24 -4 14 -5 29 -1 32 3 3 5 0 5 -6 0 -7 5 -12 10 -12 6 0 10 7 10
16 0 9 6 14 13 12 6 -3 12 -18 12 -34z m125 32 c0 -24 -26 -66 -41 -66 -21 0
-43 35 -35 56 5 12 76 22 76 10z m1837 -16 c1 0 3 -17 5 -37 4 -46 28 -58 28
-14 0 17 2 31 5 31 2 0 30 -11 62 -25 75 -34 59 -45 -65 -45 -96 0 -163 17
-161 42 0 10 2 10 6 1 9 -24 23 -13 23 17 0 37 23 51 64 39 17 -5 32 -9 33 -9z
m326 7 c8 -20 -3 -65 -19 -78 -12 -9 -19 -7 -37 10 -13 11 -31 21 -40 21 -9 0
-17 5 -17 10 0 6 18 10 41 10 32 0 42 4 46 20 6 23 18 26 26 7z m-4847 -18
c23 -19 6 -28 -34 -17 -47 13 -54 17 -46 30 7 12 61 3 80 -13z m4996 -15 c56
-47 57 -54 14 -54 -44 0 -106 24 -106 41 0 14 29 49 41 49 4 0 27 -16 51 -36z
m-5621 -26 l-26 -53 -3 40 c-2 29 1 43 14 52 36 26 41 13 15 -39z m1386 20
c-3 -7 -5 -2 -5 12 0 14 2 19 5 13 2 -7 2 -19 0 -25z m5245 17 c-4 -13 -52 -9
-66 5 -8 8 0 10 29 8 22 -2 39 -7 37 -13z m166 -5 c17 -11 32 -23 32 -26 0
-10 -115 2 -139 15 -12 7 -19 16 -16 22 11 16 89 10 123 -11z m-6933 -4 c41
-11 50 -18 57 -42 12 -43 2 -74 -25 -74 -35 0 -65 27 -77 68 -9 35 -13 63 -7
62 1 -1 24 -7 52 -14z m4465 -7 c0 -24 -23 -21 -28 4 -2 10 3 17 12 17 10 0
16 -9 16 -21z m2609 12 c10 -7 5 -11 -17 -16 -32 -7 -52 -1 -52 16 0 11 50 12
69 0z m-4935 -10 c6 -10 -22 -37 -29 -29 -8 7 5 38 15 38 5 0 11 -4 14 -9z
m2738 -66 c10 -13 18 -28 18 -35 0 -18 -24 -6 -36 18 -8 16 -13 19 -22 10 -16
-16 -23 -6 -32 41 l-7 40 30 -25 c17 -14 39 -36 49 -49z m-1674 46 c12 -11 22
-23 22 -27 0 -4 12 -25 26 -46 25 -36 26 -39 10 -62 -30 -47 -76 -57 -76 -17
0 9 -14 36 -31 59 -31 42 -31 56 4 100 12 16 18 15 45 -7z m775 7 c19 -15 51
-87 40 -89 -5 -1 -19 0 -33 1 -24 2 -24 1 -5 -13 16 -13 17 -17 6 -31 -16 -19
-61 -21 -62 -3 -1 6 0 24 1 39 1 14 -3 29 -9 33 -16 9 -13 36 6 57 19 21 33
23 56 6z m126 -7 c41 -21 71 -51 52 -51 -6 0 -16 -12 -23 -27 l-11 -28 -19 45
c-11 25 -27 53 -36 63 -20 22 -10 22 37 -2z m1898 3 c9 -23 -11 -38 -26 -20
-13 16 -7 36 10 36 5 0 12 -7 16 -16z m436 1 c-1 -5 -8 -14 -17 -20 -18 -11
-42 7 -31 25 8 13 51 9 48 -5z m-6524 -9 c8 -10 8 -16 -2 -25 -16 -13 -27 -5
-27 21 0 21 13 23 29 4z m1857 -23 c-19 -38 -42 -57 -61 -49 -27 10 -16 34 27
60 23 14 44 23 46 21 2 -2 -3 -16 -12 -32z m849 27 c3 -5 -2 -10 -13 -10 -14
0 -19 -7 -19 -29 0 -41 -30 -86 -48 -71 -23 19 -35 66 -22 83 26 32 88 49 102
27z m1215 -11 c15 -26 3 -40 -14 -16 -7 9 -18 17 -23 17 -16 0 -33 -49 -32
-93 l1 -42 9 49 c9 54 29 87 29 46 -1 -14 -6 -54 -13 -90 -11 -57 -15 -65 -36
-68 l-24 -4 5 89 c3 49 11 99 17 111 16 30 66 30 81 1z m2520 0 c0 -16 -4 -19
-22 -13 l-23 6 23 -24 c28 -31 28 -35 -7 -43 -38 -8 -88 14 -130 59 l-35 36
97 0 c91 0 97 -1 97 -21z m-4065 -3 c37 -16 44 -36 21 -55 -11 -10 -19 -5 -40
22 -39 51 -36 56 19 33z m459 6 c2 -4 7 -25 11 -47 l6 -40 -20 35 c-11 19 -20
41 -21 48 0 13 16 17 24 4z m193 0 c17 -10 -34 -82 -72 -102 -25 -13 -29 -13
-46 9 -20 25 -35 68 -26 77 5 5 85 20 117 23 8 0 21 -3 27 -7z m1433 -1 c0
-12 -20 -25 -27 -18 -7 7 6 27 18 27 5 0 9 -4 9 -9z m1681 -75 c-15 -39 -34
-23 -26 23 4 20 12 42 18 50 10 12 13 9 15 -15 2 -17 -2 -43 -7 -58z m1114 74
c-3 -5 -12 -7 -20 -3 -21 7 -19 13 6 13 11 0 18 -4 14 -10z m-5598 -22 c-3 -8
-6 -5 -6 6 -1 11 2 17 5 13 3 -3 4 -12 1 -19z m2720 -35 c-23 -23 -29 -13 -14
26 11 30 12 31 21 11 7 -15 5 -25 -7 -37z m288 5 c29 -29 65 -62 81 -74 34
-26 25 -44 -24 -44 -97 0 -157 46 -117 90 16 18 16 20 1 35 -18 19 -21 45 -5
45 6 0 35 -24 64 -52z m2134 41 c32 -11 40 -24 19 -32 -7 -2 -10 -8 -6 -12 4
-4 19 0 33 9 22 14 25 15 25 1 0 -10 10 -15 29 -15 39 0 48 -16 24 -42 l-18
-21 33 17 c32 16 35 16 65 -1 18 -11 32 -25 32 -33 0 -18 -46 -42 -60 -31 -5
5 -32 16 -60 25 -54 18 -115 70 -115 98 0 13 -11 19 -40 24 -22 4 -37 10 -34
15 7 12 35 11 73 -2z m-5559 -14 c10 -13 9 -15 -8 -15 -22 0 -36 13 -25 24 10
10 20 7 33 -9z m816 -23 c-9 -17 -26 -38 -38 -46 -22 -15 -21 -16 25 -16 40 0
47 -3 47 -19 0 -11 -10 -27 -21 -35 -25 -17 -53 -9 -112 31 -31 21 -35 29 -25
39 17 16 132 83 136 79 2 -2 -4 -17 -12 -33z m273 29 c8 -5 11 -16 8 -25 -5
-12 -20 -16 -64 -16 -78 0 -99 14 -53 34 39 17 88 20 109 7z m796 -1 c10 -16
-5 -50 -21 -50 -17 0 -28 24 -20 45 6 17 32 20 41 5z m1425 -5 c0 -12 -68 -40
-77 -31 -7 6 49 46 63 46 8 0 14 -7 14 -15z m301 -1 c10 -13 10 -17 -2 -25
-34 -22 -97 -4 -86 25 8 21 70 21 88 0z m1767 -12 c6 -38 -15 -52 -74 -52 -83
0 -83 33 1 64 52 19 69 16 73 -12z m455 8 c20 -11 44 -20 52 -20 8 0 14 -5 13
-12 -2 -8 17 -15 52 -19 62 -8 90 -17 90 -30 0 -28 -207 21 -275 65 -54 36 5
50 68 16z m-7093 -20 c29 0 24 -19 -7 -31 -32 -12 -54 -5 -48 16 17 54 15 52
26 33 6 -10 19 -18 29 -18z m4190 -42 c0 -17 -3 -18 -15 -8 -8 6 -19 9 -25 5
-6 -4 -10 9 -10 37 l1 43 24 -28 c14 -15 25 -37 25 -49z m1655 46 c20 -3 34
-9 33 -13 -2 -3 -14 -23 -27 -44 l-24 -38 -24 23 -24 22 21 16 22 16 -24 18
c-14 10 -16 15 -6 12 9 -3 33 -8 53 -12z m439 -13 c16 -31 13 -41 -15 -41 -22
0 -41 32 -33 54 10 25 32 19 48 -13z m426 -6 c0 -8 -7 -15 -15 -15 -16 0 -38
34 -28 43 9 10 43 -12 43 -28z m-1465 -1 c60 -40 85 -65 85 -86 0 -27 -17 -22
-86 23 -61 39 -80 62 -68 80 9 15 27 10 69 -17z m795 11 c0 -2 -16 -22 -35
-45 -19 -23 -35 -52 -35 -65 0 -24 -23 -55 -41 -55 -6 0 -20 6 -32 12 -21 12
-21 13 12 18 38 6 47 18 56 71 6 42 39 81 60 73 8 -4 15 -7 15 -9z m-4310 -14
c16 -30 12 -36 -10 -16 -21 19 -26 35 -10 35 5 0 14 -9 20 -19z m3823 12 c-7
-2 -19 -2 -25 0 -7 3 -2 5 12 5 14 0 19 -2 13 -5z m-4283 -24 c0 -11 -4 -17
-10 -14 -5 3 -10 13 -10 21 0 8 5 14 10 14 6 0 10 -9 10 -21z m1244 8 c17 -12
16 -16 -14 -60 -46 -69 -82 -58 -45 13 9 17 13 30 9 30 -4 0 -1 7 6 15 15 18
21 19 44 2z m2900 7 c9 -3 16 -10 16 -15 0 -14 -44 -10 -66 6 -18 14 -18 14 8
15 14 0 33 -3 42 -6z m527 -59 c-18 -41 -38 -55 -54 -39 -9 9 10 43 42 77 33
36 38 21 12 -38z m-414 41 c10 -10 -9 -26 -31 -26 -23 0 -46 17 -46 33 0 9 67
3 77 -7z m-3797 -46 c18 0 20 -7 20 -63 0 -35 -3 -66 -6 -70 -10 -9 -61 20
-68 38 -8 21 -8 93 1 124 l6 24 14 -27 c8 -15 22 -26 33 -26z m640 30 c16 -16
20 -33 20 -82 0 -34 -3 -58 -8 -52 -4 5 -18 21 -31 36 -23 26 -23 28 -7 52 23
37 20 43 -9 16 l-26 -24 -37 37 -37 37 58 0 c44 0 62 -5 77 -20z m2196 5 c14
-35 -54 -131 -76 -109 -12 12 -26 114 -16 114 4 0 21 -7 39 -16 l32 -17 -19
22 c-19 21 -19 21 8 21 15 0 29 -7 32 -15z m292 -1 c7 -13 13 -14 30 -5 26 14
102 14 122 1 13 -9 12 -13 -9 -30 -13 -11 -37 -20 -54 -20 -39 0 -117 37 -117
56 0 19 17 18 28 -2z m242 6 c14 0 32 -59 26 -85 -8 -30 -41 -34 -56 -6 -5 11
-10 38 -10 61 0 34 3 41 16 36 9 -3 19 -6 24 -6z m639 -27 c45 -45 27 -57 -29
-18 -36 25 -69 27 -54 3 5 -8 -3 -9 -26 -5 -18 4 -44 7 -57 7 -20 0 -23 3 -14
13 6 8 8 17 4 20 -3 4 14 4 39 1 27 -4 53 -2 64 5 28 16 33 14 73 -26z m328
-41 c-8 -107 -19 -132 -56 -132 -16 0 -32 4 -35 9 -11 18 15 109 44 155 44 68
54 61 47 -32z m-3367 56 c0 -7 -7 -22 -15 -32 -10 -14 -13 -34 -8 -76 5 -54 4
-57 -18 -63 -37 -10 -98 -8 -120 3 -13 7 -19 7 -19 0 0 -18 -46 -11 -65 10
-22 24 -14 36 13 21 28 -15 35 -14 28 4 -3 9 4 24 19 37 14 12 25 28 25 35 0
37 87 73 105 43 10 -16 23 -12 30 10 7 22 25 27 25 8z m115 -38 c14 -27 25
-52 25 -54 0 -9 -89 49 -90 58 0 9 29 46 36 46 2 0 15 -22 29 -50z m345 20 c0
-32 -1 -33 -24 -24 -19 7 -21 25 -4 42 19 19 28 14 28 -18z m100 -52 c0 -24
-15 -23 -40 2 -12 12 -20 33 -20 52 l0 32 30 -34 c16 -19 29 -43 30 -52z m720
63 c0 -11 -10 -27 -22 -35 -42 -30 -51 -15 -17 28 24 31 39 33 39 7z m2811
-23 c17 -24 38 -58 45 -75 8 -18 20 -33 27 -33 16 0 63 -48 55 -56 -4 -3 -15
-1 -26 5 -12 6 -36 11 -54 11 -18 0 -44 3 -56 7 -21 5 -23 10 -18 37 4 17 14
37 24 44 15 11 15 14 2 22 -27 17 -60 12 -60 -10 0 -13 -7 -20 -20 -20 -11 0
-20 3 -20 8 0 18 33 52 51 52 16 0 18 3 9 19 -26 49 3 41 41 -11z m-2357 -30
c3 -29 9 -64 12 -78 5 -23 3 -22 -30 12 -47 50 -56 86 -26 110 12 10 25 16 30
13 4 -2 10 -28 14 -57z m1974 38 c5 -26 -16 -45 -28 -26 -5 8 -10 23 -10 33 0
24 34 18 38 -7z m-4974 -18 c9 -12 14 -24 12 -26 -7 -7 -59 22 -64 36 -7 21
36 13 52 -10z m409 3 c6 -26 -7 -45 -27 -38 -23 9 -21 57 3 57 10 0 21 -9 24
-19z m1282 -47 c37 -28 29 -65 -19 -88 -46 -22 -72 -20 -97 5 -23 23 -23 64 0
122 l11 28 38 -23 c21 -13 51 -32 67 -44z m3201 41 c11 -16 11 -25 1 -45 -13
-27 -57 -35 -64 -12 -3 7 4 12 16 12 12 0 21 5 21 10 0 6 -18 10 -40 10 -36 0
-40 2 -40 26 0 24 3 25 46 22 33 -2 50 -9 60 -23z m323 16 c9 -6 12 -18 7 -36
-6 -25 -10 -27 -44 -22 -44 5 -142 39 -142 49 0 17 154 25 179 9z m-1249 -36
c-7 -8 -16 -15 -21 -15 -13 0 -11 24 3 38 18 18 35 -3 18 -23z m-3455 -1 c27
-29 32 -44 15 -44 -13 0 -60 49 -60 61 0 17 21 9 45 -17z m2339 -5 c15 -75 2
-127 -28 -116 -31 12 -18 147 15 147 3 0 9 -14 13 -31z m1180 25 c22 -9 20
-24 -3 -24 -21 0 -34 13 -24 24 8 7 8 7 27 0z m-3871 -41 c-6 -15 -23 -18 -23
-4 0 5 3 17 6 26 5 12 9 14 14 4 5 -7 6 -18 3 -26z m54 5 c-3 -7 -5 -2 -5 12
0 14 2 19 5 13 2 -7 2 -19 0 -25z m2493 19 c0 -7 -11 -29 -25 -49 -14 -21 -30
-49 -35 -64 -9 -23 -14 -25 -45 -20 -41 8 -46 0 -10 -14 26 -10 48 -51 43 -78
-2 -11 -11 -9 -35 12 -36 30 -57 82 -48 117 9 33 50 79 72 79 10 1 29 7 43 15
31 18 40 18 40 2z m877 -3 c3 -8 1 -20 -4 -25 -12 -12 -48 14 -39 29 10 17 36
15 43 -4z m193 1 c6 -8 9 -19 6 -24 -4 -6 3 -15 14 -21 21 -11 29 -43 8 -34
-15 6 -55 55 -64 78 -8 20 19 22 36 1z m2168 -26 c13 -16 32 -29 43 -29 21 0
104 -39 97 -46 -3 -2 -27 5 -54 15 -138 54 -217 81 -232 80 -43 -2 230 -109
278 -109 16 0 35 -7 44 -15 8 -8 23 -15 33 -15 17 -1 17 -1 -1 -12 -12 -7 -45
-8 -95 -3 -42 4 -143 10 -226 14 -83 3 -159 12 -171 18 -23 13 -74 76 -74 92
0 22 49 34 155 41 147 8 175 4 203 -31z m-3204 -106 c-23 -17 -59 -17 -72 0
-14 17 7 59 51 105 l32 33 3 -63 c2 -50 0 -65 -14 -75z m-1376 100 c3 -23 -30
-49 -48 -38 -12 7 -13 48 -3 59 15 14 48 1 51 -21z m2002 2 c0 -14 -4 -25 -10
-25 -11 0 -14 33 -3 43 11 11 13 8 13 -18z m914 -11 c17 -16 22 -44 8 -44 -5
0 -17 9 -27 20 -22 24 -77 27 -95 5 -17 -21 -30 -19 -30 4 0 24 12 29 77 30
34 1 57 -4 67 -15z m102 -5 c3 -5 -6 -9 -20 -9 -24 0 -41 12 -30 23 7 7 43 -3
50 -14z m-2423 -36 c-3 -7 -9 -13 -14 -13 -11 0 -12 34 -2 43 9 10 22 -13 16
-30z m2801 31 c26 -10 19 -22 -24 -44 -51 -26 -54 -25 -25 5 14 13 25 29 25
35 0 12 3 12 24 4z m-1033 -26 c22 -12 46 -33 55 -46 15 -22 15 -24 -3 -18
-10 2 -35 8 -56 12 -22 4 -45 16 -57 31 -36 46 -3 57 61 21z m1567 -6 c2 -13
-4 -25 -18 -32 -37 -20 -55 13 -24 45 20 20 38 15 42 -13z m-1103 8 c5 -8 11
-7 21 1 7 6 21 9 29 5 22 -8 75 -96 75 -123 0 -32 -44 -31 -73 2 -12 13 -34
38 -49 55 -16 17 -28 40 -28 50 0 21 15 27 25 10z m762 -5 c8 -22 -6 -33 -17
-15 -13 20 -12 30 0 30 6 0 13 -7 17 -15z m-607 -4 c0 -21 -13 -41 -26 -41
-17 0 -19 36 -1 43 19 8 27 8 27 -2z m102 -28 c9 -10 28 -26 42 -36 26 -18 35
-50 17 -61 -12 -8 -134 39 -139 53 -4 11 41 61 55 61 5 0 16 -8 25 -17z
m-1592 -92 c0 -64 -42 -113 -72 -83 -13 13 8 107 29 128 22 22 43 0 43 -45z
m933 28 c9 -12 17 -30 17 -41 0 -20 -1 -20 -27 -3 -38 24 -73 57 -73 68 0 17
64 -2 83 -24z m1271 20 c14 -7 27 -18 30 -25 4 -10 -6 -8 -34 6 -55 28 -51 44
4 19z m-2316 -41 c8 -69 -47 -89 -81 -30 -27 46 -17 64 35 60 38 -3 43 -6 46
-30z m1827 -18 c0 -36 -29 -33 -33 3 -3 23 0 28 15 25 12 -2 18 -12 18 -28z"/>
<path d="M4560 4705 c0 -8 2 -15 4 -15 2 0 12 -3 21 -7 15 -5 16 -3 6 15 -13
25 -31 29 -31 7z"/>
<path d="M6460 942 c0 -5 11 -19 25 -32 19 -18 25 -20 25 -8 0 8 -8 22 -18 31
-20 19 -32 22 -32 9z"/>
<path d="M3087 642 c-19 -20 -23 -37 -7 -27 10 6 33 45 27 45 -2 0 -11 -8 -20
-18z"/>
<path d="M7040 654 c0 -14 3 -14 15 -4 8 7 15 14 15 16 0 2 -7 4 -15 4 -8 0
-15 -7 -15 -16z"/>
<path d="M7390 611 c0 -12 48 -27 57 -17 9 8 2 13 -30 21 -17 5 -27 3 -27 -4z"/>
<path d="M4063 593 c9 -2 23 -2 30 0 6 3 -1 5 -18 5 -16 0 -22 -2 -12 -5z"/>
<path d="M5460 436 c0 -8 5 -18 10 -21 6 -3 10 1 10 9 0 8 -4 18 -10 21 -5 3
-10 -1 -10 -9z"/>
<path d="M5310 249 c0 -8 7 -24 15 -35 18 -24 19 -7 0 26 -9 16 -14 19 -15 9z"/>
<path d="M5562 12320 c0 -14 2 -19 5 -12 2 6 2 18 0 25 -3 6 -5 1 -5 -13z"/>
<path d="M4562 11968 c-14 -14 -16 -42 -2 -33 14 9 32 45 22 45 -4 0 -13 -5
-20 -12z"/>
<path d="M5582 11118 c3 -7 13 -15 22 -16 12 -3 17 1 14 10 -3 7 -13 15 -22
16 -12 3 -17 -1 -14 -10z"/>
<path d="M4542 9845 c0 -16 2 -22 5 -12 2 9 2 23 0 30 -3 6 -5 -1 -5 -18z"/>
<path d="M4313 9165 c-9 -25 4 -29 17 -6 7 15 7 21 0 21 -6 0 -13 -7 -17 -15z"/>
<path d="M5560 7599 c0 -8 7 -24 15 -35 18 -24 19 -7 0 26 -9 16 -14 19 -15 9z"/>
<path d="M3652 6610 c0 -14 2 -19 5 -12 2 6 2 18 0 25 -3 6 -5 1 -5 -13z"/>
<path d="M4035 6439 c-4 -6 -5 -13 -2 -16 7 -7 27 6 27 18 0 12 -17 12 -25 -2z"/>
<path d="M4125 6389 c-10 -15 3 -25 16 -12 7 7 7 13 1 17 -6 3 -14 1 -17 -5z"/>
<path d="M3472 4909 c-9 -14 -20 -19 -33 -15 -10 3 -29 9 -41 13 l-22 6 22
-37 c29 -49 28 -64 -9 -109 -17 -20 -26 -37 -20 -37 5 0 13 5 16 10 16 25 30
8 27 -30 -3 -24 0 -40 6 -38 5 2 18 -8 29 -21 13 -16 26 -22 37 -18 15 6 16
15 11 59 -6 48 -4 55 19 77 31 30 34 66 6 74 -16 4 -20 14 -20 46 0 46 -9 52
-28 20z"/>
<path d="M4530 3016 c0 -9 7 -16 16 -16 9 0 14 5 12 12 -6 18 -28 21 -28 4z"/>
<path d="M5786 2498 c-9 -12 -16 -26 -16 -31 0 -13 29 12 41 35 14 26 -6 23
-25 -4z"/>
<path d="M7465 960 c4 -6 64 -10 146 -10 91 0 138 4 134 10 -4 6 -64 10 -146
10 -91 0 -138 -4 -134 -10z"/>
<path d="M9360 597 c3 -3 43 -19 89 -36 46 -17 95 -38 108 -47 14 -8 27 -13
30 -10 8 7 -54 43 -112 65 -53 20 -123 37 -115 28z"/>
<path d="M9370 521 c0 -5 7 -14 16 -22 8 -7 22 -26 31 -43 10 -18 18 -26 21
-18 2 7 -7 28 -20 47 -23 34 -48 53 -48 36z"/>
<path d="M3390 223 c0 -4 10 -17 22 -30 21 -23 21 -23 2 -38 -17 -13 -17 -14
-2 -15 20 0 40 32 32 53 -5 15 -54 42 -54 30z"/>
<path d="M5770 75 c-7 -9 -10 -18 -7 -22 8 -7 37 15 37 28 0 14 -16 11 -30 -6z"/>
</g>
</svg>
