<?xml version="1.0" encoding="utf-8" standalone="no"?>
<!DOCTYPE svg PUBLIC "-//W3C//DTD SVG 1.1//EN"
  "http://www.w3.org/Graphics/SVG/1.1/DTD/svg11.dtd">
<svg xmlns:xlink="http://www.w3.org/1999/xlink" width="243.83125pt" height="211.07625pt" viewBox="0 0 243.83125 211.07625" xmlns="http://www.w3.org/2000/svg" version="1.1">
 <metadata>
  <rdf:RDF xmlns:dc="http://purl.org/dc/elements/1.1/" xmlns:cc="http://creativecommons.org/ns#" xmlns:rdf="http://www.w3.org/1999/02/22-rdf-syntax-ns#">
   <cc:Work>
    <dc:type rdf:resource="http://purl.org/dc/dcmitype/StillImage"/>
    <dc:date>2024-04-01T16:01:49.902927</dc:date>
    <dc:format>image/svg+xml</dc:format>
    <dc:creator>
     <cc:Agent>
      <dc:title>Matplotlib v3.6.3, https://matplotlib.org/</dc:title>
     </cc:Agent>
    </dc:creator>
   </cc:Work>
  </rdf:RDF>
 </metadata>
 <defs>
  <style type="text/css">*{stroke-linejoin: round; stroke-linecap: butt}</style>
 </defs>
 <g id="figure_1">
  <g id="patch_1">
   <path d="M 0 211.07625 
L 243.83125 211.07625 
L 243.83125 0 
L 0 0 
z
" style="fill: #ffffff"/>
  </g>
  <g id="axes_1">
   <g id="patch_2">
    <path d="M 62.86875 173.52 
L 230.26875 173.52 
L 230.26875 7.2 
L 62.86875 7.2 
z
" style="fill: #ffffff"/>
   </g>
   <g id="matplotlib.axis_1">
    <g id="xtick_1">
     <g id="line2d_1">
      <defs>
       <path id="mc0043b25f8" d="M 0 0 
L 0 3.5 
" style="stroke: #000000; stroke-width: 0.8"/>
      </defs>
      <g>
       <use xlink:href="#mc0043b25f8" x="62.86875" y="173.52" style="stroke: #000000; stroke-width: 0.8"/>
      </g>
     </g>
     <g id="text_1">
      <!-- 0 -->
      <g transform="translate(59.6875 188.118438) scale(0.1 -0.1)">
       <defs>
        <path id="DejaVuSans-30" d="M 2034 4250 
Q 1547 4250 1301 3770 
Q 1056 3291 1056 2328 
Q 1056 1369 1301 889 
Q 1547 409 2034 409 
Q 2525 409 2770 889 
Q 3016 1369 3016 2328 
Q 3016 3291 2770 3770 
Q 2525 4250 2034 4250 
z
M 2034 4750 
Q 2819 4750 3233 4129 
Q 3647 3509 3647 2328 
Q 3647 1150 3233 529 
Q 2819 -91 2034 -91 
Q 1250 -91 836 529 
Q 422 1150 422 2328 
Q 422 3509 836 4129 
Q 1250 4750 2034 4750 
z
" transform="scale(0.015625)"/>
       </defs>
       <use xlink:href="#DejaVuSans-30"/>
      </g>
     </g>
    </g>
    <g id="xtick_2">
     <g id="line2d_2">
      <g>
       <use xlink:href="#mc0043b25f8" x="104.71875" y="173.52" style="stroke: #000000; stroke-width: 0.8"/>
      </g>
     </g>
     <g id="text_2">
      <!-- 10 -->
      <g transform="translate(98.35625 188.118438) scale(0.1 -0.1)">
       <defs>
        <path id="DejaVuSans-31" d="M 794 531 
L 1825 531 
L 1825 4091 
L 703 3866 
L 703 4441 
L 1819 4666 
L 2450 4666 
L 2450 531 
L 3481 531 
L 3481 0 
L 794 0 
L 794 531 
z
" transform="scale(0.015625)"/>
       </defs>
       <use xlink:href="#DejaVuSans-31"/>
       <use xlink:href="#DejaVuSans-30" x="63.623047"/>
      </g>
     </g>
    </g>
    <g id="xtick_3">
     <g id="line2d_3">
      <g>
       <use xlink:href="#mc0043b25f8" x="146.56875" y="173.52" style="stroke: #000000; stroke-width: 0.8"/>
      </g>
     </g>
     <g id="text_3">
      <!-- 20 -->
      <g transform="translate(140.20625 188.118438) scale(0.1 -0.1)">
       <defs>
        <path id="DejaVuSans-32" d="M 1228 531 
L 3431 531 
L 3431 0 
L 469 0 
L 469 531 
Q 828 903 1448 1529 
Q 2069 2156 2228 2338 
Q 2531 2678 2651 2914 
Q 2772 3150 2772 3378 
Q 2772 3750 2511 3984 
Q 2250 4219 1831 4219 
Q 1534 4219 1204 4116 
Q 875 4013 500 3803 
L 500 4441 
Q 881 4594 1212 4672 
Q 1544 4750 1819 4750 
Q 2544 4750 2975 4387 
Q 3406 4025 3406 3419 
Q 3406 3131 3298 2873 
Q 3191 2616 2906 2266 
Q 2828 2175 2409 1742 
Q 1991 1309 1228 531 
z
" transform="scale(0.015625)"/>
       </defs>
       <use xlink:href="#DejaVuSans-32"/>
       <use xlink:href="#DejaVuSans-30" x="63.623047"/>
      </g>
     </g>
    </g>
    <g id="xtick_4">
     <g id="line2d_4">
      <g>
       <use xlink:href="#mc0043b25f8" x="188.41875" y="173.52" style="stroke: #000000; stroke-width: 0.8"/>
      </g>
     </g>
     <g id="text_4">
      <!-- 30 -->
      <g transform="translate(182.05625 188.118438) scale(0.1 -0.1)">
       <defs>
        <path id="DejaVuSans-33" d="M 2597 2516 
Q 3050 2419 3304 2112 
Q 3559 1806 3559 1356 
Q 3559 666 3084 287 
Q 2609 -91 1734 -91 
Q 1441 -91 1130 -33 
Q 819 25 488 141 
L 488 750 
Q 750 597 1062 519 
Q 1375 441 1716 441 
Q 2309 441 2620 675 
Q 2931 909 2931 1356 
Q 2931 1769 2642 2001 
Q 2353 2234 1838 2234 
L 1294 2234 
L 1294 2753 
L 1863 2753 
Q 2328 2753 2575 2939 
Q 2822 3125 2822 3475 
Q 2822 3834 2567 4026 
Q 2313 4219 1838 4219 
Q 1578 4219 1281 4162 
Q 984 4106 628 3988 
L 628 4550 
Q 988 4650 1302 4700 
Q 1616 4750 1894 4750 
Q 2613 4750 3031 4423 
Q 3450 4097 3450 3541 
Q 3450 3153 3228 2886 
Q 3006 2619 2597 2516 
z
" transform="scale(0.015625)"/>
       </defs>
       <use xlink:href="#DejaVuSans-33"/>
       <use xlink:href="#DejaVuSans-30" x="63.623047"/>
      </g>
     </g>
    </g>
    <g id="xtick_5">
     <g id="line2d_5">
      <g>
       <use xlink:href="#mc0043b25f8" x="230.26875" y="173.52" style="stroke: #000000; stroke-width: 0.8"/>
      </g>
     </g>
     <g id="text_5">
      <!-- 40 -->
      <g transform="translate(223.90625 188.118438) scale(0.1 -0.1)">
       <defs>
        <path id="DejaVuSans-34" d="M 2419 4116 
L 825 1625 
L 2419 1625 
L 2419 4116 
z
M 2253 4666 
L 3047 4666 
L 3047 1625 
L 3713 1625 
L 3713 1100 
L 3047 1100 
L 3047 0 
L 2419 0 
L 2419 1100 
L 313 1100 
L 313 1709 
L 2253 4666 
z
" transform="scale(0.015625)"/>
       </defs>
       <use xlink:href="#DejaVuSans-34"/>
       <use xlink:href="#DejaVuSans-30" x="63.623047"/>
      </g>
     </g>
    </g>
    <g id="text_6">
     <!-- Exceedence Probability -->
     <g transform="translate(88.371875 201.796563) scale(0.1 -0.1)">
      <defs>
       <path id="DejaVuSans-45" d="M 628 4666 
L 3578 4666 
L 3578 4134 
L 1259 4134 
L 1259 2753 
L 3481 2753 
L 3481 2222 
L 1259 2222 
L 1259 531 
L 3634 531 
L 3634 0 
L 628 0 
L 628 4666 
z
" transform="scale(0.015625)"/>
       <path id="DejaVuSans-78" d="M 3513 3500 
L 2247 1797 
L 3578 0 
L 2900 0 
L 1881 1375 
L 863 0 
L 184 0 
L 1544 1831 
L 300 3500 
L 978 3500 
L 1906 2253 
L 2834 3500 
L 3513 3500 
z
" transform="scale(0.015625)"/>
       <path id="DejaVuSans-63" d="M 3122 3366 
L 3122 2828 
Q 2878 2963 2633 3030 
Q 2388 3097 2138 3097 
Q 1578 3097 1268 2742 
Q 959 2388 959 1747 
Q 959 1106 1268 751 
Q 1578 397 2138 397 
Q 2388 397 2633 464 
Q 2878 531 3122 666 
L 3122 134 
Q 2881 22 2623 -34 
Q 2366 -91 2075 -91 
Q 1284 -91 818 406 
Q 353 903 353 1747 
Q 353 2603 823 3093 
Q 1294 3584 2113 3584 
Q 2378 3584 2631 3529 
Q 2884 3475 3122 3366 
z
" transform="scale(0.015625)"/>
       <path id="DejaVuSans-65" d="M 3597 1894 
L 3597 1613 
L 953 1613 
Q 991 1019 1311 708 
Q 1631 397 2203 397 
Q 2534 397 2845 478 
Q 3156 559 3463 722 
L 3463 178 
Q 3153 47 2828 -22 
Q 2503 -91 2169 -91 
Q 1331 -91 842 396 
Q 353 884 353 1716 
Q 353 2575 817 3079 
Q 1281 3584 2069 3584 
Q 2775 3584 3186 3129 
Q 3597 2675 3597 1894 
z
M 3022 2063 
Q 3016 2534 2758 2815 
Q 2500 3097 2075 3097 
Q 1594 3097 1305 2825 
Q 1016 2553 972 2059 
L 3022 2063 
z
" transform="scale(0.015625)"/>
       <path id="DejaVuSans-64" d="M 2906 2969 
L 2906 4863 
L 3481 4863 
L 3481 0 
L 2906 0 
L 2906 525 
Q 2725 213 2448 61 
Q 2172 -91 1784 -91 
Q 1150 -91 751 415 
Q 353 922 353 1747 
Q 353 2572 751 3078 
Q 1150 3584 1784 3584 
Q 2172 3584 2448 3432 
Q 2725 3281 2906 2969 
z
M 947 1747 
Q 947 1113 1208 752 
Q 1469 391 1925 391 
Q 2381 391 2643 752 
Q 2906 1113 2906 1747 
Q 2906 2381 2643 2742 
Q 2381 3103 1925 3103 
Q 1469 3103 1208 2742 
Q 947 2381 947 1747 
z
" transform="scale(0.015625)"/>
       <path id="DejaVuSans-6e" d="M 3513 2113 
L 3513 0 
L 2938 0 
L 2938 2094 
Q 2938 2591 2744 2837 
Q 2550 3084 2163 3084 
Q 1697 3084 1428 2787 
Q 1159 2491 1159 1978 
L 1159 0 
L 581 0 
L 581 3500 
L 1159 3500 
L 1159 2956 
Q 1366 3272 1645 3428 
Q 1925 3584 2291 3584 
Q 2894 3584 3203 3211 
Q 3513 2838 3513 2113 
z
" transform="scale(0.015625)"/>
       <path id="DejaVuSans-20" transform="scale(0.015625)"/>
       <path id="DejaVuSans-50" d="M 1259 4147 
L 1259 2394 
L 2053 2394 
Q 2494 2394 2734 2622 
Q 2975 2850 2975 3272 
Q 2975 3691 2734 3919 
Q 2494 4147 2053 4147 
L 1259 4147 
z
M 628 4666 
L 2053 4666 
Q 2838 4666 3239 4311 
Q 3641 3956 3641 3272 
Q 3641 2581 3239 2228 
Q 2838 1875 2053 1875 
L 1259 1875 
L 1259 0 
L 628 0 
L 628 4666 
z
" transform="scale(0.015625)"/>
       <path id="DejaVuSans-72" d="M 2631 2963 
Q 2534 3019 2420 3045 
Q 2306 3072 2169 3072 
Q 1681 3072 1420 2755 
Q 1159 2438 1159 1844 
L 1159 0 
L 581 0 
L 581 3500 
L 1159 3500 
L 1159 2956 
Q 1341 3275 1631 3429 
Q 1922 3584 2338 3584 
Q 2397 3584 2469 3576 
Q 2541 3569 2628 3553 
L 2631 2963 
z
" transform="scale(0.015625)"/>
       <path id="DejaVuSans-6f" d="M 1959 3097 
Q 1497 3097 1228 2736 
Q 959 2375 959 1747 
Q 959 1119 1226 758 
Q 1494 397 1959 397 
Q 2419 397 2687 759 
Q 2956 1122 2956 1747 
Q 2956 2369 2687 2733 
Q 2419 3097 1959 3097 
z
M 1959 3584 
Q 2709 3584 3137 3096 
Q 3566 2609 3566 1747 
Q 3566 888 3137 398 
Q 2709 -91 1959 -91 
Q 1206 -91 779 398 
Q 353 888 353 1747 
Q 353 2609 779 3096 
Q 1206 3584 1959 3584 
z
" transform="scale(0.015625)"/>
       <path id="DejaVuSans-62" d="M 3116 1747 
Q 3116 2381 2855 2742 
Q 2594 3103 2138 3103 
Q 1681 3103 1420 2742 
Q 1159 2381 1159 1747 
Q 1159 1113 1420 752 
Q 1681 391 2138 391 
Q 2594 391 2855 752 
Q 3116 1113 3116 1747 
z
M 1159 2969 
Q 1341 3281 1617 3432 
Q 1894 3584 2278 3584 
Q 2916 3584 3314 3078 
Q 3713 2572 3713 1747 
Q 3713 922 3314 415 
Q 2916 -91 2278 -91 
Q 1894 -91 1617 61 
Q 1341 213 1159 525 
L 1159 0 
L 581 0 
L 581 4863 
L 1159 4863 
L 1159 2969 
z
" transform="scale(0.015625)"/>
       <path id="DejaVuSans-61" d="M 2194 1759 
Q 1497 1759 1228 1600 
Q 959 1441 959 1056 
Q 959 750 1161 570 
Q 1363 391 1709 391 
Q 2188 391 2477 730 
Q 2766 1069 2766 1631 
L 2766 1759 
L 2194 1759 
z
M 3341 1997 
L 3341 0 
L 2766 0 
L 2766 531 
Q 2569 213 2275 61 
Q 1981 -91 1556 -91 
Q 1019 -91 701 211 
Q 384 513 384 1019 
Q 384 1609 779 1909 
Q 1175 2209 1959 2209 
L 2766 2209 
L 2766 2266 
Q 2766 2663 2505 2880 
Q 2244 3097 1772 3097 
Q 1472 3097 1187 3025 
Q 903 2953 641 2809 
L 641 3341 
Q 956 3463 1253 3523 
Q 1550 3584 1831 3584 
Q 2591 3584 2966 3190 
Q 3341 2797 3341 1997 
z
" transform="scale(0.015625)"/>
       <path id="DejaVuSans-69" d="M 603 3500 
L 1178 3500 
L 1178 0 
L 603 0 
L 603 3500 
z
M 603 4863 
L 1178 4863 
L 1178 4134 
L 603 4134 
L 603 4863 
z
" transform="scale(0.015625)"/>
       <path id="DejaVuSans-6c" d="M 603 4863 
L 1178 4863 
L 1178 0 
L 603 0 
L 603 4863 
z
" transform="scale(0.015625)"/>
       <path id="DejaVuSans-74" d="M 1172 4494 
L 1172 3500 
L 2356 3500 
L 2356 3053 
L 1172 3053 
L 1172 1153 
Q 1172 725 1289 603 
Q 1406 481 1766 481 
L 2356 481 
L 2356 0 
L 1766 0 
Q 1100 0 847 248 
Q 594 497 594 1153 
L 594 3053 
L 172 3053 
L 172 3500 
L 594 3500 
L 594 4494 
L 1172 4494 
z
" transform="scale(0.015625)"/>
       <path id="DejaVuSans-79" d="M 2059 -325 
Q 1816 -950 1584 -1140 
Q 1353 -1331 966 -1331 
L 506 -1331 
L 506 -850 
L 844 -850 
Q 1081 -850 1212 -737 
Q 1344 -625 1503 -206 
L 1606 56 
L 191 3500 
L 800 3500 
L 1894 763 
L 2988 3500 
L 3597 3500 
L 2059 -325 
z
" transform="scale(0.015625)"/>
      </defs>
      <use xlink:href="#DejaVuSans-45"/>
      <use xlink:href="#DejaVuSans-78" x="63.183594"/>
      <use xlink:href="#DejaVuSans-63" x="120.613281"/>
      <use xlink:href="#DejaVuSans-65" x="175.59375"/>
      <use xlink:href="#DejaVuSans-65" x="237.117188"/>
      <use xlink:href="#DejaVuSans-64" x="298.640625"/>
      <use xlink:href="#DejaVuSans-65" x="362.117188"/>
      <use xlink:href="#DejaVuSans-6e" x="423.640625"/>
      <use xlink:href="#DejaVuSans-63" x="487.019531"/>
      <use xlink:href="#DejaVuSans-65" x="542"/>
      <use xlink:href="#DejaVuSans-20" x="603.523438"/>
      <use xlink:href="#DejaVuSans-50" x="635.310547"/>
      <use xlink:href="#DejaVuSans-72" x="693.863281"/>
      <use xlink:href="#DejaVuSans-6f" x="732.726562"/>
      <use xlink:href="#DejaVuSans-62" x="793.908203"/>
      <use xlink:href="#DejaVuSans-61" x="857.384766"/>
      <use xlink:href="#DejaVuSans-62" x="918.664062"/>
      <use xlink:href="#DejaVuSans-69" x="982.140625"/>
      <use xlink:href="#DejaVuSans-6c" x="1009.923828"/>
      <use xlink:href="#DejaVuSans-69" x="1037.707031"/>
      <use xlink:href="#DejaVuSans-74" x="1065.490234"/>
      <use xlink:href="#DejaVuSans-79" x="1104.699219"/>
     </g>
    </g>
   </g>
   <g id="matplotlib.axis_2">
    <g id="ytick_1">
     <g id="line2d_6">
      <defs>
       <path id="mb8464c13e2" d="M 0 0 
L -3.5 0 
" style="stroke: #000000; stroke-width: 0.8"/>
      </defs>
      <g>
       <use xlink:href="#mb8464c13e2" x="62.86875" y="153.558433" style="stroke: #000000; stroke-width: 0.8"/>
      </g>
     </g>
     <g id="text_7">
      <!-- 0.0000 -->
      <g transform="translate(20.878125 157.357651) scale(0.1 -0.1)">
       <defs>
        <path id="DejaVuSans-2e" d="M 684 794 
L 1344 794 
L 1344 0 
L 684 0 
L 684 794 
z
" transform="scale(0.015625)"/>
       </defs>
       <use xlink:href="#DejaVuSans-30"/>
       <use xlink:href="#DejaVuSans-2e" x="63.623047"/>
       <use xlink:href="#DejaVuSans-30" x="95.410156"/>
       <use xlink:href="#DejaVuSans-30" x="159.033203"/>
       <use xlink:href="#DejaVuSans-30" x="222.65625"/>
       <use xlink:href="#DejaVuSans-30" x="286.279297"/>
      </g>
     </g>
    </g>
    <g id="ytick_2">
     <g id="line2d_7">
      <g>
       <use xlink:href="#mb8464c13e2" x="62.86875" y="128.467967" style="stroke: #000000; stroke-width: 0.8"/>
      </g>
     </g>
     <g id="text_8">
      <!-- 0.0001 -->
      <g transform="translate(20.878125 132.267185) scale(0.1 -0.1)">
       <use xlink:href="#DejaVuSans-30"/>
       <use xlink:href="#DejaVuSans-2e" x="63.623047"/>
       <use xlink:href="#DejaVuSans-30" x="95.410156"/>
       <use xlink:href="#DejaVuSans-30" x="159.033203"/>
       <use xlink:href="#DejaVuSans-30" x="222.65625"/>
       <use xlink:href="#DejaVuSans-31" x="286.279297"/>
      </g>
     </g>
    </g>
    <g id="ytick_3">
     <g id="line2d_8">
      <g>
       <use xlink:href="#mb8464c13e2" x="62.86875" y="103.377501" style="stroke: #000000; stroke-width: 0.8"/>
      </g>
     </g>
     <g id="text_9">
      <!-- 0.0002 -->
      <g transform="translate(20.878125 107.17672) scale(0.1 -0.1)">
       <use xlink:href="#DejaVuSans-30"/>
       <use xlink:href="#DejaVuSans-2e" x="63.623047"/>
       <use xlink:href="#DejaVuSans-30" x="95.410156"/>
       <use xlink:href="#DejaVuSans-30" x="159.033203"/>
       <use xlink:href="#DejaVuSans-30" x="222.65625"/>
       <use xlink:href="#DejaVuSans-32" x="286.279297"/>
      </g>
     </g>
    </g>
    <g id="ytick_4">
     <g id="line2d_9">
      <g>
       <use xlink:href="#mb8464c13e2" x="62.86875" y="78.287035" style="stroke: #000000; stroke-width: 0.8"/>
      </g>
     </g>
     <g id="text_10">
      <!-- 0.0003 -->
      <g transform="translate(20.878125 82.086254) scale(0.1 -0.1)">
       <use xlink:href="#DejaVuSans-30"/>
       <use xlink:href="#DejaVuSans-2e" x="63.623047"/>
       <use xlink:href="#DejaVuSans-30" x="95.410156"/>
       <use xlink:href="#DejaVuSans-30" x="159.033203"/>
       <use xlink:href="#DejaVuSans-30" x="222.65625"/>
       <use xlink:href="#DejaVuSans-33" x="286.279297"/>
      </g>
     </g>
    </g>
    <g id="ytick_5">
     <g id="line2d_10">
      <g>
       <use xlink:href="#mb8464c13e2" x="62.86875" y="53.196569" style="stroke: #000000; stroke-width: 0.8"/>
      </g>
     </g>
     <g id="text_11">
      <!-- 0.0004 -->
      <g transform="translate(20.878125 56.995788) scale(0.1 -0.1)">
       <use xlink:href="#DejaVuSans-30"/>
       <use xlink:href="#DejaVuSans-2e" x="63.623047"/>
       <use xlink:href="#DejaVuSans-30" x="95.410156"/>
       <use xlink:href="#DejaVuSans-30" x="159.033203"/>
       <use xlink:href="#DejaVuSans-30" x="222.65625"/>
       <use xlink:href="#DejaVuSans-34" x="286.279297"/>
      </g>
     </g>
    </g>
    <g id="ytick_6">
     <g id="line2d_11">
      <g>
       <use xlink:href="#mb8464c13e2" x="62.86875" y="28.106103" style="stroke: #000000; stroke-width: 0.8"/>
      </g>
     </g>
     <g id="text_12">
      <!-- 0.0005 -->
      <g transform="translate(20.878125 31.905322) scale(0.1 -0.1)">
       <defs>
        <path id="DejaVuSans-35" d="M 691 4666 
L 3169 4666 
L 3169 4134 
L 1269 4134 
L 1269 2991 
Q 1406 3038 1543 3061 
Q 1681 3084 1819 3084 
Q 2600 3084 3056 2656 
Q 3513 2228 3513 1497 
Q 3513 744 3044 326 
Q 2575 -91 1722 -91 
Q 1428 -91 1123 -41 
Q 819 9 494 109 
L 494 744 
Q 775 591 1075 516 
Q 1375 441 1709 441 
Q 2250 441 2565 725 
Q 2881 1009 2881 1497 
Q 2881 1984 2565 2268 
Q 2250 2553 1709 2553 
Q 1456 2553 1204 2497 
Q 953 2441 691 2322 
L 691 4666 
z
" transform="scale(0.015625)"/>
       </defs>
       <use xlink:href="#DejaVuSans-30"/>
       <use xlink:href="#DejaVuSans-2e" x="63.623047"/>
       <use xlink:href="#DejaVuSans-30" x="95.410156"/>
       <use xlink:href="#DejaVuSans-30" x="159.033203"/>
       <use xlink:href="#DejaVuSans-30" x="222.65625"/>
       <use xlink:href="#DejaVuSans-35" x="286.279297"/>
      </g>
     </g>
    </g>
    <g id="text_13">
     <!-- Flow [mm/s] -->
     <g transform="translate(14.798437 121.293594) rotate(-90) scale(0.1 -0.1)">
      <defs>
       <path id="DejaVuSans-46" d="M 628 4666 
L 3309 4666 
L 3309 4134 
L 1259 4134 
L 1259 2759 
L 3109 2759 
L 3109 2228 
L 1259 2228 
L 1259 0 
L 628 0 
L 628 4666 
z
" transform="scale(0.015625)"/>
       <path id="DejaVuSans-77" d="M 269 3500 
L 844 3500 
L 1563 769 
L 2278 3500 
L 2956 3500 
L 3675 769 
L 4391 3500 
L 4966 3500 
L 4050 0 
L 3372 0 
L 2619 2869 
L 1863 0 
L 1184 0 
L 269 3500 
z
" transform="scale(0.015625)"/>
       <path id="DejaVuSans-5b" d="M 550 4863 
L 1875 4863 
L 1875 4416 
L 1125 4416 
L 1125 -397 
L 1875 -397 
L 1875 -844 
L 550 -844 
L 550 4863 
z
" transform="scale(0.015625)"/>
       <path id="DejaVuSans-6d" d="M 3328 2828 
Q 3544 3216 3844 3400 
Q 4144 3584 4550 3584 
Q 5097 3584 5394 3201 
Q 5691 2819 5691 2113 
L 5691 0 
L 5113 0 
L 5113 2094 
Q 5113 2597 4934 2840 
Q 4756 3084 4391 3084 
Q 3944 3084 3684 2787 
Q 3425 2491 3425 1978 
L 3425 0 
L 2847 0 
L 2847 2094 
Q 2847 2600 2669 2842 
Q 2491 3084 2119 3084 
Q 1678 3084 1418 2786 
Q 1159 2488 1159 1978 
L 1159 0 
L 581 0 
L 581 3500 
L 1159 3500 
L 1159 2956 
Q 1356 3278 1631 3431 
Q 1906 3584 2284 3584 
Q 2666 3584 2933 3390 
Q 3200 3197 3328 2828 
z
" transform="scale(0.015625)"/>
       <path id="DejaVuSans-2f" d="M 1625 4666 
L 2156 4666 
L 531 -594 
L 0 -594 
L 1625 4666 
z
" transform="scale(0.015625)"/>
       <path id="DejaVuSans-73" d="M 2834 3397 
L 2834 2853 
Q 2591 2978 2328 3040 
Q 2066 3103 1784 3103 
Q 1356 3103 1142 2972 
Q 928 2841 928 2578 
Q 928 2378 1081 2264 
Q 1234 2150 1697 2047 
L 1894 2003 
Q 2506 1872 2764 1633 
Q 3022 1394 3022 966 
Q 3022 478 2636 193 
Q 2250 -91 1575 -91 
Q 1294 -91 989 -36 
Q 684 19 347 128 
L 347 722 
Q 666 556 975 473 
Q 1284 391 1588 391 
Q 1994 391 2212 530 
Q 2431 669 2431 922 
Q 2431 1156 2273 1281 
Q 2116 1406 1581 1522 
L 1381 1569 
Q 847 1681 609 1914 
Q 372 2147 372 2553 
Q 372 3047 722 3315 
Q 1072 3584 1716 3584 
Q 2034 3584 2315 3537 
Q 2597 3491 2834 3397 
z
" transform="scale(0.015625)"/>
       <path id="DejaVuSans-5d" d="M 1947 4863 
L 1947 -844 
L 622 -844 
L 622 -397 
L 1369 -397 
L 1369 4416 
L 622 4416 
L 622 4863 
L 1947 4863 
z
" transform="scale(0.015625)"/>
      </defs>
      <use xlink:href="#DejaVuSans-46"/>
      <use xlink:href="#DejaVuSans-6c" x="57.519531"/>
      <use xlink:href="#DejaVuSans-6f" x="85.302734"/>
      <use xlink:href="#DejaVuSans-77" x="146.484375"/>
      <use xlink:href="#DejaVuSans-20" x="228.271484"/>
      <use xlink:href="#DejaVuSans-5b" x="260.058594"/>
      <use xlink:href="#DejaVuSans-6d" x="299.072266"/>
      <use xlink:href="#DejaVuSans-6d" x="396.484375"/>
      <use xlink:href="#DejaVuSans-2f" x="493.896484"/>
      <use xlink:href="#DejaVuSans-73" x="527.587891"/>
      <use xlink:href="#DejaVuSans-5d" x="579.6875"/>
     </g>
    </g>
   </g>
   <g id="line2d_12">
    <path d="M 63.059672 118.612989 
L 63.632436 130.433677 
L 63.823358 132.477214 
L 64.014279 132.632577 
L 64.205201 133.796496 
L 64.777965 134.158624 
L 65.159808 134.624133 
L 65.35073 134.649979 
L 65.541651 134.857033 
L 65.732573 135.969261 
L 65.923495 136.228006 
L 66.114416 136.279697 
L 66.305338 136.460616 
L 66.496259 136.486461 
L 67.069024 138.167871 
L 67.641788 138.917971 
L 67.83271 139.073335 
L 68.023631 139.073335 
L 68.405474 139.254253 
L 68.978239 139.435462 
L 69.169161 139.56469 
L 69.360082 139.849281 
L 69.932847 140.159717 
L 70.123768 140.599381 
L 71.078376 140.935663 
L 71.651141 141.427018 
L 72.605748 141.5304 
L 72.987591 141.7633 
L 73.178513 141.7633 
L 73.560356 142.022045 
L 75.469571 142.332482 
L 75.660493 142.668764 
L 77.951551 143.393019 
L 78.524316 143.936065 
L 79.09708 143.987756 
L 79.669845 144.272347 
L 81.006296 144.66032 
L 81.388139 144.867374 
L 83.106432 145.462111 
L 83.679197 145.64332 
L 84.251962 146.134675 
L 84.824726 146.238347 
L 85.206569 146.367575 
L 85.779334 146.522648 
L 86.161177 146.62632 
L 87.688549 146.833084 
L 88.070392 147.040139 
L 89.215922 147.272748 
L 89.597765 147.505648 
L 94.179881 148.204057 
L 94.561724 148.307439 
L 106.398859 149.807931 
L 107.544389 149.885467 
L 108.498996 150.066386 
L 110.408212 150.170058 
L 111.553741 150.402668 
L 113.272035 150.480204 
L 114.226642 150.635568 
L 115.754015 150.73895 
L 117.66323 150.894313 
L 118.808759 150.997695 
L 119.381524 151.075231 
L 121.672582 151.178613 
L 126.827464 151.773641 
L 129.309443 151.877023 
L 131.027737 152.006541 
L 133.700639 152.109923 
L 135.037089 152.187459 
L 139.237363 152.290841 
L 140.191971 152.316977 
L 144.010401 152.420359 
L 144.965009 152.446205 
L 147.828832 152.549587 
L 149.165283 152.627123 
L 154.702007 152.730796 
L 155.847536 152.782487 
L 161.575182 152.885869 
L 162.52979 152.911714 
L 169.021122 153.015096 
L 169.97573 153.041232 
L 177.42167 153.144614 
L 178.376277 153.17046 
L 189.449726 153.273842 
L 190.404334 153.299687 
L 207.587272 153.40336 
L 208.54188 153.429205 
L 230.306934 153.480896 
L 230.306934 153.480896 
" clip-path="url(#p473e649c75)" style="fill: none; stroke: #000000; stroke-width: 1.5; stroke-linecap: square"/>
   </g>
   <g id="line2d_13">
    <path d="M 63.059846 14.76 
L 63.824229 53.329349 
L 64.015325 56.07395 
L 64.206421 63.546081 
L 64.397517 65.268588 
L 64.779709 71.529846 
L 64.970805 72.733212 
L 65.161901 75.454839 
L 65.735188 78.11009 
L 65.926284 78.383473 
L 66.11738 79.562909 
L 66.308476 79.941306 
L 66.499572 81.31675 
L 66.881764 82.102126 
L 67.07286 83.680683 
L 67.263955 83.929567 
L 67.455051 88.915845 
L 67.646147 89.02898 
L 67.837243 89.733855 
L 68.219435 89.961584 
L 68.410531 91.099105 
L 68.601627 91.282597 
L 68.983818 92.687831 
L 69.174914 93.120509 
L 69.36601 94.305671 
L 69.557106 94.367298 
L 69.748202 95.981078 
L 70.130394 96.842803 
L 70.32149 96.970899 
L 70.512586 97.232858 
L 70.703682 99.558311 
L 70.894777 100.44746 
L 71.085873 102.323808 
L 71.468065 103.016532 
L 71.850257 103.092676 
L 72.423545 104.738692 
L 72.805736 106.225664 
L 73.187928 108.855123 
L 73.379024 109.169486 
L 73.952312 111.927355 
L 74.143408 112.337977 
L 74.334503 113.509626 
L 74.525599 113.671269 
L 75.098887 116.000907 
L 75.289983 116.078658 
L 75.481079 117.23258 
L 75.672175 117.372079 
L 76.245462 118.395042 
L 76.436558 119.095893 
L 77.200942 119.881707 
L 77.392038 120.646435 
L 77.583134 120.786756 
L 77.965325 122.021306 
L 79.111901 123.305453 
L 79.302997 123.910988 
L 79.494092 124.06337 
L 79.685188 124.576219 
L 79.876284 125.52985 
L 80.06738 125.63359 
L 80.258476 125.894736 
L 81.02286 128.352275 
L 81.213955 128.723902 
L 81.405051 128.749607 
L 81.596147 130.10445 
L 81.787243 130.198604 
L 82.169435 131.19687 
L 82.742723 131.353528 
L 83.124914 132.769591 
L 83.31601 132.792842 
L 83.507106 133.830025 
L 84.080394 133.984841 
L 84.844777 134.091601 
L 85.035873 134.520039 
L 85.609161 134.656905 
L 86.373545 136.461753 
L 86.946832 137.116628 
L 88.284503 137.916814 
L 88.475599 138.489174 
L 88.666695 138.681508 
L 88.857791 139.159653 
L 89.239983 139.374717 
L 89.622175 140.350366 
L 89.813271 140.420216 
L 90.195462 141.159035 
L 91.342038 141.851371 
L 91.533134 141.870535 
L 91.915325 142.094507 
L 92.870805 142.35812 
L 93.061901 142.674774 
L 93.826284 142.939508 
L 94.01738 143.378726 
L 94.208476 143.462243 
L 94.97286 144.427462 
L 95.355051 144.561108 
L 95.737243 144.670197 
L 96.501627 144.802029 
L 98.603682 145.298256 
L 101.852312 145.418244 
L 107.585188 145.879059 
L 107.776284 145.947492 
L 107.96738 146.271486 
L 108.349572 146.276154 
L 109.113955 146.676938 
L 110.069435 146.97341 
L 110.451627 147.09436 
L 112.362586 147.547056 
L 112.744777 147.77723 
L 113.126969 147.796227 
L 113.700257 148.146986 
L 113.891353 148.153339 
L 114.273545 148.285354 
L 118.286558 149.006811 
L 119.242038 149.35692 
L 127.841353 150.8312 
L 129.37012 150.967827 
L 129.943408 151.070277 
L 131.089983 151.21221 
L 133.192038 151.332291 
L 134.720805 151.480905 
L 136.249572 151.587491 
L 137.013955 151.642959 
L 155.550257 152.191015 
L 210.012586 152.376552 
L 227.402312 152.457907 
L 230.459846 152.461239 
L 230.459846 152.461239 
" clip-path="url(#p473e649c75)" style="fill: none; stroke: #8da0cb; stroke-width: 1.5; stroke-linecap: square"/>
   </g>
   <g id="line2d_14">
    <path d="M 63.059846 109.755856 
L 63.250942 118.432006 
L 63.442038 120.3427 
L 63.633134 124.21273 
L 63.824229 124.571146 
L 64.015325 125.365357 
L 64.206421 128.831331 
L 64.397517 129.131524 
L 64.588613 129.211428 
L 64.779709 129.704622 
L 65.161901 131.383986 
L 65.926284 132.586329 
L 66.11738 133.170596 
L 66.308476 133.318754 
L 66.499572 133.752221 
L 66.690668 133.762386 
L 66.881764 134.287632 
L 67.455051 134.44892 
L 68.028339 135.07514 
L 68.410531 135.230531 
L 68.601627 135.345942 
L 68.792723 136.647892 
L 68.983818 136.649464 
L 69.36601 137.145247 
L 69.748202 137.397912 
L 70.130394 137.769175 
L 70.512586 137.906257 
L 70.703682 138.626923 
L 71.085873 138.699093 
L 71.468065 139.021603 
L 72.232449 139.180361 
L 72.61464 139.292664 
L 72.996832 139.920041 
L 73.379024 140.046973 
L 73.57012 140.351161 
L 73.952312 140.424969 
L 74.334503 140.635043 
L 75.863271 141.083038 
L 76.245462 141.247105 
L 76.436558 141.294258 
L 76.627654 141.661858 
L 77.583134 141.852198 
L 78.156421 142.091369 
L 78.538613 142.302532 
L 78.729709 142.363072 
L 79.111901 142.764153 
L 79.494092 142.784894 
L 79.876284 142.945913 
L 81.213955 143.303395 
L 81.405051 143.483322 
L 81.787243 143.517268 
L 82.360531 143.865966 
L 83.31601 144.052037 
L 83.507106 144.233549 
L 84.080394 144.321458 
L 84.653682 144.636929 
L 85.226969 144.700637 
L 85.800257 144.791298 
L 86.182449 144.91204 
L 86.755736 145.093154 
L 86.946832 145.094506 
L 87.52012 145.366918 
L 93.061901 146.378745 
L 93.826284 146.478272 
L 94.781764 146.659848 
L 95.737243 146.817417 
L 97.074914 147.038888 
L 98.22149 147.194772 
L 98.794777 147.239089 
L 99.176969 147.4354 
L 104.336558 148.059989 
L 104.527654 148.060313 
L 104.909846 148.184037 
L 108.92286 148.689313 
L 109.305051 148.785062 
L 115.993408 149.247589 
L 116.566695 149.313385 
L 117.139983 149.428989 
L 121.344092 149.827768 
L 124.974914 150.024068 
L 135.294092 150.511835 
L 137.778339 150.64117 
L 139.307106 150.716188 
L 143.702312 150.864224 
L 150.963955 151.060614 
L 153.06601 151.115582 
L 158.034503 151.194513 
L 175.042038 151.341031 
L 191.285188 151.480311 
L 195.107106 151.511184 
L 212.879024 151.650946 
L 230.459846 151.776694 
L 230.459846 151.776694 
" clip-path="url(#p473e649c75)" style="fill: none; stroke: #e78ac3; stroke-width: 1.5; stroke-linecap: square"/>
   </g>
   <g id="line2d_15">
    <path d="M 63.059846 120.63719 
L 63.633134 130.454074 
L 63.824229 131.929647 
L 65.544092 136.764382 
L 65.735188 136.914179 
L 66.308476 137.929259 
L 66.690668 138.175134 
L 66.881764 139.233636 
L 67.07286 139.254993 
L 67.455051 139.78132 
L 68.219435 139.92118 
L 68.410531 140.129813 
L 68.792723 140.215415 
L 69.174914 140.821271 
L 69.557106 141.354592 
L 70.703682 141.558596 
L 71.085873 141.978434 
L 72.232449 142.313713 
L 72.61464 142.896266 
L 73.379024 143.144115 
L 73.761216 143.222746 
L 75.672175 143.952987 
L 76.245462 144.048695 
L 78.347517 144.46492 
L 78.920805 144.589078 
L 81.596147 145.247897 
L 82.551627 145.389341 
L 89.431079 146.359392 
L 90.959846 146.457542 
L 92.870805 146.581713 
L 94.590668 146.755936 
L 102.425599 147.369283 
L 139.880394 147.61602 
L 141.982449 147.759453 
L 143.129024 147.874966 
L 143.893408 147.935167 
L 146.950942 148.086983 
L 148.479709 148.20414 
L 149.81738 148.292619 
L 151.346147 148.395193 
L 152.874914 148.547494 
L 155.168065 148.6892 
L 158.798887 148.958724 
L 161.474229 149.067299 
L 163.76738 149.132652 
L 176.188613 149.59788 
L 178.67286 149.66292 
L 183.450257 149.760346 
L 230.459846 150.11246 
L 230.459846 150.11246 
" clip-path="url(#p473e649c75)" style="fill: none; stroke: #fc8d62; stroke-width: 1.5; stroke-linecap: square"/>
   </g>
   <g id="line2d_16">
    <path d="M 63.250942 153.558433 
L 230.650942 153.558433 
L 230.650942 153.558433 
" clip-path="url(#p473e649c75)" style="fill: none; stroke: #a6d854; stroke-width: 1.5; stroke-linecap: square"/>
   </g>
   <g id="patch_3">
    <path d="M 62.86875 173.52 
L 62.86875 7.2 
" style="fill: none; stroke: #000000; stroke-width: 0.8; stroke-linejoin: miter; stroke-linecap: square"/>
   </g>
   <g id="patch_4">
    <path d="M 230.26875 173.52 
L 230.26875 7.2 
" style="fill: none; stroke: #000000; stroke-width: 0.8; stroke-linejoin: miter; stroke-linecap: square"/>
   </g>
   <g id="patch_5">
    <path d="M 62.86875 173.52 
L 230.26875 173.52 
" style="fill: none; stroke: #000000; stroke-width: 0.8; stroke-linejoin: miter; stroke-linecap: square"/>
   </g>
   <g id="patch_6">
    <path d="M 62.86875 7.2 
L 230.26875 7.2 
" style="fill: none; stroke: #000000; stroke-width: 0.8; stroke-linejoin: miter; stroke-linecap: square"/>
   </g>
   <g id="legend_1">
    <g id="patch_7">
     <path d="M 114.221875 88.590625 
L 223.26875 88.590625 
Q 225.26875 88.590625 225.26875 86.590625 
L 225.26875 14.2 
Q 225.26875 12.2 223.26875 12.2 
L 114.221875 12.2 
Q 112.221875 12.2 112.221875 14.2 
L 112.221875 86.590625 
Q 112.221875 88.590625 114.221875 88.590625 
z
" style="fill: #ffffff; opacity: 0.8; stroke: #cccccc; stroke-linejoin: miter"/>
    </g>
    <g id="line2d_17">
     <path d="M 116.221875 20.298438 
L 126.221875 20.298438 
L 136.221875 20.298438 
" style="fill: none; stroke: #000000; stroke-width: 1.5; stroke-linecap: square"/>
    </g>
    <g id="text_14">
     <!-- MEF Observed -->
     <g transform="translate(144.221875 23.798438) scale(0.1 -0.1)">
      <defs>
       <path id="DejaVuSans-4d" d="M 628 4666 
L 1569 4666 
L 2759 1491 
L 3956 4666 
L 4897 4666 
L 4897 0 
L 4281 0 
L 4281 4097 
L 3078 897 
L 2444 897 
L 1241 4097 
L 1241 0 
L 628 0 
L 628 4666 
z
" transform="scale(0.015625)"/>
       <path id="DejaVuSans-4f" d="M 2522 4238 
Q 1834 4238 1429 3725 
Q 1025 3213 1025 2328 
Q 1025 1447 1429 934 
Q 1834 422 2522 422 
Q 3209 422 3611 934 
Q 4013 1447 4013 2328 
Q 4013 3213 3611 3725 
Q 3209 4238 2522 4238 
z
M 2522 4750 
Q 3503 4750 4090 4092 
Q 4678 3434 4678 2328 
Q 4678 1225 4090 567 
Q 3503 -91 2522 -91 
Q 1538 -91 948 565 
Q 359 1222 359 2328 
Q 359 3434 948 4092 
Q 1538 4750 2522 4750 
z
" transform="scale(0.015625)"/>
       <path id="DejaVuSans-76" d="M 191 3500 
L 800 3500 
L 1894 563 
L 2988 3500 
L 3597 3500 
L 2284 0 
L 1503 0 
L 191 3500 
z
" transform="scale(0.015625)"/>
      </defs>
      <use xlink:href="#DejaVuSans-4d"/>
      <use xlink:href="#DejaVuSans-45" x="86.279297"/>
      <use xlink:href="#DejaVuSans-46" x="149.462891"/>
      <use xlink:href="#DejaVuSans-20" x="206.982422"/>
      <use xlink:href="#DejaVuSans-4f" x="238.769531"/>
      <use xlink:href="#DejaVuSans-62" x="317.480469"/>
      <use xlink:href="#DejaVuSans-73" x="380.957031"/>
      <use xlink:href="#DejaVuSans-65" x="433.056641"/>
      <use xlink:href="#DejaVuSans-72" x="494.580078"/>
      <use xlink:href="#DejaVuSans-76" x="535.693359"/>
      <use xlink:href="#DejaVuSans-65" x="594.873047"/>
      <use xlink:href="#DejaVuSans-64" x="656.396484"/>
     </g>
    </g>
    <g id="line2d_18">
     <path d="M 116.221875 34.976562 
L 126.221875 34.976562 
L 136.221875 34.976562 
" style="fill: none; stroke: #8da0cb; stroke-width: 1.5; stroke-linecap: square"/>
    </g>
    <g id="text_15">
     <!-- SPRUCE-Hollow -->
     <g transform="translate(144.221875 38.476562) scale(0.1 -0.1)">
      <defs>
       <path id="DejaVuSans-53" d="M 3425 4513 
L 3425 3897 
Q 3066 4069 2747 4153 
Q 2428 4238 2131 4238 
Q 1616 4238 1336 4038 
Q 1056 3838 1056 3469 
Q 1056 3159 1242 3001 
Q 1428 2844 1947 2747 
L 2328 2669 
Q 3034 2534 3370 2195 
Q 3706 1856 3706 1288 
Q 3706 609 3251 259 
Q 2797 -91 1919 -91 
Q 1588 -91 1214 -16 
Q 841 59 441 206 
L 441 856 
Q 825 641 1194 531 
Q 1563 422 1919 422 
Q 2459 422 2753 634 
Q 3047 847 3047 1241 
Q 3047 1584 2836 1778 
Q 2625 1972 2144 2069 
L 1759 2144 
Q 1053 2284 737 2584 
Q 422 2884 422 3419 
Q 422 4038 858 4394 
Q 1294 4750 2059 4750 
Q 2388 4750 2728 4690 
Q 3069 4631 3425 4513 
z
" transform="scale(0.015625)"/>
       <path id="DejaVuSans-52" d="M 2841 2188 
Q 3044 2119 3236 1894 
Q 3428 1669 3622 1275 
L 4263 0 
L 3584 0 
L 2988 1197 
Q 2756 1666 2539 1819 
Q 2322 1972 1947 1972 
L 1259 1972 
L 1259 0 
L 628 0 
L 628 4666 
L 2053 4666 
Q 2853 4666 3247 4331 
Q 3641 3997 3641 3322 
Q 3641 2881 3436 2590 
Q 3231 2300 2841 2188 
z
M 1259 4147 
L 1259 2491 
L 2053 2491 
Q 2509 2491 2742 2702 
Q 2975 2913 2975 3322 
Q 2975 3731 2742 3939 
Q 2509 4147 2053 4147 
L 1259 4147 
z
" transform="scale(0.015625)"/>
       <path id="DejaVuSans-55" d="M 556 4666 
L 1191 4666 
L 1191 1831 
Q 1191 1081 1462 751 
Q 1734 422 2344 422 
Q 2950 422 3222 751 
Q 3494 1081 3494 1831 
L 3494 4666 
L 4128 4666 
L 4128 1753 
Q 4128 841 3676 375 
Q 3225 -91 2344 -91 
Q 1459 -91 1007 375 
Q 556 841 556 1753 
L 556 4666 
z
" transform="scale(0.015625)"/>
       <path id="DejaVuSans-43" d="M 4122 4306 
L 4122 3641 
Q 3803 3938 3442 4084 
Q 3081 4231 2675 4231 
Q 1875 4231 1450 3742 
Q 1025 3253 1025 2328 
Q 1025 1406 1450 917 
Q 1875 428 2675 428 
Q 3081 428 3442 575 
Q 3803 722 4122 1019 
L 4122 359 
Q 3791 134 3420 21 
Q 3050 -91 2638 -91 
Q 1578 -91 968 557 
Q 359 1206 359 2328 
Q 359 3453 968 4101 
Q 1578 4750 2638 4750 
Q 3056 4750 3426 4639 
Q 3797 4528 4122 4306 
z
" transform="scale(0.015625)"/>
       <path id="DejaVuSans-2d" d="M 313 2009 
L 1997 2009 
L 1997 1497 
L 313 1497 
L 313 2009 
z
" transform="scale(0.015625)"/>
       <path id="DejaVuSans-48" d="M 628 4666 
L 1259 4666 
L 1259 2753 
L 3553 2753 
L 3553 4666 
L 4184 4666 
L 4184 0 
L 3553 0 
L 3553 2222 
L 1259 2222 
L 1259 0 
L 628 0 
L 628 4666 
z
" transform="scale(0.015625)"/>
      </defs>
      <use xlink:href="#DejaVuSans-53"/>
      <use xlink:href="#DejaVuSans-50" x="63.476562"/>
      <use xlink:href="#DejaVuSans-52" x="123.779297"/>
      <use xlink:href="#DejaVuSans-55" x="193.261719"/>
      <use xlink:href="#DejaVuSans-43" x="266.455078"/>
      <use xlink:href="#DejaVuSans-45" x="336.279297"/>
      <use xlink:href="#DejaVuSans-2d" x="399.462891"/>
      <use xlink:href="#DejaVuSans-48" x="435.546875"/>
      <use xlink:href="#DejaVuSans-6f" x="510.742188"/>
      <use xlink:href="#DejaVuSans-6c" x="571.923828"/>
      <use xlink:href="#DejaVuSans-6c" x="599.707031"/>
      <use xlink:href="#DejaVuSans-6f" x="627.490234"/>
      <use xlink:href="#DejaVuSans-77" x="688.671875"/>
     </g>
    </g>
    <g id="line2d_19">
     <path d="M 116.221875 49.654687 
L 126.221875 49.654687 
L 136.221875 49.654687 
" style="fill: none; stroke: #e78ac3; stroke-width: 1.5; stroke-linecap: square"/>
    </g>
    <g id="text_16">
     <!-- HILLSLOPE -->
     <g transform="translate(144.221875 53.154687) scale(0.1 -0.1)">
      <defs>
       <path id="DejaVuSans-49" d="M 628 4666 
L 1259 4666 
L 1259 0 
L 628 0 
L 628 4666 
z
" transform="scale(0.015625)"/>
       <path id="DejaVuSans-4c" d="M 628 4666 
L 1259 4666 
L 1259 531 
L 3531 531 
L 3531 0 
L 628 0 
L 628 4666 
z
" transform="scale(0.015625)"/>
      </defs>
      <use xlink:href="#DejaVuSans-48"/>
      <use xlink:href="#DejaVuSans-49" x="75.195312"/>
      <use xlink:href="#DejaVuSans-4c" x="104.6875"/>
      <use xlink:href="#DejaVuSans-4c" x="160.400391"/>
      <use xlink:href="#DejaVuSans-53" x="216.113281"/>
      <use xlink:href="#DejaVuSans-4c" x="279.589844"/>
      <use xlink:href="#DejaVuSans-4f" x="331.677734"/>
      <use xlink:href="#DejaVuSans-50" x="410.388672"/>
      <use xlink:href="#DejaVuSans-45" x="470.691406"/>
     </g>
    </g>
    <g id="line2d_20">
     <path d="M 116.221875 64.332813 
L 126.221875 64.332813 
L 136.221875 64.332813 
" style="fill: none; stroke: #fc8d62; stroke-width: 1.5; stroke-linecap: square"/>
    </g>
    <g id="text_17">
     <!-- CLM 5.0 -->
     <g transform="translate(144.221875 67.832813) scale(0.1 -0.1)">
      <use xlink:href="#DejaVuSans-43"/>
      <use xlink:href="#DejaVuSans-4c" x="69.824219"/>
      <use xlink:href="#DejaVuSans-4d" x="125.537109"/>
      <use xlink:href="#DejaVuSans-20" x="211.816406"/>
      <use xlink:href="#DejaVuSans-35" x="243.603516"/>
      <use xlink:href="#DejaVuSans-2e" x="307.226562"/>
      <use xlink:href="#DejaVuSans-30" x="339.013672"/>
     </g>
    </g>
    <g id="line2d_21">
     <path d="M 116.221875 79.010938 
L 126.221875 79.010938 
L 136.221875 79.010938 
" style="fill: none; stroke: #a6d854; stroke-width: 1.5; stroke-linecap: square"/>
    </g>
    <g id="text_18">
     <!-- Fenghui-Hollow -->
     <g transform="translate(144.221875 82.510938) scale(0.1 -0.1)">
      <defs>
       <path id="DejaVuSans-67" d="M 2906 1791 
Q 2906 2416 2648 2759 
Q 2391 3103 1925 3103 
Q 1463 3103 1205 2759 
Q 947 2416 947 1791 
Q 947 1169 1205 825 
Q 1463 481 1925 481 
Q 2391 481 2648 825 
Q 2906 1169 2906 1791 
z
M 3481 434 
Q 3481 -459 3084 -895 
Q 2688 -1331 1869 -1331 
Q 1566 -1331 1297 -1286 
Q 1028 -1241 775 -1147 
L 775 -588 
Q 1028 -725 1275 -790 
Q 1522 -856 1778 -856 
Q 2344 -856 2625 -561 
Q 2906 -266 2906 331 
L 2906 616 
Q 2728 306 2450 153 
Q 2172 0 1784 0 
Q 1141 0 747 490 
Q 353 981 353 1791 
Q 353 2603 747 3093 
Q 1141 3584 1784 3584 
Q 2172 3584 2450 3431 
Q 2728 3278 2906 2969 
L 2906 3500 
L 3481 3500 
L 3481 434 
z
" transform="scale(0.015625)"/>
       <path id="DejaVuSans-68" d="M 3513 2113 
L 3513 0 
L 2938 0 
L 2938 2094 
Q 2938 2591 2744 2837 
Q 2550 3084 2163 3084 
Q 1697 3084 1428 2787 
Q 1159 2491 1159 1978 
L 1159 0 
L 581 0 
L 581 4863 
L 1159 4863 
L 1159 2956 
Q 1366 3272 1645 3428 
Q 1925 3584 2291 3584 
Q 2894 3584 3203 3211 
Q 3513 2838 3513 2113 
z
" transform="scale(0.015625)"/>
       <path id="DejaVuSans-75" d="M 544 1381 
L 544 3500 
L 1119 3500 
L 1119 1403 
Q 1119 906 1312 657 
Q 1506 409 1894 409 
Q 2359 409 2629 706 
Q 2900 1003 2900 1516 
L 2900 3500 
L 3475 3500 
L 3475 0 
L 2900 0 
L 2900 538 
Q 2691 219 2414 64 
Q 2138 -91 1772 -91 
Q 1169 -91 856 284 
Q 544 659 544 1381 
z
M 1991 3584 
L 1991 3584 
z
" transform="scale(0.015625)"/>
      </defs>
      <use xlink:href="#DejaVuSans-46"/>
      <use xlink:href="#DejaVuSans-65" x="52.019531"/>
      <use xlink:href="#DejaVuSans-6e" x="113.542969"/>
      <use xlink:href="#DejaVuSans-67" x="176.921875"/>
      <use xlink:href="#DejaVuSans-68" x="240.398438"/>
      <use xlink:href="#DejaVuSans-75" x="303.777344"/>
      <use xlink:href="#DejaVuSans-69" x="367.15625"/>
      <use xlink:href="#DejaVuSans-2d" x="394.939453"/>
      <use xlink:href="#DejaVuSans-48" x="431.023438"/>
      <use xlink:href="#DejaVuSans-6f" x="506.21875"/>
      <use xlink:href="#DejaVuSans-6c" x="567.400391"/>
      <use xlink:href="#DejaVuSans-6c" x="595.183594"/>
      <use xlink:href="#DejaVuSans-6f" x="622.966797"/>
      <use xlink:href="#DejaVuSans-77" x="684.148438"/>
     </g>
    </g>
   </g>
  </g>
 </g>
 <defs>
  <clipPath id="p473e649c75">
   <rect x="62.86875" y="7.2" width="167.4" height="166.32"/>
  </clipPath>
 </defs>
</svg>
